G04 Layer_Color=65535*
%FSLAX43Y43*%
%MOMM*%
G71*
G01*
G75*
%ADD16C,0.250*%
%ADD25C,0.254*%
%ADD26C,0.150*%
%ADD27C,0.600*%
%ADD28C,0.200*%
%ADD29C,0.127*%
D16*
X9850Y14755D02*
G03*
X9850Y14755I-125J0D01*
G01*
D25*
X17646Y4738D02*
G03*
X19442Y2942I898J-898D01*
G01*
X22521Y2988D02*
G03*
X24317Y1192I898J-898D01*
G01*
X7068Y1294D02*
G03*
X8864Y3090I898J898D01*
G01*
X18752Y4530D02*
X19470Y5248D01*
X19560Y4440D02*
X20009Y4889D01*
X19111Y3991D02*
Y4889D01*
X20009D01*
X19111Y3991D02*
X19560Y4440D01*
X17915Y7522D02*
X22136Y3301D01*
X20699Y1864D02*
X22136Y3301D01*
X16478Y6085D02*
X20699Y1864D01*
X16478Y6085D02*
X17915Y7522D01*
X19013Y4987D02*
X19101Y4899D01*
X19560Y4440D02*
X19720Y4280D01*
X23627Y2780D02*
X24345Y3498D01*
X24435Y2690D02*
X24884Y3139D01*
X23986Y2241D02*
Y3139D01*
X24884D01*
X23986Y2241D02*
X24435Y2690D01*
X22790Y5772D02*
X27011Y1551D01*
X25574Y114D02*
X27011Y1551D01*
X21353Y4335D02*
X25574Y114D01*
X21353Y4335D02*
X22790Y5772D01*
X23888Y3237D02*
X23976Y3149D01*
X24435Y2690D02*
X24595Y2530D01*
X20000Y19500D02*
Y22000D01*
X10000D02*
X20000D01*
X10000Y19500D02*
Y22000D01*
Y19500D02*
X20000D01*
X4284Y1563D02*
X8505Y5784D01*
X9942Y4347D01*
X5721Y126D02*
X9942Y4347D01*
X4284Y1563D02*
X5721Y126D01*
D26*
X25229Y19428D02*
G03*
X29455Y15202I2298J-1928D01*
G01*
X572Y15229D02*
G03*
X4798Y19455I1928J2298D01*
G01*
X19875Y6475D02*
Y5875D01*
X20175D01*
X20275Y5975D01*
Y6375D01*
X20175Y6475D01*
X19875D01*
X20475Y5875D02*
X20675D01*
X20575D01*
Y6475D01*
X20475Y6375D01*
X25125Y4600D02*
Y4000D01*
X25425D01*
X25525Y4100D01*
Y4500D01*
X25425Y4600D01*
X25125D01*
X26125Y4000D02*
X25725D01*
X26125Y4400D01*
Y4500D01*
X26025Y4600D01*
X25825D01*
X25725Y4500D01*
X1750Y10600D02*
Y10000D01*
X2150D01*
X2350D02*
X2550D01*
X2450D01*
Y10600D01*
X2350Y10500D01*
X11250Y15600D02*
Y15100D01*
X11350Y15000D01*
X11550D01*
X11650Y15100D01*
Y15600D01*
X11850Y15000D02*
X12050D01*
X11950D01*
Y15600D01*
X11850Y15500D01*
X6250Y9625D02*
Y10225D01*
X6550D01*
X6650Y10125D01*
Y9925D01*
X6550Y9825D01*
X6250D01*
X6450D02*
X6650Y9625D01*
X7250Y10225D02*
X7050Y10125D01*
X6850Y9925D01*
Y9725D01*
X6950Y9625D01*
X7150D01*
X7250Y9725D01*
Y9825D01*
X7150Y9925D01*
X6850D01*
X18415Y11684D02*
Y12284D01*
X18715D01*
X18815Y12184D01*
Y11984D01*
X18715Y11884D01*
X18415D01*
X18615D02*
X18815Y11684D01*
X19415Y12284D02*
X19015D01*
Y11984D01*
X19215Y12084D01*
X19315D01*
X19415Y11984D01*
Y11784D01*
X19315Y11684D01*
X19115D01*
X19015Y11784D01*
X26875Y4375D02*
Y4975D01*
X27175D01*
X27275Y4875D01*
Y4675D01*
X27175Y4575D01*
X26875D01*
X27075D02*
X27275Y4375D01*
X27775D02*
Y4975D01*
X27475Y4675D01*
X27875D01*
X6625Y11205D02*
Y11804D01*
X6925D01*
X7025Y11704D01*
Y11505D01*
X6925Y11405D01*
X6625D01*
X6825D02*
X7025Y11205D01*
X7225Y11704D02*
X7325Y11804D01*
X7525D01*
X7625Y11704D01*
Y11604D01*
X7525Y11505D01*
X7425D01*
X7525D01*
X7625Y11405D01*
Y11305D01*
X7525Y11205D01*
X7325D01*
X7225Y11305D01*
X3650Y12250D02*
X4250D01*
Y12650D01*
X3650Y13250D02*
Y12850D01*
X4250D01*
Y13250D01*
X3950Y12850D02*
Y13050D01*
X3650Y13450D02*
X4250D01*
Y13750D01*
X4150Y13849D01*
X3750D01*
X3650Y13750D01*
Y13450D01*
X4250Y14049D02*
Y14249D01*
Y14149D01*
X3650D01*
X3750Y14049D01*
X4900Y10125D02*
X4800Y10225D01*
X4600D01*
X4500Y10125D01*
Y9725D01*
X4600Y9625D01*
X4800D01*
X4900Y9725D01*
X5100Y10125D02*
X5200Y10225D01*
X5400D01*
X5500Y10125D01*
Y10025D01*
X5400Y9925D01*
X5300D01*
X5400D01*
X5500Y9825D01*
Y9725D01*
X5400Y9625D01*
X5200D01*
X5100Y9725D01*
X11576Y16883D02*
X11476Y16983D01*
X11276D01*
X11176Y16883D01*
Y16483D01*
X11276Y16383D01*
X11476D01*
X11576Y16483D01*
X12176Y16383D02*
X11776D01*
X12176Y16783D01*
Y16883D01*
X12076Y16983D01*
X11876D01*
X11776Y16883D01*
X5400Y4100D02*
Y4500D01*
X5300Y4600D01*
X5100D01*
X5000Y4500D01*
Y4100D01*
X5100Y4000D01*
X5300D01*
X5200Y4200D02*
X5400Y4000D01*
X5300D02*
X5400Y4100D01*
X5600Y4000D02*
X5800D01*
X5700D01*
Y4600D01*
X5600Y4500D01*
X20891Y15482D02*
Y16082D01*
X21191D01*
X21291Y15982D01*
Y15782D01*
X21191Y15682D01*
X20891D01*
X21091D02*
X21291Y15482D01*
X21491D02*
X21691D01*
X21591D01*
Y16082D01*
X21491Y15982D01*
X22669Y15482D02*
Y16082D01*
X22969D01*
X23069Y15982D01*
Y15782D01*
X22969Y15682D01*
X22669D01*
X22869D02*
X23069Y15482D01*
X23669D02*
X23269D01*
X23669Y15882D01*
Y15982D01*
X23569Y16082D01*
X23369D01*
X23269Y15982D01*
X11775Y5500D02*
X11675Y5600D01*
X11475D01*
X11375Y5500D01*
Y5100D01*
X11475Y5000D01*
X11675D01*
X11775Y5100D01*
X11975Y5000D02*
X12175D01*
X12075D01*
Y5600D01*
X11975Y5500D01*
X25875Y13375D02*
Y13975D01*
X26175D01*
X26275Y13875D01*
Y13675D01*
X26175Y13575D01*
X25875D01*
X26075D02*
X26275Y13375D01*
X26875Y13875D02*
X26775Y13975D01*
X26575D01*
X26475Y13875D01*
Y13775D01*
X26575Y13675D01*
X26775D01*
X26875Y13575D01*
Y13475D01*
X26775Y13375D01*
X26575D01*
X26475Y13475D01*
X27075Y13975D02*
X27474D01*
X27275D01*
Y13375D01*
X26275Y11375D02*
X26175Y11475D01*
X25975D01*
X25875Y11375D01*
Y11275D01*
X25975Y11175D01*
X26175D01*
X26275Y11075D01*
Y10975D01*
X26175Y10875D01*
X25975D01*
X25875Y10975D01*
X26875Y11375D02*
X26775Y11475D01*
X26575D01*
X26475Y11375D01*
Y10975D01*
X26575Y10875D01*
X26775D01*
X26875Y10975D01*
X27075Y11475D02*
Y10875D01*
Y11075D01*
X27474Y11475D01*
X27175Y11175D01*
X27474Y10875D01*
X25875Y8375D02*
Y8975D01*
X26075Y8775D01*
X26275Y8975D01*
Y8375D01*
X26475Y8975D02*
X26675D01*
X26575D01*
Y8375D01*
X26475D01*
X26675D01*
X27375Y8875D02*
X27275Y8975D01*
X27075D01*
X26975Y8875D01*
Y8775D01*
X27075Y8675D01*
X27275D01*
X27375Y8575D01*
Y8475D01*
X27275Y8375D01*
X27075D01*
X26975Y8475D01*
X27874Y8975D02*
X27674D01*
X27574Y8875D01*
Y8475D01*
X27674Y8375D01*
X27874D01*
X27974Y8475D01*
Y8875D01*
X27874Y8975D01*
X11025Y18600D02*
X10625D01*
Y18300D01*
X10825Y18400D01*
X10925D01*
X11025Y18300D01*
Y18100D01*
X10925Y18000D01*
X10725D01*
X10625Y18100D01*
X11225Y18600D02*
Y18200D01*
X11425Y18000D01*
X11625Y18200D01*
Y18600D01*
X13275Y18500D02*
X13175Y18600D01*
X12975D01*
X12875Y18500D01*
Y18100D01*
X12975Y18000D01*
X13175D01*
X13275Y18100D01*
Y18300D01*
X13075D01*
X13475Y18000D02*
Y18600D01*
X13875Y18000D01*
Y18600D01*
X14075D02*
Y18000D01*
X14375D01*
X14474Y18100D01*
Y18500D01*
X14375Y18600D01*
X14075D01*
X18525Y18500D02*
X18425Y18600D01*
X18225D01*
X18125Y18500D01*
Y18400D01*
X18225Y18300D01*
X18425D01*
X18525Y18200D01*
Y18100D01*
X18425Y18000D01*
X18225D01*
X18125Y18100D01*
X18725Y18600D02*
X18925D01*
X18825D01*
Y18000D01*
X18725D01*
X18925D01*
X19625Y18500D02*
X19525Y18600D01*
X19325D01*
X19225Y18500D01*
Y18100D01*
X19325Y18000D01*
X19525D01*
X19625Y18100D01*
Y18300D01*
X19425D01*
X29500Y500D02*
X29033D01*
X28800Y733D01*
X29033Y967D01*
X29500D01*
X29150D01*
Y500D01*
X29033Y1200D02*
X29383D01*
X29500Y1316D01*
Y1666D01*
X29033D01*
X29500Y1900D02*
Y2249D01*
X29383Y2366D01*
X29267Y2249D01*
Y2016D01*
X29150Y1900D01*
X29033Y2016D01*
Y2366D01*
X28917Y2599D02*
X28800Y2716D01*
Y2949D01*
X28917Y3066D01*
X29033D01*
X29150Y2949D01*
Y2833D01*
Y2949D01*
X29267Y3066D01*
X29383D01*
X29500Y2949D01*
Y2716D01*
X29383Y2599D01*
X28800Y3299D02*
X29500D01*
Y3649D01*
X29383Y3766D01*
X28917D01*
X28800Y3649D01*
Y3299D01*
Y4699D02*
Y4932D01*
Y4815D01*
X29500D01*
Y4699D01*
Y4932D01*
Y5282D02*
X28800D01*
Y5632D01*
X28917Y5748D01*
X29150D01*
X29267Y5632D01*
Y5282D01*
Y5515D02*
X29500Y5748D01*
X28800Y6681D02*
Y7148D01*
X28917D01*
X29383Y6681D01*
X29500D01*
Y7148D01*
Y8081D02*
X28800D01*
Y8431D01*
X28917Y8547D01*
X29150D01*
X29267Y8431D01*
Y8081D01*
X29033Y8781D02*
X29500D01*
X29267D01*
X29150Y8897D01*
X29033Y9014D01*
Y9131D01*
X29500Y9597D02*
Y9830D01*
X29383Y9947D01*
X29150D01*
X29033Y9830D01*
Y9597D01*
X29150Y9480D01*
X29383D01*
X29500Y9597D01*
X28800Y10180D02*
X29500D01*
Y10530D01*
X29383Y10647D01*
X29267D01*
X29150D01*
X29033Y10530D01*
Y10180D01*
X29500Y11230D02*
Y10997D01*
X29383Y10880D01*
X29150D01*
X29033Y10997D01*
Y11230D01*
X29150Y11347D01*
X29267D01*
Y10880D01*
X29033Y12280D02*
X29500Y12513D01*
X29033Y12746D01*
X29500Y12979D02*
Y13213D01*
Y13096D01*
X28800D01*
X28917Y12979D01*
X29500Y13562D02*
X29383D01*
Y13679D01*
X29500D01*
Y13562D01*
Y14146D02*
Y14379D01*
Y14262D01*
X28800D01*
X28917Y14146D01*
D27*
X12525Y13700D02*
G03*
X12525Y13700I-300J0D01*
G01*
D28*
X16358Y4465D02*
G03*
X16358Y4465I-3150J0D01*
G01*
X20440Y14975D02*
X25520D01*
X20440Y7355D02*
X25520D01*
X20440D02*
Y14975D01*
X25520Y7355D02*
Y14975D01*
Y10107D02*
Y14975D01*
X11225Y9300D02*
Y14700D01*
X15025Y9300D02*
Y14700D01*
X11225D02*
X15025D01*
X11225Y9300D02*
X15025D01*
X12700Y1803D02*
X13716D01*
X13208Y1295D02*
Y2311D01*
D29*
X7156Y7348D02*
Y7652D01*
X6344Y7348D02*
Y7652D01*
X18469Y9943D02*
Y10247D01*
X19281Y9943D02*
Y10247D01*
X26969Y6348D02*
Y6652D01*
X27781Y6348D02*
Y6652D01*
X6719Y13223D02*
Y13527D01*
X7531Y13223D02*
Y13527D01*
X4900Y15050D02*
X5600D01*
X4575Y11825D02*
Y12925D01*
X5925Y11825D02*
Y12925D01*
X4575Y11825D02*
X5925D01*
X4575Y13825D02*
Y14725D01*
X5925Y13825D02*
Y14725D01*
X5725Y14925D02*
X5925Y14725D01*
X5600Y15050D02*
X5750Y14900D01*
X4725Y14875D02*
X4900Y15050D01*
X4775Y14925D02*
X5725D01*
X4575Y14725D02*
X4775Y14925D01*
X4500Y8925D02*
X5500D01*
Y8125D02*
Y8925D01*
Y6825D02*
Y7625D01*
X4500Y6825D02*
X5500D01*
X4500D02*
Y7625D01*
Y8125D02*
Y8925D01*
X14550Y16000D02*
Y17000D01*
X13750Y16000D02*
X14550D01*
X12450D02*
X13250D01*
X12450D02*
Y17000D01*
X13250D01*
X13750D02*
X14550D01*
X22594Y17598D02*
Y17902D01*
X23406Y17598D02*
Y17902D01*
X20844Y17598D02*
Y17902D01*
X21656Y17598D02*
Y17902D01*
M02*
