G04 Layer_Color=8388736*
%FSLAX43Y43*%
%MOMM*%
G71*
G01*
G75*
%ADD30R,0.903X1.053*%
%ADD31O,2.403X0.803*%
G04:AMPARAMS|DCode=32|XSize=1.203mm|YSize=1.103mm|CornerRadius=0.214mm|HoleSize=0mm|Usage=FLASHONLY|Rotation=0.000|XOffset=0mm|YOffset=0mm|HoleType=Round|Shape=RoundedRectangle|*
%AMROUNDEDRECTD32*
21,1,1.203,0.675,0,0,0.0*
21,1,0.775,1.103,0,0,0.0*
1,1,0.428,0.388,-0.338*
1,1,0.428,-0.388,-0.338*
1,1,0.428,-0.388,0.338*
1,1,0.428,0.388,0.338*
%
%ADD32ROUNDEDRECTD32*%
G04:AMPARAMS|DCode=33|XSize=1.003mm|YSize=1.003mm|CornerRadius=0.202mm|HoleSize=0mm|Usage=FLASHONLY|Rotation=90.000|XOffset=0mm|YOffset=0mm|HoleType=Round|Shape=RoundedRectangle|*
%AMROUNDEDRECTD33*
21,1,1.003,0.600,0,0,90.0*
21,1,0.600,1.003,0,0,90.0*
1,1,0.403,0.300,0.300*
1,1,0.403,0.300,-0.300*
1,1,0.403,-0.300,-0.300*
1,1,0.403,-0.300,0.300*
%
%ADD33ROUNDEDRECTD33*%
G04:AMPARAMS|DCode=34|XSize=0.703mm|YSize=0.803mm|CornerRadius=0.152mm|HoleSize=0mm|Usage=FLASHONLY|Rotation=180.000|XOffset=0mm|YOffset=0mm|HoleType=Round|Shape=RoundedRectangle|*
%AMROUNDEDRECTD34*
21,1,0.703,0.500,0,0,180.0*
21,1,0.400,0.803,0,0,180.0*
1,1,0.303,-0.200,0.250*
1,1,0.303,0.200,0.250*
1,1,0.303,0.200,-0.250*
1,1,0.303,-0.200,-0.250*
%
%ADD34ROUNDEDRECTD34*%
G04:AMPARAMS|DCode=35|XSize=0.703mm|YSize=0.803mm|CornerRadius=0.152mm|HoleSize=0mm|Usage=FLASHONLY|Rotation=90.000|XOffset=0mm|YOffset=0mm|HoleType=Round|Shape=RoundedRectangle|*
%AMROUNDEDRECTD35*
21,1,0.703,0.500,0,0,90.0*
21,1,0.400,0.803,0,0,90.0*
1,1,0.303,0.250,0.200*
1,1,0.303,0.250,-0.200*
1,1,0.303,-0.250,-0.200*
1,1,0.303,-0.250,0.200*
%
%ADD35ROUNDEDRECTD35*%
%ADD36C,1.473*%
%ADD37C,4.403*%
%ADD38O,1.703X2.203*%
%ADD39R,1.703X1.703*%
%ADD40C,1.703*%
%ADD41C,1.403*%
D30*
X2125Y12900D02*
D03*
Y11350D02*
D03*
D31*
X9725Y13905D02*
D03*
Y12635D02*
D03*
Y11365D02*
D03*
Y10095D02*
D03*
X16525Y13905D02*
D03*
Y12635D02*
D03*
Y11365D02*
D03*
Y10095D02*
D03*
D32*
X6750Y8350D02*
D03*
Y6650D02*
D03*
X18875Y9245D02*
D03*
Y10945D02*
D03*
X27375Y5650D02*
D03*
Y7350D02*
D03*
X7125Y12525D02*
D03*
Y14225D02*
D03*
X23000Y16900D02*
D03*
Y18600D02*
D03*
X21250Y16900D02*
D03*
Y18600D02*
D03*
D33*
X5250Y14225D02*
D03*
Y12525D02*
D03*
D34*
X5000Y8375D02*
D03*
Y7375D02*
D03*
D35*
X14000Y16500D02*
D03*
X13000D02*
D03*
D36*
X20250Y3750D02*
D03*
X18454Y5546D02*
D03*
X25125Y2000D02*
D03*
X23329Y3796D02*
D03*
X8056Y3898D02*
D03*
X6260Y2102D02*
D03*
D37*
X27500Y17500D02*
D03*
X2500D02*
D03*
D38*
X11250Y20750D02*
D03*
X13750D02*
D03*
X16250D02*
D03*
X18750D02*
D03*
D39*
X24250Y8625D02*
D03*
D40*
X21710D02*
D03*
X24250Y11165D02*
D03*
X21710D02*
D03*
X24250Y13705D02*
D03*
X21710D02*
D03*
D41*
X13208Y5715D02*
D03*
Y3215D02*
D03*
M02*
