G04 Layer_Color=32896*
%FSLAX43Y43*%
%MOMM*%
G71*
G01*
G75*
%ADD42C,0.025*%
D42*
X6539Y14085D02*
X7504D01*
X16623Y14059D02*
X17105D01*
X6387D02*
X7784D01*
X16547Y14034D02*
X17182D01*
X6260D02*
X7860D01*
X16547Y14009D02*
X17182D01*
X6158D02*
X7860D01*
X16521Y13983D02*
X17207D01*
X6082D02*
X7860D01*
X16521Y13958D02*
X17207D01*
X6031D02*
X7860D01*
X16521Y13932D02*
X17207D01*
X5955D02*
X7860D01*
X16496Y13907D02*
X17232D01*
X5904D02*
X7860D01*
X16496Y13882D02*
X17232D01*
X5853D02*
X7860D01*
X16496Y13856D02*
X17232D01*
X5802D02*
X7860D01*
X16470Y13831D02*
X17258D01*
X5752D02*
X7860D01*
X16470Y13805D02*
X17258D01*
X5726D02*
X7860D01*
X16470Y13780D02*
X17258D01*
X5675D02*
X7860D01*
X16470Y13755D02*
X17258D01*
X5650D02*
X7860D01*
X16445Y13729D02*
X17283D01*
X5625D02*
X7860D01*
X16445Y13704D02*
X17283D01*
X5599D02*
X7860D01*
X16445Y13678D02*
X17283D01*
X5548D02*
X7860D01*
X16420Y13653D02*
X17309D01*
X8342D02*
X10425D01*
X5523D02*
X7860D01*
X16420Y13628D02*
X17309D01*
X8317D02*
X10425D01*
X5498D02*
X7860D01*
X16420Y13602D02*
X17309D01*
X8317D02*
X10451D01*
X7301D02*
X7860D01*
X5472D02*
X6666D01*
X16394Y13577D02*
X17334D01*
X8317D02*
X10451D01*
X7301D02*
X7860D01*
X5447D02*
X6514D01*
X16394Y13551D02*
X17334D01*
X8342D02*
X10451D01*
X7301D02*
X7860D01*
X5447D02*
X6412D01*
X16394Y13526D02*
X17334D01*
X8342D02*
X10451D01*
X7301D02*
X7860D01*
X5421D02*
X6336D01*
X16369Y13501D02*
X17359D01*
X8368D02*
X10451D01*
X7301D02*
X7860D01*
X5396D02*
X6260D01*
X16369Y13475D02*
X17359D01*
X8393D02*
X10451D01*
X7301D02*
X7860D01*
X5371D02*
X6209D01*
X16902Y13450D02*
X17359D01*
X16369D02*
X16877D01*
X8393D02*
X10451D01*
X7301D02*
X7860D01*
X5345D02*
X6158D01*
X16902Y13424D02*
X17385D01*
X16343D02*
X16851D01*
X8419D02*
X10451D01*
X7301D02*
X7860D01*
X5345D02*
X6133D01*
X16902Y13399D02*
X17385D01*
X16343D02*
X16851D01*
X8444D02*
X10451D01*
X7301D02*
X7860D01*
X5320D02*
X6082D01*
X16928Y13374D02*
X17385D01*
X16343D02*
X16851D01*
X8444D02*
X10451D01*
X7301D02*
X7860D01*
X5294D02*
X6056D01*
X16928Y13348D02*
X17410D01*
X16318D02*
X16851D01*
X8469D02*
X10451D01*
X7301D02*
X7860D01*
X5294D02*
X6031D01*
X16928Y13323D02*
X17410D01*
X16318D02*
X16826D01*
X8495D02*
X10451D01*
X7301D02*
X7860D01*
X5269D02*
X6006D01*
X16928Y13297D02*
X17410D01*
X16318D02*
X16826D01*
X8495D02*
X10451D01*
X7301D02*
X7860D01*
X5269D02*
X5955D01*
X16953Y13272D02*
X17436D01*
X16293D02*
X16826D01*
X8520D02*
X10451D01*
X7301D02*
X7860D01*
X5244D02*
X5929D01*
X16953Y13247D02*
X17436D01*
X16293D02*
X16801D01*
X8546D02*
X10425D01*
X7301D02*
X7860D01*
X5244D02*
X5929D01*
X16953Y13221D02*
X17436D01*
X16293D02*
X16801D01*
X8546D02*
X10425D01*
X7301D02*
X7860D01*
X5218D02*
X5904D01*
X16978Y13196D02*
X17461D01*
X16267D02*
X16801D01*
X8571D02*
X9130D01*
X7301D02*
X7860D01*
X5218D02*
X5879D01*
X16978Y13170D02*
X17461D01*
X16267D02*
X16775D01*
X8596D02*
X9155D01*
X7301D02*
X7860D01*
X5193D02*
X5853D01*
X16978Y13145D02*
X17461D01*
X16267D02*
X16775D01*
X8596D02*
X9181D01*
X7301D02*
X7860D01*
X5193D02*
X5828D01*
X17004Y13120D02*
X17486D01*
X16242D02*
X16775D01*
X8622D02*
X9181D01*
X7301D02*
X7860D01*
X5167D02*
X5828D01*
X17004Y13094D02*
X17486D01*
X16242D02*
X16775D01*
X8647D02*
X9206D01*
X7301D02*
X7860D01*
X5167D02*
X5802D01*
X17004Y13069D02*
X17486D01*
X16242D02*
X16750D01*
X8647D02*
X9231D01*
X7301D02*
X7860D01*
X5167D02*
X5802D01*
X17004Y13043D02*
X17512D01*
X16216D02*
X16750D01*
X11289D02*
X11924D01*
X8673D02*
X9231D01*
X7301D02*
X7860D01*
X5142D02*
X5777D01*
X17029Y13018D02*
X17512D01*
X16216D02*
X16750D01*
X14769D02*
X15073D01*
X13118D02*
X13422D01*
X11162D02*
X12025D01*
X8673D02*
X9257D01*
X7301D02*
X7860D01*
X5142D02*
X5752D01*
X17029Y12993D02*
X17512D01*
X16216D02*
X16724D01*
X14667D02*
X15200D01*
X13016D02*
X13524D01*
X11060D02*
X12102D01*
X8698D02*
X9257D01*
X7301D02*
X7860D01*
X5142D02*
X5752D01*
X17029Y12967D02*
X17537D01*
X16191D02*
X16724D01*
X14667D02*
X15200D01*
X13016D02*
X13524D01*
X10959D02*
X12178D01*
X8723D02*
X9282D01*
X7301D02*
X7860D01*
X5117D02*
X5726D01*
X17055Y12942D02*
X17537D01*
X16191D02*
X16724D01*
X14667D02*
X15200D01*
X13016D02*
X13524D01*
X10882D02*
X12229D01*
X8723D02*
X9308D01*
X7301D02*
X7860D01*
X5117D02*
X5726D01*
X17055Y12916D02*
X17537D01*
X16191D02*
X16699D01*
X14667D02*
X15200D01*
X13016D02*
X13524D01*
X10882D02*
X12279D01*
X8749D02*
X9308D01*
X7301D02*
X7860D01*
X5117D02*
X5726D01*
X17055Y12891D02*
X17563D01*
X16166D02*
X16699D01*
X14667D02*
X15200D01*
X13016D02*
X13524D01*
X10882D02*
X12305D01*
X8774D02*
X9333D01*
X7301D02*
X7860D01*
X5091D02*
X5701D01*
X17080Y12866D02*
X17563D01*
X16166D02*
X16699D01*
X14667D02*
X15200D01*
X13016D02*
X13524D01*
X10882D02*
X12330D01*
X8774D02*
X9358D01*
X7301D02*
X7860D01*
X5091D02*
X5701D01*
X17080Y12840D02*
X17563D01*
X16166D02*
X16699D01*
X14667D02*
X15200D01*
X13016D02*
X13524D01*
X10882D02*
X12381D01*
X8800D02*
X9358D01*
X7301D02*
X7860D01*
X5091D02*
X5675D01*
X17080Y12815D02*
X17588D01*
X16166D02*
X16674D01*
X14667D02*
X15200D01*
X13016D02*
X13524D01*
X10882D02*
X12406D01*
X8825D02*
X9384D01*
X7301D02*
X7860D01*
X5091D02*
X5675D01*
X17080Y12789D02*
X17588D01*
X16140D02*
X16674D01*
X14667D02*
X15200D01*
X13016D02*
X13524D01*
X10882D02*
X12432D01*
X8825D02*
X9409D01*
X7301D02*
X7860D01*
X5066D02*
X5675D01*
X17105Y12764D02*
X17588D01*
X16140D02*
X16674D01*
X14667D02*
X15200D01*
X13016D02*
X13524D01*
X10908D02*
X12432D01*
X8850D02*
X9409D01*
X7301D02*
X7860D01*
X5066D02*
X5675D01*
X17105Y12739D02*
X17613D01*
X16140D02*
X16648D01*
X14667D02*
X15200D01*
X13016D02*
X13524D01*
X10908D02*
X12457D01*
X8876D02*
X9435D01*
X7301D02*
X7860D01*
X5066D02*
X5650D01*
X17105Y12713D02*
X17613D01*
X16115D02*
X16648D01*
X14667D02*
X15200D01*
X13016D02*
X13524D01*
X10908D02*
X12483D01*
X8876D02*
X9435D01*
X7301D02*
X7860D01*
X5066D02*
X5650D01*
X17131Y12688D02*
X17613D01*
X16115D02*
X16648D01*
X14667D02*
X15200D01*
X13016D02*
X13524D01*
X10908D02*
X12508D01*
X8901D02*
X9460D01*
X7301D02*
X7860D01*
X5066D02*
X5650D01*
X17131Y12662D02*
X17613D01*
X16115D02*
X16623D01*
X14667D02*
X15200D01*
X13016D02*
X13524D01*
X10933D02*
X12508D01*
X8927D02*
X9485D01*
X7301D02*
X7860D01*
X5066D02*
X5650D01*
X17131Y12637D02*
X17639D01*
X16089D02*
X16623D01*
X14667D02*
X15200D01*
X13016D02*
X13524D01*
X11644D02*
X12533D01*
X10933D02*
X11517D01*
X8927D02*
X9485D01*
X7301D02*
X7860D01*
X5040D02*
X5625D01*
X17131Y12612D02*
X17639D01*
X16089D02*
X16623D01*
X14667D02*
X15200D01*
X13016D02*
X13524D01*
X11797D02*
X12533D01*
X10933D02*
X11314D01*
X8952D02*
X9511D01*
X7301D02*
X7860D01*
X5040D02*
X5625D01*
X17156Y12586D02*
X17639D01*
X16089D02*
X16623D01*
X14667D02*
X15200D01*
X13016D02*
X13524D01*
X11873D02*
X12533D01*
X10959D02*
X11213D01*
X8977D02*
X9536D01*
X7301D02*
X7860D01*
X5040D02*
X5625D01*
X17156Y12561D02*
X17664D01*
X16064D02*
X16597D01*
X14667D02*
X15200D01*
X13016D02*
X13524D01*
X11949D02*
X12559D01*
X10959D02*
X11136D01*
X8977D02*
X9536D01*
X7301D02*
X7860D01*
X5040D02*
X5625D01*
X17156Y12535D02*
X17664D01*
X16064D02*
X16597D01*
X14667D02*
X15200D01*
X13016D02*
X13524D01*
X11975D02*
X12559D01*
X10984D02*
X11035D01*
X9003D02*
X9562D01*
X7301D02*
X7860D01*
X5040D02*
X5625D01*
X17182Y12510D02*
X17664D01*
X16064D02*
X16597D01*
X14667D02*
X15200D01*
X13016D02*
X13524D01*
X12000D02*
X12559D01*
X9028D02*
X9587D01*
X7301D02*
X7860D01*
X5040D02*
X5625D01*
X17182Y12485D02*
X17690D01*
X16039D02*
X16572D01*
X14667D02*
X15200D01*
X13016D02*
X13524D01*
X12025D02*
X12584D01*
X9028D02*
X9587D01*
X7301D02*
X7860D01*
X5040D02*
X5599D01*
X17182Y12459D02*
X17690D01*
X16039D02*
X16572D01*
X14667D02*
X15200D01*
X13016D02*
X13524D01*
X12025D02*
X12584D01*
X9054D02*
X9612D01*
X7301D02*
X7860D01*
X5040D02*
X5599D01*
X17207Y12434D02*
X17690D01*
X16039D02*
X16572D01*
X14667D02*
X15200D01*
X13016D02*
X13524D01*
X12051D02*
X12584D01*
X9079D02*
X9612D01*
X7301D02*
X7860D01*
X5040D02*
X5599D01*
X17207Y12408D02*
X17715D01*
X16013D02*
X16547D01*
X14667D02*
X15200D01*
X13016D02*
X13524D01*
X12051D02*
X12584D01*
X9079D02*
X9638D01*
X7301D02*
X7860D01*
X5040D02*
X5599D01*
X17207Y12383D02*
X17715D01*
X16013D02*
X16547D01*
X14667D02*
X15200D01*
X13016D02*
X13524D01*
X12051D02*
X12584D01*
X9104D02*
X9663D01*
X7301D02*
X7860D01*
X5015D02*
X5599D01*
X17207Y12358D02*
X17715D01*
X16013D02*
X16547D01*
X14667D02*
X15200D01*
X13016D02*
X13524D01*
X12051D02*
X12584D01*
X9130D02*
X9663D01*
X7301D02*
X7860D01*
X5015D02*
X5599D01*
X17232Y12332D02*
X17740D01*
X15988D02*
X16547D01*
X14667D02*
X15200D01*
X13016D02*
X13524D01*
X12051D02*
X12584D01*
X9130D02*
X9689D01*
X7301D02*
X7860D01*
X5015D02*
X5599D01*
X17232Y12307D02*
X17740D01*
X15988D02*
X16521D01*
X14667D02*
X15200D01*
X13016D02*
X13524D01*
X12051D02*
X12584D01*
X9155D02*
X9714D01*
X7301D02*
X7860D01*
X5015D02*
X5599D01*
X17232Y12281D02*
X17740D01*
X15988D02*
X16521D01*
X14667D02*
X15200D01*
X13016D02*
X13524D01*
X12051D02*
X12584D01*
X9181D02*
X9714D01*
X7301D02*
X7860D01*
X5015D02*
X5599D01*
X17258Y12256D02*
X17766D01*
X15962D02*
X16521D01*
X14667D02*
X15200D01*
X13016D02*
X13524D01*
X12051D02*
X12584D01*
X9181D02*
X9739D01*
X7301D02*
X7860D01*
X5015D02*
X5599D01*
X17258Y12231D02*
X17766D01*
X15962D02*
X16496D01*
X14667D02*
X15200D01*
X13016D02*
X13524D01*
X12025D02*
X12584D01*
X9206D02*
X9765D01*
X7301D02*
X7860D01*
X5015D02*
X5599D01*
X17258Y12205D02*
X17766D01*
X15962D02*
X16496D01*
X14667D02*
X15200D01*
X13016D02*
X13524D01*
X12025D02*
X12584D01*
X9028D02*
X9765D01*
X7301D02*
X7860D01*
X5015D02*
X5599D01*
X17283Y12180D02*
X17791D01*
X15937D02*
X16496D01*
X14667D02*
X15200D01*
X13016D02*
X13524D01*
X12000D02*
X12584D01*
X8876D02*
X9790D01*
X7301D02*
X7860D01*
X5015D02*
X5599D01*
X17283Y12154D02*
X17791D01*
X15937D02*
X16470D01*
X14667D02*
X15200D01*
X13016D02*
X13524D01*
X11975D02*
X12584D01*
X8800D02*
X9790D01*
X7301D02*
X7860D01*
X5015D02*
X5599D01*
X17283Y12129D02*
X17791D01*
X15937D02*
X16470D01*
X14667D02*
X15200D01*
X13016D02*
X13524D01*
X11949D02*
X12584D01*
X8749D02*
X9816D01*
X7301D02*
X7860D01*
X5015D02*
X5599D01*
X17283Y12104D02*
X17817D01*
X15912D02*
X16470D01*
X14667D02*
X15200D01*
X13016D02*
X13524D01*
X11924D02*
X12559D01*
X8698D02*
X9841D01*
X7301D02*
X7860D01*
X5015D02*
X5599D01*
X17309Y12078D02*
X17817D01*
X15912D02*
X16470D01*
X14667D02*
X15200D01*
X13016D02*
X13524D01*
X11873D02*
X12559D01*
X8647D02*
X9841D01*
X7301D02*
X7860D01*
X5015D02*
X5599D01*
X17309Y12053D02*
X17817D01*
X15912D02*
X16445D01*
X14667D02*
X15200D01*
X13016D02*
X13524D01*
X11822D02*
X12559D01*
X8622D02*
X9866D01*
X7301D02*
X7860D01*
X5015D02*
X5599D01*
X17309Y12027D02*
X17842D01*
X15886D02*
X16445D01*
X14667D02*
X15200D01*
X13016D02*
X13524D01*
X11746D02*
X12533D01*
X8571D02*
X9892D01*
X7301D02*
X7860D01*
X5015D02*
X5599D01*
X17334Y12002D02*
X17842D01*
X15886D02*
X16445D01*
X14667D02*
X15200D01*
X13016D02*
X13524D01*
X11695D02*
X12533D01*
X8546D02*
X9892D01*
X7301D02*
X7860D01*
X5040D02*
X5599D01*
X17334Y11977D02*
X17842D01*
X15886D02*
X16420D01*
X14667D02*
X15200D01*
X13016D02*
X13524D01*
X11619D02*
X12508D01*
X8520D02*
X9917D01*
X7301D02*
X7860D01*
X5040D02*
X5599D01*
X17334Y11951D02*
X17867D01*
X15886D02*
X16420D01*
X14667D02*
X15200D01*
X13016D02*
X13524D01*
X11543D02*
X12508D01*
X8495D02*
X9943D01*
X7301D02*
X7860D01*
X5040D02*
X5599D01*
X17334Y11926D02*
X17867D01*
X15861D02*
X16420D01*
X14667D02*
X15200D01*
X13016D02*
X13524D01*
X11467D02*
X12483D01*
X8469D02*
X9943D01*
X7301D02*
X7860D01*
X5040D02*
X5625D01*
X17359Y11900D02*
X17867D01*
X15861D02*
X16394D01*
X14667D02*
X15200D01*
X13016D02*
X13524D01*
X11390D02*
X12457D01*
X8444D02*
X9968D01*
X7301D02*
X7860D01*
X5040D02*
X5625D01*
X17359Y11875D02*
X17893D01*
X15861D02*
X16394D01*
X14667D02*
X15200D01*
X13016D02*
X13524D01*
X11314D02*
X12432D01*
X8419D02*
X9968D01*
X7301D02*
X7860D01*
X5040D02*
X5625D01*
X17359Y11850D02*
X17893D01*
X15835D02*
X16394D01*
X14667D02*
X15200D01*
X13016D02*
X13524D01*
X11263D02*
X12406D01*
X8419D02*
X9968D01*
X7301D02*
X7860D01*
X5040D02*
X5625D01*
X17385Y11824D02*
X17893D01*
X15835D02*
X16394D01*
X14667D02*
X15200D01*
X13016D02*
X13524D01*
X11187D02*
X12381D01*
X9689D02*
X9943D01*
X8393D02*
X9384D01*
X7301D02*
X7860D01*
X5040D02*
X5625D01*
X17385Y11799D02*
X17918D01*
X15835D02*
X16369D01*
X14667D02*
X15200D01*
X13016D02*
X13524D01*
X11136D02*
X12356D01*
X9866D02*
X9943D01*
X8368D02*
X9231D01*
X7301D02*
X7860D01*
X5040D02*
X5625D01*
X17385Y11773D02*
X17918D01*
X15810D02*
X16369D01*
X14667D02*
X15200D01*
X13016D02*
X13524D01*
X11111D02*
X12330D01*
X8368D02*
X9155D01*
X7301D02*
X7860D01*
X5040D02*
X5625D01*
X17410Y11748D02*
X17918D01*
X15810D02*
X16369D01*
X14667D02*
X15200D01*
X13016D02*
X13524D01*
X11060D02*
X12279D01*
X8342D02*
X9104D01*
X7301D02*
X7860D01*
X5040D02*
X5650D01*
X17410Y11723D02*
X17944D01*
X15810D02*
X16343D01*
X14667D02*
X15200D01*
X13016D02*
X13524D01*
X11035D02*
X12229D01*
X8342D02*
X9054D01*
X7301D02*
X7860D01*
X5066D02*
X5650D01*
X17410Y11697D02*
X17944D01*
X15785D02*
X16343D01*
X14667D02*
X15200D01*
X13016D02*
X13524D01*
X11009D02*
X12178D01*
X8317D02*
X9003D01*
X7301D02*
X7860D01*
X5066D02*
X5650D01*
X15785Y11672D02*
X17944D01*
X14667D02*
X15200D01*
X13016D02*
X13524D01*
X10984D02*
X12127D01*
X8317D02*
X8977D01*
X7301D02*
X7860D01*
X5066D02*
X5650D01*
X15785Y11646D02*
X17969D01*
X14667D02*
X15200D01*
X13016D02*
X13524D01*
X10959D02*
X12076D01*
X8292D02*
X8927D01*
X7301D02*
X7860D01*
X5066D02*
X5650D01*
X15759Y11621D02*
X17969D01*
X14667D02*
X15200D01*
X13016D02*
X13524D01*
X10933D02*
X12025D01*
X8292D02*
X8901D01*
X7301D02*
X7860D01*
X5066D02*
X5675D01*
X15759Y11596D02*
X17969D01*
X14667D02*
X15200D01*
X13016D02*
X13524D01*
X10908D02*
X11949D01*
X8292D02*
X8876D01*
X7301D02*
X7860D01*
X5091D02*
X5675D01*
X15759Y11570D02*
X17969D01*
X14667D02*
X15200D01*
X13016D02*
X13524D01*
X10908D02*
X11873D01*
X8266D02*
X8876D01*
X7301D02*
X7860D01*
X5091D02*
X5675D01*
X15734Y11545D02*
X17994D01*
X14667D02*
X15200D01*
X13016D02*
X13524D01*
X10882D02*
X11822D01*
X8266D02*
X8850D01*
X7301D02*
X7860D01*
X5091D02*
X5701D01*
X15734Y11519D02*
X17994D01*
X14667D02*
X15200D01*
X13016D02*
X13524D01*
X10882D02*
X11746D01*
X8266D02*
X8825D01*
X7301D02*
X7860D01*
X5091D02*
X5701D01*
X15734Y11494D02*
X17994D01*
X14667D02*
X15175D01*
X13016D02*
X13524D01*
X10857D02*
X11670D01*
X8241D02*
X8825D01*
X7301D02*
X7860D01*
X5091D02*
X5701D01*
X15708Y11469D02*
X18020D01*
X14667D02*
X15175D01*
X13016D02*
X13524D01*
X10857D02*
X11594D01*
X8241D02*
X8800D01*
X7301D02*
X7860D01*
X5117D02*
X5726D01*
X15708Y11443D02*
X18020D01*
X14667D02*
X15175D01*
X13016D02*
X13524D01*
X10832D02*
X11543D01*
X8241D02*
X8800D01*
X7301D02*
X7860D01*
X5117D02*
X5726D01*
X15708Y11418D02*
X18020D01*
X14642D02*
X15175D01*
X13016D02*
X13524D01*
X10832D02*
X11492D01*
X8241D02*
X8800D01*
X7301D02*
X7860D01*
X5117D02*
X5752D01*
X15683Y11392D02*
X18045D01*
X14642D02*
X15175D01*
X13016D02*
X13524D01*
X10832D02*
X11467D01*
X8241D02*
X8800D01*
X7301D02*
X7860D01*
X5142D02*
X5752D01*
X15683Y11367D02*
X18045D01*
X14642D02*
X15175D01*
X13016D02*
X13524D01*
X10806D02*
X11441D01*
X8241D02*
X8774D01*
X7301D02*
X7860D01*
X5142D02*
X5777D01*
X15683Y11342D02*
X18045D01*
X14642D02*
X15175D01*
X13016D02*
X13524D01*
X10806D02*
X11416D01*
X8241D02*
X8774D01*
X7301D02*
X7860D01*
X5142D02*
X5777D01*
X15658Y11316D02*
X18071D01*
X14642D02*
X15175D01*
X13016D02*
X13524D01*
X10806D02*
X11390D01*
X8241D02*
X8774D01*
X7301D02*
X7860D01*
X5167D02*
X5802D01*
X15658Y11291D02*
X18071D01*
X14642D02*
X15175D01*
X13016D02*
X13524D01*
X10806D02*
X11365D01*
X8241D02*
X8774D01*
X7301D02*
X7860D01*
X5167D02*
X5802D01*
X15658Y11265D02*
X18071D01*
X14642D02*
X15175D01*
X13016D02*
X13524D01*
X10806D02*
X11365D01*
X8241D02*
X8774D01*
X7301D02*
X7860D01*
X5167D02*
X5828D01*
X15632Y11240D02*
X18096D01*
X14642D02*
X15175D01*
X13016D02*
X13524D01*
X10806D02*
X11340D01*
X8241D02*
X8774D01*
X7301D02*
X7860D01*
X5193D02*
X5853D01*
X17563Y11215D02*
X18096D01*
X15632D02*
X16191D01*
X14616D02*
X15175D01*
X13016D02*
X13524D01*
X10806D02*
X11340D01*
X8241D02*
X8774D01*
X7301D02*
X7860D01*
X5193D02*
X5853D01*
X17563Y11189D02*
X18096D01*
X15632D02*
X16191D01*
X14616D02*
X15175D01*
X13016D02*
X13524D01*
X10806D02*
X11340D01*
X8241D02*
X8774D01*
X7301D02*
X7860D01*
X5218D02*
X5879D01*
X17588Y11164D02*
X18121D01*
X15607D02*
X16191D01*
X14616D02*
X15150D01*
X13016D02*
X13524D01*
X10806D02*
X11340D01*
X8241D02*
X8774D01*
X7301D02*
X7860D01*
X5218D02*
X5904D01*
X17588Y11138D02*
X18121D01*
X15607D02*
X16166D01*
X14591D02*
X15150D01*
X13016D02*
X13524D01*
X10806D02*
X11340D01*
X8241D02*
X8774D01*
X7301D02*
X7860D01*
X5244D02*
X5929D01*
X17588Y11113D02*
X18121D01*
X15607D02*
X16166D01*
X14591D02*
X15150D01*
X13016D02*
X13524D01*
X10806D02*
X11340D01*
X8241D02*
X8774D01*
X7301D02*
X7860D01*
X5244D02*
X5955D01*
X17588Y11088D02*
X18147D01*
X15581D02*
X16166D01*
X14591D02*
X15150D01*
X13016D02*
X13524D01*
X10806D02*
X11340D01*
X8241D02*
X8774D01*
X7301D02*
X7860D01*
X5269D02*
X5980D01*
X17613Y11062D02*
X18147D01*
X15581D02*
X16140D01*
X14565D02*
X15150D01*
X13016D02*
X13524D01*
X10806D02*
X11340D01*
X8241D02*
X8774D01*
X7301D02*
X7860D01*
X5269D02*
X6006D01*
X17613Y11037D02*
X18147D01*
X15581D02*
X16140D01*
X14565D02*
X15124D01*
X13016D02*
X13524D01*
X10806D02*
X11340D01*
X8241D02*
X8774D01*
X7301D02*
X7860D01*
X5294D02*
X6031D01*
X17613Y11011D02*
X18172D01*
X15581D02*
X16140D01*
X14540D02*
X15124D01*
X13016D02*
X13524D01*
X10806D02*
X11365D01*
X8241D02*
X8800D01*
X7301D02*
X7860D01*
X5320D02*
X6082D01*
X17639Y10986D02*
X18172D01*
X15556D02*
X16140D01*
X14540D02*
X15124D01*
X13016D02*
X13524D01*
X10806D02*
X11365D01*
X8241D02*
X8800D01*
X7301D02*
X7860D01*
X5320D02*
X6107D01*
X17639Y10961D02*
X18172D01*
X15556D02*
X16115D01*
X14515D02*
X15124D01*
X13016D02*
X13524D01*
X10832D02*
X11390D01*
X8266D02*
X8800D01*
X7301D02*
X7860D01*
X5345D02*
X6158D01*
X17639Y10935D02*
X18198D01*
X15556D02*
X16115D01*
X14489D02*
X15099D01*
X13016D02*
X13524D01*
X10832D02*
X11416D01*
X8266D02*
X8825D01*
X7301D02*
X7860D01*
X5371D02*
X6209D01*
X17639Y10910D02*
X18198D01*
X15531D02*
X16115D01*
X14464D02*
X15099D01*
X13016D02*
X13524D01*
X10832D02*
X11441D01*
X8266D02*
X8825D01*
X7301D02*
X7860D01*
X5396D02*
X6260D01*
X17664Y10884D02*
X18198D01*
X15531D02*
X16089D01*
X14438D02*
X15073D01*
X13016D02*
X13524D01*
X10832D02*
X11467D01*
X8266D02*
X8850D01*
X7301D02*
X7860D01*
X5396D02*
X6336D01*
X17664Y10859D02*
X18223D01*
X15531D02*
X16089D01*
X14388D02*
X15073D01*
X13016D02*
X13524D01*
X12483D02*
X12533D01*
X10857D02*
X11492D01*
X8292D02*
X8850D01*
X7301D02*
X7860D01*
X5421D02*
X6437D01*
X17664Y10834D02*
X18223D01*
X15505D02*
X16089D01*
X14362D02*
X15073D01*
X13016D02*
X13524D01*
X12406D02*
X12559D01*
X10857D02*
X11543D01*
X8292D02*
X8876D01*
X7301D02*
X7860D01*
X5447D02*
X6539D01*
X17690Y10808D02*
X18223D01*
X15505D02*
X16064D01*
X14286D02*
X15048D01*
X13016D02*
X13549D01*
X12330D02*
X12559D01*
X10882D02*
X11594D01*
X8292D02*
X8876D01*
X7149D02*
X7860D01*
X5472D02*
X6742D01*
X17690Y10783D02*
X18248D01*
X15505D02*
X16064D01*
X14210D02*
X15048D01*
X13016D02*
X13676D01*
X12229D02*
X12584D01*
X10882D02*
X11644D01*
X8317D02*
X8901D01*
X5498D02*
X7860D01*
X17690Y10757D02*
X18248D01*
X15480D02*
X16064D01*
X13016D02*
X15023D01*
X12051D02*
X12584D01*
X10908D02*
X11771D01*
X8317D02*
X8927D01*
X5523D02*
X7860D01*
X17715Y10732D02*
X18248D01*
X15480D02*
X16064D01*
X13016D02*
X14997D01*
X10908D02*
X12584D01*
X8317D02*
X8952D01*
X5548D02*
X7860D01*
X17715Y10707D02*
X18274D01*
X15480D02*
X16039D01*
X13016D02*
X14997D01*
X10933D02*
X12610D01*
X8342D02*
X8977D01*
X5574D02*
X7860D01*
X17715Y10681D02*
X18274D01*
X15454D02*
X16039D01*
X13016D02*
X14972D01*
X10959D02*
X12610D01*
X8342D02*
X9003D01*
X5625D02*
X7860D01*
X17715Y10656D02*
X18274D01*
X15454D02*
X16039D01*
X13016D02*
X14946D01*
X10984D02*
X12610D01*
X8368D02*
X9028D01*
X5650D02*
X7860D01*
X17740Y10630D02*
X18299D01*
X15454D02*
X16013D01*
X13016D02*
X14921D01*
X10984D02*
X12635D01*
X8368D02*
X9054D01*
X5675D02*
X7860D01*
X17740Y10605D02*
X18299D01*
X15429D02*
X16013D01*
X13016D02*
X14896D01*
X11009D02*
X12635D01*
X10374D02*
X10451D01*
X8393D02*
X9104D01*
X5726D02*
X7860D01*
X17740Y10580D02*
X18299D01*
X15429D02*
X16013D01*
X13016D02*
X14896D01*
X11060D02*
X12635D01*
X10298D02*
X10476D01*
X8419D02*
X9155D01*
X5777D02*
X7860D01*
X17766Y10554D02*
X18325D01*
X15429D02*
X15988D01*
X13016D02*
X14845D01*
X11086D02*
X12635D01*
X10222D02*
X10476D01*
X8419D02*
X9206D01*
X5802D02*
X7860D01*
X17766Y10529D02*
X18325D01*
X15404D02*
X15988D01*
X13016D02*
X14819D01*
X11111D02*
X12660D01*
X10120D02*
X10501D01*
X8444D02*
X9282D01*
X5853D02*
X7860D01*
X17766Y10503D02*
X18325D01*
X15404D02*
X15988D01*
X13016D02*
X14794D01*
X11136D02*
X12660D01*
X10019D02*
X10501D01*
X8469D02*
X9384D01*
X5904D02*
X7860D01*
X17766Y10478D02*
X18325D01*
X15404D02*
X15988D01*
X13016D02*
X14743D01*
X11187D02*
X12660D01*
X9790D02*
X10527D01*
X8469D02*
X9587D01*
X5980D02*
X7860D01*
X17791Y10453D02*
X18350D01*
X15378D02*
X15962D01*
X13016D02*
X14718D01*
X11238D02*
X12660D01*
X8495D02*
X10527D01*
X6031D02*
X7860D01*
X17791Y10427D02*
X18350D01*
X15378D02*
X15962D01*
X13118D02*
X14667D01*
X11289D02*
X12635D01*
X8520D02*
X10527D01*
X6107D02*
X7860D01*
X17791Y10402D02*
X18350D01*
X15378D02*
X15962D01*
X13219D02*
X14591D01*
X11340D02*
X12559D01*
X8546D02*
X10552D01*
X6209D02*
X7860D01*
X17817Y10376D02*
X18350D01*
X15378D02*
X15937D01*
X13346D02*
X14515D01*
X11416D02*
X12457D01*
X8571D02*
X10552D01*
X6310D02*
X7860D01*
X13473Y10351D02*
X14413D01*
X11517D02*
X12356D01*
X8596D02*
X10578D01*
X6437D02*
X7682D01*
X13651Y10326D02*
X14235D01*
X11644D02*
X12178D01*
X8622D02*
X10578D01*
X6641D02*
X7377D01*
X8647Y10300D02*
X10578D01*
X8698Y10275D02*
X10578D01*
X8723Y10249D02*
X10603D01*
X8774Y10224D02*
X10603D01*
X8800Y10199D02*
X10603D01*
X8850Y10173D02*
X10603D01*
X8901Y10148D02*
X10552D01*
X8977Y10122D02*
X10476D01*
X9028Y10097D02*
X10400D01*
X9130Y10072D02*
X10298D01*
X9231Y10046D02*
X10171D01*
X9358Y10021D02*
X10019D01*
M02*
