G04 Layer_Color=32896*
%FSLAX43Y43*%
%MOMM*%
G71*
G01*
G75*
%ADD24C,0.254*%
%ADD28C,0.150*%
G36*
X5712Y10235D02*
X5738Y10232D01*
X5761Y10230D01*
X5780Y10228D01*
X5796Y10225D01*
X5806Y10223D01*
X5808D01*
X5857Y10214D01*
X5880Y10209D01*
X5899Y10205D01*
X5915Y10198D01*
X5929Y10195D01*
X5936Y10191D01*
X5939D01*
X5981Y10170D01*
X5999Y10160D01*
X6016Y10151D01*
X6030Y10144D01*
X6039Y10137D01*
X6046Y10135D01*
X6048Y10132D01*
X6083Y10109D01*
X6111Y10088D01*
X6123Y10079D01*
X6132Y10072D01*
X6137Y10067D01*
X6139Y10065D01*
X6169Y10034D01*
X6193Y10006D01*
X6202Y9995D01*
X6209Y9985D01*
X6214Y9981D01*
X6216Y9978D01*
X6242Y9943D01*
X6263Y9911D01*
X6270Y9897D01*
X6277Y9885D01*
X6279Y9878D01*
X6281Y9876D01*
X6300Y9836D01*
X6309Y9817D01*
X6316Y9799D01*
X6323Y9785D01*
X6328Y9773D01*
X6333Y9766D01*
Y9764D01*
X6349Y9722D01*
X6356Y9701D01*
X6361Y9685D01*
X6368Y9668D01*
X6370Y9657D01*
X6375Y9650D01*
Y9647D01*
X6384Y9624D01*
X6389Y9605D01*
X6393Y9594D01*
X6396Y9587D01*
Y9582D01*
X6398Y9577D01*
X6400Y9570D01*
X6403Y9561D01*
X6412Y9538D01*
X6424Y9507D01*
X6433Y9477D01*
X6442Y9451D01*
X6447Y9442D01*
X6449Y9433D01*
X6452Y9428D01*
Y9426D01*
X6461Y9393D01*
X6470Y9365D01*
X6475Y9353D01*
X6477Y9344D01*
X6480Y9339D01*
Y9337D01*
X6494Y9307D01*
X6503Y9281D01*
X6508Y9269D01*
X6510Y9262D01*
X6512Y9258D01*
Y9255D01*
X6524Y9228D01*
X6533Y9204D01*
X6538Y9195D01*
X6542Y9188D01*
X6545Y9183D01*
Y9181D01*
X6559Y9158D01*
X6573Y9137D01*
X6582Y9123D01*
X6584Y9120D01*
Y9118D01*
X6601Y9095D01*
X6615Y9078D01*
X6626Y9067D01*
X6631Y9062D01*
X6650Y9046D01*
X6668Y9034D01*
X6682Y9025D01*
X6685Y9022D01*
X6687D01*
X6710Y9011D01*
X6731Y9001D01*
X6748Y8997D01*
X6750Y8994D01*
X6752D01*
X6780Y8990D01*
X6806Y8987D01*
X6815Y8985D01*
X6832D01*
X6862Y8987D01*
X6890Y8992D01*
X6913Y8997D01*
X6934Y9004D01*
X6951Y9011D01*
X6965Y9018D01*
X6972Y9020D01*
X6974Y9022D01*
X6995Y9039D01*
X7013Y9055D01*
X7027Y9074D01*
X7041Y9090D01*
X7051Y9106D01*
X7058Y9118D01*
X7062Y9127D01*
X7065Y9130D01*
X7086Y9186D01*
X7093Y9211D01*
X7100Y9235D01*
X7107Y9255D01*
X7111Y9272D01*
X7114Y9281D01*
Y9286D01*
X7123Y9349D01*
X7125Y9377D01*
X7128Y9405D01*
X7130Y9428D01*
Y9444D01*
Y9456D01*
Y9461D01*
Y9493D01*
X7128Y9524D01*
Y9554D01*
X7125Y9580D01*
X7123Y9601D01*
Y9617D01*
X7121Y9626D01*
Y9631D01*
X7111Y9689D01*
X7107Y9717D01*
X7102Y9741D01*
X7097Y9761D01*
X7095Y9775D01*
X7090Y9787D01*
Y9789D01*
X7079Y9845D01*
X7072Y9869D01*
X7067Y9890D01*
X7062Y9908D01*
X7058Y9922D01*
X7055Y9932D01*
Y9934D01*
X7041Y9981D01*
X7034Y10002D01*
X7027Y10020D01*
X7023Y10037D01*
X7018Y10048D01*
X7016Y10055D01*
Y10058D01*
X7048Y10072D01*
X7076Y10083D01*
X7088Y10086D01*
X7097Y10090D01*
X7102Y10093D01*
X7104D01*
X7139Y10104D01*
X7170Y10116D01*
X7181Y10118D01*
X7191Y10121D01*
X7198Y10123D01*
X7200D01*
X7237Y10132D01*
X7254Y10137D01*
X7270Y10139D01*
X7282Y10142D01*
X7291Y10144D01*
X7298Y10146D01*
X7300D01*
X7338Y10153D01*
X7370Y10158D01*
X7384Y10160D01*
X7394Y10163D01*
X7403D01*
X7419Y10107D01*
X7429Y10081D01*
X7436Y10058D01*
X7440Y10037D01*
X7445Y10020D01*
X7450Y10011D01*
Y10006D01*
X7466Y9946D01*
X7473Y9915D01*
X7477Y9887D01*
X7484Y9864D01*
X7487Y9845D01*
X7491Y9834D01*
Y9829D01*
X7503Y9761D01*
X7508Y9729D01*
X7512Y9701D01*
X7515Y9675D01*
X7517Y9657D01*
X7519Y9645D01*
Y9640D01*
X7524Y9570D01*
Y9535D01*
X7526Y9507D01*
Y9482D01*
Y9461D01*
Y9449D01*
Y9447D01*
Y9444D01*
X7524Y9358D01*
X7519Y9281D01*
X7515Y9244D01*
X7510Y9209D01*
X7505Y9179D01*
X7503Y9148D01*
X7498Y9123D01*
X7494Y9099D01*
X7489Y9078D01*
X7484Y9062D01*
X7482Y9048D01*
X7480Y9039D01*
X7477Y9032D01*
Y9029D01*
X7457Y8964D01*
X7433Y8906D01*
X7408Y8854D01*
X7382Y8810D01*
X7361Y8775D01*
X7352Y8761D01*
X7342Y8750D01*
X7335Y8738D01*
X7331Y8731D01*
X7328Y8729D01*
X7326Y8726D01*
X7286Y8682D01*
X7247Y8645D01*
X7207Y8614D01*
X7170Y8589D01*
X7137Y8568D01*
X7111Y8554D01*
X7102Y8549D01*
X7095Y8544D01*
X7090Y8542D01*
X7088D01*
X7037Y8521D01*
X6983Y8507D01*
X6932Y8495D01*
X6883Y8488D01*
X6843Y8484D01*
X6825D01*
X6811Y8481D01*
X6780D01*
X6734Y8484D01*
X6692Y8486D01*
X6654Y8493D01*
X6619Y8500D01*
X6591Y8505D01*
X6573Y8512D01*
X6559Y8514D01*
X6556Y8516D01*
X6554D01*
X6517Y8533D01*
X6482Y8549D01*
X6452Y8568D01*
X6426Y8586D01*
X6405Y8603D01*
X6389Y8617D01*
X6379Y8626D01*
X6375Y8628D01*
X6347Y8656D01*
X6321Y8689D01*
X6298Y8719D01*
X6277Y8750D01*
X6258Y8778D01*
X6244Y8798D01*
X6235Y8812D01*
X6232Y8815D01*
Y8817D01*
X6207Y8864D01*
X6183Y8910D01*
X6160Y8957D01*
X6141Y9001D01*
X6127Y9039D01*
X6120Y9055D01*
X6113Y9069D01*
X6111Y9078D01*
X6106Y9088D01*
X6104Y9092D01*
Y9095D01*
X6097Y9113D01*
X6090Y9130D01*
X6088Y9139D01*
X6085Y9144D01*
X6083Y9148D01*
X6081Y9151D01*
Y9155D01*
X6076Y9165D01*
X6069Y9183D01*
X6060Y9207D01*
X6053Y9230D01*
X6043Y9251D01*
X6039Y9267D01*
X6036Y9269D01*
Y9272D01*
X6025Y9307D01*
X6016Y9337D01*
X6013Y9351D01*
X6009Y9360D01*
X6006Y9365D01*
Y9367D01*
X5995Y9400D01*
X5985Y9428D01*
X5983Y9437D01*
X5978Y9447D01*
X5976Y9451D01*
Y9454D01*
X5962Y9484D01*
X5950Y9507D01*
X5946Y9517D01*
X5941Y9524D01*
X5939Y9526D01*
Y9528D01*
X5922Y9554D01*
X5911Y9577D01*
X5904Y9587D01*
X5901Y9594D01*
X5897Y9596D01*
Y9598D01*
X5878Y9622D01*
X5862Y9638D01*
X5850Y9650D01*
X5848Y9654D01*
X5845D01*
X5824Y9673D01*
X5806Y9687D01*
X5789Y9696D01*
X5787Y9699D01*
X5785D01*
X5761Y9713D01*
X5738Y9722D01*
X5726Y9724D01*
X5719Y9727D01*
X5715Y9729D01*
X5712D01*
X5680Y9733D01*
X5649Y9736D01*
X5617D01*
X5584Y9733D01*
X5556Y9731D01*
X5547Y9729D01*
X5538D01*
X5533Y9727D01*
X5531D01*
X5500Y9715D01*
X5477Y9703D01*
X5468Y9699D01*
X5463Y9694D01*
X5458Y9692D01*
X5456Y9689D01*
X5430Y9671D01*
X5407Y9652D01*
X5398Y9645D01*
X5391Y9638D01*
X5388Y9636D01*
X5386Y9633D01*
X5363Y9610D01*
X5346Y9587D01*
X5339Y9577D01*
X5335Y9570D01*
X5330Y9566D01*
Y9563D01*
X5314Y9533D01*
X5300Y9505D01*
X5295Y9493D01*
X5290Y9484D01*
X5288Y9479D01*
Y9477D01*
X5274Y9442D01*
X5265Y9412D01*
X5260Y9398D01*
X5258Y9388D01*
X5255Y9381D01*
Y9379D01*
X5246Y9339D01*
X5244Y9321D01*
X5241Y9304D01*
X5239Y9290D01*
X5237Y9279D01*
Y9272D01*
Y9269D01*
X5234Y9230D01*
Y9211D01*
X5232Y9193D01*
Y9179D01*
Y9167D01*
Y9160D01*
Y9158D01*
X5234Y9097D01*
Y9071D01*
X5237Y9046D01*
Y9025D01*
X5239Y9008D01*
Y8999D01*
Y8994D01*
X5246Y8934D01*
X5251Y8908D01*
X5253Y8882D01*
X5258Y8861D01*
X5260Y8845D01*
X5262Y8836D01*
Y8831D01*
X5276Y8773D01*
X5283Y8745D01*
X5288Y8722D01*
X5293Y8703D01*
X5297Y8689D01*
X5300Y8677D01*
Y8675D01*
X5318Y8621D01*
X5325Y8596D01*
X5335Y8575D01*
X5342Y8556D01*
X5346Y8542D01*
X5349Y8533D01*
X5351Y8530D01*
X5314Y8516D01*
X5295Y8509D01*
X5281Y8505D01*
X5267Y8500D01*
X5258Y8495D01*
X5251Y8493D01*
X5248D01*
X5211Y8479D01*
X5195Y8474D01*
X5178Y8470D01*
X5167Y8465D01*
X5157Y8460D01*
X5150Y8458D01*
X5148D01*
X5108Y8446D01*
X5092Y8442D01*
X5076Y8437D01*
X5062Y8435D01*
X5053Y8432D01*
X5046Y8430D01*
X5043D01*
X5006Y8423D01*
X4976Y8421D01*
X4962Y8418D01*
X4952Y8416D01*
X4943D01*
X4922Y8474D01*
X4915Y8502D01*
X4908Y8526D01*
X4901Y8549D01*
X4896Y8565D01*
X4894Y8575D01*
Y8579D01*
X4878Y8642D01*
X4871Y8670D01*
X4866Y8698D01*
X4861Y8722D01*
X4857Y8738D01*
X4854Y8750D01*
Y8754D01*
X4843Y8824D01*
X4838Y8857D01*
X4836Y8887D01*
X4831Y8913D01*
Y8931D01*
X4829Y8945D01*
Y8950D01*
X4824Y9032D01*
Y9069D01*
X4822Y9104D01*
Y9132D01*
Y9155D01*
Y9165D01*
Y9172D01*
Y9174D01*
Y9176D01*
Y9221D01*
X4824Y9262D01*
X4826Y9302D01*
X4829Y9335D01*
X4831Y9363D01*
X4833Y9384D01*
X4836Y9398D01*
Y9402D01*
X4843Y9442D01*
X4850Y9482D01*
X4857Y9517D01*
X4866Y9547D01*
X4873Y9573D01*
X4878Y9594D01*
X4880Y9605D01*
X4882Y9610D01*
X4894Y9647D01*
X4906Y9680D01*
X4920Y9713D01*
X4929Y9738D01*
X4941Y9761D01*
X4948Y9778D01*
X4952Y9787D01*
X4955Y9792D01*
X4971Y9822D01*
X4987Y9852D01*
X5004Y9878D01*
X5018Y9901D01*
X5032Y9920D01*
X5041Y9934D01*
X5048Y9943D01*
X5050Y9946D01*
X5071Y9971D01*
X5092Y9997D01*
X5113Y10018D01*
X5132Y10037D01*
X5146Y10051D01*
X5157Y10062D01*
X5167Y10069D01*
X5169Y10072D01*
X5220Y10107D01*
X5244Y10123D01*
X5265Y10137D01*
X5283Y10146D01*
X5300Y10156D01*
X5309Y10160D01*
X5311Y10163D01*
X5370Y10188D01*
X5398Y10198D01*
X5423Y10205D01*
X5444Y10212D01*
X5461Y10216D01*
X5470Y10219D01*
X5475D01*
X5540Y10230D01*
X5570Y10232D01*
X5596Y10235D01*
X5619Y10237D01*
X5684D01*
X5712Y10235D01*
D02*
G37*
G36*
X7473Y8020D02*
X7475Y8001D01*
X7477Y7987D01*
Y7985D01*
Y7982D01*
X7480Y7959D01*
Y7938D01*
X7482Y7929D01*
Y7924D01*
Y7919D01*
Y7917D01*
X7484Y7894D01*
Y7873D01*
Y7859D01*
Y7856D01*
Y7854D01*
X7487Y7833D01*
X7489Y7814D01*
Y7801D01*
Y7798D01*
Y7796D01*
Y7773D01*
X7487Y7754D01*
X7484Y7740D01*
Y7738D01*
Y7735D01*
Y7712D01*
Y7693D01*
X7482Y7677D01*
Y7675D01*
Y7672D01*
X7480Y7647D01*
Y7626D01*
X7477Y7612D01*
Y7609D01*
Y7607D01*
X7475Y7584D01*
X7470Y7565D01*
X7468Y7553D01*
Y7551D01*
Y7549D01*
X5295D01*
X5276Y7479D01*
X5269Y7444D01*
X5265Y7413D01*
X5260Y7385D01*
X5255Y7364D01*
X5253Y7350D01*
Y7348D01*
Y7346D01*
X5246Y7264D01*
X5244Y7225D01*
Y7187D01*
X5241Y7155D01*
Y7131D01*
Y7122D01*
Y7115D01*
Y7110D01*
Y7108D01*
X5244Y7047D01*
Y7019D01*
X5246Y6996D01*
Y6975D01*
X5248Y6961D01*
Y6952D01*
Y6947D01*
X5253Y6919D01*
X5258Y6893D01*
X5262Y6870D01*
X5267Y6849D01*
X5269Y6831D01*
X5274Y6819D01*
X5276Y6810D01*
Y6807D01*
X5290Y6761D01*
X5300Y6740D01*
X5307Y6721D01*
X5314Y6705D01*
X5321Y6693D01*
X5323Y6686D01*
X5325Y6684D01*
X5351Y6646D01*
X5363Y6628D01*
X5374Y6614D01*
X5384Y6602D01*
X5393Y6593D01*
X5398Y6586D01*
X5400Y6583D01*
X5437Y6553D01*
X5472Y6527D01*
X5489Y6518D01*
X5500Y6511D01*
X5507Y6506D01*
X5510Y6504D01*
X5558Y6481D01*
X5582Y6471D01*
X5603Y6462D01*
X5624Y6457D01*
X5638Y6453D01*
X5647Y6448D01*
X5652D01*
X5712Y6432D01*
X5743Y6427D01*
X5771Y6422D01*
X5794Y6418D01*
X5813Y6415D01*
X5824Y6413D01*
X5829D01*
X5906Y6408D01*
X5943Y6406D01*
X5978D01*
X6009Y6404D01*
X7468D01*
X7473Y6380D01*
X7475Y6362D01*
X7477Y6348D01*
Y6346D01*
Y6343D01*
X7480Y6320D01*
Y6299D01*
X7482Y6283D01*
Y6280D01*
Y6278D01*
X7484Y6252D01*
Y6229D01*
Y6220D01*
Y6213D01*
Y6210D01*
Y6208D01*
X7487Y6187D01*
X7489Y6168D01*
Y6154D01*
Y6152D01*
Y6150D01*
Y6131D01*
X7487Y6112D01*
X7484Y6098D01*
Y6096D01*
Y6094D01*
Y6073D01*
Y6052D01*
X7482Y6042D01*
Y6035D01*
Y6031D01*
Y6028D01*
X7480Y5998D01*
X7475Y5972D01*
X7473Y5951D01*
Y5935D01*
X7470Y5921D01*
X7468Y5909D01*
Y5905D01*
Y5902D01*
X6032D01*
X5960Y5905D01*
X5894Y5907D01*
X5836Y5912D01*
X5785Y5916D01*
X5761Y5919D01*
X5740Y5921D01*
X5724D01*
X5710Y5923D01*
X5698Y5926D01*
X5689Y5928D01*
X5682D01*
X5626Y5937D01*
X5572Y5949D01*
X5526Y5961D01*
X5486Y5972D01*
X5454Y5982D01*
X5428Y5991D01*
X5419Y5993D01*
X5412Y5996D01*
X5409Y5998D01*
X5407D01*
X5365Y6017D01*
X5323Y6035D01*
X5288Y6054D01*
X5258Y6073D01*
X5232Y6089D01*
X5213Y6101D01*
X5202Y6110D01*
X5197Y6112D01*
X5164Y6138D01*
X5134Y6164D01*
X5106Y6187D01*
X5083Y6210D01*
X5064Y6229D01*
X5050Y6245D01*
X5041Y6255D01*
X5039Y6259D01*
X5015Y6292D01*
X4994Y6322D01*
X4976Y6353D01*
X4959Y6380D01*
X4948Y6404D01*
X4936Y6422D01*
X4931Y6434D01*
X4929Y6439D01*
X4901Y6513D01*
X4889Y6548D01*
X4880Y6581D01*
X4873Y6607D01*
X4868Y6628D01*
X4864Y6642D01*
Y6646D01*
X4857Y6688D01*
X4850Y6728D01*
X4845Y6768D01*
X4840Y6803D01*
X4836Y6831D01*
X4833Y6854D01*
Y6861D01*
X4831Y6868D01*
Y6870D01*
Y6872D01*
X4829Y6917D01*
X4826Y6961D01*
X4824Y7001D01*
Y7038D01*
X4822Y7071D01*
Y7094D01*
Y7103D01*
Y7110D01*
Y7113D01*
Y7115D01*
Y7164D01*
X4824Y7211D01*
Y7253D01*
X4826Y7292D01*
X4829Y7325D01*
Y7350D01*
X4831Y7360D01*
Y7367D01*
Y7369D01*
Y7371D01*
X4836Y7418D01*
X4843Y7462D01*
X4847Y7504D01*
X4854Y7542D01*
X4859Y7574D01*
X4864Y7598D01*
Y7607D01*
X4866Y7614D01*
Y7616D01*
Y7619D01*
X4875Y7665D01*
X4882Y7707D01*
X4892Y7747D01*
X4899Y7780D01*
X4903Y7810D01*
X4908Y7831D01*
X4913Y7845D01*
Y7849D01*
X4922Y7887D01*
X4931Y7922D01*
X4941Y7954D01*
X4948Y7985D01*
X4952Y8008D01*
X4957Y8024D01*
X4962Y8036D01*
Y8041D01*
X7468D01*
X7473Y8020D01*
D02*
G37*
G36*
X4924Y5681D02*
X4962Y5669D01*
X4997Y5658D01*
X5027Y5648D01*
X5050Y5641D01*
X5069Y5634D01*
X5080Y5632D01*
X5085Y5630D01*
X5118Y5620D01*
X5148Y5611D01*
X5174Y5602D01*
X5197Y5595D01*
X5218Y5590D01*
X5232Y5585D01*
X5241Y5581D01*
X5244D01*
X5302Y5562D01*
X5351Y5543D01*
X5393Y5529D01*
X5428Y5520D01*
X5454Y5511D01*
X5472Y5504D01*
X5484Y5501D01*
X5489Y5499D01*
X5521Y5487D01*
X5554Y5478D01*
X5586Y5466D01*
X5619Y5457D01*
X5645Y5448D01*
X5666Y5441D01*
X5680Y5436D01*
X5682Y5434D01*
X5684D01*
X5712Y5427D01*
X5738Y5420D01*
X5747Y5415D01*
X5757Y5413D01*
X5761Y5410D01*
X5764D01*
X5799Y5399D01*
X5829Y5387D01*
X5843Y5385D01*
X5852Y5380D01*
X5859Y5378D01*
X5862D01*
X5904Y5364D01*
X5925Y5359D01*
X5943Y5352D01*
X5960Y5348D01*
X5971Y5343D01*
X5981Y5338D01*
X5983D01*
X6034Y5322D01*
X6060Y5313D01*
X6083Y5306D01*
X6102Y5299D01*
X6118Y5294D01*
X6127Y5292D01*
X6132Y5289D01*
X6183Y5273D01*
X6235Y5257D01*
X6286Y5240D01*
X6335Y5224D01*
X6377Y5212D01*
X6396Y5205D01*
X6410Y5201D01*
X6424Y5196D01*
X6433Y5194D01*
X6438Y5191D01*
X6440D01*
X6508Y5168D01*
X6580Y5145D01*
X6647Y5124D01*
X6713Y5103D01*
X6743Y5093D01*
X6769Y5084D01*
X6792Y5075D01*
X6813Y5070D01*
X6829Y5063D01*
X6843Y5058D01*
X6850Y5056D01*
X6853D01*
X6911Y5037D01*
X6969Y5019D01*
X7088Y4979D01*
X7207Y4942D01*
X7263Y4923D01*
X7317Y4905D01*
X7368Y4888D01*
X7412Y4874D01*
X7454Y4860D01*
X7489Y4849D01*
X7517Y4839D01*
X7538Y4835D01*
X7552Y4830D01*
X7557Y4828D01*
X7634Y4802D01*
X7715Y4776D01*
X7876Y4723D01*
X7958Y4697D01*
X8037Y4671D01*
X8112Y4648D01*
X8184Y4625D01*
X8252Y4601D01*
X8315Y4583D01*
X8368Y4564D01*
X8417Y4550D01*
X8438Y4543D01*
X8454Y4536D01*
X8471Y4531D01*
X8485Y4527D01*
X8494Y4524D01*
X8501Y4522D01*
X8506Y4520D01*
X8508D01*
X8513Y4494D01*
X8515Y4471D01*
Y4461D01*
X8517Y4454D01*
Y4452D01*
Y4450D01*
X8520Y4422D01*
Y4399D01*
X8522Y4387D01*
Y4380D01*
Y4375D01*
Y4373D01*
X8524Y4345D01*
Y4322D01*
Y4312D01*
Y4305D01*
Y4301D01*
Y4298D01*
X8527Y4273D01*
Y4249D01*
Y4240D01*
Y4233D01*
Y4228D01*
Y4226D01*
Y4198D01*
Y4175D01*
X8524Y4163D01*
Y4156D01*
Y4151D01*
Y4149D01*
Y4121D01*
Y4095D01*
X8522Y4086D01*
Y4079D01*
Y4074D01*
Y4072D01*
X8520Y4044D01*
Y4021D01*
X8517Y4011D01*
Y4004D01*
Y4000D01*
Y3997D01*
X8515Y3972D01*
X8510Y3951D01*
X8508Y3935D01*
Y3932D01*
Y3930D01*
X8466Y3916D01*
X8427Y3904D01*
X8392Y3893D01*
X8361Y3883D01*
X8338Y3874D01*
X8319Y3867D01*
X8308Y3865D01*
X8303Y3862D01*
X8270Y3853D01*
X8242Y3844D01*
X8214Y3834D01*
X8191Y3827D01*
X8172Y3823D01*
X8158Y3818D01*
X8149Y3813D01*
X8147D01*
X8088Y3795D01*
X8039Y3778D01*
X7997Y3764D01*
X7963Y3753D01*
X7935Y3743D01*
X7916Y3736D01*
X7904Y3734D01*
X7900Y3732D01*
X7867Y3720D01*
X7834Y3711D01*
X7802Y3699D01*
X7771Y3690D01*
X7743Y3680D01*
X7722Y3676D01*
X7708Y3671D01*
X7706Y3669D01*
X7704D01*
X7678Y3659D01*
X7652Y3650D01*
X7643Y3648D01*
X7634Y3645D01*
X7629Y3643D01*
X7627D01*
X7592Y3631D01*
X7559Y3622D01*
X7547Y3617D01*
X7536Y3613D01*
X7529Y3610D01*
X7526D01*
X7484Y3596D01*
X7466Y3592D01*
X7447Y3585D01*
X7431Y3580D01*
X7419Y3575D01*
X7410Y3571D01*
X7408D01*
X7356Y3554D01*
X7331Y3545D01*
X7307Y3538D01*
X7286Y3531D01*
X7270Y3526D01*
X7261Y3524D01*
X7256Y3522D01*
X7205Y3505D01*
X7153Y3489D01*
X7102Y3473D01*
X7053Y3457D01*
X7011Y3443D01*
X6992Y3436D01*
X6979Y3431D01*
X6965Y3426D01*
X6955Y3424D01*
X6951Y3422D01*
X6948D01*
X6881Y3401D01*
X6808Y3377D01*
X6741Y3354D01*
X6678Y3335D01*
X6647Y3324D01*
X6622Y3317D01*
X6598Y3307D01*
X6577Y3303D01*
X6561Y3296D01*
X6547Y3291D01*
X6540Y3289D01*
X6538D01*
X6482Y3270D01*
X6421Y3251D01*
X6302Y3212D01*
X6183Y3174D01*
X6127Y3156D01*
X6074Y3137D01*
X6023Y3121D01*
X5976Y3107D01*
X5936Y3093D01*
X5899Y3081D01*
X5871Y3072D01*
X5850Y3067D01*
X5836Y3062D01*
X5834Y3060D01*
X5831D01*
X5754Y3034D01*
X5675Y3009D01*
X5512Y2955D01*
X5433Y2930D01*
X5353Y2904D01*
X5276Y2878D01*
X5204Y2855D01*
X5136Y2834D01*
X5076Y2813D01*
X5020Y2794D01*
X4973Y2780D01*
X4952Y2773D01*
X4936Y2766D01*
X4920Y2762D01*
X4906Y2757D01*
X4896Y2755D01*
X4889Y2752D01*
X4885Y2750D01*
X4882D01*
X4878Y2771D01*
X4873Y2790D01*
X4871Y2804D01*
Y2806D01*
Y2808D01*
X4868Y2832D01*
Y2850D01*
X4866Y2867D01*
Y2869D01*
Y2871D01*
X4864Y2897D01*
Y2920D01*
Y2927D01*
Y2934D01*
Y2939D01*
Y2941D01*
X4861Y2967D01*
Y2990D01*
Y2997D01*
Y3004D01*
Y3009D01*
Y3011D01*
Y3034D01*
X4864Y3055D01*
Y3072D01*
Y3074D01*
Y3076D01*
Y3102D01*
X4866Y3123D01*
Y3132D01*
Y3139D01*
Y3142D01*
Y3144D01*
X4868Y3167D01*
Y3186D01*
X4871Y3202D01*
Y3205D01*
Y3207D01*
X4875Y3233D01*
X4878Y3254D01*
X4880Y3263D01*
X4882Y3270D01*
Y3272D01*
Y3275D01*
X4983Y3305D01*
X5078Y3333D01*
X5167Y3359D01*
X5248Y3382D01*
X5323Y3403D01*
X5393Y3424D01*
X5454Y3443D01*
X5510Y3459D01*
X5558Y3473D01*
X5600Y3484D01*
X5638Y3496D01*
X5668Y3503D01*
X5689Y3510D01*
X5705Y3515D01*
X5717Y3519D01*
X5719D01*
Y3603D01*
Y3687D01*
Y3767D01*
Y3844D01*
Y3916D01*
Y3988D01*
Y4056D01*
Y4123D01*
Y4186D01*
Y4247D01*
Y4305D01*
Y4359D01*
Y4413D01*
Y4461D01*
Y4508D01*
Y4552D01*
Y4594D01*
Y4634D01*
Y4669D01*
Y4704D01*
Y4734D01*
Y4762D01*
Y4788D01*
Y4811D01*
Y4832D01*
Y4849D01*
Y4865D01*
Y4877D01*
Y4886D01*
Y4893D01*
Y4895D01*
Y4898D01*
X5696Y4905D01*
X5675Y4911D01*
X5656Y4918D01*
X5640Y4923D01*
X5612Y4930D01*
X5593Y4937D01*
X5582Y4939D01*
X5572Y4942D01*
X5568Y4944D01*
X5563Y4946D01*
X5556D01*
X5540Y4953D01*
X5517Y4960D01*
X5493Y4967D01*
X5470Y4974D01*
X5449Y4981D01*
X5435Y4984D01*
X5433Y4986D01*
X5430D01*
X5407Y4993D01*
X5384Y4998D01*
X5372Y5000D01*
X5365Y5002D01*
X5360Y5005D01*
X5358D01*
X5328Y5016D01*
X5297Y5026D01*
X5283Y5030D01*
X5272Y5033D01*
X5265Y5035D01*
X5262D01*
X5237Y5044D01*
X5209Y5054D01*
X5181Y5061D01*
X5157Y5068D01*
X5134Y5075D01*
X5118Y5079D01*
X5106Y5084D01*
X5101D01*
X5064Y5096D01*
X5027Y5107D01*
X4990Y5119D01*
X4957Y5128D01*
X4927Y5138D01*
X4903Y5145D01*
X4894Y5147D01*
X4887Y5149D01*
X4885Y5152D01*
X4882D01*
X4878Y5173D01*
X4873Y5194D01*
X4871Y5208D01*
Y5210D01*
Y5212D01*
X4868Y5236D01*
Y5259D01*
X4866Y5268D01*
Y5273D01*
Y5278D01*
Y5280D01*
X4864Y5303D01*
Y5327D01*
Y5336D01*
Y5341D01*
Y5345D01*
Y5348D01*
X4861Y5371D01*
Y5392D01*
Y5408D01*
Y5410D01*
Y5413D01*
Y5441D01*
X4864Y5464D01*
Y5471D01*
Y5478D01*
Y5483D01*
Y5485D01*
Y5511D01*
X4866Y5536D01*
Y5546D01*
Y5553D01*
Y5557D01*
Y5560D01*
X4868Y5588D01*
Y5611D01*
X4871Y5618D01*
Y5625D01*
Y5630D01*
Y5632D01*
X4875Y5658D01*
X4878Y5676D01*
X4882Y5690D01*
Y5693D01*
Y5695D01*
X4924Y5681D01*
D02*
G37*
G36*
X6771Y15973D02*
X6853Y15971D01*
X6930Y15964D01*
X7004Y15957D01*
X7074Y15948D01*
X7142Y15938D01*
X7202Y15927D01*
X7258Y15917D01*
X7310Y15906D01*
X7356Y15894D01*
X7396Y15885D01*
X7429Y15875D01*
X7454Y15868D01*
X7473Y15861D01*
X7484Y15859D01*
X7489Y15857D01*
X7552Y15833D01*
X7613Y15808D01*
X7671Y15780D01*
X7727Y15752D01*
X7778Y15721D01*
X7827Y15693D01*
X7872Y15663D01*
X7914Y15635D01*
X7951Y15607D01*
X7983Y15584D01*
X8011Y15560D01*
X8035Y15542D01*
X8053Y15525D01*
X8067Y15512D01*
X8077Y15505D01*
X8079Y15502D01*
X8123Y15456D01*
X8165Y15409D01*
X8203Y15360D01*
X8238Y15309D01*
X8270Y15260D01*
X8301Y15211D01*
X8326Y15162D01*
X8352Y15117D01*
X8373Y15073D01*
X8389Y15036D01*
X8406Y14999D01*
X8417Y14968D01*
X8429Y14945D01*
X8436Y14926D01*
X8438Y14915D01*
X8441Y14910D01*
X8461Y14842D01*
X8480Y14772D01*
X8496Y14700D01*
X8510Y14630D01*
X8522Y14558D01*
X8531Y14490D01*
X8541Y14423D01*
X8548Y14360D01*
X8552Y14301D01*
X8555Y14248D01*
X8557Y14199D01*
X8559Y14157D01*
X8562Y14124D01*
Y14110D01*
Y14098D01*
Y14089D01*
Y14082D01*
Y14080D01*
Y14078D01*
Y14033D01*
Y13991D01*
Y13952D01*
Y13917D01*
X8559Y13886D01*
Y13865D01*
Y13856D01*
Y13849D01*
Y13847D01*
Y13844D01*
X8557Y13800D01*
X8555Y13756D01*
X8552Y13714D01*
X8550Y13679D01*
X8548Y13646D01*
Y13623D01*
X8545Y13613D01*
Y13606D01*
Y13604D01*
Y13602D01*
X8543Y13560D01*
X8538Y13520D01*
X8536Y13485D01*
X8534Y13455D01*
X8531Y13432D01*
X8529Y13413D01*
X8527Y13401D01*
Y13397D01*
X8520Y13329D01*
X8517Y13299D01*
X8515Y13268D01*
X8513Y13245D01*
X8510Y13226D01*
X8508Y13215D01*
Y13210D01*
Y13201D01*
Y13198D01*
Y13191D01*
Y13189D01*
Y13187D01*
X4882D01*
X4873Y13252D01*
X4868Y13282D01*
X4866Y13313D01*
X4864Y13336D01*
X4861Y13357D01*
X4859Y13369D01*
Y13373D01*
X4852Y13448D01*
X4850Y13485D01*
X4847Y13518D01*
X4845Y13546D01*
X4843Y13569D01*
X4840Y13576D01*
Y13583D01*
Y13585D01*
Y13588D01*
X4836Y13630D01*
X4833Y13672D01*
X4831Y13711D01*
X4829Y13746D01*
X4826Y13777D01*
X4824Y13800D01*
Y13809D01*
Y13816D01*
Y13819D01*
Y13821D01*
Y13865D01*
X4822Y13907D01*
Y13947D01*
Y13982D01*
Y14012D01*
Y14036D01*
Y14045D01*
Y14052D01*
Y14054D01*
Y14057D01*
X4824Y14145D01*
X4826Y14229D01*
X4833Y14311D01*
X4840Y14388D01*
X4847Y14462D01*
X4859Y14530D01*
X4868Y14595D01*
X4880Y14653D01*
X4889Y14707D01*
X4901Y14754D01*
X4910Y14796D01*
X4917Y14831D01*
X4927Y14856D01*
X4931Y14877D01*
X4934Y14889D01*
X4936Y14894D01*
X4959Y14959D01*
X4983Y15022D01*
X5011Y15082D01*
X5039Y15138D01*
X5067Y15192D01*
X5094Y15241D01*
X5125Y15285D01*
X5150Y15327D01*
X5178Y15365D01*
X5202Y15397D01*
X5225Y15425D01*
X5244Y15449D01*
X5260Y15467D01*
X5272Y15479D01*
X5279Y15488D01*
X5281Y15491D01*
X5325Y15535D01*
X5372Y15577D01*
X5419Y15614D01*
X5468Y15649D01*
X5517Y15682D01*
X5565Y15712D01*
X5612Y15740D01*
X5656Y15763D01*
X5698Y15784D01*
X5738Y15803D01*
X5773Y15819D01*
X5803Y15831D01*
X5827Y15843D01*
X5845Y15850D01*
X5857Y15852D01*
X5862Y15854D01*
X5929Y15875D01*
X5999Y15894D01*
X6069Y15910D01*
X6139Y15924D01*
X6209Y15936D01*
X6277Y15945D01*
X6344Y15955D01*
X6407Y15962D01*
X6466Y15966D01*
X6519Y15969D01*
X6566Y15971D01*
X6608Y15973D01*
X6640Y15976D01*
X6687D01*
X6771Y15973D01*
D02*
G37*
G36*
X5822Y12788D02*
X5848Y12786D01*
X5873Y12783D01*
X5892Y12781D01*
X5908Y12779D01*
X5920Y12776D01*
X5922D01*
X5983Y12765D01*
X6011Y12758D01*
X6034Y12751D01*
X6055Y12744D01*
X6071Y12739D01*
X6081Y12737D01*
X6085Y12734D01*
X6144Y12711D01*
X6172Y12699D01*
X6195Y12688D01*
X6214Y12676D01*
X6228Y12669D01*
X6239Y12664D01*
X6242Y12662D01*
X6270Y12646D01*
X6295Y12630D01*
X6321Y12613D01*
X6340Y12597D01*
X6358Y12585D01*
X6370Y12574D01*
X6379Y12567D01*
X6382Y12564D01*
X6431Y12520D01*
X6452Y12499D01*
X6468Y12480D01*
X6484Y12462D01*
X6496Y12448D01*
X6503Y12438D01*
X6505Y12436D01*
X6542Y12382D01*
X6559Y12357D01*
X6573Y12331D01*
X6584Y12310D01*
X6594Y12294D01*
X6598Y12284D01*
X6601Y12280D01*
X6626Y12212D01*
X6638Y12179D01*
X6645Y12151D01*
X6652Y12126D01*
X6657Y12107D01*
X6661Y12093D01*
Y12091D01*
Y12089D01*
X6673Y12012D01*
X6678Y11974D01*
X6680Y11939D01*
X6682Y11909D01*
Y11888D01*
Y11879D01*
Y11872D01*
Y11869D01*
Y11867D01*
Y11855D01*
Y11851D01*
Y11848D01*
Y11839D01*
Y11832D01*
Y11827D01*
Y11825D01*
Y11813D01*
Y11811D01*
Y11809D01*
X6680Y11797D01*
X6678Y11792D01*
Y11790D01*
X6764Y11846D01*
X6848Y11902D01*
X6927Y11956D01*
X7004Y12007D01*
X7079Y12056D01*
X7151Y12103D01*
X7221Y12149D01*
X7289Y12193D01*
X7352Y12235D01*
X7415Y12275D01*
X7473Y12315D01*
X7529Y12352D01*
X7582Y12387D01*
X7631Y12420D01*
X7680Y12450D01*
X7725Y12480D01*
X7767Y12508D01*
X7806Y12534D01*
X7844Y12560D01*
X7879Y12581D01*
X7909Y12602D01*
X7937Y12620D01*
X7965Y12639D01*
X7988Y12653D01*
X8007Y12667D01*
X8025Y12678D01*
X8039Y12688D01*
X8053Y12697D01*
X8063Y12704D01*
X8070Y12706D01*
X8072Y12711D01*
X8074D01*
X8100Y12695D01*
X8119Y12683D01*
X8130Y12676D01*
X8133Y12674D01*
Y12630D01*
Y12609D01*
Y12592D01*
Y12578D01*
Y12569D01*
Y12562D01*
Y12560D01*
Y12525D01*
Y12497D01*
Y12487D01*
Y12478D01*
Y12473D01*
Y12471D01*
Y12429D01*
Y12392D01*
Y12361D01*
Y12338D01*
Y12319D01*
Y12305D01*
Y12298D01*
Y12296D01*
Y12273D01*
Y12247D01*
Y12219D01*
Y12189D01*
Y12163D01*
Y12142D01*
Y12126D01*
Y12124D01*
Y12121D01*
Y12098D01*
Y12075D01*
Y12065D01*
Y12058D01*
Y12054D01*
Y12051D01*
Y12023D01*
Y11995D01*
Y11984D01*
Y11977D01*
Y11970D01*
Y11967D01*
Y11939D01*
Y11911D01*
Y11881D01*
Y11855D01*
Y11832D01*
Y11811D01*
Y11799D01*
Y11797D01*
Y11795D01*
Y11757D01*
Y11718D01*
Y11678D01*
Y11641D01*
Y11611D01*
Y11585D01*
Y11576D01*
Y11569D01*
Y11564D01*
Y11562D01*
Y11496D01*
Y11429D01*
Y11363D01*
Y11300D01*
Y11272D01*
Y11247D01*
Y11223D01*
Y11202D01*
Y11188D01*
Y11175D01*
Y11168D01*
Y11165D01*
Y11077D01*
Y10986D01*
Y10897D01*
Y10853D01*
Y10813D01*
Y10776D01*
Y10741D01*
Y10708D01*
Y10683D01*
Y10662D01*
Y10645D01*
Y10636D01*
Y10631D01*
X8114Y10627D01*
X8095Y10624D01*
X8081Y10622D01*
X8079Y10620D01*
X8077D01*
X8056Y10617D01*
X8037D01*
X8023Y10615D01*
X8018D01*
X7995Y10613D01*
X7976D01*
X7963Y10610D01*
X7860D01*
X7841Y10613D01*
X7809D01*
X7797Y10615D01*
X7788D01*
X7750Y10620D01*
X7732Y10622D01*
X7718Y10624D01*
X7704Y10627D01*
X7694Y10629D01*
X7687Y10631D01*
X7685D01*
Y10710D01*
Y10787D01*
Y10862D01*
Y10934D01*
Y11004D01*
Y11072D01*
Y11137D01*
Y11198D01*
Y11258D01*
Y11314D01*
Y11368D01*
Y11422D01*
Y11471D01*
Y11517D01*
Y11562D01*
Y11604D01*
Y11641D01*
Y11678D01*
Y11713D01*
Y11743D01*
Y11774D01*
Y11799D01*
Y11823D01*
Y11844D01*
Y11865D01*
Y11881D01*
Y11895D01*
Y11904D01*
Y11914D01*
Y11921D01*
Y11923D01*
Y11925D01*
X7603Y11874D01*
X7524Y11823D01*
X7447Y11776D01*
X7375Y11729D01*
X7303Y11683D01*
X7235Y11641D01*
X7167Y11599D01*
X7104Y11557D01*
X7044Y11520D01*
X6986Y11482D01*
X6930Y11447D01*
X6876Y11412D01*
X6827Y11382D01*
X6778Y11352D01*
X6734Y11321D01*
X6689Y11296D01*
X6650Y11270D01*
X6612Y11244D01*
X6577Y11223D01*
X6545Y11202D01*
X6515Y11184D01*
X6489Y11165D01*
X6463Y11151D01*
X6442Y11137D01*
X6421Y11123D01*
X6405Y11114D01*
X6391Y11105D01*
X6379Y11098D01*
X6370Y11091D01*
X6363Y11086D01*
X6361Y11084D01*
X6358D01*
X6347Y11091D01*
X6342Y11095D01*
X6337D01*
X6333Y11100D01*
X6326Y11105D01*
X6316Y11109D01*
X6307Y11116D01*
X6298Y11121D01*
X6293Y11123D01*
X6291Y11126D01*
X6298Y11163D01*
X6305Y11193D01*
X6307Y11207D01*
Y11216D01*
X6309Y11223D01*
Y11226D01*
X6316Y11265D01*
X6319Y11282D01*
X6321Y11298D01*
Y11312D01*
X6323Y11321D01*
Y11328D01*
Y11331D01*
X6326Y11368D01*
Y11398D01*
X6328Y11412D01*
Y11422D01*
Y11429D01*
Y11431D01*
X6330Y11468D01*
Y11487D01*
Y11501D01*
Y11515D01*
Y11524D01*
Y11531D01*
Y11534D01*
X6328Y11594D01*
X6326Y11650D01*
X6319Y11701D01*
X6312Y11746D01*
X6305Y11783D01*
X6302Y11797D01*
X6300Y11811D01*
X6298Y11820D01*
X6295Y11827D01*
X6293Y11832D01*
Y11834D01*
X6277Y11883D01*
X6258Y11928D01*
X6239Y11970D01*
X6221Y12005D01*
X6204Y12033D01*
X6190Y12056D01*
X6181Y12070D01*
X6179Y12075D01*
X6148Y12112D01*
X6118Y12142D01*
X6085Y12168D01*
X6055Y12191D01*
X6030Y12207D01*
X6006Y12219D01*
X5992Y12226D01*
X5990Y12228D01*
X5988D01*
X5943Y12247D01*
X5897Y12259D01*
X5850Y12268D01*
X5808Y12275D01*
X5771Y12280D01*
X5754D01*
X5740Y12282D01*
X5677D01*
X5640Y12280D01*
X5607Y12275D01*
X5579Y12273D01*
X5554Y12268D01*
X5538Y12263D01*
X5526Y12261D01*
X5521D01*
X5491Y12254D01*
X5461Y12245D01*
X5435Y12238D01*
X5412Y12228D01*
X5391Y12219D01*
X5377Y12214D01*
X5367Y12210D01*
X5365Y12207D01*
X5339Y12193D01*
X5314Y12179D01*
X5293Y12163D01*
X5272Y12151D01*
X5258Y12140D01*
X5244Y12131D01*
X5237Y12124D01*
X5234Y12121D01*
X5192Y12084D01*
X5174Y12065D01*
X5160Y12047D01*
X5146Y12033D01*
X5136Y12021D01*
X5132Y12012D01*
X5129Y12009D01*
X5097Y11963D01*
X5083Y11939D01*
X5074Y11918D01*
X5064Y11902D01*
X5057Y11886D01*
X5053Y11876D01*
X5050Y11874D01*
X5029Y11820D01*
X5020Y11795D01*
X5013Y11769D01*
X5006Y11748D01*
X5001Y11732D01*
X4997Y11722D01*
Y11718D01*
X4985Y11655D01*
X4978Y11625D01*
X4976Y11599D01*
X4971Y11576D01*
X4969Y11559D01*
X4966Y11548D01*
Y11543D01*
X4962Y11478D01*
X4959Y11445D01*
Y11417D01*
X4957Y11391D01*
Y11373D01*
Y11361D01*
Y11356D01*
Y11314D01*
X4959Y11275D01*
Y11240D01*
X4962Y11207D01*
X4964Y11179D01*
Y11161D01*
X4966Y11147D01*
Y11144D01*
Y11142D01*
X4971Y11105D01*
X4976Y11070D01*
X4980Y11039D01*
X4985Y11009D01*
X4990Y10986D01*
X4994Y10969D01*
X4997Y10958D01*
Y10953D01*
X5015Y10888D01*
X5022Y10860D01*
X5029Y10834D01*
X5036Y10811D01*
X5041Y10794D01*
X5046Y10785D01*
Y10780D01*
X5067Y10720D01*
X5076Y10692D01*
X5085Y10666D01*
X5092Y10645D01*
X5099Y10629D01*
X5101Y10620D01*
X5104Y10615D01*
X5067Y10594D01*
X5048Y10585D01*
X5034Y10578D01*
X5020Y10571D01*
X5011Y10566D01*
X5004Y10564D01*
X5001Y10561D01*
X4964Y10545D01*
X4945Y10538D01*
X4929Y10531D01*
X4915Y10524D01*
X4906Y10522D01*
X4899Y10517D01*
X4896D01*
X4859Y10503D01*
X4840Y10496D01*
X4824Y10491D01*
X4810Y10487D01*
X4798Y10482D01*
X4791Y10480D01*
X4789D01*
X4749Y10470D01*
X4731Y10468D01*
X4714Y10463D01*
X4700Y10461D01*
X4689D01*
X4682Y10459D01*
X4679D01*
X4649Y10538D01*
X4637Y10575D01*
X4626Y10608D01*
X4616Y10636D01*
X4612Y10659D01*
X4607Y10673D01*
X4605Y10676D01*
Y10678D01*
X4584Y10757D01*
X4575Y10794D01*
X4568Y10829D01*
X4563Y10857D01*
X4558Y10881D01*
X4554Y10895D01*
Y10897D01*
Y10899D01*
X4542Y10981D01*
X4535Y11021D01*
X4533Y11056D01*
X4528Y11084D01*
X4526Y11107D01*
Y11116D01*
X4523Y11123D01*
Y11126D01*
Y11128D01*
X4521Y11172D01*
X4519Y11216D01*
X4516Y11258D01*
Y11296D01*
X4514Y11326D01*
Y11352D01*
Y11361D01*
Y11368D01*
Y11370D01*
Y11373D01*
Y11426D01*
X4516Y11478D01*
X4519Y11527D01*
X4523Y11569D01*
X4526Y11604D01*
Y11618D01*
X4528Y11632D01*
Y11641D01*
X4530Y11648D01*
Y11653D01*
Y11655D01*
X4540Y11706D01*
X4549Y11755D01*
X4558Y11799D01*
X4565Y11839D01*
X4575Y11874D01*
X4582Y11900D01*
X4584Y11909D01*
Y11916D01*
X4586Y11918D01*
Y11921D01*
X4600Y11967D01*
X4616Y12012D01*
X4633Y12054D01*
X4647Y12091D01*
X4661Y12121D01*
X4670Y12144D01*
X4675Y12151D01*
X4677Y12158D01*
X4679Y12161D01*
Y12163D01*
X4700Y12203D01*
X4724Y12242D01*
X4747Y12277D01*
X4768Y12310D01*
X4787Y12336D01*
X4801Y12357D01*
X4812Y12368D01*
X4815Y12373D01*
X4845Y12408D01*
X4875Y12441D01*
X4903Y12469D01*
X4929Y12494D01*
X4952Y12515D01*
X4971Y12532D01*
X4983Y12543D01*
X4987Y12546D01*
X5025Y12571D01*
X5062Y12597D01*
X5099Y12618D01*
X5132Y12639D01*
X5160Y12653D01*
X5183Y12667D01*
X5190Y12671D01*
X5197Y12674D01*
X5199Y12676D01*
X5202D01*
X5246Y12697D01*
X5293Y12713D01*
X5337Y12727D01*
X5377Y12741D01*
X5409Y12751D01*
X5426Y12753D01*
X5437Y12758D01*
X5447Y12760D01*
X5454D01*
X5458Y12762D01*
X5461D01*
X5514Y12772D01*
X5565Y12779D01*
X5617Y12783D01*
X5663Y12788D01*
X5703D01*
X5719Y12790D01*
X5761D01*
X5822Y12788D01*
D02*
G37*
%LPC*%
G36*
X6752Y15430D02*
X6629D01*
X6559Y15425D01*
X6494Y15423D01*
X6466Y15421D01*
X6438Y15418D01*
X6412Y15416D01*
X6391Y15414D01*
X6372Y15411D01*
X6356Y15409D01*
X6342Y15407D01*
X6333D01*
X6328Y15404D01*
X6326D01*
X6263Y15395D01*
X6204Y15383D01*
X6151Y15372D01*
X6106Y15360D01*
X6069Y15351D01*
X6053Y15346D01*
X6039Y15341D01*
X6030Y15339D01*
X6023Y15337D01*
X6018Y15334D01*
X6016D01*
X5964Y15316D01*
X5918Y15297D01*
X5876Y15276D01*
X5841Y15260D01*
X5810Y15243D01*
X5787Y15229D01*
X5773Y15220D01*
X5771Y15218D01*
X5768D01*
X5729Y15192D01*
X5694Y15164D01*
X5661Y15138D01*
X5633Y15115D01*
X5610Y15094D01*
X5593Y15075D01*
X5584Y15066D01*
X5579Y15061D01*
X5549Y15029D01*
X5524Y14994D01*
X5500Y14961D01*
X5479Y14931D01*
X5463Y14905D01*
X5449Y14887D01*
X5442Y14873D01*
X5440Y14870D01*
Y14868D01*
X5419Y14828D01*
X5400Y14789D01*
X5386Y14749D01*
X5372Y14714D01*
X5363Y14684D01*
X5356Y14660D01*
X5351Y14651D01*
Y14644D01*
X5349Y14642D01*
Y14639D01*
X5337Y14593D01*
X5325Y14546D01*
X5316Y14504D01*
X5309Y14465D01*
X5304Y14430D01*
X5300Y14404D01*
Y14395D01*
X5297Y14388D01*
Y14383D01*
Y14381D01*
X5288Y14280D01*
X5286Y14231D01*
X5283Y14189D01*
X5281Y14152D01*
Y14136D01*
Y14122D01*
Y14110D01*
Y14103D01*
Y14098D01*
Y14096D01*
Y14054D01*
Y14036D01*
X5283Y14019D01*
Y14005D01*
Y13994D01*
Y13987D01*
Y13984D01*
X5286Y13945D01*
Y13926D01*
Y13910D01*
X5288Y13898D01*
Y13886D01*
Y13879D01*
Y13877D01*
X5293Y13837D01*
X5295Y13802D01*
X5297Y13772D01*
X5300Y13746D01*
X5302Y13728D01*
X5304Y13714D01*
Y13704D01*
Y13702D01*
X8084D01*
X8088Y13735D01*
X8091Y13765D01*
X8093Y13777D01*
Y13786D01*
Y13793D01*
Y13795D01*
X8098Y13835D01*
X8100Y13851D01*
Y13868D01*
X8102Y13882D01*
Y13893D01*
Y13900D01*
Y13903D01*
X8105Y13945D01*
Y13961D01*
Y13980D01*
Y13991D01*
Y14003D01*
Y14010D01*
Y14012D01*
Y14050D01*
Y14068D01*
Y14082D01*
Y14094D01*
Y14105D01*
Y14110D01*
Y14112D01*
Y14166D01*
X8102Y14217D01*
X8098Y14264D01*
X8095Y14306D01*
X8091Y14341D01*
X8088Y14357D01*
X8086Y14369D01*
Y14378D01*
X8084Y14385D01*
Y14390D01*
Y14392D01*
X8077Y14441D01*
X8067Y14488D01*
X8058Y14532D01*
X8049Y14569D01*
X8042Y14602D01*
X8035Y14625D01*
X8032Y14635D01*
X8030Y14642D01*
X8028Y14644D01*
Y14646D01*
X8014Y14691D01*
X7997Y14733D01*
X7981Y14772D01*
X7965Y14805D01*
X7951Y14833D01*
X7939Y14854D01*
X7932Y14868D01*
X7930Y14873D01*
X7907Y14910D01*
X7881Y14947D01*
X7855Y14980D01*
X7832Y15008D01*
X7813Y15031D01*
X7797Y15050D01*
X7788Y15059D01*
X7783Y15064D01*
X7750Y15094D01*
X7715Y15124D01*
X7685Y15150D01*
X7655Y15173D01*
X7629Y15192D01*
X7608Y15206D01*
X7594Y15215D01*
X7592Y15218D01*
X7589D01*
X7547Y15243D01*
X7505Y15267D01*
X7464Y15285D01*
X7426Y15302D01*
X7396Y15316D01*
X7370Y15325D01*
X7361Y15330D01*
X7354Y15332D01*
X7349Y15334D01*
X7347D01*
X7296Y15351D01*
X7244Y15365D01*
X7193Y15376D01*
X7149Y15388D01*
X7109Y15395D01*
X7093Y15397D01*
X7079Y15400D01*
X7067Y15402D01*
X7058Y15404D01*
X7051D01*
X6990Y15414D01*
X6930Y15418D01*
X6871Y15423D01*
X6818Y15428D01*
X6771D01*
X6752Y15430D01*
D02*
G37*
G36*
X6169Y4762D02*
X6167D01*
Y4629D01*
Y4503D01*
Y4387D01*
Y4280D01*
Y4179D01*
Y4088D01*
Y4007D01*
Y3935D01*
Y3869D01*
Y3813D01*
Y3764D01*
Y3727D01*
Y3697D01*
Y3673D01*
Y3662D01*
Y3657D01*
X6281Y3692D01*
X6391Y3725D01*
X6498Y3755D01*
X6601Y3785D01*
X6701Y3816D01*
X6797Y3844D01*
X6890Y3872D01*
X6979Y3897D01*
X7062Y3923D01*
X7144Y3946D01*
X7221Y3969D01*
X7296Y3993D01*
X7366Y4014D01*
X7433Y4032D01*
X7496Y4051D01*
X7557Y4070D01*
X7613Y4086D01*
X7664Y4102D01*
X7713Y4116D01*
X7760Y4130D01*
X7799Y4142D01*
X7839Y4154D01*
X7872Y4163D01*
X7904Y4172D01*
X7930Y4182D01*
X7953Y4189D01*
X7974Y4193D01*
X7990Y4198D01*
X8002Y4203D01*
X8011Y4205D01*
X8016Y4207D01*
X8018D01*
X7904Y4242D01*
X7795Y4275D01*
X7687Y4308D01*
X7585Y4338D01*
X7484Y4368D01*
X7389Y4396D01*
X7296Y4424D01*
X7207Y4450D01*
X7123Y4475D01*
X7041Y4501D01*
X6965Y4524D01*
X6890Y4545D01*
X6820Y4566D01*
X6752Y4587D01*
X6689Y4606D01*
X6629Y4625D01*
X6573Y4641D01*
X6521Y4657D01*
X6473Y4671D01*
X6428Y4685D01*
X6386Y4697D01*
X6347Y4709D01*
X6314Y4718D01*
X6284Y4727D01*
X6256Y4737D01*
X6232Y4744D01*
X6211Y4748D01*
X6195Y4753D01*
X6183Y4758D01*
X6174Y4760D01*
X6169Y4762D01*
D02*
G37*
%LPD*%
D24*
X16671Y17000D02*
G03*
X16671Y17000I-1171J0D01*
G01*
D28*
X19688Y4650D02*
X19805Y4767D01*
Y5000D01*
X19688Y5117D01*
X19572D01*
X19455Y5000D01*
Y4883D01*
Y5000D01*
X19338Y5117D01*
X19222D01*
X19105Y5000D01*
Y4767D01*
X19222Y4650D01*
X19688Y5350D02*
X19805Y5466D01*
Y5700D01*
X19688Y5816D01*
X19222D01*
X19105Y5700D01*
Y5466D01*
X19222Y5350D01*
X19688D01*
X19105Y6050D02*
X19572D01*
Y6166D01*
X19455Y6283D01*
X19105D01*
X19455D01*
X19572Y6399D01*
X19455Y6516D01*
X19105D01*
Y6749D02*
X19572D01*
Y6866D01*
X19455Y6983D01*
X19105D01*
X19455D01*
X19572Y7099D01*
X19455Y7216D01*
X19105D01*
X19805Y8615D02*
Y8149D01*
X19455D01*
Y8382D01*
Y8149D01*
X19105D01*
X19572Y8965D02*
Y9199D01*
X19455Y9315D01*
X19105D01*
Y8965D01*
X19222Y8849D01*
X19338Y8965D01*
Y9315D01*
X19105Y9548D02*
X19572D01*
Y9898D01*
X19455Y10015D01*
X19105D01*
X19688Y11414D02*
X19805Y11298D01*
Y11065D01*
X19688Y10948D01*
X19222D01*
X19105Y11065D01*
Y11298D01*
X19222Y11414D01*
X19105Y11764D02*
Y11998D01*
X19222Y12114D01*
X19455D01*
X19572Y11998D01*
Y11764D01*
X19455Y11648D01*
X19222D01*
X19105Y11764D01*
Y12348D02*
X19572D01*
Y12464D01*
X19455Y12581D01*
X19105D01*
X19455D01*
X19572Y12697D01*
X19455Y12814D01*
X19105D01*
X18872Y13047D02*
X19572D01*
Y13397D01*
X19455Y13514D01*
X19222D01*
X19105Y13397D01*
Y13047D01*
X19572Y13864D02*
Y14097D01*
X19455Y14214D01*
X19105D01*
Y13864D01*
X19222Y13747D01*
X19338Y13864D01*
Y14214D01*
X19688Y14563D02*
X19572D01*
Y14447D01*
Y14680D01*
Y14563D01*
X19222D01*
X19105Y14680D01*
Y15030D02*
Y15263D01*
Y15147D01*
X19572D01*
Y15030D01*
X19805Y15613D02*
X19105D01*
Y15963D01*
X19222Y16080D01*
X19338D01*
X19455D01*
X19572Y15963D01*
Y15613D01*
X19105Y16313D02*
Y16546D01*
Y16430D01*
X19805D01*
Y16313D01*
X19105Y17246D02*
Y17013D01*
X19222Y16896D01*
X19455D01*
X19572Y17013D01*
Y17246D01*
X19455Y17363D01*
X19338D01*
Y16896D01*
X21028Y4650D02*
Y4883D01*
Y4767D01*
X20328D01*
Y4650D01*
Y4883D01*
Y5233D02*
X21028D01*
Y5583D01*
X20911Y5700D01*
X20678D01*
X20561Y5583D01*
Y5233D01*
Y5466D02*
X20328Y5700D01*
X21028Y6633D02*
Y7099D01*
X20911D01*
X20445Y6633D01*
X20328D01*
Y7099D01*
Y8032D02*
X21028D01*
Y8382D01*
X20911Y8499D01*
X20678D01*
X20561Y8382D01*
Y8032D01*
X20795Y8732D02*
X20328D01*
X20561D01*
X20678Y8849D01*
X20795Y8965D01*
Y9082D01*
X20328Y9548D02*
Y9782D01*
X20445Y9898D01*
X20678D01*
X20795Y9782D01*
Y9548D01*
X20678Y9432D01*
X20445D01*
X20328Y9548D01*
X21028Y10132D02*
X20328D01*
Y10481D01*
X20445Y10598D01*
X20561D01*
X20678D01*
X20795Y10481D01*
Y10132D01*
X20328Y11181D02*
Y10948D01*
X20445Y10831D01*
X20678D01*
X20795Y10948D01*
Y11181D01*
X20678Y11298D01*
X20561D01*
Y10831D01*
X20795Y12231D02*
X20328Y12464D01*
X20795Y12697D01*
X20328Y12931D02*
Y13164D01*
Y13047D01*
X21028D01*
X20911Y12931D01*
X20328Y13514D02*
X20445D01*
Y13630D01*
X20328D01*
Y13514D01*
X20911Y14097D02*
X21028Y14214D01*
Y14447D01*
X20911Y14563D01*
X20795D01*
X20678Y14447D01*
Y14330D01*
Y14447D01*
X20561Y14563D01*
X20445D01*
X20328Y14447D01*
Y14214D01*
X20445Y14097D01*
X22600Y14650D02*
Y14250D01*
X22300D01*
X22400Y14450D01*
Y14550D01*
X22300Y14650D01*
X22100D01*
X22000Y14550D01*
Y14350D01*
X22100Y14250D01*
X22600Y14850D02*
X22200D01*
X22000Y15050D01*
X22200Y15250D01*
X22600D01*
X22500Y11900D02*
X22600Y11800D01*
Y11600D01*
X22500Y11500D01*
X22100D01*
X22000Y11600D01*
Y11800D01*
X22100Y11900D01*
X22300D01*
Y11700D01*
X22000Y12100D02*
X22600D01*
X22000Y12500D01*
X22600D01*
Y12700D02*
X22000D01*
Y13000D01*
X22100Y13099D01*
X22500D01*
X22600Y13000D01*
Y12700D01*
X22500Y6900D02*
X22600Y6800D01*
Y6600D01*
X22500Y6500D01*
X22400D01*
X22300Y6600D01*
Y6800D01*
X22200Y6900D01*
X22100D01*
X22000Y6800D01*
Y6600D01*
X22100Y6500D01*
X22600Y7100D02*
Y7300D01*
Y7200D01*
X22000D01*
Y7100D01*
Y7300D01*
X22500Y8000D02*
X22600Y7900D01*
Y7700D01*
X22500Y7600D01*
X22100D01*
X22000Y7700D01*
Y7900D01*
X22100Y8000D01*
X22300D01*
Y7800D01*
M02*
