G04 Layer_Physical_Order=2*
G04 Layer_Color=16711680*
%FSLAX43Y43*%
%MOMM*%
G71*
G01*
G75*
%ADD14C,0.250*%
%ADD15C,0.750*%
%ADD16C,0.500*%
%ADD17C,4.200*%
%ADD18C,1.270*%
%ADD19C,1.200*%
%ADD20C,1.000*%
%ADD21O,2.000X1.500*%
%ADD22C,0.600*%
%ADD23C,1.600*%
G36*
X27000Y23324D02*
X27985Y23128D01*
X28820Y22570D01*
X29378Y21735D01*
X29574Y20750D01*
X29378Y19765D01*
X29118Y19374D01*
X29152Y19352D01*
X28812Y18938D01*
X25860Y16515D01*
X25711Y16454D01*
X25592Y16165D01*
Y1500D01*
X25600Y1481D01*
X25283Y717D01*
X25077Y632D01*
X25333Y1250D01*
X25052Y1927D01*
X24375Y2208D01*
X23698Y1927D01*
X23478Y1396D01*
X21208D01*
X21458Y2000D01*
X21177Y2677D01*
X20500Y2958D01*
X19823Y2677D01*
X19710Y2406D01*
X18325D01*
X14878Y5853D01*
X14938Y6000D01*
X14764Y6421D01*
X14343Y6595D01*
X13922Y6421D01*
X13748Y6000D01*
X13922Y5579D01*
X14062Y5521D01*
X14118Y5465D01*
X13958Y5531D01*
Y4965D01*
X14524D01*
X14458Y5125D01*
X17870Y1713D01*
X18157Y1594D01*
X19710D01*
X19792Y1396D01*
X16928D01*
X14847Y3477D01*
X14560Y3596D01*
X13478D01*
X12156Y4918D01*
Y5219D01*
X12421Y5329D01*
X12595Y5750D01*
X12421Y6171D01*
X12000Y6345D01*
X11677Y6211D01*
Y14760D01*
X12139Y15223D01*
X11823Y14460D01*
X12156Y13656D01*
X12960Y13323D01*
X13358Y13488D01*
X13883Y12963D01*
X14170Y12844D01*
X14987D01*
X14696Y12724D01*
X14363Y11920D01*
X14696Y11116D01*
X14749Y11095D01*
X14329Y10921D01*
X14155Y10500D01*
X14329Y10079D01*
X14750Y9905D01*
X15171Y10079D01*
X15177Y10094D01*
X15750D01*
X16037Y10213D01*
X16043Y10227D01*
X18517Y12702D01*
X18756Y12463D01*
X19043Y12344D01*
X19272D01*
X19506Y12110D01*
X19500Y12095D01*
X19674Y11674D01*
X20095Y11500D01*
X20516Y11674D01*
X20690Y12095D01*
X20516Y12516D01*
X20095Y12690D01*
X20080Y12684D01*
X20077Y12687D01*
X20421Y12829D01*
X20595Y13250D01*
X20421Y13671D01*
X20000Y13845D01*
X19579Y13671D01*
X19573Y13656D01*
X19418D01*
X16472Y16602D01*
X16637Y17000D01*
X16304Y17804D01*
X16054Y17907D01*
X17916Y18090D01*
X20720Y18941D01*
X23304Y20322D01*
X24756Y21513D01*
X24604Y20750D01*
X24786Y19833D01*
X25306Y19056D01*
X26083Y18536D01*
X27000Y18354D01*
X27917Y18536D01*
X28694Y19056D01*
X29214Y19833D01*
X29396Y20750D01*
X29214Y21667D01*
X28694Y22444D01*
X27917Y22964D01*
X27000Y23146D01*
X26237Y22994D01*
X26522Y23342D01*
X27000D01*
Y23324D01*
D02*
G37*
G36*
X3763Y22994D02*
X3000Y23146D01*
X2083Y22964D01*
X1306Y22444D01*
X786Y21667D01*
X604Y20750D01*
X786Y19833D01*
X1306Y19056D01*
X2083Y18536D01*
X3000Y18354D01*
X3917Y18536D01*
X4694Y19056D01*
X5214Y19833D01*
X5396Y20750D01*
X5244Y21513D01*
X6696Y20322D01*
X9280Y18941D01*
X12084Y18090D01*
X12701Y18029D01*
X12156Y17804D01*
X11823Y17000D01*
X11876Y16873D01*
X10522Y15518D01*
X10323Y15040D01*
Y4439D01*
X10522Y3961D01*
X12746Y1737D01*
X13036Y1617D01*
X13057Y1564D01*
X13708Y1295D01*
X14359Y1564D01*
X14628Y2215D01*
X14393Y2783D01*
X16473Y703D01*
X16760Y584D01*
X23693D01*
X23698Y573D01*
X24095Y408D01*
X7043D01*
X7691Y677D01*
X7972Y1354D01*
X7691Y2031D01*
X7670Y2040D01*
Y5346D01*
X8769Y6445D01*
X8688Y6250D01*
X8926Y5676D01*
X9250Y5542D01*
Y6250D01*
X9500D01*
Y6500D01*
X10208D01*
X10074Y6824D01*
X9500Y7062D01*
X9305Y6981D01*
X9485Y7161D01*
X9500Y7155D01*
X9921Y7329D01*
X10095Y7750D01*
X9921Y8171D01*
X9500Y8345D01*
X9079Y8171D01*
X8905Y7750D01*
X8911Y7735D01*
X6977Y5801D01*
X6858Y5514D01*
Y2247D01*
X6337Y2031D01*
X6056Y1354D01*
X6337Y677D01*
X6985Y408D01*
X5500D01*
X5481Y400D01*
X4717Y717D01*
X4400Y1481D01*
X4408Y1500D01*
Y16165D01*
X4289Y16454D01*
X4140Y16515D01*
X1188Y18938D01*
X848Y19352D01*
X882Y19374D01*
X622Y19765D01*
X426Y20750D01*
X622Y21735D01*
X1180Y22570D01*
X2015Y23128D01*
X3000Y23324D01*
X3000D01*
Y23342D01*
X3478D01*
X3763Y22994D01*
D02*
G37*
%LPC*%
G36*
X13458Y4465D02*
X12892D01*
X13057Y4064D01*
X13458Y3899D01*
Y4465D01*
D02*
G37*
G36*
X22579Y4004D02*
X22152Y3827D01*
X22579Y3400D01*
X23006Y3827D01*
X22579Y4004D01*
D02*
G37*
G36*
X17923Y4223D02*
X17746Y3796D01*
X17923Y3369D01*
X18350Y3796D01*
X17923Y4223D01*
D02*
G37*
G36*
X13458Y5531D02*
X13057Y5366D01*
X12892Y4965D01*
X13458D01*
Y5531D01*
D02*
G37*
G36*
X18704Y4754D02*
X18277Y4577D01*
X18704Y4150D01*
X19131Y4577D01*
X18704Y4754D01*
D02*
G37*
G36*
X14524Y4465D02*
X13958D01*
Y3899D01*
X14359Y4064D01*
X14524Y4465D01*
D02*
G37*
G36*
X21798Y3473D02*
X21621Y3046D01*
X21798Y2619D01*
X22225Y3046D01*
X21798Y3473D01*
D02*
G37*
G36*
X8810Y4108D02*
X8133Y3827D01*
X7852Y3150D01*
X8133Y2473D01*
X8810Y2192D01*
X9487Y2473D01*
X9768Y3150D01*
X9487Y3827D01*
X8810Y4108D01*
D02*
G37*
G36*
X22579Y2693D02*
X22152Y2265D01*
X22579Y2088D01*
X23006Y2265D01*
X22579Y2693D01*
D02*
G37*
G36*
X19485Y4223D02*
X19058Y3796D01*
X19485Y3369D01*
X19662Y3796D01*
X19485Y4223D01*
D02*
G37*
G36*
X18704Y3443D02*
X18277Y3015D01*
X18704Y2838D01*
X19131Y3015D01*
X18704Y3443D01*
D02*
G37*
G36*
X23360Y3473D02*
X22933Y3046D01*
X23360Y2619D01*
X23537Y3046D01*
X23360Y3473D01*
D02*
G37*
G36*
X10208Y6000D02*
X9750D01*
Y5542D01*
X10074Y5676D01*
X10208Y6000D01*
D02*
G37*
G36*
X13210Y12953D02*
Y12170D01*
X13993D01*
X13764Y12724D01*
X13210Y12953D01*
D02*
G37*
G36*
X12710Y12953D02*
X12156Y12724D01*
X11927Y12170D01*
X12710D01*
Y12953D01*
D02*
G37*
G36*
X25479Y12000D02*
X24500D01*
Y11168D01*
X24500D01*
X25265Y11485D01*
X25479Y12000D01*
D02*
G37*
G36*
X24500Y15832D02*
X24000D01*
X23235Y15515D01*
X22918Y14750D01*
X23235Y13985D01*
X24000Y13668D01*
X24500D01*
X25265Y13985D01*
X25582Y14750D01*
X25265Y15515D01*
X24500Y15832D01*
D02*
G37*
G36*
Y13332D02*
X24500D01*
Y12500D01*
X25479D01*
X25265Y13015D01*
X24500Y13332D01*
D02*
G37*
G36*
X24000D02*
X24000D01*
X23235Y13015D01*
X23021Y12500D01*
X24000D01*
Y13332D01*
D02*
G37*
G36*
X24500Y10832D02*
X24000D01*
X23235Y10515D01*
X22918Y9750D01*
X23235Y8985D01*
X24000Y8668D01*
X24500D01*
X25265Y8985D01*
X25582Y9750D01*
X25265Y10515D01*
X24500Y10832D01*
D02*
G37*
G36*
X6750Y18095D02*
X6329Y17921D01*
X6155Y17500D01*
X6176Y17448D01*
X6094Y17250D01*
X6213Y16963D01*
X6594Y16582D01*
Y9500D01*
X6713Y9213D01*
X7213Y8713D01*
X7500Y8594D01*
X9273D01*
X9279Y8579D01*
X9700Y8405D01*
X10121Y8579D01*
X10295Y9000D01*
X10121Y9421D01*
X9700Y9595D01*
X9279Y9421D01*
X9273Y9406D01*
X7668D01*
X7406Y9668D01*
Y16750D01*
X7287Y17037D01*
X7193Y17131D01*
X7345Y17500D01*
X7171Y17921D01*
X6750Y18095D01*
D02*
G37*
G36*
X24500Y8332D02*
X24000D01*
X23235Y8015D01*
X23189Y7906D01*
X16750D01*
X16463Y7787D01*
X16086Y7410D01*
X16000Y7445D01*
X15579Y7271D01*
X15405Y6850D01*
X15579Y6429D01*
X16000Y6255D01*
X16421Y6429D01*
X16540Y6716D01*
X16918Y7094D01*
X22982D01*
X23235Y6485D01*
X24000Y6168D01*
X24500D01*
X25265Y6485D01*
X25582Y7250D01*
X25265Y8015D01*
X24500Y8332D01*
D02*
G37*
G36*
X24000Y12000D02*
X23021D01*
X23235Y11485D01*
X24000Y11168D01*
X24000D01*
Y12000D01*
D02*
G37*
G36*
X12710Y11670D02*
X11927D01*
X12156Y11116D01*
X12710Y10887D01*
Y11670D01*
D02*
G37*
G36*
X13993D02*
X13210D01*
Y10887D01*
X13764Y11116D01*
X13993Y11670D01*
D02*
G37*
%LPD*%
D14*
X14560Y3190D02*
X16760Y990D01*
X24365D02*
X24625Y1250D01*
X16760Y990D02*
X24365D01*
X6500Y17250D02*
X6750Y17500D01*
X24000Y7250D02*
X24250Y7000D01*
X16750Y7500D02*
X24000D01*
X16000Y6750D02*
X16750Y7500D01*
X7264Y1354D02*
Y5514D01*
X9500Y7750D01*
X6500Y17250D02*
X7000Y16750D01*
X15746Y10504D02*
X18492Y13250D01*
X15746Y10504D02*
X15750Y10500D01*
X14750D02*
X15750D01*
X13310Y3190D02*
X14560D01*
X18157Y2000D02*
X20000D01*
X7500Y9000D02*
X9700D01*
X7000Y9500D02*
X7500Y9000D01*
X7000Y9500D02*
Y16750D01*
X12960Y14460D02*
X14170Y13250D01*
X18543D02*
X19043Y12750D01*
X19440D01*
X20095Y12095D01*
X11750Y5500D02*
X12000Y5750D01*
X11750Y4750D02*
X13310Y3190D01*
X11750Y4750D02*
Y5500D01*
X14250Y5907D02*
X18157Y2000D01*
X14250Y5907D02*
X14343Y6000D01*
X15500Y17000D02*
X19250Y13250D01*
X20000D01*
X20000Y13250D02*
X20000Y13250D01*
X14170D02*
X18492D01*
X18543D01*
D15*
X13224Y2215D02*
X13708D01*
X11000Y4439D02*
X13224Y2215D01*
X11000Y4439D02*
Y15040D01*
X12960Y17000D01*
D16*
Y11920D02*
X13208Y11672D01*
Y4715D02*
Y11672D01*
D17*
X3000Y20750D02*
D03*
X27000D02*
D03*
D18*
X8810Y3150D02*
D03*
X7014Y1354D02*
D03*
X18704Y3796D02*
D03*
X20500Y2000D02*
D03*
X22579Y3046D02*
D03*
X24375Y1250D02*
D03*
D19*
X13708Y2215D02*
D03*
Y4715D02*
D03*
D20*
X9500Y6250D02*
D03*
D21*
X24250Y14750D02*
D03*
Y12250D02*
D03*
Y9750D02*
D03*
Y7250D02*
D03*
D22*
X6750Y17500D02*
D03*
X9500Y7750D02*
D03*
X9700Y9000D02*
D03*
X20095Y12095D02*
D03*
X14343Y6000D02*
D03*
X12000Y5750D02*
D03*
X16000Y6850D02*
D03*
X20000Y13250D02*
D03*
X14750Y10500D02*
D03*
D23*
X15500Y17000D02*
D03*
X12960Y14460D02*
D03*
Y11920D02*
D03*
X15500D02*
D03*
Y14460D02*
D03*
X12960Y17000D02*
D03*
M02*
