G04 Layer_Color=8388736*
%FSLAX24Y24*%
%MOIN*%
G70*
G01*
G75*
%ADD29R,0.0434X0.0395*%
G04:AMPARAMS|DCode=30|XSize=47.4mil|YSize=43.4mil|CornerRadius=8.4mil|HoleSize=0mil|Usage=FLASHONLY|Rotation=0.000|XOffset=0mil|YOffset=0mil|HoleType=Round|Shape=RoundedRectangle|*
%AMROUNDEDRECTD30*
21,1,0.0474,0.0266,0,0,0.0*
21,1,0.0305,0.0434,0,0,0.0*
1,1,0.0169,0.0153,-0.0133*
1,1,0.0169,-0.0153,-0.0133*
1,1,0.0169,-0.0153,0.0133*
1,1,0.0169,0.0153,0.0133*
%
%ADD30ROUNDEDRECTD30*%
G04:AMPARAMS|DCode=31|XSize=27.7mil|YSize=31.6mil|CornerRadius=6mil|HoleSize=0mil|Usage=FLASHONLY|Rotation=90.000|XOffset=0mil|YOffset=0mil|HoleType=Round|Shape=RoundedRectangle|*
%AMROUNDEDRECTD31*
21,1,0.0277,0.0197,0,0,90.0*
21,1,0.0157,0.0316,0,0,90.0*
1,1,0.0119,0.0098,0.0079*
1,1,0.0119,0.0098,-0.0079*
1,1,0.0119,-0.0098,-0.0079*
1,1,0.0119,-0.0098,0.0079*
%
%ADD31ROUNDEDRECTD31*%
G04:AMPARAMS|DCode=32|XSize=39.5mil|YSize=39.5mil|CornerRadius=7.9mil|HoleSize=0mil|Usage=FLASHONLY|Rotation=90.000|XOffset=0mil|YOffset=0mil|HoleType=Round|Shape=RoundedRectangle|*
%AMROUNDEDRECTD32*
21,1,0.0395,0.0236,0,0,90.0*
21,1,0.0236,0.0395,0,0,90.0*
1,1,0.0159,0.0118,0.0118*
1,1,0.0159,0.0118,-0.0118*
1,1,0.0159,-0.0118,-0.0118*
1,1,0.0159,-0.0118,0.0118*
%
%ADD32ROUNDEDRECTD32*%
G04:AMPARAMS|DCode=33|XSize=47.4mil|YSize=43.4mil|CornerRadius=8.4mil|HoleSize=0mil|Usage=FLASHONLY|Rotation=270.000|XOffset=0mil|YOffset=0mil|HoleType=Round|Shape=RoundedRectangle|*
%AMROUNDEDRECTD33*
21,1,0.0474,0.0266,0,0,270.0*
21,1,0.0305,0.0434,0,0,270.0*
1,1,0.0169,-0.0133,-0.0153*
1,1,0.0169,-0.0133,0.0153*
1,1,0.0169,0.0133,0.0153*
1,1,0.0169,0.0133,-0.0153*
%
%ADD33ROUNDEDRECTD33*%
%ADD34O,0.0946X0.0316*%
%ADD35C,0.0552*%
%ADD36C,0.0580*%
%ADD37C,0.0671*%
%ADD38R,0.0671X0.0671*%
%ADD39R,0.0671X0.0671*%
%ADD40C,0.0680*%
D29*
X1181Y4941D02*
D03*
Y5492D02*
D03*
D30*
X6791Y7028D02*
D03*
Y6358D02*
D03*
X7480Y7028D02*
D03*
Y6358D02*
D03*
X2805Y5748D02*
D03*
Y5079D02*
D03*
X10827Y3583D02*
D03*
Y2913D02*
D03*
X7431Y4309D02*
D03*
Y3640D02*
D03*
D31*
X6398Y3248D02*
D03*
X6791D02*
D03*
X1624Y2953D02*
D03*
X2018D02*
D03*
D32*
X2067Y5079D02*
D03*
Y5748D02*
D03*
D33*
X1339Y3593D02*
D03*
X2008D02*
D03*
D34*
X6506Y3974D02*
D03*
Y4474D02*
D03*
Y4974D02*
D03*
Y5474D02*
D03*
X3829Y3974D02*
D03*
Y4474D02*
D03*
Y4974D02*
D03*
Y5474D02*
D03*
D35*
X5118Y2756D02*
D03*
Y1772D02*
D03*
D36*
X2465Y828D02*
D03*
X3172Y1535D02*
D03*
X7265Y2183D02*
D03*
X7972Y1476D02*
D03*
X9176Y1495D02*
D03*
X9883Y787D02*
D03*
X8169Y7087D02*
D03*
D37*
X2512Y6959D02*
D03*
X3512D02*
D03*
X4512D02*
D03*
X8646Y6134D02*
D03*
X9646D02*
D03*
X8646Y5134D02*
D03*
X9646D02*
D03*
X8646Y4134D02*
D03*
D38*
X5512Y6959D02*
D03*
D39*
X9646Y4134D02*
D03*
D40*
X10827Y6890D02*
D03*
X984D02*
D03*
M02*
