M48
;Layer_Color=9474304
;FILE_FORMAT=2:4
INCH
;TYPE=PLATED
T1F00S00C0.0276
T2F00S00C0.0280
T3F00S00C0.0354
T4F00S00C0.1260
%
T01
X005118Y001772
Y002756
T02
X002465Y000828
X003172Y001535
X007265Y002183
X007972Y001476
X009176Y001495
X009883Y000787
X008169Y007087
T03
X002512Y006959
X003512
X004512
X005512
X008646Y006134
X009646
Y005134
X008646
Y004134
X009646
T04
X000984Y006890
X010827
M30
