G04 Layer_Physical_Order=1*
G04 Layer_Color=255*
%FSLAX24Y24*%
%MOIN*%
G70*
G01*
G75*
%ADD10R,0.0354X0.0315*%
G04:AMPARAMS|DCode=11|XSize=39.4mil|YSize=35.4mil|CornerRadius=4.4mil|HoleSize=0mil|Usage=FLASHONLY|Rotation=0.000|XOffset=0mil|YOffset=0mil|HoleType=Round|Shape=RoundedRectangle|*
%AMROUNDEDRECTD11*
21,1,0.0394,0.0266,0,0,0.0*
21,1,0.0305,0.0354,0,0,0.0*
1,1,0.0089,0.0153,-0.0133*
1,1,0.0089,-0.0153,-0.0133*
1,1,0.0089,-0.0153,0.0133*
1,1,0.0089,0.0153,0.0133*
%
%ADD11ROUNDEDRECTD11*%
G04:AMPARAMS|DCode=12|XSize=19.7mil|YSize=23.6mil|CornerRadius=2mil|HoleSize=0mil|Usage=FLASHONLY|Rotation=90.000|XOffset=0mil|YOffset=0mil|HoleType=Round|Shape=RoundedRectangle|*
%AMROUNDEDRECTD12*
21,1,0.0197,0.0197,0,0,90.0*
21,1,0.0157,0.0236,0,0,90.0*
1,1,0.0039,0.0098,0.0079*
1,1,0.0039,0.0098,-0.0079*
1,1,0.0039,-0.0098,-0.0079*
1,1,0.0039,-0.0098,0.0079*
%
%ADD12ROUNDEDRECTD12*%
G04:AMPARAMS|DCode=13|XSize=31.5mil|YSize=31.5mil|CornerRadius=3.9mil|HoleSize=0mil|Usage=FLASHONLY|Rotation=90.000|XOffset=0mil|YOffset=0mil|HoleType=Round|Shape=RoundedRectangle|*
%AMROUNDEDRECTD13*
21,1,0.0315,0.0236,0,0,90.0*
21,1,0.0236,0.0315,0,0,90.0*
1,1,0.0079,0.0118,0.0118*
1,1,0.0079,0.0118,-0.0118*
1,1,0.0079,-0.0118,-0.0118*
1,1,0.0079,-0.0118,0.0118*
%
%ADD13ROUNDEDRECTD13*%
G04:AMPARAMS|DCode=14|XSize=39.4mil|YSize=35.4mil|CornerRadius=4.4mil|HoleSize=0mil|Usage=FLASHONLY|Rotation=270.000|XOffset=0mil|YOffset=0mil|HoleType=Round|Shape=RoundedRectangle|*
%AMROUNDEDRECTD14*
21,1,0.0394,0.0266,0,0,270.0*
21,1,0.0305,0.0354,0,0,270.0*
1,1,0.0089,-0.0133,-0.0153*
1,1,0.0089,-0.0133,0.0153*
1,1,0.0089,0.0133,0.0153*
1,1,0.0089,0.0133,-0.0153*
%
%ADD14ROUNDEDRECTD14*%
%ADD15O,0.0866X0.0236*%
%ADD16C,0.0197*%
%ADD17C,0.0098*%
%ADD18C,0.0100*%
%ADD19C,0.0472*%
%ADD20C,0.0500*%
%ADD21C,0.0591*%
%ADD22R,0.0591X0.0591*%
%ADD23R,0.0591X0.0591*%
%ADD24C,0.0600*%
D10*
X1181Y4941D02*
D03*
Y5492D02*
D03*
D11*
X6791Y7028D02*
D03*
Y6358D02*
D03*
X7480Y7028D02*
D03*
Y6358D02*
D03*
X2805Y5748D02*
D03*
Y5079D02*
D03*
X10827Y3583D02*
D03*
Y2913D02*
D03*
X7431Y4309D02*
D03*
Y3640D02*
D03*
D12*
X6398Y3248D02*
D03*
X6791D02*
D03*
X1624Y2953D02*
D03*
X2018D02*
D03*
D13*
X2067Y5079D02*
D03*
Y5748D02*
D03*
D14*
X1339Y3593D02*
D03*
X2008D02*
D03*
D15*
X6506Y3974D02*
D03*
Y4474D02*
D03*
Y4974D02*
D03*
Y5474D02*
D03*
X3829Y3974D02*
D03*
Y4474D02*
D03*
Y4974D02*
D03*
Y5474D02*
D03*
D16*
X1589Y281D02*
Y340D01*
X965Y965D02*
X1589Y340D01*
X965Y965D02*
Y4255D01*
X1181Y4472D01*
Y4941D01*
Y5492D02*
Y5628D01*
X2512Y6959D01*
X4528Y1181D02*
X5118Y1772D01*
X4528Y1072D02*
Y1181D01*
X5118Y1772D02*
X5315D01*
X6496Y2953D01*
X6713D01*
Y3169D01*
X6791Y3248D01*
Y3338D01*
X6496Y3633D02*
X6791Y3338D01*
X6496Y3633D02*
Y3642D01*
X5774Y2756D02*
X6299Y3281D01*
X5118Y2756D02*
X5774D01*
X5047D02*
X5118D01*
X3829Y3974D02*
X5047Y2756D01*
X2008Y3593D02*
X3447D01*
X2018Y2953D02*
Y3583D01*
X2008Y3593D02*
X2018Y3583D01*
X3447Y3593D02*
X3829Y3974D01*
X6078Y3642D02*
X6496D01*
X4528Y591D02*
Y1072D01*
X4272D02*
X4528D01*
X3907Y1436D02*
X4272Y1072D01*
X3270Y1436D02*
X3907D01*
X3551Y281D02*
X3702Y432D01*
X1589Y281D02*
X3551D01*
X5876Y3844D02*
X6078Y3642D01*
X5876Y5105D02*
X6246Y5474D01*
X5876Y3844D02*
Y5105D01*
X4369Y432D02*
X4528Y591D01*
X3702Y432D02*
X4369D01*
X2388Y5958D02*
X3320Y6890D01*
X3413D01*
X2008Y3652D02*
X2018Y3642D01*
X6506Y5474D02*
X7173D01*
X6246D02*
X6506D01*
X2067Y5748D02*
Y5774D01*
Y5748D02*
X2388D01*
Y5958D01*
X7173Y5474D02*
X8514Y4134D01*
X8646D01*
D17*
X8169Y7047D02*
Y7087D01*
X7480Y6358D02*
X8169Y7047D01*
X6850Y6398D02*
X6890Y6358D01*
X4061Y6398D02*
X6850D01*
X5413Y6890D02*
Y6959D01*
X5512D02*
X5581Y7028D01*
X6890D01*
X7480D01*
X1624Y1114D02*
Y2953D01*
X1339Y3238D02*
X1624Y2953D01*
X1339Y3238D02*
Y3593D01*
X9176Y1436D02*
X9431Y1691D01*
Y1888D01*
X7265Y2085D02*
X7431Y2251D01*
X2009Y729D02*
X2563D01*
X10456Y2913D02*
X10827D01*
X9431Y1888D02*
X10456Y2913D01*
X10630Y3780D02*
X10827Y3583D01*
X10630Y3780D02*
Y4776D01*
X5413Y6959D02*
X5512D01*
X10089Y5317D02*
X10630Y4776D01*
X1339Y3593D02*
Y4281D01*
X1624Y1114D02*
X2009Y729D01*
X6506Y4974D02*
X7325D01*
X2805Y5079D02*
X2909Y4974D01*
X2736Y5748D02*
X2805D01*
X2067Y5079D02*
X2736Y5748D01*
X7431Y2251D02*
Y3640D01*
X3248Y5584D02*
X4061Y6398D01*
X3248Y5364D02*
Y5584D01*
Y5364D02*
X3638Y4974D01*
X3829D01*
X2909D02*
X3638D01*
X2372Y4474D02*
X3829D01*
X2220Y4626D02*
X2372Y4474D01*
X1683Y4626D02*
X2220D01*
X1339Y4281D02*
X1683Y4626D01*
X8646Y4970D02*
Y5134D01*
X9019D01*
X9462Y5577D01*
X9829D01*
X9646Y4647D02*
Y5134D01*
X9576Y4577D02*
X9646Y4647D01*
X9289Y4577D02*
X9576D01*
X9203Y4490D02*
X9289Y4577D01*
X9203Y4065D02*
Y4490D01*
X8907Y3396D02*
X9646Y4134D01*
X6506Y3974D02*
X7492D01*
X7502Y3965D01*
X6506Y4474D02*
X7287D01*
X8366Y3396D02*
X8907D01*
X7663Y3965D02*
X7776Y3852D01*
Y3708D02*
Y3852D01*
Y3708D02*
X8285Y3199D01*
X7287Y4474D02*
X7600Y4161D01*
X7745D01*
X7972Y3934D01*
Y3789D02*
Y3934D01*
Y3789D02*
X8366Y3396D01*
X7502Y3965D02*
X7663D01*
X8285Y3199D02*
X9646D01*
X8829Y3691D02*
X9203Y4065D01*
X8462Y3691D02*
X8829D01*
X8203Y3950D02*
X8462Y3691D01*
X8203Y3950D02*
Y4097D01*
X7325Y4974D02*
X8203Y4097D01*
X9646Y3199D02*
X10089Y3642D01*
Y5317D01*
X9829Y5577D02*
X10089Y5317D01*
X9333Y6134D02*
X9646D01*
X3829Y5474D02*
X4094Y5740D01*
X8939D02*
X9333Y6134D01*
X4094Y5740D02*
X8413D01*
X8462Y5691D01*
X8829D01*
X8878Y5740D01*
X8939D01*
D18*
X7725Y1724D02*
X7972Y1476D01*
X7584Y1582D02*
X7725Y1724D01*
X9635Y1035D02*
X9883Y787D01*
X9494Y893D02*
X9635Y1035D01*
D19*
X5118Y2756D02*
D03*
Y1772D02*
D03*
D20*
X2465Y828D02*
D03*
X3172Y1535D02*
D03*
X7265Y2183D02*
D03*
X7972Y1476D02*
D03*
X9176Y1495D02*
D03*
X9883Y787D02*
D03*
X8169Y7087D02*
D03*
D21*
X2512Y6959D02*
D03*
X3512D02*
D03*
X4512D02*
D03*
X8646Y6134D02*
D03*
X9646D02*
D03*
X8646Y5134D02*
D03*
X9646D02*
D03*
X8646Y4134D02*
D03*
D22*
X5512Y6959D02*
D03*
D23*
X9646Y4134D02*
D03*
D24*
X10827Y6890D02*
D03*
X984D02*
D03*
M02*
