G04 Layer_Color=0*
%FSLAX43Y43*%
%MOMM*%
G71*
G01*
G75*
%ADD26C,0.150*%
%ADD29C,0.127*%
%ADD48C,0.051*%
D26*
X131455Y-79326D02*
X131398Y-79269D01*
X131312Y-79240D01*
X131198D01*
X131112Y-79269D01*
X131055Y-79326D01*
Y-79383D01*
X131084Y-79440D01*
X131112Y-79469D01*
X131169Y-79497D01*
X131341Y-79554D01*
X131398Y-79583D01*
X131426Y-79611D01*
X131455Y-79669D01*
Y-79754D01*
X131398Y-79811D01*
X131312Y-79840D01*
X131198D01*
X131112Y-79811D01*
X131055Y-79754D01*
X132018Y-79383D02*
X131989Y-79326D01*
X131932Y-79269D01*
X131875Y-79240D01*
X131761D01*
X131703Y-79269D01*
X131646Y-79326D01*
X131618Y-79383D01*
X131589Y-79469D01*
Y-79611D01*
X131618Y-79697D01*
X131646Y-79754D01*
X131703Y-79811D01*
X131761Y-79840D01*
X131875D01*
X131932Y-79811D01*
X131989Y-79754D01*
X132018Y-79697D01*
X132643Y-79840D02*
X132415Y-79240D01*
X132186Y-79840D01*
X132272Y-79640D02*
X132558D01*
X132783Y-79240D02*
Y-79840D01*
X133126D01*
X133563Y-79240D02*
X133192D01*
Y-79840D01*
X133563D01*
X133192Y-79526D02*
X133420D01*
X133692Y-79440D02*
X133663Y-79469D01*
X133692Y-79497D01*
X133720Y-79469D01*
X133692Y-79440D01*
Y-79783D02*
X133663Y-79811D01*
X133692Y-79840D01*
X133720Y-79811D01*
X133692Y-79783D01*
X39615Y-79240D02*
Y-79840D01*
Y-79240D02*
X39986D01*
X39615Y-79526D02*
X39844D01*
X40055Y-79240D02*
Y-79840D01*
X40181Y-79240D02*
Y-79840D01*
X40523D01*
X40960Y-79240D02*
X40589D01*
Y-79840D01*
X40960D01*
X40589Y-79526D02*
X40818D01*
X41532Y-79240D02*
Y-79840D01*
Y-79240D02*
X41932Y-79840D01*
Y-79240D02*
Y-79840D01*
X42554D02*
X42326Y-79240D01*
X42097Y-79840D01*
X42183Y-79640D02*
X42469D01*
X42694Y-79240D02*
Y-79840D01*
Y-79240D02*
X42923Y-79840D01*
X43151Y-79240D02*
X42923Y-79840D01*
X43151Y-79240D02*
Y-79840D01*
X43694Y-79240D02*
X43323D01*
Y-79840D01*
X43694D01*
X43323Y-79526D02*
X43551D01*
X43823Y-79440D02*
X43794Y-79469D01*
X43823Y-79497D01*
X43851Y-79469D01*
X43823Y-79440D01*
Y-79783D02*
X43794Y-79811D01*
X43823Y-79840D01*
X43851Y-79811D01*
X43823Y-79783D01*
X39615Y-64187D02*
X39872D01*
X39958Y-64159D01*
X39986Y-64130D01*
X40015Y-64073D01*
Y-63987D01*
X39986Y-63930D01*
X39958Y-63902D01*
X39872Y-63873D01*
X39615D01*
Y-64473D01*
X40578Y-64016D02*
X40549Y-63959D01*
X40492Y-63902D01*
X40435Y-63873D01*
X40321D01*
X40263Y-63902D01*
X40206Y-63959D01*
X40178Y-64016D01*
X40149Y-64102D01*
Y-64244D01*
X40178Y-64330D01*
X40206Y-64387D01*
X40263Y-64444D01*
X40321Y-64473D01*
X40435D01*
X40492Y-64444D01*
X40549Y-64387D01*
X40578Y-64330D01*
X40746Y-63873D02*
Y-64473D01*
Y-63873D02*
X41003D01*
X41089Y-63902D01*
X41118Y-63930D01*
X41146Y-63987D01*
Y-64045D01*
X41118Y-64102D01*
X41089Y-64130D01*
X41003Y-64159D01*
X40746D02*
X41003D01*
X41089Y-64187D01*
X41118Y-64216D01*
X41146Y-64273D01*
Y-64359D01*
X41118Y-64416D01*
X41089Y-64444D01*
X41003Y-64473D01*
X40746D01*
X41752Y-63873D02*
Y-64473D01*
Y-63873D02*
X41952D01*
X42037Y-63902D01*
X42094Y-63959D01*
X42123Y-64016D01*
X42152Y-64102D01*
Y-64244D01*
X42123Y-64330D01*
X42094Y-64387D01*
X42037Y-64444D01*
X41952Y-64473D01*
X41752D01*
X42657Y-63873D02*
X42286D01*
Y-64473D01*
X42657D01*
X42286Y-64159D02*
X42514D01*
X43157Y-63959D02*
X43100Y-63902D01*
X43014Y-63873D01*
X42900D01*
X42814Y-63902D01*
X42757Y-63959D01*
Y-64016D01*
X42786Y-64073D01*
X42814Y-64102D01*
X42871Y-64130D01*
X43043Y-64187D01*
X43100Y-64216D01*
X43129Y-64244D01*
X43157Y-64302D01*
Y-64387D01*
X43100Y-64444D01*
X43014Y-64473D01*
X42900D01*
X42814Y-64444D01*
X42757Y-64387D01*
X43291Y-63873D02*
Y-64473D01*
X43846Y-64016D02*
X43817Y-63959D01*
X43760Y-63902D01*
X43703Y-63873D01*
X43588D01*
X43531Y-63902D01*
X43474Y-63959D01*
X43446Y-64016D01*
X43417Y-64102D01*
Y-64244D01*
X43446Y-64330D01*
X43474Y-64387D01*
X43531Y-64444D01*
X43588Y-64473D01*
X43703D01*
X43760Y-64444D01*
X43817Y-64387D01*
X43846Y-64330D01*
Y-64244D01*
X43703D02*
X43846D01*
X43983Y-63873D02*
Y-64473D01*
Y-63873D02*
X44383Y-64473D01*
Y-63873D02*
Y-64473D01*
X44920Y-63873D02*
X44548D01*
Y-64473D01*
X44920D01*
X44548Y-64159D02*
X44777D01*
X45020Y-63873D02*
Y-64473D01*
Y-63873D02*
X45277D01*
X45362Y-63902D01*
X45391Y-63930D01*
X45419Y-63987D01*
Y-64045D01*
X45391Y-64102D01*
X45362Y-64130D01*
X45277Y-64159D01*
X45020D01*
X45220D02*
X45419Y-64473D01*
X45582Y-64073D02*
X45554Y-64102D01*
X45582Y-64130D01*
X45611Y-64102D01*
X45582Y-64073D01*
Y-64416D02*
X45554Y-64444D01*
X45582Y-64473D01*
X45611Y-64444D01*
X45582Y-64416D01*
X77915Y-56380D02*
Y-56980D01*
X77715Y-56380D02*
X78115D01*
X78186D02*
Y-56980D01*
X78512Y-56380D02*
Y-56980D01*
X78312Y-56380D02*
X78712D01*
X78783D02*
Y-56980D01*
X79126D01*
X79563Y-56380D02*
X79192D01*
Y-56980D01*
X79563D01*
X79192Y-56666D02*
X79420D01*
X79692Y-56580D02*
X79663Y-56609D01*
X79692Y-56637D01*
X79720Y-56609D01*
X79692Y-56580D01*
Y-56923D02*
X79663Y-56951D01*
X79692Y-56980D01*
X79720Y-56951D01*
X79692Y-56923D01*
X77715Y-71934D02*
X77972D01*
X78058Y-71906D01*
X78086Y-71877D01*
X78115Y-71820D01*
Y-71734D01*
X78086Y-71677D01*
X78058Y-71649D01*
X77972Y-71620D01*
X77715D01*
Y-72220D01*
X78706D02*
X78478Y-71620D01*
X78249Y-72220D01*
X78335Y-72020D02*
X78621D01*
X78846Y-71620D02*
Y-72220D01*
Y-71620D02*
X79103D01*
X79189Y-71649D01*
X79218Y-71677D01*
X79246Y-71734D01*
Y-71792D01*
X79218Y-71849D01*
X79189Y-71877D01*
X79103Y-71906D01*
X78846D01*
X79046D02*
X79246Y-72220D01*
X79580Y-71620D02*
Y-72220D01*
X79380Y-71620D02*
X79780D01*
X80323D02*
Y-72220D01*
Y-71620D02*
X80723Y-72220D01*
Y-71620D02*
Y-72220D01*
X81060Y-71620D02*
X81003Y-71649D01*
X80946Y-71706D01*
X80917Y-71763D01*
X80889Y-71849D01*
Y-71991D01*
X80917Y-72077D01*
X80946Y-72134D01*
X81003Y-72191D01*
X81060Y-72220D01*
X81174D01*
X81231Y-72191D01*
X81289Y-72134D01*
X81317Y-72077D01*
X81346Y-71991D01*
Y-71849D01*
X81317Y-71763D01*
X81289Y-71706D01*
X81231Y-71649D01*
X81174Y-71620D01*
X81060D01*
X81514Y-72163D02*
X81486Y-72191D01*
X81514Y-72220D01*
X81543Y-72191D01*
X81514Y-72163D01*
X81703Y-71820D02*
X81674Y-71849D01*
X81703Y-71877D01*
X81731Y-71849D01*
X81703Y-71820D01*
Y-72163D02*
X81674Y-72191D01*
X81703Y-72220D01*
X81731Y-72191D01*
X81703Y-72163D01*
X39986Y-56380D02*
X39615D01*
Y-56980D01*
X39986D01*
X39615Y-56666D02*
X39844D01*
X40086Y-56380D02*
Y-56980D01*
Y-56380D02*
X40486Y-56980D01*
Y-56380D02*
Y-56980D01*
X41080Y-56523D02*
X41052Y-56466D01*
X40995Y-56409D01*
X40938Y-56380D01*
X40823D01*
X40766Y-56409D01*
X40709Y-56466D01*
X40680Y-56523D01*
X40652Y-56609D01*
Y-56751D01*
X40680Y-56837D01*
X40709Y-56894D01*
X40766Y-56951D01*
X40823Y-56980D01*
X40938D01*
X40995Y-56951D01*
X41052Y-56894D01*
X41080Y-56837D01*
Y-56751D01*
X40938D02*
X41080D01*
X41218Y-56380D02*
Y-56980D01*
X41343Y-56380D02*
Y-56980D01*
Y-56380D02*
X41743Y-56980D01*
Y-56380D02*
Y-56980D01*
X42280Y-56380D02*
X41909D01*
Y-56980D01*
X42280D01*
X41909Y-56666D02*
X42137D01*
X42751Y-56380D02*
X42380D01*
Y-56980D01*
X42751D01*
X42380Y-56666D02*
X42609D01*
X42851Y-56380D02*
Y-56980D01*
Y-56380D02*
X43109D01*
X43194Y-56409D01*
X43223Y-56437D01*
X43251Y-56494D01*
Y-56552D01*
X43223Y-56609D01*
X43194Y-56637D01*
X43109Y-56666D01*
X42851D01*
X43051D02*
X43251Y-56980D01*
X43414Y-56580D02*
X43386Y-56609D01*
X43414Y-56637D01*
X43443Y-56609D01*
X43414Y-56580D01*
Y-56923D02*
X43386Y-56951D01*
X43414Y-56980D01*
X43443Y-56951D01*
X43414Y-56923D01*
X40885Y-82602D02*
X41142D01*
X41228Y-82574D01*
X41256Y-82545D01*
X41285Y-82488D01*
Y-82402D01*
X41256Y-82345D01*
X41228Y-82317D01*
X41142Y-82288D01*
X40885D01*
Y-82888D01*
X41848Y-82431D02*
X41819Y-82374D01*
X41762Y-82317D01*
X41705Y-82288D01*
X41591D01*
X41533Y-82317D01*
X41476Y-82374D01*
X41448Y-82431D01*
X41419Y-82517D01*
Y-82659D01*
X41448Y-82745D01*
X41476Y-82802D01*
X41533Y-82859D01*
X41591Y-82888D01*
X41705D01*
X41762Y-82859D01*
X41819Y-82802D01*
X41848Y-82745D01*
X42016Y-82288D02*
Y-82888D01*
Y-82288D02*
X42273D01*
X42359Y-82317D01*
X42388Y-82345D01*
X42416Y-82402D01*
Y-82460D01*
X42388Y-82517D01*
X42359Y-82545D01*
X42273Y-82574D01*
X42016D02*
X42273D01*
X42359Y-82602D01*
X42388Y-82631D01*
X42416Y-82688D01*
Y-82774D01*
X42388Y-82831D01*
X42359Y-82859D01*
X42273Y-82888D01*
X42016D01*
X42607Y-82288D02*
X42922D01*
X42750Y-82517D01*
X42836D01*
X42893Y-82545D01*
X42922Y-82574D01*
X42950Y-82659D01*
Y-82717D01*
X42922Y-82802D01*
X42865Y-82859D01*
X42779Y-82888D01*
X42693D01*
X42607Y-82859D01*
X42579Y-82831D01*
X42550Y-82774D01*
X43113Y-82831D02*
X43085Y-82859D01*
X43113Y-82888D01*
X43142Y-82859D01*
X43113Y-82831D01*
X43273Y-82602D02*
X43530D01*
X43616Y-82574D01*
X43644Y-82545D01*
X43673Y-82488D01*
Y-82402D01*
X43644Y-82345D01*
X43616Y-82317D01*
X43530Y-82288D01*
X43273D01*
Y-82888D01*
X44150Y-82574D02*
X44093Y-82517D01*
X44036Y-82488D01*
X43950D01*
X43893Y-82517D01*
X43836Y-82574D01*
X43807Y-82659D01*
Y-82717D01*
X43836Y-82802D01*
X43893Y-82859D01*
X43950Y-82888D01*
X44036D01*
X44093Y-82859D01*
X44150Y-82802D01*
X44279Y-82288D02*
Y-82888D01*
Y-82574D02*
X44336Y-82517D01*
X44393Y-82488D01*
X44479D01*
X44536Y-82517D01*
X44593Y-82574D01*
X44621Y-82659D01*
Y-82717D01*
X44593Y-82802D01*
X44536Y-82859D01*
X44479Y-82888D01*
X44393D01*
X44336Y-82859D01*
X44279Y-82802D01*
X44750Y-82288D02*
Y-82888D01*
Y-82288D02*
X44950D01*
X45036Y-82317D01*
X45093Y-82374D01*
X45121Y-82431D01*
X45150Y-82517D01*
Y-82659D01*
X45121Y-82745D01*
X45093Y-82802D01*
X45036Y-82859D01*
X44950Y-82888D01*
X44750D01*
X45427Y-82488D02*
X45370Y-82517D01*
X45313Y-82574D01*
X45284Y-82659D01*
Y-82717D01*
X45313Y-82802D01*
X45370Y-82859D01*
X45427Y-82888D01*
X45513D01*
X45570Y-82859D01*
X45627Y-82802D01*
X45655Y-82717D01*
Y-82659D01*
X45627Y-82574D01*
X45570Y-82517D01*
X45513Y-82488D01*
X45427D01*
X46130Y-82574D02*
X46072Y-82517D01*
X46015Y-82488D01*
X45930D01*
X45873Y-82517D01*
X45815Y-82574D01*
X45787Y-82659D01*
Y-82717D01*
X45815Y-82802D01*
X45873Y-82859D01*
X45930Y-82888D01*
X46015D01*
X46072Y-82859D01*
X46130Y-82802D01*
X77715Y-79240D02*
Y-79840D01*
Y-79240D02*
X77915D01*
X78001Y-79269D01*
X78058Y-79326D01*
X78086Y-79383D01*
X78115Y-79469D01*
Y-79611D01*
X78086Y-79697D01*
X78058Y-79754D01*
X78001Y-79811D01*
X77915Y-79840D01*
X77715D01*
X78249Y-79240D02*
X78392Y-79840D01*
X78535Y-79240D02*
X78392Y-79840D01*
X78535Y-79240D02*
X78678Y-79840D01*
X78820Y-79240D02*
X78678Y-79840D01*
X79369Y-79383D02*
X79340Y-79326D01*
X79283Y-79269D01*
X79226Y-79240D01*
X79112D01*
X79055Y-79269D01*
X78998Y-79326D01*
X78969Y-79383D01*
X78940Y-79469D01*
Y-79611D01*
X78969Y-79697D01*
X78998Y-79754D01*
X79055Y-79811D01*
X79112Y-79840D01*
X79226D01*
X79283Y-79811D01*
X79340Y-79754D01*
X79369Y-79697D01*
Y-79611D01*
X79226D02*
X79369D01*
X79977Y-79240D02*
Y-79840D01*
Y-79240D02*
X80377Y-79840D01*
Y-79240D02*
Y-79840D01*
X80714Y-79240D02*
X80657Y-79269D01*
X80600Y-79326D01*
X80572Y-79383D01*
X80543Y-79469D01*
Y-79611D01*
X80572Y-79697D01*
X80600Y-79754D01*
X80657Y-79811D01*
X80714Y-79840D01*
X80829D01*
X80886Y-79811D01*
X80943Y-79754D01*
X80971Y-79697D01*
X81000Y-79611D01*
Y-79469D01*
X80971Y-79383D01*
X80943Y-79326D01*
X80886Y-79269D01*
X80829Y-79240D01*
X80714D01*
X81169Y-79440D02*
X81140Y-79469D01*
X81169Y-79497D01*
X81197Y-79469D01*
X81169Y-79440D01*
Y-79783D02*
X81140Y-79811D01*
X81169Y-79840D01*
X81197Y-79811D01*
X81169Y-79783D01*
X131055Y-71620D02*
Y-72220D01*
Y-71620D02*
X131312D01*
X131398Y-71649D01*
X131426Y-71677D01*
X131455Y-71734D01*
Y-71792D01*
X131426Y-71849D01*
X131398Y-71877D01*
X131312Y-71906D01*
X131055D01*
X131255D02*
X131455Y-72220D01*
X131961Y-71620D02*
X131589D01*
Y-72220D01*
X131961D01*
X131589Y-71906D02*
X131818D01*
X132061Y-71620D02*
X132289Y-72220D01*
X132518Y-71620D02*
X132289Y-72220D01*
X132623Y-71820D02*
X132595Y-71849D01*
X132623Y-71877D01*
X132652Y-71849D01*
X132623Y-71820D01*
Y-72163D02*
X132595Y-72191D01*
X132623Y-72220D01*
X132652Y-72191D01*
X132623Y-72163D01*
X39615Y-71620D02*
Y-72220D01*
Y-71620D02*
X39815D01*
X39901Y-71649D01*
X39958Y-71706D01*
X39986Y-71763D01*
X40015Y-71849D01*
Y-71991D01*
X39986Y-72077D01*
X39958Y-72134D01*
X39901Y-72191D01*
X39815Y-72220D01*
X39615D01*
X40606D02*
X40378Y-71620D01*
X40149Y-72220D01*
X40235Y-72020D02*
X40521D01*
X40946Y-71620D02*
Y-72220D01*
X40746Y-71620D02*
X41146D01*
X41589D02*
X41218D01*
Y-72220D01*
X41589D01*
X41218Y-71906D02*
X41446D01*
X41717Y-71820D02*
X41689Y-71849D01*
X41717Y-71877D01*
X41746Y-71849D01*
X41717Y-71820D01*
Y-72163D02*
X41689Y-72191D01*
X41717Y-72220D01*
X41746Y-72191D01*
X41717Y-72163D01*
X41285Y-74668D02*
X40999Y-75268D01*
X40885Y-74668D02*
X41285D01*
X41419Y-75354D02*
X41819Y-74668D01*
X41859Y-74782D02*
X41916Y-74754D01*
X42002Y-74668D01*
Y-75268D01*
X42442Y-74668D02*
X42356Y-74697D01*
X42328Y-74754D01*
Y-74811D01*
X42356Y-74868D01*
X42413Y-74897D01*
X42528Y-74925D01*
X42613Y-74954D01*
X42670Y-75011D01*
X42699Y-75068D01*
Y-75154D01*
X42670Y-75211D01*
X42642Y-75239D01*
X42556Y-75268D01*
X42442D01*
X42356Y-75239D01*
X42328Y-75211D01*
X42299Y-75154D01*
Y-75068D01*
X42328Y-75011D01*
X42385Y-74954D01*
X42470Y-74925D01*
X42585Y-74897D01*
X42642Y-74868D01*
X42670Y-74811D01*
Y-74754D01*
X42642Y-74697D01*
X42556Y-74668D01*
X42442D01*
X42833Y-75354D02*
X43233Y-74668D01*
X43302Y-74811D02*
Y-74782D01*
X43330Y-74725D01*
X43359Y-74697D01*
X43416Y-74668D01*
X43530D01*
X43587Y-74697D01*
X43616Y-74725D01*
X43644Y-74782D01*
Y-74840D01*
X43616Y-74897D01*
X43559Y-74982D01*
X43273Y-75268D01*
X43673D01*
X43979Y-74668D02*
X43893Y-74697D01*
X43836Y-74782D01*
X43807Y-74925D01*
Y-75011D01*
X43836Y-75154D01*
X43893Y-75239D01*
X43979Y-75268D01*
X44036D01*
X44121Y-75239D01*
X44179Y-75154D01*
X44207Y-75011D01*
Y-74925D01*
X44179Y-74782D01*
X44121Y-74697D01*
X44036Y-74668D01*
X43979D01*
X44341Y-74782D02*
X44399Y-74754D01*
X44484Y-74668D01*
Y-75268D01*
X45124Y-74668D02*
X44838D01*
X44810Y-74925D01*
X44838Y-74897D01*
X44924Y-74868D01*
X45010D01*
X45096Y-74897D01*
X45153Y-74954D01*
X45181Y-75039D01*
Y-75097D01*
X45153Y-75182D01*
X45096Y-75239D01*
X45010Y-75268D01*
X44924D01*
X44838Y-75239D01*
X44810Y-75211D01*
X44781Y-75154D01*
X7052Y-74760D02*
X6824Y-74160D01*
X6595Y-74760D01*
X6681Y-74560D02*
X6966D01*
X7192Y-74160D02*
Y-74760D01*
X7403Y-74160D02*
Y-74646D01*
X7432Y-74731D01*
X7489Y-74760D01*
X7546D01*
X7318Y-74360D02*
X7518D01*
X7689Y-74160D02*
X7718Y-74189D01*
X7746Y-74160D01*
X7718Y-74132D01*
X7689Y-74160D01*
X7718Y-74360D02*
Y-74760D01*
X7852Y-74360D02*
Y-74646D01*
X7880Y-74731D01*
X7938Y-74760D01*
X8023D01*
X8080Y-74731D01*
X8166Y-74646D01*
Y-74360D02*
Y-74760D01*
X8323Y-74360D02*
Y-74760D01*
Y-74474D02*
X8409Y-74389D01*
X8466Y-74360D01*
X8552D01*
X8609Y-74389D01*
X8637Y-74474D01*
Y-74760D01*
Y-74474D02*
X8723Y-74389D01*
X8780Y-74360D01*
X8866D01*
X8923Y-74389D01*
X8952Y-74474D01*
Y-74760D01*
X9611Y-74160D02*
Y-74760D01*
X9954D01*
X10077Y-74160D02*
X10106Y-74189D01*
X10134Y-74160D01*
X10106Y-74132D01*
X10077Y-74160D01*
X10106Y-74360D02*
Y-74760D01*
X10240Y-74360D02*
Y-74760D01*
Y-74474D02*
X10326Y-74389D01*
X10383Y-74360D01*
X10468D01*
X10526Y-74389D01*
X10554Y-74474D01*
Y-74760D01*
Y-74474D02*
X10640Y-74389D01*
X10697Y-74360D01*
X10783D01*
X10840Y-74389D01*
X10868Y-74474D01*
Y-74760D01*
X11114Y-74160D02*
X11143Y-74189D01*
X11171Y-74160D01*
X11143Y-74132D01*
X11114Y-74160D01*
X11143Y-74360D02*
Y-74760D01*
X11363Y-74160D02*
Y-74646D01*
X11391Y-74731D01*
X11448Y-74760D01*
X11505D01*
X11277Y-74360D02*
X11477D01*
X11591Y-74531D02*
X11934D01*
Y-74474D01*
X11905Y-74417D01*
X11877Y-74389D01*
X11820Y-74360D01*
X11734D01*
X11677Y-74389D01*
X11620Y-74446D01*
X11591Y-74531D01*
Y-74589D01*
X11620Y-74674D01*
X11677Y-74731D01*
X11734Y-74760D01*
X11820D01*
X11877Y-74731D01*
X11934Y-74674D01*
X12405Y-74160D02*
Y-74760D01*
Y-74446D02*
X12348Y-74389D01*
X12291Y-74360D01*
X12205D01*
X12148Y-74389D01*
X12091Y-74446D01*
X12062Y-74531D01*
Y-74589D01*
X12091Y-74674D01*
X12148Y-74731D01*
X12205Y-74760D01*
X12291D01*
X12348Y-74731D01*
X12405Y-74674D01*
X6595Y-76814D02*
X6652Y-76786D01*
X6738Y-76700D01*
Y-77300D01*
X7063Y-76843D02*
Y-76814D01*
X7092Y-76757D01*
X7121Y-76729D01*
X7178Y-76700D01*
X7292D01*
X7349Y-76729D01*
X7378Y-76757D01*
X7406Y-76814D01*
Y-76872D01*
X7378Y-76929D01*
X7321Y-77014D01*
X7035Y-77300D01*
X7435D01*
X7912Y-76900D02*
Y-77300D01*
Y-76986D02*
X7855Y-76929D01*
X7798Y-76900D01*
X7712D01*
X7655Y-76929D01*
X7598Y-76986D01*
X7569Y-77071D01*
Y-77129D01*
X7598Y-77214D01*
X7655Y-77271D01*
X7712Y-77300D01*
X7798D01*
X7855Y-77271D01*
X7912Y-77214D01*
X8543Y-76700D02*
Y-77300D01*
Y-76700D02*
X8800D01*
X8886Y-76729D01*
X8915Y-76757D01*
X8943Y-76814D01*
Y-76872D01*
X8915Y-76929D01*
X8886Y-76957D01*
X8800Y-76986D01*
X8543D01*
X8743D02*
X8943Y-77300D01*
X9220Y-76900D02*
X9163Y-76929D01*
X9106Y-76986D01*
X9077Y-77071D01*
Y-77129D01*
X9106Y-77214D01*
X9163Y-77271D01*
X9220Y-77300D01*
X9306D01*
X9363Y-77271D01*
X9420Y-77214D01*
X9449Y-77129D01*
Y-77071D01*
X9420Y-76986D01*
X9363Y-76929D01*
X9306Y-76900D01*
X9220D01*
X9923Y-76700D02*
Y-77300D01*
Y-76986D02*
X9866Y-76929D01*
X9809Y-76900D01*
X9723D01*
X9666Y-76929D01*
X9609Y-76986D01*
X9580Y-77071D01*
Y-77129D01*
X9609Y-77214D01*
X9666Y-77271D01*
X9723Y-77300D01*
X9809D01*
X9866Y-77271D01*
X9923Y-77214D01*
X10083Y-76700D02*
Y-77300D01*
Y-76986D02*
X10140Y-76929D01*
X10197Y-76900D01*
X10283D01*
X10340Y-76929D01*
X10397Y-76986D01*
X10426Y-77071D01*
Y-77129D01*
X10397Y-77214D01*
X10340Y-77271D01*
X10283Y-77300D01*
X10197D01*
X10140Y-77271D01*
X10083Y-77214D01*
X10697Y-76900D02*
X10640Y-76929D01*
X10583Y-76986D01*
X10554Y-77071D01*
Y-77129D01*
X10583Y-77214D01*
X10640Y-77271D01*
X10697Y-77300D01*
X10783D01*
X10840Y-77271D01*
X10897Y-77214D01*
X10925Y-77129D01*
Y-77071D01*
X10897Y-76986D01*
X10840Y-76929D01*
X10783Y-76900D01*
X10697D01*
X11057D02*
Y-77300D01*
Y-77071D02*
X11085Y-76986D01*
X11143Y-76929D01*
X11200Y-76900D01*
X11285D01*
X11483D02*
X11425Y-76929D01*
X11368Y-76986D01*
X11340Y-77071D01*
Y-77129D01*
X11368Y-77214D01*
X11425Y-77271D01*
X11483Y-77300D01*
X11568D01*
X11625Y-77271D01*
X11682Y-77214D01*
X11711Y-77129D01*
Y-77071D01*
X11682Y-76986D01*
X11625Y-76929D01*
X11568Y-76900D01*
X11483D01*
X11842D02*
Y-77186D01*
X11871Y-77271D01*
X11928Y-77300D01*
X12014D01*
X12071Y-77271D01*
X12157Y-77186D01*
Y-76900D02*
Y-77300D01*
X12657Y-76900D02*
Y-77357D01*
X12628Y-77443D01*
X12599Y-77471D01*
X12542Y-77500D01*
X12457D01*
X12399Y-77471D01*
X12657Y-76986D02*
X12599Y-76929D01*
X12542Y-76900D01*
X12457D01*
X12399Y-76929D01*
X12342Y-76986D01*
X12314Y-77071D01*
Y-77129D01*
X12342Y-77214D01*
X12399Y-77271D01*
X12457Y-77300D01*
X12542D01*
X12599Y-77271D01*
X12657Y-77214D01*
X12817Y-76700D02*
Y-77300D01*
Y-77014D02*
X12902Y-76929D01*
X12959Y-76900D01*
X13045D01*
X13102Y-76929D01*
X13131Y-77014D01*
Y-77300D01*
X13759Y-76700D02*
Y-77300D01*
Y-76700D02*
X14016D01*
X14102Y-76729D01*
X14131Y-76757D01*
X14159Y-76814D01*
Y-76872D01*
X14131Y-76929D01*
X14102Y-76957D01*
X14016Y-76986D01*
X13759D01*
X13959D02*
X14159Y-77300D01*
X14636Y-76700D02*
Y-77300D01*
Y-76986D02*
X14579Y-76929D01*
X14522Y-76900D01*
X14436D01*
X14379Y-76929D01*
X14322Y-76986D01*
X14293Y-77071D01*
Y-77129D01*
X14322Y-77214D01*
X14379Y-77271D01*
X14436Y-77300D01*
X14522D01*
X14579Y-77271D01*
X14636Y-77214D01*
X6595Y-79240D02*
Y-79840D01*
Y-79240D02*
X6966D01*
X6595Y-79526D02*
X6824D01*
X7035Y-79440D02*
Y-79840D01*
Y-79611D02*
X7063Y-79526D01*
X7121Y-79469D01*
X7178Y-79440D01*
X7263D01*
X7318Y-79611D02*
X7660D01*
Y-79554D01*
X7632Y-79497D01*
X7603Y-79469D01*
X7546Y-79440D01*
X7461D01*
X7403Y-79469D01*
X7346Y-79526D01*
X7318Y-79611D01*
Y-79669D01*
X7346Y-79754D01*
X7403Y-79811D01*
X7461Y-79840D01*
X7546D01*
X7603Y-79811D01*
X7660Y-79754D01*
X7789Y-79440D02*
Y-79840D01*
Y-79554D02*
X7875Y-79469D01*
X7932Y-79440D01*
X8018D01*
X8075Y-79469D01*
X8103Y-79554D01*
Y-79840D01*
X8603Y-79526D02*
X8546Y-79469D01*
X8489Y-79440D01*
X8403D01*
X8346Y-79469D01*
X8289Y-79526D01*
X8260Y-79611D01*
Y-79669D01*
X8289Y-79754D01*
X8346Y-79811D01*
X8403Y-79840D01*
X8489D01*
X8546Y-79811D01*
X8603Y-79754D01*
X8732Y-79240D02*
Y-79840D01*
Y-79554D02*
X8817Y-79469D01*
X8875Y-79440D01*
X8960D01*
X9017Y-79469D01*
X9046Y-79554D01*
Y-79840D01*
X9517Y-79526D02*
X9489Y-79469D01*
X9403Y-79440D01*
X9317D01*
X9232Y-79469D01*
X9203Y-79526D01*
X9232Y-79583D01*
X9289Y-79611D01*
X9432Y-79640D01*
X9489Y-79669D01*
X9517Y-79726D01*
Y-79754D01*
X9489Y-79811D01*
X9403Y-79840D01*
X9317D01*
X9232Y-79811D01*
X9203Y-79754D01*
X10114Y-79240D02*
Y-79840D01*
Y-79240D02*
X10486D01*
X10114Y-79526D02*
X10343D01*
X10697Y-79440D02*
X10640Y-79469D01*
X10583Y-79526D01*
X10554Y-79611D01*
Y-79669D01*
X10583Y-79754D01*
X10640Y-79811D01*
X10697Y-79840D01*
X10783D01*
X10840Y-79811D01*
X10897Y-79754D01*
X10925Y-79669D01*
Y-79611D01*
X10897Y-79526D01*
X10840Y-79469D01*
X10783Y-79440D01*
X10697D01*
X11057D02*
Y-79840D01*
Y-79611D02*
X11085Y-79526D01*
X11143Y-79469D01*
X11200Y-79440D01*
X11285D01*
X11340Y-79611D02*
X11682D01*
Y-79554D01*
X11654Y-79497D01*
X11625Y-79469D01*
X11568Y-79440D01*
X11483D01*
X11425Y-79469D01*
X11368Y-79526D01*
X11340Y-79611D01*
Y-79669D01*
X11368Y-79754D01*
X11425Y-79811D01*
X11483Y-79840D01*
X11568D01*
X11625Y-79811D01*
X11682Y-79754D01*
X12125Y-79526D02*
X12097Y-79469D01*
X12011Y-79440D01*
X11925D01*
X11840Y-79469D01*
X11811Y-79526D01*
X11840Y-79583D01*
X11897Y-79611D01*
X12040Y-79640D01*
X12097Y-79669D01*
X12125Y-79726D01*
Y-79754D01*
X12097Y-79811D01*
X12011Y-79840D01*
X11925D01*
X11840Y-79811D01*
X11811Y-79754D01*
X12337Y-79240D02*
Y-79726D01*
X12365Y-79811D01*
X12422Y-79840D01*
X12479D01*
X12251Y-79440D02*
X12451D01*
X6595Y-81780D02*
Y-82380D01*
Y-81780D02*
X6995Y-82380D01*
Y-81780D02*
Y-82380D01*
X7561Y-81866D02*
X7503Y-81809D01*
X7418Y-81780D01*
X7303D01*
X7218Y-81809D01*
X7161Y-81866D01*
Y-81923D01*
X7189Y-81980D01*
X7218Y-82009D01*
X7275Y-82037D01*
X7446Y-82094D01*
X7503Y-82123D01*
X7532Y-82151D01*
X7561Y-82209D01*
Y-82294D01*
X7503Y-82351D01*
X7418Y-82380D01*
X7303D01*
X7218Y-82351D01*
X7161Y-82294D01*
X7695Y-81780D02*
X7838Y-82380D01*
X7980Y-81780D02*
X7838Y-82380D01*
X7980Y-81780D02*
X8123Y-82380D01*
X8266Y-81780D02*
X8123Y-82380D01*
X8886Y-81923D02*
Y-81894D01*
X8915Y-81837D01*
X8943Y-81809D01*
X9000Y-81780D01*
X9114D01*
X9172Y-81809D01*
X9200Y-81837D01*
X9229Y-81894D01*
Y-81952D01*
X9200Y-82009D01*
X9143Y-82094D01*
X8857Y-82380D01*
X9257D01*
X9563Y-81780D02*
X9477Y-81809D01*
X9420Y-81894D01*
X9392Y-82037D01*
Y-82123D01*
X9420Y-82266D01*
X9477Y-82351D01*
X9563Y-82380D01*
X9620D01*
X9706Y-82351D01*
X9763Y-82266D01*
X9791Y-82123D01*
Y-82037D01*
X9763Y-81894D01*
X9706Y-81809D01*
X9620Y-81780D01*
X9563D01*
X10069D02*
X9983Y-81809D01*
X9954Y-81866D01*
Y-81923D01*
X9983Y-81980D01*
X10040Y-82009D01*
X10154Y-82037D01*
X10240Y-82066D01*
X10297Y-82123D01*
X10326Y-82180D01*
Y-82266D01*
X10297Y-82323D01*
X10269Y-82351D01*
X10183Y-82380D01*
X10069D01*
X9983Y-82351D01*
X9954Y-82323D01*
X9926Y-82266D01*
Y-82180D01*
X9954Y-82123D01*
X10011Y-82066D01*
X10097Y-82037D01*
X10211Y-82009D01*
X10269Y-81980D01*
X10297Y-81923D01*
Y-81866D01*
X10269Y-81809D01*
X10183Y-81780D01*
X10069D01*
X10803Y-81866D02*
X10774Y-81809D01*
X10688Y-81780D01*
X10631D01*
X10546Y-81809D01*
X10488Y-81894D01*
X10460Y-82037D01*
Y-82180D01*
X10488Y-82294D01*
X10546Y-82351D01*
X10631Y-82380D01*
X10660D01*
X10746Y-82351D01*
X10803Y-82294D01*
X10831Y-82209D01*
Y-82180D01*
X10803Y-82094D01*
X10746Y-82037D01*
X10660Y-82009D01*
X10631D01*
X10546Y-82037D01*
X10488Y-82094D01*
X10460Y-82180D01*
X120865Y-88349D02*
Y-87749D01*
X120565Y-88049D01*
X120965D01*
X47667Y-87849D02*
X47767Y-87749D01*
X47967D01*
X48067Y-87849D01*
Y-87949D01*
X47967Y-88049D01*
X47867D01*
X47967D01*
X48067Y-88149D01*
Y-88249D01*
X47967Y-88349D01*
X47767D01*
X47667Y-88249D01*
X-25085Y-88349D02*
X-25485D01*
X-25085Y-87949D01*
Y-87849D01*
X-25185Y-87749D01*
X-25385D01*
X-25485Y-87849D01*
X-98129Y-87863D02*
X-98072Y-87835D01*
X-97986Y-87749D01*
Y-88349D01*
X120850Y100211D02*
X120565Y99811D01*
X120993D01*
X120850Y100211D02*
Y99611D01*
X47724Y100211D02*
X48038D01*
X47867Y99982D01*
X47952D01*
X48010Y99954D01*
X48038Y99925D01*
X48067Y99840D01*
Y99782D01*
X48038Y99697D01*
X47981Y99640D01*
X47895Y99611D01*
X47810D01*
X47724Y99640D01*
X47695Y99668D01*
X47667Y99725D01*
X-25457Y100068D02*
Y100097D01*
X-25428Y100154D01*
X-25399Y100182D01*
X-25342Y100211D01*
X-25228D01*
X-25171Y100182D01*
X-25142Y100154D01*
X-25114Y100097D01*
Y100039D01*
X-25142Y99982D01*
X-25200Y99897D01*
X-25485Y99611D01*
X-25085D01*
X-98129Y100097D02*
X-98072Y100125D01*
X-97986Y100211D01*
Y99611D01*
X-132470Y-67378D02*
Y-67978D01*
Y-67378D02*
X-132270D01*
X-132184Y-67407D01*
X-132127Y-67464D01*
X-132099Y-67521D01*
X-132070Y-67607D01*
Y-67750D01*
X-132099Y-67835D01*
X-132127Y-67893D01*
X-132184Y-67950D01*
X-132270Y-67978D01*
X-132470D01*
X-132042Y-19515D02*
X-132070Y-19458D01*
X-132127Y-19401D01*
X-132184Y-19372D01*
X-132299D01*
X-132356Y-19401D01*
X-132413Y-19458D01*
X-132441Y-19515D01*
X-132470Y-19601D01*
Y-19744D01*
X-132441Y-19829D01*
X-132413Y-19887D01*
X-132356Y-19944D01*
X-132299Y-19972D01*
X-132184D01*
X-132127Y-19944D01*
X-132070Y-19887D01*
X-132042Y-19829D01*
X-132470Y29142D02*
Y28542D01*
Y29142D02*
X-132213D01*
X-132127Y29113D01*
X-132099Y29085D01*
X-132070Y29027D01*
Y28970D01*
X-132099Y28913D01*
X-132127Y28885D01*
X-132213Y28856D01*
X-132470D02*
X-132213D01*
X-132127Y28827D01*
X-132099Y28799D01*
X-132070Y28742D01*
Y28656D01*
X-132099Y28599D01*
X-132127Y28570D01*
X-132213Y28542D01*
X-132470D01*
X-132013Y76599D02*
X-132241Y77198D01*
X-132470Y76599D01*
X-132384Y76799D02*
X-132099D01*
X154550Y-67378D02*
Y-67978D01*
Y-67378D02*
X154750D01*
X154836Y-67407D01*
X154893Y-67464D01*
X154921Y-67521D01*
X154950Y-67607D01*
Y-67750D01*
X154921Y-67835D01*
X154893Y-67893D01*
X154836Y-67950D01*
X154750Y-67978D01*
X154550D01*
X154978Y-19515D02*
X154950Y-19458D01*
X154893Y-19401D01*
X154836Y-19372D01*
X154721D01*
X154664Y-19401D01*
X154607Y-19458D01*
X154579Y-19515D01*
X154550Y-19601D01*
Y-19744D01*
X154579Y-19829D01*
X154607Y-19887D01*
X154664Y-19944D01*
X154721Y-19972D01*
X154836D01*
X154893Y-19944D01*
X154950Y-19887D01*
X154978Y-19829D01*
X154550Y29142D02*
Y28542D01*
Y29142D02*
X154807D01*
X154893Y29113D01*
X154921Y29085D01*
X154950Y29027D01*
Y28970D01*
X154921Y28913D01*
X154893Y28885D01*
X154807Y28856D01*
X154550D02*
X154807D01*
X154893Y28827D01*
X154921Y28799D01*
X154950Y28742D01*
Y28656D01*
X154921Y28599D01*
X154893Y28570D01*
X154807Y28542D01*
X154550D01*
X155007Y76599D02*
X154779Y77198D01*
X154550Y76599D01*
X154636Y76799D02*
X154921D01*
D29*
X84700Y-90000D02*
Y-84920D01*
X76445D02*
Y-69680D01*
X129785Y-84920D02*
Y-69680D01*
X38345Y-84920D02*
Y-54440D01*
X152645Y-84920D02*
Y-54440D01*
X76445D02*
X152645D01*
X76445Y-69680D02*
Y-54440D01*
X38345D02*
X76445D01*
X38345Y-69680D02*
X152645D01*
X38345Y-77300D02*
X152645D01*
X38345Y-84920D02*
X152645D01*
X38345Y-62060D02*
X76445D01*
X2785Y-54440D02*
X38345D01*
X2785Y-84920D02*
Y-54440D01*
Y-84920D02*
X38345D01*
X11675Y-90000D02*
Y-84920D01*
X-61350Y-90000D02*
Y-84920D01*
X-134375Y-41740D02*
X-129295D01*
X-134375Y6520D02*
X-129295D01*
X-134375Y54780D02*
X-129295D01*
X-134375Y-90000D02*
Y103040D01*
X152645Y-41740D02*
X157725D01*
X152645Y6520D02*
X157725D01*
X152645Y54780D02*
X157725D01*
X84700Y97960D02*
Y103040D01*
X11675Y97960D02*
Y103040D01*
X-61350Y97960D02*
Y103040D01*
X-129295Y97960D02*
X152645D01*
Y-84920D02*
Y97960D01*
X-129295Y-84920D02*
X152645D01*
X-129295D02*
Y97960D01*
X-134375Y103040D02*
X157725D01*
Y-90000D02*
Y103040D01*
X-134375Y-90000D02*
X157725D01*
D48*
X8398Y-56726D02*
X35678D01*
X8094Y-56777D02*
X35678D01*
X7941Y-56828D02*
X35678D01*
X7789Y-56878D02*
X35678D01*
X7636Y-56929D02*
X35678D01*
X7535Y-56980D02*
X35678D01*
X7433Y-57031D02*
X35678D01*
X7332Y-57082D02*
X35678D01*
X7230Y-57132D02*
X35678D01*
X7128Y-57183D02*
X35678D01*
X7078Y-57234D02*
X35678D01*
X6976Y-57285D02*
X35678D01*
X6925Y-57336D02*
X35678D01*
X6874Y-57386D02*
X35678D01*
X6824Y-57437D02*
X35678D01*
X6722Y-57488D02*
X35678D01*
X6671Y-57539D02*
X35678D01*
X6620Y-57590D02*
X35678D01*
X6570Y-57640D02*
X35678D01*
X6519Y-57691D02*
X35678D01*
X6468Y-57742D02*
X35678D01*
X6468Y-57793D02*
X35678D01*
X6417Y-57844D02*
X35678D01*
X6366Y-57894D02*
X35678D01*
X6316Y-57945D02*
X35678D01*
X6265Y-57996D02*
X35678D01*
X6265Y-58047D02*
X35678D01*
X6214Y-58098D02*
X35678D01*
X6163Y-58148D02*
X35678D01*
X6112Y-58199D02*
X35678D01*
X6112Y-58250D02*
X35678D01*
X6062Y-58301D02*
X35678D01*
X6062Y-58352D02*
X35678D01*
X6011Y-58402D02*
X35678D01*
X5960Y-58453D02*
X35678D01*
X5960Y-58504D02*
X35678D01*
X5960Y-58555D02*
X35678D01*
X5909Y-58606D02*
X35678D01*
X5909Y-58656D02*
X35678D01*
X5858Y-58707D02*
X35678D01*
X5858Y-58758D02*
X35678D01*
X5808Y-58809D02*
X35678D01*
X5808Y-58860D02*
X35678D01*
X5808Y-58910D02*
X35678D01*
X5757Y-58961D02*
X35678D01*
X5757Y-59012D02*
X35678D01*
X5757Y-59063D02*
X35678D01*
X5757Y-59114D02*
X35678D01*
X5706Y-59164D02*
X35678D01*
X5706Y-59215D02*
X12005D01*
X13072D02*
X15002D01*
X16577D02*
X35678D01*
X5706Y-59266D02*
X11700D01*
X13072D02*
X14952D01*
X16526D02*
X17288D01*
X18863D02*
X35678D01*
X5706Y-59317D02*
X11548D01*
X13072D02*
X14952D01*
X16526D02*
X17288D01*
X18812D02*
X35678D01*
X5706Y-59368D02*
X11396D01*
X13072D02*
X14952D01*
X16526D02*
X17238D01*
X18812D02*
X35678D01*
X5706Y-59418D02*
X11294D01*
X13072D02*
X14952D01*
X16526D02*
X17238D01*
X18812D02*
X35678D01*
X5706Y-59469D02*
X11192D01*
X13072D02*
X14901D01*
X16476D02*
X17238D01*
X18812D02*
X35678D01*
X5706Y-59520D02*
X11091D01*
X13072D02*
X14901D01*
X16476D02*
X17238D01*
X18762D02*
X35678D01*
X5706Y-59571D02*
X11040D01*
X13123D02*
X14901D01*
X16476D02*
X17187D01*
X18762D02*
X35678D01*
X5706Y-59622D02*
X10938D01*
X13123D02*
X14901D01*
X16476D02*
X17187D01*
X18762D02*
X35678D01*
X5706Y-59672D02*
X10888D01*
X13123D02*
X14850D01*
X16425D02*
X17187D01*
X18762D02*
X35678D01*
X5706Y-59723D02*
X10837D01*
X13123D02*
X14850D01*
X16425D02*
X17187D01*
X18711D02*
X35678D01*
X5706Y-59774D02*
X10786D01*
X13123D02*
X14850D01*
X16425D02*
X17136D01*
X18711D02*
X35678D01*
X5706Y-59825D02*
X10735D01*
X13123D02*
X14850D01*
X16425D02*
X17136D01*
X18711D02*
X35678D01*
X5706Y-59876D02*
X10684D01*
X13123D02*
X14799D01*
X16374D02*
X17136D01*
X18711D02*
X35678D01*
X5706Y-59926D02*
X10634D01*
X13123D02*
X14799D01*
X16374D02*
X17136D01*
X18660D02*
X35678D01*
X5706Y-59977D02*
X10583D01*
X13123D02*
X14799D01*
X16374D02*
X17085D01*
X18660D02*
X35678D01*
X5706Y-60028D02*
X10532D01*
X13123D02*
X14799D01*
X16374D02*
X17085D01*
X18660D02*
X35678D01*
X5706Y-60079D02*
X10481D01*
X13123D02*
X14748D01*
X16323D02*
X17085D01*
X18609D02*
X35678D01*
X5706Y-60130D02*
X10481D01*
X13123D02*
X14748D01*
X16323D02*
X17085D01*
X18609D02*
X35678D01*
X5706Y-60180D02*
X10430D01*
X13123D02*
X14748D01*
X16323D02*
X17034D01*
X18609D02*
X35678D01*
X5706Y-60231D02*
X10380D01*
X13123D02*
X14748D01*
X16323D02*
X17034D01*
X18609D02*
X35678D01*
X5706Y-60282D02*
X10380D01*
X13123D02*
X14748D01*
X16272D02*
X17034D01*
X18558D02*
X35678D01*
X5706Y-60333D02*
X10329D01*
X13123D02*
X14698D01*
X16272D02*
X17034D01*
X18558D02*
X35678D01*
X5706Y-60384D02*
X10329D01*
X13123D02*
X14698D01*
X16272D02*
X16984D01*
X18558D02*
X35678D01*
X5706Y-60434D02*
X10278D01*
X13123D02*
X14698D01*
X16272D02*
X16984D01*
X18558D02*
X29328D01*
X29887D02*
X31766D01*
X32274D02*
X35678D01*
X5706Y-60485D02*
X10278D01*
X13123D02*
X14698D01*
X16222D02*
X16984D01*
X18508D02*
X29023D01*
X30090D02*
X31462D01*
X32528D02*
X35678D01*
X5706Y-60536D02*
X10227D01*
X13123D02*
X14647D01*
X16222D02*
X16984D01*
X19168D02*
X28871D01*
X30242D02*
X31309D01*
X32630D02*
X35678D01*
X5706Y-60587D02*
X10227D01*
X11650D02*
X11700D01*
X13123D02*
X14647D01*
X16222D02*
X16933D01*
X19168D02*
X19727D01*
X21302D02*
X21962D01*
X23537D02*
X24400D01*
X25975D02*
X26737D01*
X28312D02*
X28769D01*
X30293D02*
X31208D01*
X32732D02*
X35678D01*
X5706Y-60638D02*
X10176D01*
X11650D02*
X11700D01*
X13123D02*
X14647D01*
X16222D02*
X16933D01*
X19117D02*
X19727D01*
X21251D02*
X21962D01*
X23537D02*
X24400D01*
X25975D02*
X26737D01*
X28312D02*
X28668D01*
X30395D02*
X31106D01*
X32833D02*
X35678D01*
X5706Y-60688D02*
X10176D01*
X11599D02*
X11700D01*
X13123D02*
X14647D01*
X16171D02*
X16933D01*
X19117D02*
X19676D01*
X21251D02*
X21962D01*
X23537D02*
X24400D01*
X25975D02*
X26737D01*
X28312D02*
X28617D01*
X30446D02*
X31004D01*
X32884D02*
X35678D01*
X5706Y-60739D02*
X10126D01*
X11599D02*
X11700D01*
X13123D02*
X14596D01*
X16171D02*
X16933D01*
X19117D02*
X19676D01*
X21251D02*
X21962D01*
X23486D02*
X24400D01*
X25924D02*
X26686D01*
X28261D02*
X28515D01*
X30446D02*
X30903D01*
X32935D02*
X35678D01*
X5706Y-60790D02*
X10126D01*
X11548D02*
X11700D01*
X13123D02*
X14596D01*
X16171D02*
X16882D01*
X19117D02*
X19676D01*
X21251D02*
X21911D01*
X23486D02*
X24350D01*
X25924D02*
X26686D01*
X28261D02*
X28464D01*
X30496D02*
X30852D01*
X32935D02*
X35678D01*
X5706Y-60841D02*
X10075D01*
X11548D02*
X11700D01*
X13123D02*
X14596D01*
X16120D02*
X16882D01*
X19066D02*
X19676D01*
X21200D02*
X21911D01*
X23486D02*
X24350D01*
X25924D02*
X26686D01*
X28261D02*
X28414D01*
X30547D02*
X30801D01*
X32986D02*
X35678D01*
X5706Y-60892D02*
X10024D01*
X11497D02*
X11700D01*
X13174D02*
X14596D01*
X16120D02*
X16882D01*
X19066D02*
X19625D01*
X21200D02*
X21911D01*
X23486D02*
X24350D01*
X25924D02*
X26686D01*
X28261D02*
X28363D01*
X30547D02*
X30750D01*
X32986D02*
X35678D01*
X5706Y-60942D02*
X10024D01*
X11497D02*
X11700D01*
X13174D02*
X14545D01*
X16120D02*
X16882D01*
X19066D02*
X19625D01*
X21200D02*
X21911D01*
X23435D02*
X24350D01*
X25874D02*
X26636D01*
X28210D02*
X28312D01*
X30547D02*
X30700D01*
X32986D02*
X35678D01*
X5706Y-60993D02*
X9973D01*
X11446D02*
X11700D01*
X13174D02*
X14545D01*
X16120D02*
X16831D01*
X19066D02*
X19625D01*
X21200D02*
X21860D01*
X23435D02*
X24299D01*
X25874D02*
X26636D01*
X28210D02*
X28261D01*
X30598D02*
X30649D01*
X32986D02*
X35678D01*
X5706Y-61044D02*
X9973D01*
X11446D02*
X11700D01*
X13174D02*
X14545D01*
X16069D02*
X16831D01*
X19016D02*
X19625D01*
X21149D02*
X21860D01*
X23435D02*
X24299D01*
X25874D02*
X26636D01*
X33036D02*
X35678D01*
X5706Y-61095D02*
X9922D01*
X11396D02*
X11700D01*
X13174D02*
X14545D01*
X16069D02*
X16831D01*
X19016D02*
X19574D01*
X21149D02*
X21860D01*
X23435D02*
X24299D01*
X25874D02*
X26636D01*
X33036D02*
X35678D01*
X5706Y-61146D02*
X9922D01*
X11396D02*
X11700D01*
X13174D02*
X14494D01*
X16069D02*
X16831D01*
X19016D02*
X19574D01*
X21149D02*
X21860D01*
X23384D02*
X24299D01*
X25823D02*
X26585D01*
X33036D02*
X35678D01*
X5706Y-61196D02*
X9872D01*
X11396D02*
X11700D01*
X13174D02*
X14494D01*
X16069D02*
X16780D01*
X19016D02*
X19574D01*
X21149D02*
X21810D01*
X23384D02*
X24248D01*
X25823D02*
X26585D01*
X33036D02*
X35678D01*
X5706Y-61247D02*
X9872D01*
X11345D02*
X11700D01*
X13174D02*
X14494D01*
X16018D02*
X16780D01*
X18965D02*
X19574D01*
X21098D02*
X21810D01*
X23384D02*
X24248D01*
X25823D02*
X26585D01*
X33036D02*
X35678D01*
X5706Y-61298D02*
X9821D01*
X11345D02*
X11700D01*
X13174D02*
X14494D01*
X16018D02*
X16780D01*
X18965D02*
X19524D01*
X21098D02*
X21810D01*
X23384D02*
X24248D01*
X25823D02*
X26585D01*
X33036D02*
X35678D01*
X5706Y-61349D02*
X9821D01*
X11294D02*
X11700D01*
X13174D02*
X14444D01*
X16018D02*
X16780D01*
X18965D02*
X19524D01*
X21098D02*
X21810D01*
X23334D02*
X24248D01*
X25772D02*
X26534D01*
X32986D02*
X35678D01*
X5706Y-61400D02*
X9770D01*
X11294D02*
X11700D01*
X13174D02*
X14444D01*
X16018D02*
X16730D01*
X18965D02*
X19524D01*
X21098D02*
X21759D01*
X23334D02*
X24197D01*
X25772D02*
X26534D01*
X32986D02*
X35678D01*
X5706Y-61450D02*
X9770D01*
X11243D02*
X11650D01*
X13174D02*
X14444D01*
X15968D02*
X16730D01*
X18914D02*
X19524D01*
X21048D02*
X21759D01*
X23334D02*
X24197D01*
X25772D02*
X26534D01*
X32986D02*
X35678D01*
X5706Y-61501D02*
X9719D01*
X11243D02*
X11650D01*
X13174D02*
X14444D01*
X15968D02*
X16730D01*
X18254D02*
X19473D01*
X21048D02*
X21759D01*
X23334D02*
X24197D01*
X25772D02*
X26534D01*
X28312D02*
X28769D01*
X30750D02*
X31208D01*
X32986D02*
X35678D01*
X5706Y-61552D02*
X9668D01*
X11192D02*
X11650D01*
X13174D02*
X14393D01*
X15968D02*
X16730D01*
X18254D02*
X19473D01*
X21048D02*
X21759D01*
X23283D02*
X24197D01*
X25721D02*
X26483D01*
X28210D02*
X28820D01*
X30649D02*
X31258D01*
X32986D02*
X35678D01*
X5706Y-61603D02*
X9668D01*
X11192D02*
X11650D01*
X13174D02*
X14393D01*
X15968D02*
X16679D01*
X18254D02*
X19473D01*
X21048D02*
X21708D01*
X23283D02*
X24146D01*
X25721D02*
X26483D01*
X28160D02*
X28871D01*
X30598D02*
X31309D01*
X32935D02*
X35678D01*
X5706Y-61654D02*
X9618D01*
X11142D02*
X11650D01*
X13174D02*
X14393D01*
X15917D02*
X16679D01*
X18254D02*
X19473D01*
X20997D02*
X21708D01*
X23283D02*
X24146D01*
X25721D02*
X26483D01*
X28109D02*
X28871D01*
X30547D02*
X31309D01*
X32935D02*
X35678D01*
X5706Y-61704D02*
X9618D01*
X11142D02*
X11650D01*
X13174D02*
X14393D01*
X15917D02*
X16679D01*
X18203D02*
X19422D01*
X20997D02*
X21708D01*
X23283D02*
X24146D01*
X25721D02*
X26483D01*
X28058D02*
X28871D01*
X30496D02*
X31309D01*
X32935D02*
X35678D01*
X5706Y-61755D02*
X9567D01*
X11142D02*
X11650D01*
X13174D02*
X14342D01*
X15917D02*
X16679D01*
X18203D02*
X19422D01*
X20997D02*
X21708D01*
X23232D02*
X24146D01*
X25670D02*
X26432D01*
X28058D02*
X28871D01*
X30496D02*
X31360D01*
X32935D02*
X35678D01*
X5706Y-61806D02*
X9567D01*
X11091D02*
X11650D01*
X13174D02*
X14342D01*
X15917D02*
X16628D01*
X18203D02*
X19422D01*
X20997D02*
X21657D01*
X23232D02*
X24096D01*
X25670D02*
X26432D01*
X28007D02*
X28871D01*
X30446D02*
X31309D01*
X32884D02*
X35678D01*
X5706Y-61857D02*
X9516D01*
X11091D02*
X11650D01*
X13174D02*
X14342D01*
X15866D02*
X16628D01*
X18203D02*
X19422D01*
X20946D02*
X21657D01*
X23232D02*
X24096D01*
X25670D02*
X26432D01*
X28007D02*
X28871D01*
X30446D02*
X31309D01*
X32884D02*
X35678D01*
X5706Y-61908D02*
X9516D01*
X11040D02*
X11650D01*
X13174D02*
X14342D01*
X15866D02*
X16628D01*
X18152D02*
X19371D01*
X20946D02*
X21657D01*
X23232D02*
X24096D01*
X25670D02*
X26432D01*
X27956D02*
X28871D01*
X30446D02*
X31309D01*
X32884D02*
X35678D01*
X5706Y-61958D02*
X9465D01*
X11040D02*
X11650D01*
X13174D02*
X14291D01*
X15866D02*
X16628D01*
X18152D02*
X19371D01*
X20946D02*
X21657D01*
X23181D02*
X24096D01*
X25620D02*
X26382D01*
X27956D02*
X28871D01*
X30395D02*
X31309D01*
X32884D02*
X35678D01*
X5706Y-62009D02*
X9465D01*
X10989D02*
X11650D01*
X13174D02*
X14291D01*
X15866D02*
X16577D01*
X18152D02*
X19371D01*
X20946D02*
X21606D01*
X23181D02*
X24045D01*
X25620D02*
X26382D01*
X27956D02*
X28820D01*
X30395D02*
X31309D01*
X32833D02*
X35678D01*
X5706Y-62060D02*
X9414D01*
X10989D02*
X11650D01*
X13174D02*
X14291D01*
X15815D02*
X16577D01*
X18152D02*
X19371D01*
X20895D02*
X21606D01*
X23181D02*
X24045D01*
X25620D02*
X26382D01*
X27956D02*
X28820D01*
X30395D02*
X31258D01*
X32833D02*
X35678D01*
X5706Y-62111D02*
X9414D01*
X10938D02*
X11650D01*
X13174D02*
X14291D01*
X15815D02*
X16577D01*
X18101D02*
X19320D01*
X20895D02*
X21606D01*
X23181D02*
X24045D01*
X25620D02*
X26382D01*
X27906D02*
X28820D01*
X30344D02*
X31258D01*
X32833D02*
X35678D01*
X5706Y-62162D02*
X9364D01*
X10938D02*
X11650D01*
X13174D02*
X14240D01*
X15815D02*
X16526D01*
X18101D02*
X19320D01*
X20895D02*
X21606D01*
X23130D02*
X24045D01*
X25569D02*
X26331D01*
X27906D02*
X28820D01*
X30344D02*
X31258D01*
X32833D02*
X35678D01*
X5706Y-62212D02*
X9364D01*
X10888D02*
X11650D01*
X13174D02*
X14240D01*
X15815D02*
X16526D01*
X18101D02*
X19320D01*
X20895D02*
X21556D01*
X23130D02*
X23994D01*
X25569D02*
X26331D01*
X27906D02*
X28769D01*
X30344D02*
X31258D01*
X32782D02*
X35678D01*
X5706Y-62263D02*
X9313D01*
X10888D02*
X11650D01*
X13224D02*
X14240D01*
X15764D02*
X16526D01*
X18101D02*
X19320D01*
X20844D02*
X21556D01*
X23130D02*
X23994D01*
X25569D02*
X26331D01*
X27906D02*
X28769D01*
X30344D02*
X31208D01*
X32782D02*
X35678D01*
X5706Y-62314D02*
X9262D01*
X10837D02*
X11650D01*
X13224D02*
X14240D01*
X15764D02*
X16526D01*
X18050D02*
X19270D01*
X20844D02*
X21556D01*
X23130D02*
X23994D01*
X25569D02*
X26331D01*
X27855D02*
X28769D01*
X30293D02*
X31208D01*
X32782D02*
X35678D01*
X5706Y-62365D02*
X9262D01*
X10837D02*
X11599D01*
X13224D02*
X14190D01*
X15764D02*
X16476D01*
X18050D02*
X19270D01*
X20844D02*
X21556D01*
X23080D02*
X23994D01*
X25518D02*
X26280D01*
X27855D02*
X28769D01*
X30293D02*
X31208D01*
X32782D02*
X35678D01*
X5706Y-62416D02*
X9211D01*
X10837D02*
X11599D01*
X13224D02*
X14190D01*
X15764D02*
X16476D01*
X18050D02*
X19270D01*
X20844D02*
X21505D01*
X23080D02*
X23943D01*
X25518D02*
X26280D01*
X27855D02*
X28718D01*
X30293D02*
X31208D01*
X32732D02*
X35678D01*
X5706Y-62466D02*
X9211D01*
X10786D02*
X11599D01*
X13224D02*
X14190D01*
X15714D02*
X16476D01*
X18050D02*
X19270D01*
X20794D02*
X21505D01*
X23080D02*
X23943D01*
X25518D02*
X26280D01*
X27855D02*
X28718D01*
X30293D02*
X31157D01*
X32732D02*
X35678D01*
X5706Y-62517D02*
X9160D01*
X10786D02*
X11599D01*
X13224D02*
X14190D01*
X15714D02*
X16476D01*
X18000D02*
X19219D01*
X20794D02*
X21505D01*
X23080D02*
X23943D01*
X25518D02*
X26280D01*
X27804D02*
X28718D01*
X30242D02*
X31157D01*
X32732D02*
X35678D01*
X5706Y-62568D02*
X9160D01*
X10735D02*
X11599D01*
X13224D02*
X14139D01*
X15714D02*
X16425D01*
X18000D02*
X19219D01*
X20794D02*
X21505D01*
X23029D02*
X23943D01*
X25467D02*
X26229D01*
X27804D02*
X28718D01*
X30242D02*
X31157D01*
X32732D02*
X35678D01*
X5706Y-62619D02*
X9110D01*
X10735D02*
X11599D01*
X13224D02*
X14139D01*
X15714D02*
X16425D01*
X18000D02*
X19219D01*
X20794D02*
X21454D01*
X23029D02*
X23892D01*
X25467D02*
X26229D01*
X27804D02*
X28668D01*
X30242D02*
X31157D01*
X32681D02*
X35678D01*
X5706Y-62670D02*
X9110D01*
X10684D02*
X11599D01*
X13224D02*
X14139D01*
X15663D02*
X16425D01*
X18000D02*
X19219D01*
X20743D02*
X21454D01*
X23029D02*
X23892D01*
X25467D02*
X26229D01*
X27804D02*
X28668D01*
X30242D02*
X31106D01*
X32681D02*
X35678D01*
X5706Y-62720D02*
X9059D01*
X13224D02*
X14139D01*
X15663D02*
X16425D01*
X17949D02*
X19168D01*
X20743D02*
X21454D01*
X23029D02*
X23892D01*
X25467D02*
X26229D01*
X27753D02*
X28668D01*
X30192D02*
X31106D01*
X32681D02*
X35678D01*
X5706Y-62771D02*
X9059D01*
X13224D02*
X14088D01*
X15663D02*
X16374D01*
X17949D02*
X19168D01*
X20743D02*
X21454D01*
X22978D02*
X23892D01*
X25416D02*
X26178D01*
X27753D02*
X28668D01*
X30192D02*
X31106D01*
X32681D02*
X35678D01*
X5706Y-62822D02*
X9008D01*
X13224D02*
X14088D01*
X15663D02*
X16374D01*
X17949D02*
X19168D01*
X20743D02*
X21403D01*
X22978D02*
X23842D01*
X25416D02*
X26178D01*
X27753D02*
X28617D01*
X30192D02*
X31106D01*
X32630D02*
X35678D01*
X5706Y-62873D02*
X9008D01*
X13224D02*
X14088D01*
X15612D02*
X16374D01*
X17949D02*
X19168D01*
X20692D02*
X21403D01*
X22978D02*
X23842D01*
X25416D02*
X26178D01*
X27753D02*
X28617D01*
X30192D02*
X31055D01*
X32630D02*
X35678D01*
X5706Y-62924D02*
X8957D01*
X13224D02*
X14088D01*
X15612D02*
X16374D01*
X17898D02*
X19117D01*
X20692D02*
X21403D01*
X22978D02*
X23842D01*
X25416D02*
X26178D01*
X27702D02*
X28617D01*
X30141D02*
X31055D01*
X32630D02*
X35678D01*
X5706Y-62974D02*
X8906D01*
X13224D02*
X14037D01*
X15612D02*
X16323D01*
X17898D02*
X19117D01*
X20692D02*
X21403D01*
X22927D02*
X23842D01*
X25366D02*
X26128D01*
X27702D02*
X28617D01*
X30141D02*
X31055D01*
X32630D02*
X35678D01*
X5706Y-63025D02*
X8906D01*
X13224D02*
X14037D01*
X15612D02*
X16323D01*
X17898D02*
X19117D01*
X20692D02*
X21352D01*
X22927D02*
X23791D01*
X25366D02*
X26128D01*
X27702D02*
X28566D01*
X30141D02*
X31055D01*
X32579D02*
X35678D01*
X5706Y-63076D02*
X8856D01*
X13224D02*
X14037D01*
X15561D02*
X16323D01*
X17898D02*
X19117D01*
X20641D02*
X21352D01*
X22927D02*
X23791D01*
X25366D02*
X26128D01*
X27702D02*
X28566D01*
X30141D02*
X31004D01*
X32579D02*
X35678D01*
X5706Y-63127D02*
X8856D01*
X13224D02*
X14037D01*
X15561D02*
X16323D01*
X17847D02*
X19066D01*
X20641D02*
X21352D01*
X22927D02*
X23791D01*
X25366D02*
X26128D01*
X27652D02*
X28566D01*
X30090D02*
X31004D01*
X32579D02*
X35678D01*
X5706Y-63178D02*
X8805D01*
X13224D02*
X13986D01*
X15561D02*
X16272D01*
X17847D02*
X19066D01*
X20641D02*
X21352D01*
X22876D02*
X23791D01*
X25315D02*
X26077D01*
X27652D02*
X28566D01*
X30090D02*
X31004D01*
X32579D02*
X35678D01*
X5706Y-63228D02*
X8805D01*
X13224D02*
X13986D01*
X15561D02*
X16272D01*
X17847D02*
X19066D01*
X20641D02*
X21302D01*
X22876D02*
X23740D01*
X25315D02*
X26077D01*
X27652D02*
X28515D01*
X30090D02*
X31004D01*
X32528D02*
X35678D01*
X5706Y-63279D02*
X8754D01*
X13224D02*
X13986D01*
X15510D02*
X16272D01*
X17847D02*
X19066D01*
X20590D02*
X21302D01*
X22876D02*
X23740D01*
X25315D02*
X26077D01*
X27652D02*
X28515D01*
X30090D02*
X30954D01*
X32528D02*
X35678D01*
X5706Y-63330D02*
X8754D01*
X13224D02*
X13986D01*
X15510D02*
X16272D01*
X17796D02*
X19016D01*
X20590D02*
X21302D01*
X22876D02*
X23740D01*
X25315D02*
X26077D01*
X27601D02*
X28515D01*
X30039D02*
X30954D01*
X32528D02*
X35678D01*
X5706Y-63381D02*
X8703D01*
X13224D02*
X13936D01*
X15510D02*
X16222D01*
X17796D02*
X19016D01*
X20590D02*
X21302D01*
X22826D02*
X23740D01*
X25264D02*
X26026D01*
X27601D02*
X28515D01*
X30039D02*
X30954D01*
X32528D02*
X35678D01*
X5706Y-63432D02*
X8703D01*
X13224D02*
X13936D01*
X15510D02*
X16222D01*
X17796D02*
X19016D01*
X20590D02*
X21251D01*
X22826D02*
X23689D01*
X25264D02*
X26026D01*
X27601D02*
X28464D01*
X30039D02*
X30954D01*
X32478D02*
X35678D01*
X5706Y-63482D02*
X8652D01*
X13224D02*
X13936D01*
X15460D02*
X16222D01*
X17796D02*
X19016D01*
X20540D02*
X21251D01*
X22826D02*
X23689D01*
X25264D02*
X26026D01*
X27601D02*
X28464D01*
X30039D02*
X30903D01*
X32478D02*
X35678D01*
X5706Y-63533D02*
X8652D01*
X13224D02*
X13936D01*
X15460D02*
X16222D01*
X17796D02*
X18965D01*
X20540D02*
X21251D01*
X22826D02*
X23638D01*
X25264D02*
X26026D01*
X27550D02*
X28464D01*
X29988D02*
X30903D01*
X32478D02*
X35678D01*
X5706Y-63584D02*
X8602D01*
X13275D02*
X13885D01*
X15460D02*
X16171D01*
X17746D02*
X18965D01*
X20540D02*
X21251D01*
X22826D02*
X23638D01*
X25213D02*
X25975D01*
X27550D02*
X28464D01*
X29988D02*
X30903D01*
X32478D02*
X35678D01*
X5706Y-63635D02*
X8602D01*
X13275D02*
X13885D01*
X15460D02*
X16171D01*
X17796D02*
X18965D01*
X20540D02*
X21200D01*
X22876D02*
X23588D01*
X25213D02*
X25975D01*
X27550D02*
X28414D01*
X29988D02*
X30903D01*
X32427D02*
X35678D01*
X5706Y-63686D02*
X8551D01*
X13275D02*
X13885D01*
X15409D02*
X16171D01*
X17796D02*
X18965D01*
X20489D02*
X21200D01*
X22876D02*
X23537D01*
X25213D02*
X25975D01*
X27550D02*
X28414D01*
X29988D02*
X30852D01*
X32427D02*
X35678D01*
X5706Y-63736D02*
X8500D01*
X13275D02*
X13885D01*
X15409D02*
X16171D01*
X17847D02*
X18914D01*
X20489D02*
X21200D01*
X22927D02*
X23435D01*
X25213D02*
X25975D01*
X27499D02*
X28414D01*
X29938D02*
X30852D01*
X32427D02*
X35678D01*
X5706Y-63787D02*
X8500D01*
X10227D02*
X11548D01*
X13275D02*
X13834D01*
X15409D02*
X16120D01*
X18355D02*
X18914D01*
X20489D02*
X21200D01*
X25162D02*
X25924D01*
X27499D02*
X28414D01*
X29938D02*
X30852D01*
X32427D02*
X35678D01*
X5706Y-63838D02*
X8449D01*
X10176D02*
X11548D01*
X13275D02*
X13834D01*
X15409D02*
X16120D01*
X18355D02*
X18914D01*
X20489D02*
X21149D01*
X25162D02*
X25924D01*
X27499D02*
X28363D01*
X29938D02*
X30852D01*
X32376D02*
X35678D01*
X5706Y-63889D02*
X8449D01*
X10176D02*
X11548D01*
X13275D02*
X13834D01*
X15358D02*
X16120D01*
X18304D02*
X18914D01*
X20438D02*
X21149D01*
X25162D02*
X25924D01*
X27499D02*
X28363D01*
X29938D02*
X30801D01*
X32376D02*
X35678D01*
X5706Y-63940D02*
X8398D01*
X10126D02*
X11548D01*
X13275D02*
X13834D01*
X15358D02*
X16120D01*
X18304D02*
X18863D01*
X20438D02*
X21149D01*
X25162D02*
X25924D01*
X27448D02*
X28363D01*
X29887D02*
X30801D01*
X32376D02*
X35678D01*
X5706Y-63990D02*
X8398D01*
X10126D02*
X11548D01*
X13275D02*
X13783D01*
X15358D02*
X16120D01*
X18304D02*
X18863D01*
X20438D02*
X21149D01*
X25112D02*
X25874D01*
X27448D02*
X28363D01*
X29887D02*
X30801D01*
X32376D02*
X35678D01*
X5706Y-64041D02*
X8348D01*
X10075D02*
X11548D01*
X13275D02*
X13783D01*
X15358D02*
X16120D01*
X18304D02*
X18863D01*
X20438D02*
X21149D01*
X25112D02*
X25874D01*
X27448D02*
X28312D01*
X29887D02*
X30801D01*
X32325D02*
X35678D01*
X5706Y-64092D02*
X8348D01*
X10075D02*
X11548D01*
X13275D02*
X13783D01*
X15307D02*
X16120D01*
X18254D02*
X18863D01*
X20387D02*
X21149D01*
X25112D02*
X25874D01*
X27448D02*
X28312D01*
X29887D02*
X30750D01*
X32325D02*
X35678D01*
X5706Y-64143D02*
X8297D01*
X10024D02*
X11548D01*
X13275D02*
X13783D01*
X15307D02*
X16120D01*
X18254D02*
X18812D01*
X20387D02*
X21149D01*
X25112D02*
X25874D01*
X27398D02*
X28312D01*
X29836D02*
X30750D01*
X32274D02*
X35678D01*
X5706Y-64194D02*
X8297D01*
X10024D02*
X11548D01*
X13275D02*
X13732D01*
X15307D02*
X16120D01*
X18254D02*
X18812D01*
X20387D02*
X21149D01*
X25061D02*
X25823D01*
X27398D02*
X28312D01*
X29836D02*
X30750D01*
X32274D02*
X35678D01*
X5706Y-64244D02*
X8246D01*
X10024D02*
X11497D01*
X13275D02*
X13732D01*
X15307D02*
X16120D01*
X18254D02*
X18812D01*
X20387D02*
X21149D01*
X25061D02*
X25823D01*
X27398D02*
X28261D01*
X29836D02*
X30750D01*
X32224D02*
X35678D01*
X5706Y-64295D02*
X8246D01*
X9973D02*
X11497D01*
X13275D02*
X13732D01*
X15256D02*
X16120D01*
X18203D02*
X18812D01*
X20336D02*
X21200D01*
X23435D02*
X23486D01*
X25061D02*
X25823D01*
X27398D02*
X28261D01*
X29836D02*
X30700D01*
X32173D02*
X32681D01*
X33036D02*
X33087D01*
X33240D02*
X33494D01*
X33595D02*
X35678D01*
X5706Y-64346D02*
X8195D01*
X9973D02*
X11497D01*
X13275D02*
X13732D01*
X15256D02*
X16120D01*
X18203D02*
X18762D01*
X20336D02*
X21200D01*
X23384D02*
X23486D01*
X25061D02*
X25823D01*
X27347D02*
X28261D01*
X29785D02*
X30700D01*
X32173D02*
X32782D01*
X32884D02*
X33087D01*
X33240D02*
X33443D01*
X33595D02*
X35678D01*
X5706Y-64397D02*
X8144D01*
X9922D02*
X11497D01*
X13275D02*
X13682D01*
X15256D02*
X16120D01*
X18203D02*
X18762D01*
X20336D02*
X21200D01*
X23334D02*
X23486D01*
X25010D02*
X25772D01*
X27347D02*
X28261D01*
X29785D02*
X30700D01*
X32122D02*
X32782D01*
X32884D02*
X33087D01*
X33290D02*
X33443D01*
X33595D02*
X35678D01*
X5706Y-64448D02*
X8144D01*
X9922D02*
X11497D01*
X13275D02*
X13682D01*
X15256D02*
X16171D01*
X18203D02*
X18762D01*
X20336D02*
X21251D01*
X23283D02*
X23486D01*
X25010D02*
X25772D01*
X27347D02*
X28210D01*
X29785D02*
X30700D01*
X32071D02*
X32782D01*
X32884D02*
X33087D01*
X33290D02*
X33443D01*
X33494D02*
X33544D01*
X33595D02*
X35678D01*
X5706Y-64498D02*
X8094D01*
X9872D02*
X11497D01*
X13275D02*
X13682D01*
X15206D02*
X16171D01*
X18152D02*
X18762D01*
X20286D02*
X21251D01*
X23232D02*
X23435D01*
X25010D02*
X25772D01*
X27347D02*
X28210D01*
X29785D02*
X30649D01*
X31970D02*
X32782D01*
X32884D02*
X33087D01*
X33189D02*
X33240D01*
X33290D02*
X33392D01*
X33494D02*
X33544D01*
X33595D02*
X35678D01*
X5706Y-64549D02*
X8094D01*
X9872D02*
X11497D01*
X13275D02*
X13682D01*
X15206D02*
X16222D01*
X18152D02*
X18711D01*
X20286D02*
X21302D01*
X23130D02*
X23435D01*
X25010D02*
X25772D01*
X27296D02*
X28210D01*
X29734D02*
X30649D01*
X31919D02*
X32782D01*
X32884D02*
X33087D01*
X33189D02*
X33240D01*
X33341D02*
X33392D01*
X33443D02*
X33544D01*
X33595D02*
X35678D01*
X5706Y-64600D02*
X8043D01*
X9872D02*
X11497D01*
X13275D02*
X13631D01*
X15206D02*
X16323D01*
X18152D02*
X18711D01*
X20286D02*
X21352D01*
X23080D02*
X23435D01*
X24959D02*
X25721D01*
X27296D02*
X28210D01*
X29734D02*
X30649D01*
X31817D02*
X32782D01*
X32884D02*
X33087D01*
X33189D02*
X33290D01*
X33443D02*
X33544D01*
X33595D02*
X35678D01*
X5706Y-64651D02*
X8043D01*
X9821D02*
X11497D01*
X13275D02*
X13631D01*
X15206D02*
X16425D01*
X18152D02*
X18711D01*
X20286D02*
X21454D01*
X22978D02*
X23435D01*
X24959D02*
X25721D01*
X27296D02*
X28160D01*
X29734D02*
X30649D01*
X31716D02*
X32782D01*
X32884D02*
X33087D01*
X33189D02*
X33290D01*
X33443D02*
X33544D01*
X33595D02*
X35678D01*
X5706Y-64702D02*
X7992D01*
X9821D02*
X11497D01*
X13275D02*
X13631D01*
X15155D02*
X16577D01*
X18101D02*
X18711D01*
X20235D02*
X21556D01*
X22876D02*
X23384D01*
X24959D02*
X25721D01*
X27296D02*
X28160D01*
X29734D02*
X30598D01*
X31512D02*
X32782D01*
X32884D02*
X33087D01*
X33189D02*
X33290D01*
X33392D02*
X33544D01*
X33595D02*
X35678D01*
X5706Y-64752D02*
X17034D01*
X17644D02*
X21657D01*
X22724D02*
X35678D01*
X5706Y-64803D02*
X21911D01*
X22470D02*
X35678D01*
X5706Y-64854D02*
X35678D01*
X5706Y-64905D02*
X35678D01*
X5706Y-64956D02*
X35678D01*
X5706Y-65006D02*
X35678D01*
X5706Y-65057D02*
X35678D01*
X5706Y-65108D02*
X35678D01*
X5706Y-65159D02*
X35678D01*
X5706Y-65210D02*
X35678D01*
X5706Y-65260D02*
X35678D01*
X5706Y-65311D02*
X35678D01*
X5706Y-65362D02*
X35678D01*
X5706Y-65413D02*
X35678D01*
X5706Y-65464D02*
X35678D01*
X5706Y-65514D02*
X35678D01*
X5706Y-65565D02*
X35678D01*
X5706Y-65616D02*
X35678D01*
X5706Y-65667D02*
X35678D01*
X5706Y-65718D02*
X35678D01*
X5706Y-65768D02*
X35678D01*
X5706Y-65819D02*
X35678D01*
X5706Y-65870D02*
X35678D01*
X5706Y-65921D02*
X10227D01*
X10430D02*
X14850D01*
X15053D02*
X32681D01*
X33036D02*
X33087D01*
X33240D02*
X33494D01*
X33595D02*
X35678D01*
X5706Y-65972D02*
X10227D01*
X10430D02*
X11091D01*
X11294D02*
X14850D01*
X15053D02*
X20082D01*
X20286D02*
X25213D01*
X25416D02*
X30547D01*
X30750D02*
X32833D01*
X32884D02*
X33087D01*
X33240D02*
X33443D01*
X33595D02*
X35678D01*
X5706Y-66022D02*
X7941D01*
X8246D02*
X8703D01*
X9059D02*
X10227D01*
X10430D02*
X11091D01*
X11294D02*
X13986D01*
X14596D02*
X14850D01*
X15053D02*
X20082D01*
X20286D02*
X22521D01*
X23029D02*
X25213D01*
X25416D02*
X28058D01*
X28668D02*
X30547D01*
X30750D02*
X32833D01*
X32884D02*
X33087D01*
X33290D02*
X33443D01*
X33595D02*
X35678D01*
X5706Y-66073D02*
X7941D01*
X8297D02*
X8703D01*
X9059D02*
X10227D01*
X10430D02*
X11091D01*
X11294D02*
X13986D01*
X14596D02*
X14850D01*
X15053D02*
X17085D01*
X17187D02*
X20082D01*
X20286D02*
X22521D01*
X23181D02*
X25213D01*
X25416D02*
X28058D01*
X28668D02*
X30547D01*
X30750D02*
X32833D01*
X32884D02*
X33087D01*
X33290D02*
X33392D01*
X33494D02*
X33544D01*
X33595D02*
X35678D01*
X5706Y-66124D02*
X7941D01*
X8297D02*
X8703D01*
X9059D02*
X10227D01*
X10430D02*
X13986D01*
X14596D02*
X14850D01*
X15053D02*
X16984D01*
X17187D02*
X22521D01*
X23232D02*
X28058D01*
X28668D02*
X32833D01*
X32884D02*
X33087D01*
X33189D02*
X33240D01*
X33341D02*
X33392D01*
X33494D02*
X33544D01*
X33595D02*
X35678D01*
X5706Y-66175D02*
X7941D01*
X8297D02*
X8652D01*
X9059D02*
X10227D01*
X10430D02*
X13986D01*
X14190D02*
X14850D01*
X15053D02*
X16984D01*
X17187D02*
X22521D01*
X22724D02*
X22927D01*
X23283D02*
X28058D01*
X28312D02*
X32833D01*
X32884D02*
X33087D01*
X33189D02*
X33240D01*
X33443D02*
X33544D01*
X33595D02*
X35678D01*
X5706Y-66226D02*
X7941D01*
X8348D02*
X8652D01*
X9059D02*
X10227D01*
X10430D02*
X13986D01*
X14190D02*
X14850D01*
X15053D02*
X16984D01*
X17187D02*
X22521D01*
X22724D02*
X23029D01*
X23283D02*
X28058D01*
X28312D02*
X32833D01*
X32884D02*
X33087D01*
X33189D02*
X33290D01*
X33443D02*
X33544D01*
X33595D02*
X35678D01*
X5706Y-66276D02*
X7941D01*
X8348D02*
X8652D01*
X9059D02*
X9414D01*
X9872D02*
X10227D01*
X10430D02*
X10634D01*
X10888D02*
X11091D01*
X11294D02*
X11599D01*
X11751D02*
X11853D01*
X12158D02*
X12666D01*
X12970D02*
X13021D01*
X13224D02*
X13986D01*
X14190D02*
X14850D01*
X15053D02*
X15460D01*
X15815D02*
X16374D01*
X16730D02*
X16831D01*
X17339D02*
X17593D01*
X17746D02*
X17847D01*
X18000D02*
X18355D01*
X18711D02*
X19117D01*
X19320D02*
X19422D01*
X19727D02*
X20082D01*
X20286D02*
X20692D01*
X21098D02*
X21352D01*
X21759D02*
X22521D01*
X22724D02*
X23080D01*
X23334D02*
X23740D01*
X24096D02*
X24553D01*
X24959D02*
X25213D01*
X25416D02*
X25772D01*
X26077D02*
X26178D01*
X26382D02*
X26636D01*
X26839D02*
X26890D01*
X27194D02*
X28058D01*
X28312D02*
X29023D01*
X29430D02*
X29887D01*
X30293D02*
X30547D01*
X30750D02*
X31157D01*
X31512D02*
X31919D01*
X32071D02*
X32173D01*
X32325D02*
X32833D01*
X32884D02*
X33087D01*
X33189D02*
X33290D01*
X33392D02*
X33544D01*
X33595D02*
X35678D01*
X5706Y-66327D02*
X7941D01*
X8348D02*
X8602D01*
X8805D02*
X8856D01*
X9059D02*
X9364D01*
X9922D02*
X10227D01*
X10430D02*
X10583D01*
X10837D02*
X11091D01*
X11294D02*
X11599D01*
X12208D02*
X12615D01*
X13224D02*
X13986D01*
X14190D02*
X14850D01*
X15053D02*
X15409D01*
X15866D02*
X16272D01*
X16730D02*
X16831D01*
X17339D02*
X17593D01*
X17746D02*
X17796D01*
X18000D02*
X18254D01*
X18812D02*
X19117D01*
X19778D02*
X20082D01*
X20286D02*
X20641D01*
X21048D02*
X21302D01*
X21759D02*
X22521D01*
X22724D02*
X23080D01*
X23334D02*
X23638D01*
X24146D02*
X24502D01*
X24959D02*
X25213D01*
X25416D02*
X25721D01*
X26382D02*
X26636D01*
X27245D02*
X28058D01*
X28312D02*
X28972D01*
X29480D02*
X29836D01*
X30293D02*
X30547D01*
X30750D02*
X31106D01*
X31563D02*
X31919D01*
X32071D02*
X32122D01*
X32325D02*
X35678D01*
X5706Y-66378D02*
X7941D01*
X8144D02*
X8195D01*
X8398D02*
X8602D01*
X8805D02*
X8856D01*
X9059D02*
X9364D01*
X9922D02*
X10227D01*
X10430D02*
X10583D01*
X10786D02*
X11091D01*
X11294D02*
X11599D01*
X12259D02*
X12564D01*
X13224D02*
X13986D01*
X14190D02*
X14850D01*
X15053D02*
X15358D01*
X15917D02*
X16222D01*
X16730D02*
X16831D01*
X17339D02*
X17593D01*
X18000D02*
X18203D01*
X18812D02*
X19117D01*
X19778D02*
X20082D01*
X20286D02*
X20590D01*
X21048D02*
X21251D01*
X21759D02*
X22521D01*
X22724D02*
X23130D01*
X23334D02*
X23638D01*
X24197D02*
X24451D01*
X24908D02*
X25213D01*
X25416D02*
X25670D01*
X26382D02*
X26636D01*
X27296D02*
X28058D01*
X28312D02*
X28972D01*
X29531D02*
X29785D01*
X30293D02*
X30547D01*
X30750D02*
X31055D01*
X31614D02*
X31919D01*
X32325D02*
X35678D01*
X5706Y-66429D02*
X7941D01*
X8144D02*
X8195D01*
X8398D02*
X8602D01*
X8805D02*
X8856D01*
X9059D02*
X9364D01*
X9465D02*
X9770D01*
X9973D02*
X10227D01*
X10430D02*
X10532D01*
X10735D02*
X11091D01*
X11294D02*
X11599D01*
X11853D02*
X12056D01*
X12259D02*
X12513D01*
X12767D02*
X12970D01*
X13224D02*
X13986D01*
X14545D02*
X14850D01*
X15053D02*
X15307D01*
X15510D02*
X15764D01*
X15968D02*
X16222D01*
X16476D02*
X16984D01*
X17187D02*
X17593D01*
X18000D02*
X18152D01*
X18406D02*
X18609D01*
X18863D02*
X19117D01*
X19422D02*
X19574D01*
X19828D02*
X20082D01*
X20286D02*
X20540D01*
X20794D02*
X21251D01*
X21454D02*
X22521D01*
X22724D02*
X23130D01*
X23384D02*
X23588D01*
X23791D02*
X24045D01*
X24197D02*
X24451D01*
X24654D02*
X25213D01*
X25416D02*
X25670D01*
X25924D02*
X26077D01*
X26382D02*
X26636D01*
X26890D02*
X27093D01*
X27296D02*
X28058D01*
X28668D02*
X28972D01*
X29074D02*
X29328D01*
X29531D02*
X29785D01*
X29988D02*
X30547D01*
X30750D02*
X31004D01*
X31208D02*
X31462D01*
X31614D02*
X31919D01*
X32325D02*
X35678D01*
X5706Y-66480D02*
X7941D01*
X8144D02*
X8246D01*
X8398D02*
X8602D01*
X8754D02*
X8856D01*
X9059D02*
X9770D01*
X9973D02*
X10227D01*
X10430D02*
X10481D01*
X10735D02*
X11091D01*
X11294D02*
X11599D01*
X11802D02*
X12056D01*
X12259D02*
X12513D01*
X12716D02*
X13021D01*
X13224D02*
X13986D01*
X14545D02*
X14850D01*
X15053D02*
X15307D01*
X15510D02*
X15764D01*
X15968D02*
X16171D01*
X16425D02*
X16984D01*
X17187D02*
X17593D01*
X17796D02*
X18152D01*
X18355D02*
X18660D01*
X18914D02*
X19117D01*
X19371D02*
X19625D01*
X19828D02*
X20082D01*
X20286D02*
X20540D01*
X20794D02*
X21251D01*
X21454D02*
X22521D01*
X22724D02*
X23130D01*
X23384D02*
X23588D01*
X23740D02*
X24045D01*
X24248D02*
X24451D01*
X24654D02*
X25213D01*
X25416D02*
X25620D01*
X25874D02*
X26128D01*
X26382D02*
X26636D01*
X26890D02*
X27093D01*
X27296D02*
X28058D01*
X28668D02*
X29379D01*
X29582D02*
X29785D01*
X29988D02*
X30547D01*
X30750D02*
X31004D01*
X31157D02*
X31462D01*
X31665D02*
X31919D01*
X32173D02*
X35678D01*
X5706Y-66530D02*
X7941D01*
X8144D02*
X8246D01*
X8449D02*
X8551D01*
X8754D02*
X8856D01*
X9059D02*
X9770D01*
X9973D02*
X10227D01*
X10684D02*
X11091D01*
X11294D02*
X11599D01*
X11802D02*
X12056D01*
X12259D02*
X12513D01*
X12716D02*
X13021D01*
X13224D02*
X13986D01*
X14545D02*
X14850D01*
X15053D02*
X15307D01*
X15460D02*
X15815D01*
X15968D02*
X16171D01*
X16374D02*
X16984D01*
X17187D02*
X17593D01*
X17796D02*
X18152D01*
X18355D02*
X18711D01*
X18914D02*
X19117D01*
X19371D02*
X19625D01*
X19828D02*
X20082D01*
X20286D02*
X20540D01*
X20743D02*
X21251D01*
X21505D02*
X22521D01*
X22724D02*
X23130D01*
X23384D02*
X23537D01*
X23740D02*
X24045D01*
X24248D02*
X24451D01*
X24705D02*
X25213D01*
X25416D02*
X25620D01*
X25823D02*
X26128D01*
X26382D02*
X26636D01*
X26839D02*
X27093D01*
X27296D02*
X28058D01*
X28668D02*
X29379D01*
X29582D02*
X29785D01*
X30039D02*
X30547D01*
X30750D02*
X30954D01*
X31157D02*
X31462D01*
X31665D02*
X31919D01*
X32122D02*
X35678D01*
X5706Y-66581D02*
X7941D01*
X8144D02*
X8246D01*
X8449D02*
X8551D01*
X8754D02*
X8856D01*
X9059D02*
X9414D01*
X9973D02*
X10227D01*
X10634D02*
X11091D01*
X11294D02*
X11599D01*
X11802D02*
X12056D01*
X12259D02*
X12513D01*
X12716D02*
X13021D01*
X13224D02*
X13986D01*
X14190D02*
X14850D01*
X15053D02*
X15307D01*
X15968D02*
X16171D01*
X16374D02*
X16984D01*
X17187D02*
X17593D01*
X17796D02*
X18152D01*
X18355D02*
X18711D01*
X18914D02*
X19117D01*
X19320D02*
X19625D01*
X19828D02*
X20082D01*
X20286D02*
X20540D01*
X20743D02*
X21251D01*
X21657D02*
X22521D01*
X22724D02*
X23130D01*
X23384D02*
X23537D01*
X24248D02*
X24451D01*
X24858D02*
X25213D01*
X25416D02*
X25620D01*
X25823D02*
X26178D01*
X26382D02*
X26636D01*
X26839D02*
X27144D01*
X27296D02*
X28058D01*
X28312D02*
X29023D01*
X29582D02*
X29785D01*
X30192D02*
X30547D01*
X30750D02*
X30954D01*
X31665D02*
X31919D01*
X32122D02*
X35678D01*
X5706Y-66632D02*
X7941D01*
X8144D02*
X8246D01*
X8449D02*
X8551D01*
X8703D02*
X8856D01*
X9059D02*
X9364D01*
X9973D02*
X10227D01*
X10634D02*
X11091D01*
X11294D02*
X11599D01*
X11802D02*
X12056D01*
X12259D02*
X12513D01*
X12716D02*
X13021D01*
X13224D02*
X13986D01*
X14190D02*
X14850D01*
X15053D02*
X15307D01*
X15968D02*
X16171D01*
X16374D02*
X16984D01*
X17187D02*
X17593D01*
X17796D02*
X18152D01*
X18355D02*
X18711D01*
X18914D02*
X19117D01*
X19320D02*
X19625D01*
X19828D02*
X20082D01*
X20286D02*
X20540D01*
X20743D02*
X21302D01*
X21759D02*
X22521D01*
X22724D02*
X23130D01*
X23334D02*
X23537D01*
X24248D02*
X24502D01*
X24908D02*
X25213D01*
X25416D02*
X25620D01*
X25823D02*
X26178D01*
X26382D02*
X26636D01*
X26839D02*
X27144D01*
X27296D02*
X28058D01*
X28312D02*
X28972D01*
X29582D02*
X29836D01*
X30293D02*
X30547D01*
X30750D02*
X30954D01*
X31665D02*
X31919D01*
X32122D02*
X35678D01*
X5706Y-66683D02*
X7941D01*
X8144D02*
X8297D01*
X8449D02*
X8500D01*
X8703D02*
X8856D01*
X9059D02*
X9313D01*
X9567D02*
X9770D01*
X9973D02*
X10227D01*
X10684D02*
X11091D01*
X11294D02*
X11599D01*
X11802D02*
X12056D01*
X12259D02*
X12513D01*
X12716D02*
X13021D01*
X13224D02*
X13986D01*
X14190D02*
X14850D01*
X15053D02*
X15307D01*
X15968D02*
X16171D01*
X16374D02*
X16984D01*
X17187D02*
X17593D01*
X17746D02*
X18152D01*
X18355D02*
X18711D01*
X18914D02*
X19117D01*
X19320D02*
X19625D01*
X19828D02*
X20082D01*
X20286D02*
X20540D01*
X20743D02*
X21403D01*
X21759D02*
X22521D01*
X22724D02*
X23080D01*
X23334D02*
X23537D01*
X24248D02*
X24604D01*
X24959D02*
X25213D01*
X25416D02*
X25620D01*
X25823D02*
X26178D01*
X26382D02*
X26636D01*
X26839D02*
X27144D01*
X27296D02*
X28058D01*
X28312D02*
X28922D01*
X29176D02*
X29379D01*
X29582D02*
X29988D01*
X30293D02*
X30547D01*
X30750D02*
X30954D01*
X31665D02*
X31919D01*
X32122D02*
X35678D01*
X5706Y-66734D02*
X7941D01*
X8144D02*
X8297D01*
X8703D02*
X8856D01*
X9059D02*
X9313D01*
X9516D02*
X9770D01*
X9973D02*
X10227D01*
X10430D02*
X10481D01*
X10735D02*
X11091D01*
X11294D02*
X11599D01*
X11802D02*
X12056D01*
X12259D02*
X12513D01*
X12716D02*
X13021D01*
X13224D02*
X13986D01*
X14190D02*
X14850D01*
X15053D02*
X15307D01*
X15460D02*
X16171D01*
X16374D02*
X16984D01*
X17187D02*
X17593D01*
X17746D02*
X18152D01*
X18355D02*
X18711D01*
X18914D02*
X19117D01*
X19320D02*
X19625D01*
X19828D02*
X20082D01*
X20286D02*
X20540D01*
X20743D02*
X21556D01*
X21759D02*
X22521D01*
X22724D02*
X23080D01*
X23334D02*
X23537D01*
X23740D02*
X24756D01*
X24959D02*
X25213D01*
X25416D02*
X25620D01*
X25874D02*
X26128D01*
X26382D02*
X26636D01*
X26839D02*
X27144D01*
X27296D02*
X28058D01*
X28312D02*
X28922D01*
X29125D02*
X29379D01*
X29582D02*
X30090D01*
X30293D02*
X30547D01*
X30750D02*
X30954D01*
X31157D02*
X31919D01*
X32122D02*
X35678D01*
X5706Y-66784D02*
X7941D01*
X8144D02*
X8297D01*
X8652D02*
X8856D01*
X9059D02*
X9313D01*
X9516D02*
X9770D01*
X9973D02*
X10227D01*
X10430D02*
X10532D01*
X10786D02*
X11091D01*
X11294D02*
X11599D01*
X11802D02*
X12056D01*
X12259D02*
X12513D01*
X12767D02*
X12970D01*
X13224D02*
X13986D01*
X14190D02*
X14850D01*
X15053D02*
X15307D01*
X15510D02*
X16171D01*
X16425D02*
X16984D01*
X17187D02*
X17593D01*
X17746D02*
X18152D01*
X18355D02*
X18660D01*
X18914D02*
X19117D01*
X19320D02*
X19625D01*
X19828D02*
X20082D01*
X20286D02*
X20540D01*
X20794D02*
X21556D01*
X21759D02*
X22521D01*
X22724D02*
X22978D01*
X23283D02*
X23588D01*
X23791D02*
X24756D01*
X24959D02*
X25213D01*
X25416D02*
X25620D01*
X25874D02*
X26128D01*
X26382D02*
X26636D01*
X26839D02*
X27144D01*
X27296D02*
X28058D01*
X28312D02*
X28922D01*
X29074D02*
X29379D01*
X29582D02*
X30090D01*
X30344D02*
X30547D01*
X30750D02*
X31004D01*
X31208D02*
X31919D01*
X32122D02*
X35678D01*
X5706Y-66835D02*
X7941D01*
X8144D02*
X8348D01*
X8652D02*
X8856D01*
X9059D02*
X9313D01*
X9516D02*
X9719D01*
X9973D02*
X10227D01*
X10430D02*
X10583D01*
X10786D02*
X11091D01*
X11294D02*
X11599D01*
X11802D02*
X12056D01*
X12259D02*
X12513D01*
X12818D02*
X12920D01*
X13224D02*
X13986D01*
X14190D02*
X14850D01*
X15053D02*
X15307D01*
X15561D02*
X15866D01*
X15917D02*
X16222D01*
X16476D02*
X16984D01*
X17238D02*
X17593D01*
X17746D02*
X18152D01*
X18406D02*
X18609D01*
X18863D02*
X19117D01*
X19320D02*
X19625D01*
X19828D02*
X20082D01*
X20286D02*
X20540D01*
X20844D02*
X21556D01*
X21759D02*
X22521D01*
X22724D02*
X22876D01*
X23283D02*
X23588D01*
X23842D02*
X24146D01*
X24197D02*
X24756D01*
X24959D02*
X25213D01*
X25416D02*
X25670D01*
X25924D02*
X26077D01*
X26382D02*
X26636D01*
X26839D02*
X27144D01*
X27296D02*
X28058D01*
X28312D02*
X28922D01*
X29125D02*
X29328D01*
X29582D02*
X30090D01*
X30293D02*
X30547D01*
X30750D02*
X31004D01*
X31258D02*
X31563D01*
X31614D02*
X31919D01*
X32122D02*
X35678D01*
X5706Y-66886D02*
X7941D01*
X8144D02*
X8348D01*
X8652D02*
X8856D01*
X9059D02*
X9313D01*
X9973D02*
X10227D01*
X10430D02*
X10583D01*
X10837D02*
X11091D01*
X11294D02*
X11599D01*
X11802D02*
X12056D01*
X12259D02*
X12564D01*
X13224D02*
X13986D01*
X14596D02*
X14850D01*
X15053D02*
X15358D01*
X15917D02*
X16222D01*
X16730D02*
X16984D01*
X17390D02*
X17593D01*
X17746D02*
X18203D01*
X18812D02*
X19117D01*
X19320D02*
X19625D01*
X19828D02*
X20082D01*
X20286D02*
X20590D01*
X21098D02*
X21251D01*
X21759D02*
X22521D01*
X23232D02*
X23638D01*
X24197D02*
X24451D01*
X24959D02*
X25213D01*
X25416D02*
X25670D01*
X26382D02*
X26636D01*
X26839D02*
X27144D01*
X27296D02*
X28058D01*
X28668D02*
X28922D01*
X29582D02*
X29785D01*
X30293D02*
X30547D01*
X30750D02*
X31055D01*
X31614D02*
X31919D01*
X32122D02*
X35678D01*
X5706Y-66937D02*
X7941D01*
X8144D02*
X8348D01*
X8602D02*
X8856D01*
X9059D02*
X9364D01*
X9973D02*
X10227D01*
X10430D02*
X10634D01*
X10888D02*
X11091D01*
X11294D02*
X11599D01*
X11802D02*
X12056D01*
X12259D02*
X12615D01*
X13224D02*
X13986D01*
X14596D02*
X14850D01*
X15053D02*
X15409D01*
X15917D02*
X16272D01*
X16730D02*
X17034D01*
X17390D02*
X17593D01*
X17746D02*
X18254D01*
X18812D02*
X19117D01*
X19320D02*
X19625D01*
X19828D02*
X20082D01*
X20286D02*
X20641D01*
X21098D02*
X21251D01*
X21708D02*
X22521D01*
X23130D02*
X23689D01*
X24197D02*
X24451D01*
X24908D02*
X25213D01*
X25416D02*
X25721D01*
X26128D02*
X26178D01*
X26382D02*
X26636D01*
X26839D02*
X27144D01*
X27296D02*
X28058D01*
X28668D02*
X28922D01*
X29582D02*
X29785D01*
X30242D02*
X30547D01*
X30750D02*
X31106D01*
X31614D02*
X31919D01*
X32122D02*
X35678D01*
X5706Y-66988D02*
X7941D01*
X8144D02*
X8398D01*
X8602D02*
X8856D01*
X9059D02*
X9414D01*
X9719D02*
X9821D01*
X9973D02*
X10227D01*
X10430D02*
X10684D01*
X10938D02*
X11091D01*
X11294D02*
X11599D01*
X11802D02*
X12056D01*
X12259D02*
X12666D01*
X12920D02*
X13021D01*
X13224D02*
X13986D01*
X14596D02*
X14850D01*
X15053D02*
X15510D01*
X15917D02*
X16374D01*
X16730D02*
X17085D01*
X17390D02*
X17593D01*
X17746D02*
X18355D01*
X18711D02*
X19117D01*
X19320D02*
X19625D01*
X19828D02*
X20082D01*
X20286D02*
X20743D01*
X21098D02*
X21251D01*
X21657D02*
X22521D01*
X23029D02*
X23740D01*
X24146D02*
X24451D01*
X24858D02*
X25213D01*
X25416D02*
X25823D01*
X26026D02*
X26178D01*
X26382D02*
X26636D01*
X26839D02*
X27144D01*
X27296D02*
X28058D01*
X28668D02*
X29023D01*
X29328D02*
X29379D01*
X29582D02*
X29785D01*
X30192D02*
X30547D01*
X30750D02*
X31157D01*
X31563D02*
X31919D01*
X32122D02*
X35678D01*
X5706Y-67038D02*
X13021D01*
X13224D02*
X26128D01*
X26331D02*
X35678D01*
X5706Y-67089D02*
X12970D01*
X13224D02*
X26128D01*
X26331D02*
X35678D01*
X5706Y-67140D02*
X12564D01*
X12666D02*
X12920D01*
X13174D02*
X25721D01*
X25823D02*
X26077D01*
X26331D02*
X35678D01*
X5706Y-67191D02*
X12564D01*
X13174D02*
X25721D01*
X26280D02*
X35678D01*
X5706Y-67242D02*
X12564D01*
X13123D02*
X25721D01*
X26229D02*
X35678D01*
X5706Y-67292D02*
X12615D01*
X13072D02*
X25772D01*
X26178D02*
X35678D01*
X5706Y-67343D02*
X35678D01*
X5706Y-67394D02*
X35678D01*
X5706Y-67445D02*
X35678D01*
X5706Y-67496D02*
X35678D01*
X5706Y-67546D02*
X35678D01*
X5706Y-67597D02*
X35678D01*
X5706Y-67648D02*
X35678D01*
X5706Y-67699D02*
X35678D01*
X5706Y-67750D02*
X35678D01*
X5706Y-67800D02*
X35678D01*
X5706Y-67851D02*
X35678D01*
X5706Y-67902D02*
X35678D01*
X5706Y-67953D02*
X35678D01*
X5706Y-68004D02*
X35678D01*
X5706Y-68054D02*
X35627D01*
X5706Y-68105D02*
X35627D01*
X5706Y-68156D02*
X35627D01*
X5706Y-68207D02*
X35576D01*
X5706Y-68258D02*
X35576D01*
X5706Y-68308D02*
X35576D01*
X5706Y-68359D02*
X35526D01*
X5706Y-68410D02*
X35526D01*
X5706Y-68461D02*
X35475D01*
X5706Y-68512D02*
X35475D01*
X5706Y-68562D02*
X35424D01*
X5706Y-68613D02*
X35373D01*
X5706Y-68664D02*
X35373D01*
X5706Y-68715D02*
X35322D01*
X5706Y-68766D02*
X35272D01*
X5706Y-68816D02*
X35221D01*
X5706Y-68867D02*
X35170D01*
X5706Y-68918D02*
X35119D01*
X5706Y-68969D02*
X35068D01*
X5706Y-69020D02*
X35018D01*
X5706Y-69070D02*
X34967D01*
X5706Y-69121D02*
X34916D01*
X5706Y-69172D02*
X34865D01*
X5706Y-69223D02*
X34764D01*
X5706Y-69274D02*
X34713D01*
X5706Y-69324D02*
X34611D01*
X5706Y-69375D02*
X34510D01*
X5706Y-69426D02*
X34408D01*
M02*
