G04 Layer_Physical_Order=2*
G04 Layer_Color=16711680*
%FSLAX43Y43*%
%MOMM*%
G71*
G01*
G75*
%ADD17C,0.500*%
%ADD18C,1.270*%
%ADD19C,4.200*%
%ADD20O,1.500X2.000*%
%ADD21R,1.500X1.500*%
%ADD22C,1.500*%
%ADD23C,1.200*%
%ADD24C,1.000*%
G36*
X18179Y21822D02*
X18037Y21713D01*
X17876Y21504D01*
X17776Y21261D01*
X17741Y21000D01*
Y20500D01*
X17776Y20239D01*
X17876Y19996D01*
X18037Y19787D01*
X18246Y19626D01*
X18489Y19526D01*
X18750Y19491D01*
X19011Y19526D01*
X19254Y19626D01*
X19463Y19787D01*
X19624Y19996D01*
X19661Y20087D01*
X19871Y20129D01*
X21000Y19000D01*
X25483D01*
X25559Y18839D01*
X25537Y18812D01*
X25318Y18404D01*
X25184Y17961D01*
X25139Y17500D01*
X25184Y17039D01*
X25318Y16596D01*
X25537Y16188D01*
X25830Y15830D01*
X26188Y15537D01*
X26596Y15318D01*
X27039Y15184D01*
X27500Y15139D01*
X27961Y15184D01*
X28404Y15318D01*
X28812Y15537D01*
X28839Y15559D01*
X29000Y15483D01*
Y1000D01*
X25488D01*
X25453Y1178D01*
X25571Y1227D01*
X25756Y1369D01*
X25898Y1554D01*
X25987Y1769D01*
X26018Y2000D01*
X25987Y2231D01*
X25898Y2446D01*
X25756Y2631D01*
X25571Y2773D01*
X25356Y2862D01*
X25125Y2893D01*
X24894Y2862D01*
X24679Y2773D01*
X24494Y2631D01*
X24352Y2446D01*
X24263Y2231D01*
X24232Y2000D01*
X24263Y1769D01*
X24352Y1554D01*
X24494Y1369D01*
X24679Y1227D01*
X24797Y1178D01*
X24762Y1000D01*
X1000D01*
Y15483D01*
X1161Y15559D01*
X1188Y15537D01*
X1596Y15318D01*
X2039Y15184D01*
X2500Y15139D01*
X2961Y15184D01*
X3404Y15318D01*
X3812Y15537D01*
X4170Y15830D01*
X4463Y16188D01*
X4682Y16596D01*
X4816Y17039D01*
X4861Y17500D01*
X4816Y17961D01*
X4682Y18404D01*
X4463Y18812D01*
X4441Y18839D01*
X4517Y19000D01*
X9000D01*
X10129Y20129D01*
X10339Y20087D01*
X10377Y19996D01*
X10537Y19787D01*
X10746Y19626D01*
X10989Y19526D01*
X11250Y19491D01*
X11511Y19526D01*
X11754Y19626D01*
X11963Y19787D01*
X12123Y19996D01*
X12224Y20239D01*
X12259Y20500D01*
Y21000D01*
X12224Y21261D01*
X12123Y21504D01*
X11963Y21713D01*
X11821Y21822D01*
X11882Y22000D01*
X13112D01*
X13172Y21822D01*
X13034Y21716D01*
X12873Y21506D01*
X12772Y21262D01*
X12737Y21000D01*
Y20877D01*
X13750D01*
X14763D01*
Y21000D01*
X14728Y21262D01*
X14627Y21506D01*
X14466Y21716D01*
X14328Y21822D01*
X14388Y22000D01*
X15618D01*
X15679Y21822D01*
X15537Y21713D01*
X15377Y21504D01*
X15276Y21261D01*
X15241Y21000D01*
Y20500D01*
X15276Y20239D01*
X15377Y19996D01*
X15537Y19787D01*
X15746Y19626D01*
X15989Y19526D01*
X16250Y19491D01*
X16511Y19526D01*
X16754Y19626D01*
X16963Y19787D01*
X17124Y19996D01*
X17224Y20239D01*
X17259Y20500D01*
Y21000D01*
X17224Y21261D01*
X17124Y21504D01*
X16963Y21713D01*
X16821Y21822D01*
X16882Y22000D01*
X18118D01*
X18179Y21822D01*
D02*
G37*
%LPC*%
G36*
X17742Y6078D02*
X17677Y5994D01*
X17588Y5778D01*
X17557Y5546D01*
X17588Y5314D01*
X17677Y5098D01*
X17742Y5014D01*
X18274Y5546D01*
X17742Y6078D01*
D02*
G37*
G36*
X13081Y5588D02*
X12363D01*
X12376Y5492D01*
X12462Y5284D01*
X12599Y5106D01*
X12777Y4969D01*
X12985Y4883D01*
X13081Y4870D01*
Y5588D01*
D02*
G37*
G36*
X14053D02*
X13335D01*
Y4870D01*
X13431Y4883D01*
X13639Y4969D01*
X13817Y5106D01*
X13954Y5284D01*
X14040Y5492D01*
X14053Y5588D01*
D02*
G37*
G36*
X19166Y6078D02*
X18634Y5546D01*
X19166Y5014D01*
X19230Y5098D01*
X19320Y5314D01*
X19351Y5546D01*
X19320Y5778D01*
X19230Y5994D01*
X19166Y6078D01*
D02*
G37*
G36*
X13335Y6560D02*
Y5842D01*
X14053D01*
X14040Y5938D01*
X13954Y6146D01*
X13817Y6324D01*
X13639Y6461D01*
X13431Y6547D01*
X13335Y6560D01*
D02*
G37*
G36*
X13081Y6560D02*
X12985Y6547D01*
X12777Y6461D01*
X12599Y6324D01*
X12462Y6146D01*
X12376Y5938D01*
X12363Y5842D01*
X13081D01*
Y6560D01*
D02*
G37*
G36*
X18454Y6443D02*
X18222Y6412D01*
X18006Y6323D01*
X17922Y6258D01*
X18454Y5726D01*
X18986Y6258D01*
X18902Y6323D01*
X18686Y6412D01*
X18454Y6443D01*
D02*
G37*
G36*
Y5366D02*
X17922Y4834D01*
X18006Y4770D01*
X18222Y4680D01*
X18454Y4649D01*
X18686Y4680D01*
X18902Y4770D01*
X18986Y4834D01*
X18454Y5366D01*
D02*
G37*
G36*
X23329Y3616D02*
X22797Y3084D01*
X22881Y3020D01*
X23097Y2930D01*
X23329Y2899D01*
X23561Y2930D01*
X23777Y3020D01*
X23861Y3084D01*
X23329Y3616D01*
D02*
G37*
G36*
X20250Y4643D02*
X20019Y4612D01*
X19804Y4523D01*
X19619Y4381D01*
X19477Y4196D01*
X19388Y3981D01*
X19357Y3750D01*
X19388Y3519D01*
X19477Y3304D01*
X19619Y3119D01*
X19804Y2977D01*
X20019Y2888D01*
X20250Y2857D01*
X20481Y2888D01*
X20696Y2977D01*
X20881Y3119D01*
X21023Y3304D01*
X21112Y3519D01*
X21143Y3750D01*
X21112Y3981D01*
X21023Y4196D01*
X20881Y4381D01*
X20696Y4523D01*
X20481Y4612D01*
X20250Y4643D01*
D02*
G37*
G36*
X6260Y2995D02*
X6029Y2964D01*
X5814Y2875D01*
X5629Y2733D01*
X5487Y2548D01*
X5398Y2333D01*
X5367Y2102D01*
X5398Y1871D01*
X5487Y1656D01*
X5629Y1471D01*
X5814Y1329D01*
X6029Y1240D01*
X6260Y1209D01*
X6491Y1240D01*
X6706Y1329D01*
X6891Y1471D01*
X7033Y1656D01*
X7122Y1871D01*
X7153Y2102D01*
X7122Y2333D01*
X7033Y2548D01*
X6891Y2733D01*
X6706Y2875D01*
X6491Y2964D01*
X6260Y2995D01*
D02*
G37*
G36*
X8056Y4791D02*
X7825Y4760D01*
X7610Y4671D01*
X7425Y4529D01*
X7283Y4344D01*
X7194Y4129D01*
X7163Y3898D01*
X7194Y3667D01*
X7283Y3452D01*
X7425Y3267D01*
X7610Y3125D01*
X7825Y3036D01*
X8056Y3005D01*
X8287Y3036D01*
X8502Y3125D01*
X8687Y3267D01*
X8829Y3452D01*
X8918Y3667D01*
X8949Y3898D01*
X8918Y4129D01*
X8829Y4344D01*
X8687Y4529D01*
X8502Y4671D01*
X8287Y4760D01*
X8056Y4791D01*
D02*
G37*
G36*
X23329Y4693D02*
X23097Y4662D01*
X22881Y4573D01*
X22797Y4508D01*
X23329Y3976D01*
X23861Y4508D01*
X23777Y4573D01*
X23561Y4662D01*
X23329Y4693D01*
D02*
G37*
G36*
X24041Y4328D02*
X23509Y3796D01*
X24041Y3264D01*
X24105Y3348D01*
X24195Y3564D01*
X24226Y3796D01*
X24195Y4028D01*
X24105Y4244D01*
X24041Y4328D01*
D02*
G37*
G36*
X22617Y4328D02*
X22552Y4244D01*
X22463Y4028D01*
X22432Y3796D01*
X22463Y3564D01*
X22552Y3348D01*
X22617Y3264D01*
X23149Y3796D01*
X22617Y4328D01*
D02*
G37*
G36*
X21583Y13578D02*
X20714D01*
X20732Y13443D01*
X20833Y13199D01*
X20994Y12989D01*
X21204Y12828D01*
X21448Y12727D01*
X21583Y12709D01*
Y13578D01*
D02*
G37*
G36*
X22706D02*
X21837D01*
Y12709D01*
X21972Y12727D01*
X22216Y12828D01*
X22426Y12989D01*
X22587Y13199D01*
X22688Y13443D01*
X22706Y13578D01*
D02*
G37*
G36*
X24250Y14714D02*
X23989Y14679D01*
X23746Y14578D01*
X23537Y14418D01*
X23376Y14209D01*
X23276Y13966D01*
X23241Y13705D01*
X23276Y13444D01*
X23376Y13201D01*
X23537Y12992D01*
X23746Y12832D01*
X23989Y12731D01*
X24250Y12696D01*
X24511Y12731D01*
X24754Y12832D01*
X24963Y12992D01*
X25124Y13201D01*
X25224Y13444D01*
X25259Y13705D01*
X25224Y13966D01*
X25124Y14209D01*
X24963Y14418D01*
X24754Y14578D01*
X24511Y14679D01*
X24250Y14714D01*
D02*
G37*
G36*
X21583Y14701D02*
X21448Y14683D01*
X21204Y14582D01*
X20994Y14421D01*
X20833Y14211D01*
X20732Y13967D01*
X20714Y13832D01*
X21583D01*
Y14701D01*
D02*
G37*
G36*
X14763Y20623D02*
X13877D01*
Y19504D01*
X14012Y19522D01*
X14256Y19623D01*
X14466Y19784D01*
X14627Y19994D01*
X14728Y20238D01*
X14763Y20500D01*
Y20623D01*
D02*
G37*
G36*
X13623D02*
X12737D01*
Y20500D01*
X12772Y20238D01*
X12873Y19994D01*
X13034Y19784D01*
X13244Y19623D01*
X13488Y19522D01*
X13623Y19504D01*
Y20623D01*
D02*
G37*
G36*
X21837Y14701D02*
Y13832D01*
X22706D01*
X22688Y13967D01*
X22587Y14211D01*
X22426Y14421D01*
X22216Y14582D01*
X21972Y14683D01*
X21837Y14701D01*
D02*
G37*
G36*
X12377Y10994D02*
Y10377D01*
X12994D01*
X12985Y10447D01*
X12909Y10630D01*
X12788Y10788D01*
X12630Y10909D01*
X12447Y10985D01*
X12377Y10994D01*
D02*
G37*
G36*
X12123Y10123D02*
X11506D01*
X11515Y10053D01*
X11591Y9870D01*
X11712Y9712D01*
X11870Y9591D01*
X12053Y9515D01*
X12123Y9506D01*
Y10123D01*
D02*
G37*
G36*
X25250Y9625D02*
X23250D01*
Y7625D01*
X25250D01*
Y9625D01*
D02*
G37*
G36*
X14250Y13381D02*
X14054Y13356D01*
X13872Y13280D01*
X13715Y13160D01*
X13696Y13135D01*
X10500D01*
X10305Y13096D01*
X10140Y12985D01*
X6765Y9610D01*
X6414Y9260D01*
X2679D01*
X2660Y9285D01*
X2503Y9405D01*
X2321Y9481D01*
X2125Y9506D01*
X1929Y9481D01*
X1747Y9405D01*
X1590Y9285D01*
X1470Y9128D01*
X1394Y8946D01*
X1369Y8750D01*
X1394Y8554D01*
X1470Y8372D01*
X1590Y8215D01*
X1747Y8095D01*
X1929Y8019D01*
X2125Y7994D01*
X2321Y8019D01*
X2503Y8095D01*
X2660Y8215D01*
X2679Y8240D01*
X6625D01*
X6820Y8279D01*
X6985Y8390D01*
X7125Y8529D01*
X12361Y3293D01*
X12351Y3215D01*
X12380Y2993D01*
X12466Y2786D01*
X12602Y2609D01*
X12779Y2473D01*
X12986Y2387D01*
X13208Y2358D01*
X13430Y2387D01*
X13637Y2473D01*
X13814Y2609D01*
X13950Y2786D01*
X14036Y2993D01*
X14065Y3215D01*
X14036Y3437D01*
X13950Y3644D01*
X13814Y3821D01*
X13637Y3957D01*
X13430Y4043D01*
X13208Y4072D01*
X13045Y4051D01*
X7846Y9250D01*
X10711Y12115D01*
X13696D01*
X13715Y12090D01*
X13872Y11970D01*
X14054Y11894D01*
X14250Y11869D01*
X14281Y11873D01*
X17890Y8265D01*
X18055Y8154D01*
X18250Y8115D01*
X20841D01*
X20997Y7912D01*
X21206Y7752D01*
X21449Y7651D01*
X21710Y7616D01*
X21971Y7651D01*
X22214Y7752D01*
X22423Y7912D01*
X22583Y8121D01*
X22684Y8364D01*
X22719Y8625D01*
X22684Y8886D01*
X22583Y9129D01*
X22423Y9338D01*
X22214Y9498D01*
X21971Y9599D01*
X21710Y9634D01*
X21449Y9599D01*
X21206Y9498D01*
X20997Y9338D01*
X20841Y9135D01*
X18461D01*
X15002Y12594D01*
X15006Y12625D01*
X14981Y12821D01*
X14905Y13003D01*
X14785Y13160D01*
X14628Y13280D01*
X14446Y13356D01*
X14250Y13381D01*
D02*
G37*
G36*
X12994Y10123D02*
X12377D01*
Y9506D01*
X12447Y9515D01*
X12630Y9591D01*
X12788Y9712D01*
X12909Y9870D01*
X12985Y10053D01*
X12994Y10123D01*
D02*
G37*
G36*
X12123Y10994D02*
X12053Y10985D01*
X11870Y10909D01*
X11712Y10788D01*
X11591Y10630D01*
X11515Y10447D01*
X11506Y10377D01*
X12123D01*
Y10994D01*
D02*
G37*
G36*
X24250Y12174D02*
X23989Y12139D01*
X23746Y12038D01*
X23537Y11878D01*
X23376Y11669D01*
X23276Y11426D01*
X23241Y11165D01*
X23276Y10904D01*
X23376Y10661D01*
X23537Y10452D01*
X23746Y10292D01*
X23989Y10191D01*
X24250Y10156D01*
X24511Y10191D01*
X24754Y10292D01*
X24963Y10452D01*
X25124Y10661D01*
X25224Y10904D01*
X25259Y11165D01*
X25224Y11426D01*
X25124Y11669D01*
X24963Y11878D01*
X24754Y12038D01*
X24511Y12139D01*
X24250Y12174D01*
D02*
G37*
G36*
X21710D02*
X21449Y12139D01*
X21206Y12038D01*
X20997Y11878D01*
X20837Y11669D01*
X20736Y11426D01*
X20701Y11165D01*
X20736Y10904D01*
X20837Y10661D01*
X20997Y10452D01*
X21206Y10292D01*
X21449Y10191D01*
X21710Y10156D01*
X21971Y10191D01*
X22214Y10292D01*
X22423Y10452D01*
X22583Y10661D01*
X22684Y10904D01*
X22719Y11165D01*
X22684Y11426D01*
X22583Y11669D01*
X22423Y11878D01*
X22214Y12038D01*
X21971Y12139D01*
X21710Y12174D01*
D02*
G37*
%LPD*%
D17*
X14250Y12625D02*
X18250Y8625D01*
X21710D01*
X7125Y9250D02*
X10500Y12625D01*
X6625Y8750D02*
X7125Y9250D01*
X13160Y3215D02*
X13208D01*
X7125Y9250D02*
X13160Y3215D01*
X2125Y8750D02*
X6625D01*
X10500Y12625D02*
X14250D01*
D18*
X20250Y3750D02*
D03*
X18454Y5546D02*
D03*
X25125Y2000D02*
D03*
X23329Y3796D02*
D03*
X8056Y3898D02*
D03*
X6260Y2102D02*
D03*
D19*
X27500Y17500D02*
D03*
X2500D02*
D03*
D20*
X11250Y20750D02*
D03*
X13750D02*
D03*
X16250D02*
D03*
X18750D02*
D03*
D21*
X24250Y8625D02*
D03*
D22*
X21710D02*
D03*
X24250Y11165D02*
D03*
X21710D02*
D03*
X24250Y13705D02*
D03*
X21710D02*
D03*
D23*
X13208Y5715D02*
D03*
Y3215D02*
D03*
D24*
X14250Y12625D02*
D03*
X2125Y8750D02*
D03*
X12250Y10250D02*
D03*
M02*
