G04 Layer_Color=32768*
%FSLAX43Y43*%
%MOMM*%
G71*
G01*
G75*
%ADD43C,0.100*%
%ADD44C,0.050*%
%ADD45C,0.254*%
%ADD46C,0.200*%
%ADD47C,0.076*%
D43*
X1375Y13700D02*
X2875D01*
X1375Y10550D02*
X2875D01*
Y13700D01*
X1375Y10550D02*
Y13700D01*
X2125Y11625D02*
Y12625D01*
X1625Y12125D02*
X2625D01*
X12625Y12000D02*
X13625D01*
X13125Y11500D02*
Y12500D01*
X6050Y9000D02*
X7450D01*
X6050Y6000D02*
X7450D01*
Y9000D01*
X6050Y6000D02*
Y9000D01*
X18175Y8595D02*
X19575D01*
X18175Y11595D02*
X19575D01*
X18175Y8595D02*
Y11595D01*
X19575Y8595D02*
Y11595D01*
X26675Y5000D02*
X28075D01*
X26675Y8000D02*
X28075D01*
X26675Y5000D02*
Y8000D01*
X28075Y5000D02*
Y8000D01*
X6425Y11875D02*
X7825D01*
X6425Y14875D02*
X7825D01*
X6425Y11875D02*
Y14875D01*
X7825Y11875D02*
Y14875D01*
X5500Y6825D02*
Y8925D01*
X4500Y6825D02*
Y8925D01*
X5500D01*
X4500Y6825D02*
X5500D01*
X12450Y16000D02*
X14550D01*
X12450Y17000D02*
X14550D01*
Y16000D02*
Y17000D01*
X12450Y16000D02*
Y17000D01*
X22300Y16250D02*
Y19250D01*
X23700Y16250D02*
Y19250D01*
X22300Y16250D02*
X23700D01*
X22300Y19250D02*
X23700D01*
X20550Y16250D02*
Y19250D01*
X21950Y16250D02*
Y19250D01*
X20550Y16250D02*
X21950D01*
X20550Y19250D02*
X21950D01*
D44*
X8375Y9050D02*
Y14950D01*
X17875Y9050D02*
Y14950D01*
X8375D02*
X17875D01*
X8375Y9050D02*
X17875D01*
D45*
X6750Y7500D02*
D03*
X18875Y10095D02*
D03*
X27375Y6500D02*
D03*
X7125Y13375D02*
D03*
X5250D02*
D03*
X23000Y17750D02*
D03*
X21250D02*
D03*
D46*
X5000Y7875D02*
D03*
X13500Y16500D02*
D03*
D47*
X4575Y11825D02*
X5925D01*
Y14925D01*
X4575D02*
X5925D01*
X4575Y11825D02*
Y14925D01*
M02*
