M48
;Layer_Color=9474304
;FILE_FORMAT=4:4
METRIC
;TYPE=PLATED
T1F00S00C0.6000
T2F00S00C0.7000
T3F00S00C0.7112
T4F00S00C0.9000
T5F00S00C0.9500
T6F00S00C3.2000
%
T01
X00021250Y00087500
X00122500Y00102500
X00142500Y00126250
T02
X00132080Y00032150
Y00057150
T03
X00062599Y00021020
X00080559Y00038980
X00184540Y00055461
X00202500Y00037500
X00233290Y00037961
X00251250Y00020000
T04
X00217100Y00086250
X00242500
Y00111650
X00217100
Y00137050
X00242500
T05
X00112500Y00207500
X00137500
X00162500
X00187500
T06
X00025000Y00175000
X00275000
M30
