G04 Layer_Physical_Order=1*
G04 Layer_Color=255*
%FSLAX43Y43*%
%MOMM*%
G71*
G01*
G75*
%ADD10R,0.700X0.850*%
%ADD11O,2.200X0.600*%
G04:AMPARAMS|DCode=12|XSize=1mm|YSize=0.9mm|CornerRadius=0.113mm|HoleSize=0mm|Usage=FLASHONLY|Rotation=0.000|XOffset=0mm|YOffset=0mm|HoleType=Round|Shape=RoundedRectangle|*
%AMROUNDEDRECTD12*
21,1,1.000,0.675,0,0,0.0*
21,1,0.775,0.900,0,0,0.0*
1,1,0.225,0.388,-0.338*
1,1,0.225,-0.388,-0.338*
1,1,0.225,-0.388,0.338*
1,1,0.225,0.388,0.338*
%
%ADD12ROUNDEDRECTD12*%
G04:AMPARAMS|DCode=13|XSize=0.8mm|YSize=0.8mm|CornerRadius=0.1mm|HoleSize=0mm|Usage=FLASHONLY|Rotation=90.000|XOffset=0mm|YOffset=0mm|HoleType=Round|Shape=RoundedRectangle|*
%AMROUNDEDRECTD13*
21,1,0.800,0.600,0,0,90.0*
21,1,0.600,0.800,0,0,90.0*
1,1,0.200,0.300,0.300*
1,1,0.200,0.300,-0.300*
1,1,0.200,-0.300,-0.300*
1,1,0.200,-0.300,0.300*
%
%ADD13ROUNDEDRECTD13*%
G04:AMPARAMS|DCode=14|XSize=0.5mm|YSize=0.6mm|CornerRadius=0.05mm|HoleSize=0mm|Usage=FLASHONLY|Rotation=180.000|XOffset=0mm|YOffset=0mm|HoleType=Round|Shape=RoundedRectangle|*
%AMROUNDEDRECTD14*
21,1,0.500,0.500,0,0,180.0*
21,1,0.400,0.600,0,0,180.0*
1,1,0.100,-0.200,0.250*
1,1,0.100,0.200,0.250*
1,1,0.100,0.200,-0.250*
1,1,0.100,-0.200,-0.250*
%
%ADD14ROUNDEDRECTD14*%
G04:AMPARAMS|DCode=15|XSize=0.5mm|YSize=0.6mm|CornerRadius=0.05mm|HoleSize=0mm|Usage=FLASHONLY|Rotation=90.000|XOffset=0mm|YOffset=0mm|HoleType=Round|Shape=RoundedRectangle|*
%AMROUNDEDRECTD15*
21,1,0.500,0.500,0,0,90.0*
21,1,0.400,0.600,0,0,90.0*
1,1,0.100,0.250,0.200*
1,1,0.100,0.250,-0.200*
1,1,0.100,-0.250,-0.200*
1,1,0.100,-0.250,0.200*
%
%ADD15ROUNDEDRECTD15*%
%ADD16C,0.250*%
%ADD17C,0.500*%
%ADD18C,1.270*%
%ADD19C,4.200*%
%ADD20O,1.500X2.000*%
%ADD21R,1.500X1.500*%
%ADD22C,1.500*%
%ADD23C,1.200*%
%ADD24C,1.000*%
G36*
X14127Y15990D02*
X14250D01*
X14369Y16014D01*
X14469Y16081D01*
X14677Y16073D01*
X15875Y14875D01*
Y14470D01*
X15725D01*
X15509Y14427D01*
X15326Y14304D01*
X15203Y14121D01*
X15185Y14032D01*
X16525D01*
Y13778D01*
X15185D01*
X15203Y13689D01*
X15326Y13506D01*
X15338Y13379D01*
X15054Y13096D01*
X14843Y13091D01*
X14788Y13163D01*
X14630Y13284D01*
X14447Y13360D01*
X14377Y13369D01*
Y12625D01*
Y11881D01*
X14447Y11890D01*
X14630Y11966D01*
X14788Y12087D01*
X14822Y12132D01*
X15000Y12072D01*
Y9375D01*
X12562Y9375D01*
X12527Y9553D01*
X12628Y9595D01*
X12785Y9715D01*
X12905Y9872D01*
X12981Y10054D01*
X13006Y10250D01*
X12981Y10446D01*
X12905Y10628D01*
X12785Y10785D01*
X12628Y10905D01*
X12446Y10981D01*
X12375Y10990D01*
Y11375D01*
X12375Y14875D01*
X13500Y16000D01*
X13700D01*
X13750Y15990D01*
X13873D01*
Y16500D01*
X14127D01*
Y15990D01*
D02*
G37*
%LPC*%
G36*
X14123Y12498D02*
X13506D01*
X13515Y12428D01*
X13591Y12245D01*
X13712Y12087D01*
X13870Y11966D01*
X14053Y11890D01*
X14123Y11881D01*
Y12498D01*
D02*
G37*
G36*
Y13369D02*
X14053Y13360D01*
X13870Y13284D01*
X13712Y13163D01*
X13591Y13005D01*
X13515Y12822D01*
X13506Y12752D01*
X14123D01*
Y13369D01*
D02*
G37*
%LPD*%
D10*
X2125Y12900D02*
D03*
Y11350D02*
D03*
D11*
X9725Y13905D02*
D03*
Y12635D02*
D03*
Y11365D02*
D03*
Y10095D02*
D03*
X16525Y13905D02*
D03*
Y12635D02*
D03*
Y11365D02*
D03*
Y10095D02*
D03*
D12*
X6750Y8350D02*
D03*
Y6650D02*
D03*
X18875Y9245D02*
D03*
Y10945D02*
D03*
X27375Y5650D02*
D03*
Y7350D02*
D03*
X7125Y12525D02*
D03*
Y14225D02*
D03*
X23000Y16900D02*
D03*
Y18600D02*
D03*
X21250Y16900D02*
D03*
Y18600D02*
D03*
D13*
X5250Y14225D02*
D03*
Y12525D02*
D03*
D14*
X5000Y8375D02*
D03*
Y7375D02*
D03*
D15*
X14000Y16500D02*
D03*
X13000D02*
D03*
D16*
X12065Y18000D02*
X15707D01*
X16807Y16900D02*
X21250D01*
X15707Y18000D02*
X16807Y16900D01*
X17125Y15875D02*
X23250D01*
X15500Y17500D02*
X17125Y15875D01*
X12500Y17500D02*
X15500D01*
X8250Y13625D02*
Y14185D01*
X12065Y18000D01*
X8250Y13625D02*
X9240Y12635D01*
X9725Y14725D02*
X12500Y17500D01*
X5425Y12525D02*
X7125Y14225D01*
X5250Y12525D02*
X5425D01*
X20642Y12290D02*
X22210D01*
X19297Y10945D02*
X20642Y12290D01*
X22210D02*
X23000Y11500D01*
Y9875D02*
Y11500D01*
Y9875D02*
X24250Y8625D01*
X23000Y12415D02*
Y14500D01*
Y12415D02*
X24250Y11165D01*
X22500Y15000D02*
X23000Y14500D01*
X20971Y15000D02*
X22500D01*
X18606Y12635D02*
X20971Y15000D01*
X9725Y13905D02*
Y14725D01*
X22966Y16866D02*
X25500Y14332D01*
Y12415D02*
Y14332D01*
X24250Y11165D02*
X25500Y12415D01*
X21710Y11165D02*
X22335Y10540D01*
Y9833D02*
Y10540D01*
Y9833D02*
X23125Y9043D01*
Y7720D02*
Y9043D01*
X20640Y10095D02*
X21710Y11165D01*
X16525Y10095D02*
X20640D01*
X18875Y10945D02*
X19297D01*
X18455Y11365D02*
X18875Y10945D01*
X16525Y11365D02*
X18455D01*
X24250Y13705D02*
Y14875D01*
X7390Y12635D02*
X9240D01*
X9725D01*
X7125Y12900D02*
X7390Y12635D01*
X16525D02*
X18606D01*
X5102Y1852D02*
X6510D01*
X18875Y7500D02*
Y9245D01*
Y7500D02*
X20250Y6125D01*
Y3750D02*
Y6125D01*
X25125Y2000D02*
Y4000D01*
X26750Y5625D01*
X27375D01*
X18750Y20750D02*
X20900Y18600D01*
X21250D01*
X23000D01*
X23495Y7350D02*
X27375D01*
X3400Y3554D02*
X5102Y1852D01*
X5725Y6650D02*
X6750D01*
X5000Y7375D02*
X5725Y6650D01*
X3400Y7375D02*
X5000D01*
X3400Y7375D02*
X3400Y7375D01*
X3400Y3554D02*
Y7375D01*
X23250Y15875D02*
X24250Y14875D01*
X23125Y7720D02*
X23495Y7350D01*
X3400Y7375D02*
Y8650D01*
X6115Y11365D01*
X9725D01*
D17*
X10357Y3215D02*
X13208D01*
X9924Y3648D02*
X10357Y3215D01*
X2125Y8750D02*
Y11350D01*
X8837Y10087D02*
X13208Y5715D01*
X10750Y10250D02*
X11500Y11000D01*
X10595Y10095D02*
X10750Y10250D01*
X12250D01*
X9000Y16000D02*
X13750Y20750D01*
X11500Y11000D02*
Y15000D01*
X13000Y16500D01*
X16525Y13905D02*
X17780D01*
X8495Y10095D02*
X9725D01*
X6750Y8350D02*
X8495Y10095D01*
X5250Y14225D02*
X7025Y16000D01*
X9000D01*
X9725Y10095D02*
X10595D01*
X14000Y16430D02*
Y16500D01*
Y16430D02*
X16525Y13905D01*
X2100Y12875D02*
Y13350D01*
X21710Y8625D02*
X21750Y8585D01*
X9500Y19000D02*
X11250Y20750D01*
X7750Y19000D02*
X9500D01*
X2100Y13350D02*
X7750Y19000D01*
X15864Y13905D02*
X16525D01*
X8306Y3648D02*
X9924D01*
X5823Y9198D02*
X7598D01*
X5000Y8375D02*
X5823Y9198D01*
D18*
X20250Y3750D02*
D03*
X18454Y5546D02*
D03*
X25125Y2000D02*
D03*
X23329Y3796D02*
D03*
X8056Y3898D02*
D03*
X6260Y2102D02*
D03*
D19*
X27500Y17500D02*
D03*
X2500D02*
D03*
D20*
X11250Y20750D02*
D03*
X13750D02*
D03*
X16250D02*
D03*
X18750D02*
D03*
D21*
X24250Y8625D02*
D03*
D22*
X21710D02*
D03*
X24250Y11165D02*
D03*
X21710D02*
D03*
X24250Y13705D02*
D03*
X21710D02*
D03*
D23*
X13208Y5715D02*
D03*
Y3215D02*
D03*
D24*
X14250Y12625D02*
D03*
X2125Y8750D02*
D03*
X12250Y10250D02*
D03*
M02*
