G04 Layer_Color=32896*
%FSLAX44Y44*%
%MOMM*%
G71*
G01*
G75*
%ADD24C,0.2540*%
%ADD27C,0.1500*%
G36*
X17124Y87348D02*
X17380Y87325D01*
X17614Y87302D01*
X17800Y87278D01*
X17963Y87255D01*
X18057Y87232D01*
X18080D01*
X18570Y87138D01*
X18803Y87092D01*
X18989Y87045D01*
X19152Y86975D01*
X19292Y86952D01*
X19362Y86905D01*
X19386D01*
X19805Y86695D01*
X19992Y86602D01*
X20155Y86509D01*
X20295Y86439D01*
X20388Y86369D01*
X20458Y86346D01*
X20482Y86322D01*
X20831Y86089D01*
X21111Y85879D01*
X21228Y85786D01*
X21321Y85716D01*
X21368Y85669D01*
X21391Y85646D01*
X21694Y85343D01*
X21927Y85063D01*
X22020Y84947D01*
X22090Y84853D01*
X22137Y84807D01*
X22160Y84783D01*
X22417Y84434D01*
X22627Y84107D01*
X22697Y83967D01*
X22767Y83851D01*
X22790Y83781D01*
X22813Y83757D01*
X23000Y83361D01*
X23093Y83174D01*
X23163Y82988D01*
X23233Y82848D01*
X23280Y82732D01*
X23326Y82662D01*
Y82638D01*
X23489Y82219D01*
X23559Y82009D01*
X23606Y81845D01*
X23676Y81682D01*
X23699Y81566D01*
X23746Y81496D01*
Y81472D01*
X23839Y81239D01*
X23886Y81053D01*
X23932Y80936D01*
X23956Y80866D01*
Y80820D01*
X23979Y80773D01*
X24002Y80703D01*
X24026Y80610D01*
X24119Y80376D01*
X24236Y80073D01*
X24329Y79770D01*
X24422Y79514D01*
X24469Y79420D01*
X24492Y79327D01*
X24515Y79281D01*
Y79257D01*
X24609Y78931D01*
X24702Y78651D01*
X24749Y78534D01*
X24772Y78441D01*
X24795Y78394D01*
Y78371D01*
X24935Y78068D01*
X25028Y77812D01*
X25075Y77695D01*
X25098Y77625D01*
X25122Y77578D01*
Y77555D01*
X25238Y77275D01*
X25331Y77042D01*
X25378Y76949D01*
X25425Y76879D01*
X25448Y76832D01*
Y76809D01*
X25588Y76576D01*
X25728Y76366D01*
X25821Y76226D01*
X25845Y76203D01*
Y76179D01*
X26008Y75946D01*
X26148Y75783D01*
X26264Y75666D01*
X26311Y75620D01*
X26497Y75457D01*
X26684Y75340D01*
X26824Y75247D01*
X26847Y75223D01*
X26871D01*
X27104Y75107D01*
X27313Y75013D01*
X27477Y74967D01*
X27500Y74943D01*
X27523D01*
X27803Y74897D01*
X28060Y74874D01*
X28153Y74850D01*
X28316D01*
X28619Y74874D01*
X28899Y74920D01*
X29132Y74967D01*
X29342Y75037D01*
X29505Y75107D01*
X29645Y75177D01*
X29715Y75200D01*
X29739Y75223D01*
X29948Y75387D01*
X30135Y75550D01*
X30275Y75736D01*
X30415Y75900D01*
X30508Y76063D01*
X30578Y76179D01*
X30624Y76273D01*
X30648Y76296D01*
X30858Y76856D01*
X30928Y77112D01*
X30998Y77345D01*
X31068Y77555D01*
X31114Y77718D01*
X31137Y77812D01*
Y77858D01*
X31231Y78488D01*
X31254Y78768D01*
X31277Y79047D01*
X31301Y79281D01*
Y79444D01*
Y79560D01*
Y79607D01*
Y79933D01*
X31277Y80237D01*
Y80540D01*
X31254Y80796D01*
X31231Y81006D01*
Y81169D01*
X31207Y81263D01*
Y81309D01*
X31114Y81892D01*
X31068Y82172D01*
X31021Y82405D01*
X30974Y82615D01*
X30951Y82755D01*
X30904Y82871D01*
Y82895D01*
X30788Y83454D01*
X30718Y83687D01*
X30671Y83897D01*
X30624Y84084D01*
X30578Y84224D01*
X30555Y84317D01*
Y84340D01*
X30415Y84807D01*
X30345Y85017D01*
X30275Y85203D01*
X30228Y85366D01*
X30182Y85483D01*
X30158Y85553D01*
Y85576D01*
X30485Y85716D01*
X30764Y85833D01*
X30881Y85856D01*
X30974Y85903D01*
X31021Y85926D01*
X31044D01*
X31394Y86042D01*
X31697Y86159D01*
X31814Y86182D01*
X31907Y86206D01*
X31977Y86229D01*
X32000D01*
X32373Y86322D01*
X32536Y86369D01*
X32700Y86392D01*
X32816Y86416D01*
X32910Y86439D01*
X32980Y86462D01*
X33003D01*
X33376Y86532D01*
X33702Y86579D01*
X33842Y86602D01*
X33936Y86625D01*
X34029D01*
X34192Y86066D01*
X34285Y85809D01*
X34355Y85576D01*
X34402Y85366D01*
X34448Y85203D01*
X34495Y85110D01*
Y85063D01*
X34658Y84457D01*
X34728Y84154D01*
X34775Y83874D01*
X34845Y83641D01*
X34868Y83454D01*
X34915Y83338D01*
Y83291D01*
X35031Y82615D01*
X35078Y82289D01*
X35125Y82009D01*
X35148Y81752D01*
X35171Y81566D01*
X35195Y81449D01*
Y81402D01*
X35241Y80703D01*
Y80353D01*
X35265Y80073D01*
Y79817D01*
Y79607D01*
Y79490D01*
Y79467D01*
Y79444D01*
X35241Y78581D01*
X35195Y77812D01*
X35148Y77439D01*
X35101Y77089D01*
X35055Y76786D01*
X35031Y76483D01*
X34985Y76226D01*
X34938Y75993D01*
X34892Y75783D01*
X34845Y75620D01*
X34822Y75480D01*
X34798Y75387D01*
X34775Y75317D01*
Y75293D01*
X34565Y74640D01*
X34332Y74057D01*
X34076Y73545D01*
X33819Y73102D01*
X33609Y72752D01*
X33516Y72612D01*
X33423Y72495D01*
X33353Y72379D01*
X33306Y72309D01*
X33283Y72285D01*
X33259Y72262D01*
X32863Y71819D01*
X32467Y71446D01*
X32070Y71143D01*
X31697Y70886D01*
X31371Y70676D01*
X31114Y70537D01*
X31021Y70490D01*
X30951Y70443D01*
X30904Y70420D01*
X30881D01*
X30368Y70210D01*
X29832Y70070D01*
X29319Y69954D01*
X28829Y69884D01*
X28433Y69837D01*
X28246D01*
X28106Y69814D01*
X27803D01*
X27337Y69837D01*
X26917Y69860D01*
X26544Y69930D01*
X26194Y70000D01*
X25914Y70047D01*
X25728Y70117D01*
X25588Y70140D01*
X25565Y70163D01*
X25541D01*
X25168Y70327D01*
X24818Y70490D01*
X24515Y70676D01*
X24259Y70863D01*
X24049Y71026D01*
X23886Y71166D01*
X23793Y71259D01*
X23746Y71283D01*
X23466Y71562D01*
X23210Y71889D01*
X22977Y72192D01*
X22767Y72495D01*
X22580Y72775D01*
X22440Y72985D01*
X22347Y73125D01*
X22324Y73148D01*
Y73171D01*
X22067Y73638D01*
X21834Y74104D01*
X21601Y74570D01*
X21414Y75013D01*
X21274Y75387D01*
X21204Y75550D01*
X21134Y75690D01*
X21111Y75783D01*
X21065Y75876D01*
X21041Y75923D01*
Y75946D01*
X20971Y76133D01*
X20901Y76296D01*
X20878Y76389D01*
X20855Y76436D01*
X20831Y76483D01*
X20808Y76506D01*
Y76552D01*
X20761Y76646D01*
X20691Y76832D01*
X20598Y77065D01*
X20528Y77299D01*
X20435Y77508D01*
X20388Y77672D01*
X20365Y77695D01*
Y77718D01*
X20248Y78068D01*
X20155Y78371D01*
X20132Y78511D01*
X20085Y78604D01*
X20062Y78651D01*
Y78674D01*
X19945Y79001D01*
X19852Y79281D01*
X19829Y79374D01*
X19782Y79467D01*
X19759Y79514D01*
Y79537D01*
X19619Y79840D01*
X19502Y80073D01*
X19456Y80167D01*
X19409Y80237D01*
X19386Y80260D01*
Y80283D01*
X19222Y80540D01*
X19106Y80773D01*
X19036Y80866D01*
X19013Y80936D01*
X18966Y80959D01*
Y80983D01*
X18779Y81216D01*
X18616Y81379D01*
X18500Y81496D01*
X18476Y81542D01*
X18453D01*
X18243Y81729D01*
X18057Y81869D01*
X17893Y81962D01*
X17870Y81985D01*
X17847D01*
X17614Y82125D01*
X17380Y82219D01*
X17264Y82242D01*
X17194Y82265D01*
X17147Y82289D01*
X17124D01*
X16797Y82335D01*
X16494Y82358D01*
X16168D01*
X15841Y82335D01*
X15562Y82312D01*
X15468Y82289D01*
X15375D01*
X15328Y82265D01*
X15305D01*
X15002Y82149D01*
X14769Y82032D01*
X14676Y81985D01*
X14629Y81939D01*
X14582Y81915D01*
X14559Y81892D01*
X14303Y81706D01*
X14069Y81519D01*
X13976Y81449D01*
X13906Y81379D01*
X13883Y81356D01*
X13859Y81333D01*
X13626Y81099D01*
X13463Y80866D01*
X13393Y80773D01*
X13347Y80703D01*
X13300Y80656D01*
Y80633D01*
X13137Y80330D01*
X12997Y80050D01*
X12950Y79933D01*
X12903Y79840D01*
X12880Y79794D01*
Y79770D01*
X12740Y79420D01*
X12647Y79117D01*
X12600Y78977D01*
X12577Y78884D01*
X12554Y78814D01*
Y78791D01*
X12460Y78394D01*
X12437Y78208D01*
X12414Y78045D01*
X12391Y77905D01*
X12367Y77788D01*
Y77718D01*
Y77695D01*
X12344Y77299D01*
Y77112D01*
X12320Y76926D01*
Y76786D01*
Y76669D01*
Y76599D01*
Y76576D01*
X12344Y75970D01*
Y75713D01*
X12367Y75457D01*
Y75247D01*
X12391Y75083D01*
Y74990D01*
Y74943D01*
X12460Y74337D01*
X12507Y74081D01*
X12530Y73824D01*
X12577Y73615D01*
X12600Y73451D01*
X12624Y73358D01*
Y73311D01*
X12764Y72728D01*
X12833Y72449D01*
X12880Y72215D01*
X12927Y72029D01*
X12973Y71889D01*
X12997Y71772D01*
Y71749D01*
X13183Y71213D01*
X13253Y70956D01*
X13347Y70746D01*
X13416Y70560D01*
X13463Y70420D01*
X13486Y70327D01*
X13510Y70303D01*
X13137Y70163D01*
X12950Y70094D01*
X12810Y70047D01*
X12670Y70000D01*
X12577Y69954D01*
X12507Y69930D01*
X12484D01*
X12111Y69790D01*
X11947Y69744D01*
X11784Y69697D01*
X11668Y69651D01*
X11574Y69604D01*
X11504Y69581D01*
X11481D01*
X11085Y69464D01*
X10921Y69417D01*
X10758Y69371D01*
X10618Y69347D01*
X10525Y69324D01*
X10455Y69301D01*
X10432D01*
X10059Y69231D01*
X9756Y69208D01*
X9616Y69184D01*
X9523Y69161D01*
X9429D01*
X9219Y69744D01*
X9149Y70024D01*
X9079Y70257D01*
X9010Y70490D01*
X8963Y70653D01*
X8939Y70746D01*
Y70793D01*
X8776Y71423D01*
X8706Y71702D01*
X8660Y71982D01*
X8613Y72215D01*
X8566Y72379D01*
X8543Y72495D01*
Y72542D01*
X8427Y73241D01*
X8380Y73568D01*
X8357Y73871D01*
X8310Y74127D01*
Y74314D01*
X8287Y74454D01*
Y74500D01*
X8240Y75317D01*
Y75690D01*
X8217Y76039D01*
Y76319D01*
Y76552D01*
Y76646D01*
Y76716D01*
Y76739D01*
Y76762D01*
Y77205D01*
X8240Y77625D01*
X8263Y78021D01*
X8287Y78348D01*
X8310Y78628D01*
X8333Y78837D01*
X8357Y78977D01*
Y79024D01*
X8427Y79420D01*
X8497Y79817D01*
X8566Y80167D01*
X8660Y80470D01*
X8730Y80726D01*
X8776Y80936D01*
X8800Y81053D01*
X8823Y81099D01*
X8939Y81472D01*
X9056Y81799D01*
X9196Y82125D01*
X9289Y82382D01*
X9406Y82615D01*
X9476Y82778D01*
X9523Y82871D01*
X9546Y82918D01*
X9709Y83221D01*
X9872Y83524D01*
X10035Y83781D01*
X10175Y84014D01*
X10315Y84200D01*
X10409Y84340D01*
X10479Y84434D01*
X10502Y84457D01*
X10712Y84713D01*
X10921Y84970D01*
X11131Y85180D01*
X11318Y85366D01*
X11458Y85506D01*
X11574Y85623D01*
X11668Y85693D01*
X11691Y85716D01*
X12204Y86066D01*
X12437Y86229D01*
X12647Y86369D01*
X12833Y86462D01*
X12997Y86556D01*
X13090Y86602D01*
X13113Y86625D01*
X13696Y86882D01*
X13976Y86975D01*
X14232Y87045D01*
X14442Y87115D01*
X14606Y87162D01*
X14699Y87185D01*
X14746D01*
X15398Y87302D01*
X15702Y87325D01*
X15958Y87348D01*
X16191Y87372D01*
X16844D01*
X17124Y87348D01*
D02*
G37*
G36*
X34728Y65197D02*
X34752Y65010D01*
X34775Y64871D01*
Y64847D01*
Y64824D01*
X34798Y64591D01*
Y64381D01*
X34822Y64288D01*
Y64241D01*
Y64194D01*
Y64171D01*
X34845Y63938D01*
Y63728D01*
Y63588D01*
Y63565D01*
Y63541D01*
X34868Y63332D01*
X34892Y63145D01*
Y63005D01*
Y62982D01*
Y62958D01*
Y62725D01*
X34868Y62539D01*
X34845Y62399D01*
Y62376D01*
Y62352D01*
Y62119D01*
Y61933D01*
X34822Y61769D01*
Y61746D01*
Y61723D01*
X34798Y61466D01*
Y61256D01*
X34775Y61116D01*
Y61093D01*
Y61070D01*
X34752Y60837D01*
X34705Y60650D01*
X34682Y60533D01*
Y60510D01*
Y60487D01*
X12950D01*
X12764Y59787D01*
X12694Y59438D01*
X12647Y59134D01*
X12600Y58855D01*
X12554Y58645D01*
X12530Y58505D01*
Y58482D01*
Y58458D01*
X12460Y57642D01*
X12437Y57246D01*
Y56873D01*
X12414Y56546D01*
Y56313D01*
Y56220D01*
Y56150D01*
Y56103D01*
Y56080D01*
X12437Y55474D01*
Y55194D01*
X12460Y54961D01*
Y54751D01*
X12484Y54611D01*
Y54518D01*
Y54471D01*
X12530Y54191D01*
X12577Y53935D01*
X12624Y53702D01*
X12670Y53492D01*
X12694Y53305D01*
X12740Y53189D01*
X12764Y53095D01*
Y53072D01*
X12903Y52606D01*
X12997Y52396D01*
X13067Y52209D01*
X13137Y52046D01*
X13207Y51929D01*
X13230Y51859D01*
X13253Y51836D01*
X13510Y51463D01*
X13626Y51277D01*
X13743Y51137D01*
X13836Y51020D01*
X13929Y50927D01*
X13976Y50857D01*
X13999Y50834D01*
X14372Y50530D01*
X14722Y50274D01*
X14885Y50181D01*
X15002Y50111D01*
X15072Y50064D01*
X15095Y50041D01*
X15585Y49808D01*
X15818Y49714D01*
X16028Y49621D01*
X16238Y49574D01*
X16378Y49528D01*
X16471Y49481D01*
X16518D01*
X17124Y49318D01*
X17427Y49271D01*
X17707Y49225D01*
X17940Y49178D01*
X18126Y49155D01*
X18243Y49131D01*
X18290D01*
X19059Y49085D01*
X19432Y49061D01*
X19782D01*
X20085Y49038D01*
X34682D01*
X34728Y48805D01*
X34752Y48618D01*
X34775Y48478D01*
Y48455D01*
Y48432D01*
X34798Y48199D01*
Y47989D01*
X34822Y47826D01*
Y47802D01*
Y47779D01*
X34845Y47523D01*
Y47289D01*
Y47196D01*
Y47126D01*
Y47103D01*
Y47080D01*
X34868Y46870D01*
X34892Y46683D01*
Y46543D01*
Y46520D01*
Y46497D01*
Y46310D01*
X34868Y46123D01*
X34845Y45984D01*
Y45960D01*
Y45937D01*
Y45727D01*
Y45517D01*
X34822Y45424D01*
Y45354D01*
Y45307D01*
Y45284D01*
X34798Y44981D01*
X34752Y44724D01*
X34728Y44515D01*
Y44351D01*
X34705Y44212D01*
X34682Y44095D01*
Y44048D01*
Y44025D01*
X20318D01*
X19596Y44048D01*
X18943Y44072D01*
X18360Y44118D01*
X17847Y44165D01*
X17614Y44188D01*
X17404Y44212D01*
X17241D01*
X17100Y44235D01*
X16984Y44258D01*
X16891Y44281D01*
X16821D01*
X16261Y44375D01*
X15725Y44491D01*
X15259Y44608D01*
X14862Y44724D01*
X14536Y44818D01*
X14279Y44911D01*
X14186Y44934D01*
X14116Y44958D01*
X14093Y44981D01*
X14069D01*
X13650Y45167D01*
X13230Y45354D01*
X12880Y45540D01*
X12577Y45727D01*
X12320Y45890D01*
X12134Y46007D01*
X12017Y46100D01*
X11971Y46123D01*
X11644Y46380D01*
X11341Y46637D01*
X11061Y46870D01*
X10828Y47103D01*
X10642Y47289D01*
X10502Y47453D01*
X10409Y47546D01*
X10385Y47593D01*
X10152Y47919D01*
X9942Y48222D01*
X9756Y48525D01*
X9592Y48805D01*
X9476Y49038D01*
X9359Y49225D01*
X9313Y49341D01*
X9289Y49388D01*
X9010Y50134D01*
X8893Y50484D01*
X8800Y50810D01*
X8730Y51067D01*
X8683Y51277D01*
X8636Y51417D01*
Y51463D01*
X8566Y51883D01*
X8497Y52279D01*
X8450Y52676D01*
X8403Y53025D01*
X8357Y53305D01*
X8333Y53538D01*
Y53608D01*
X8310Y53678D01*
Y53702D01*
Y53725D01*
X8287Y54168D01*
X8263Y54611D01*
X8240Y55007D01*
Y55380D01*
X8217Y55707D01*
Y55940D01*
Y56033D01*
Y56103D01*
Y56127D01*
Y56150D01*
Y56639D01*
X8240Y57106D01*
Y57526D01*
X8263Y57922D01*
X8287Y58248D01*
Y58505D01*
X8310Y58598D01*
Y58668D01*
Y58691D01*
Y58715D01*
X8357Y59181D01*
X8427Y59624D01*
X8473Y60044D01*
X8543Y60417D01*
X8590Y60743D01*
X8636Y60977D01*
Y61070D01*
X8660Y61140D01*
Y61163D01*
Y61186D01*
X8753Y61653D01*
X8823Y62072D01*
X8916Y62469D01*
X8986Y62795D01*
X9033Y63098D01*
X9079Y63308D01*
X9126Y63448D01*
Y63495D01*
X9219Y63868D01*
X9313Y64218D01*
X9406Y64544D01*
X9476Y64847D01*
X9523Y65080D01*
X9569Y65244D01*
X9616Y65360D01*
Y65407D01*
X34682D01*
X34728Y65197D01*
D02*
G37*
G36*
X9243Y41810D02*
X9616Y41693D01*
X9966Y41577D01*
X10269Y41483D01*
X10502Y41413D01*
X10688Y41343D01*
X10805Y41320D01*
X10852Y41297D01*
X11178Y41203D01*
X11481Y41110D01*
X11738Y41017D01*
X11971Y40947D01*
X12181Y40900D01*
X12320Y40854D01*
X12414Y40807D01*
X12437D01*
X13020Y40621D01*
X13510Y40434D01*
X13929Y40294D01*
X14279Y40201D01*
X14536Y40108D01*
X14722Y40038D01*
X14839Y40014D01*
X14885Y39991D01*
X15212Y39874D01*
X15538Y39781D01*
X15865Y39665D01*
X16191Y39571D01*
X16448Y39478D01*
X16658Y39408D01*
X16797Y39362D01*
X16821Y39338D01*
X16844D01*
X17124Y39268D01*
X17380Y39198D01*
X17474Y39152D01*
X17567Y39128D01*
X17614Y39105D01*
X17637D01*
X17987Y38988D01*
X18290Y38872D01*
X18430Y38849D01*
X18523Y38802D01*
X18593Y38779D01*
X18616D01*
X19036Y38639D01*
X19246Y38592D01*
X19432Y38522D01*
X19596Y38475D01*
X19712Y38429D01*
X19805Y38382D01*
X19829D01*
X20342Y38219D01*
X20598Y38126D01*
X20831Y38056D01*
X21018Y37986D01*
X21181Y37939D01*
X21274Y37916D01*
X21321Y37892D01*
X21834Y37729D01*
X22347Y37566D01*
X22860Y37403D01*
X23350Y37240D01*
X23769Y37123D01*
X23956Y37053D01*
X24096Y37006D01*
X24236Y36960D01*
X24329Y36937D01*
X24376Y36913D01*
X24399D01*
X25075Y36680D01*
X25798Y36447D01*
X26474Y36237D01*
X27127Y36027D01*
X27430Y35934D01*
X27687Y35841D01*
X27920Y35747D01*
X28130Y35701D01*
X28293Y35631D01*
X28433Y35584D01*
X28503Y35561D01*
X28526D01*
X29109Y35374D01*
X29692Y35188D01*
X30881Y34791D01*
X32070Y34418D01*
X32630Y34232D01*
X33166Y34045D01*
X33679Y33882D01*
X34122Y33742D01*
X34542Y33602D01*
X34892Y33486D01*
X35171Y33392D01*
X35381Y33346D01*
X35521Y33299D01*
X35568Y33276D01*
X36337Y33019D01*
X37153Y32763D01*
X38762Y32226D01*
X39578Y31970D01*
X40371Y31713D01*
X41117Y31480D01*
X41840Y31247D01*
X42516Y31014D01*
X43146Y30827D01*
X43682Y30641D01*
X44172Y30501D01*
X44382Y30431D01*
X44545Y30361D01*
X44708Y30314D01*
X44848Y30268D01*
X44941Y30245D01*
X45011Y30221D01*
X45058Y30198D01*
X45081D01*
X45128Y29941D01*
X45151Y29708D01*
Y29615D01*
X45174Y29545D01*
Y29522D01*
Y29498D01*
X45198Y29218D01*
Y28985D01*
X45221Y28869D01*
Y28799D01*
Y28752D01*
Y28729D01*
X45244Y28449D01*
Y28216D01*
Y28123D01*
Y28053D01*
Y28006D01*
Y27983D01*
X45268Y27726D01*
Y27493D01*
Y27400D01*
Y27330D01*
Y27283D01*
Y27260D01*
Y26980D01*
Y26747D01*
X45244Y26630D01*
Y26560D01*
Y26514D01*
Y26490D01*
Y26211D01*
Y25954D01*
X45221Y25861D01*
Y25791D01*
Y25744D01*
Y25721D01*
X45198Y25441D01*
Y25208D01*
X45174Y25115D01*
Y25045D01*
Y24998D01*
Y24975D01*
X45151Y24718D01*
X45104Y24508D01*
X45081Y24345D01*
Y24322D01*
Y24299D01*
X44661Y24159D01*
X44265Y24042D01*
X43915Y23925D01*
X43612Y23832D01*
X43379Y23739D01*
X43193Y23669D01*
X43076Y23646D01*
X43029Y23622D01*
X42703Y23529D01*
X42423Y23436D01*
X42143Y23343D01*
X41910Y23273D01*
X41723Y23226D01*
X41584Y23179D01*
X41490Y23133D01*
X41467D01*
X40884Y22946D01*
X40394Y22783D01*
X39975Y22643D01*
X39625Y22527D01*
X39345Y22433D01*
X39159Y22363D01*
X39042Y22340D01*
X38995Y22317D01*
X38669Y22200D01*
X38342Y22107D01*
X38016Y21990D01*
X37713Y21897D01*
X37433Y21804D01*
X37223Y21757D01*
X37083Y21710D01*
X37060Y21687D01*
X37037D01*
X36780Y21594D01*
X36524Y21500D01*
X36430Y21477D01*
X36337Y21454D01*
X36291Y21431D01*
X36267D01*
X35917Y21314D01*
X35591Y21221D01*
X35475Y21174D01*
X35358Y21127D01*
X35288Y21104D01*
X35265D01*
X34845Y20964D01*
X34658Y20918D01*
X34472Y20848D01*
X34309Y20801D01*
X34192Y20754D01*
X34099Y20708D01*
X34076D01*
X33563Y20545D01*
X33306Y20451D01*
X33073Y20381D01*
X32863Y20311D01*
X32700Y20265D01*
X32606Y20241D01*
X32560Y20218D01*
X32047Y20055D01*
X31534Y19892D01*
X31021Y19728D01*
X30531Y19565D01*
X30111Y19425D01*
X29925Y19355D01*
X29785Y19309D01*
X29645Y19262D01*
X29552Y19239D01*
X29505Y19215D01*
X29482D01*
X28806Y19006D01*
X28083Y18772D01*
X27407Y18539D01*
X26777Y18353D01*
X26474Y18236D01*
X26218Y18166D01*
X25984Y18073D01*
X25775Y18026D01*
X25611Y17956D01*
X25471Y17910D01*
X25401Y17886D01*
X25378D01*
X24818Y17700D01*
X24212Y17513D01*
X23023Y17117D01*
X21834Y16744D01*
X21274Y16557D01*
X20738Y16371D01*
X20225Y16207D01*
X19759Y16068D01*
X19362Y15928D01*
X18989Y15811D01*
X18709Y15718D01*
X18500Y15671D01*
X18360Y15625D01*
X18336Y15601D01*
X18313D01*
X17544Y15345D01*
X16751Y15088D01*
X15119Y14552D01*
X14326Y14296D01*
X13533Y14039D01*
X12764Y13783D01*
X12041Y13549D01*
X11365Y13340D01*
X10758Y13130D01*
X10199Y12943D01*
X9732Y12803D01*
X9523Y12733D01*
X9359Y12663D01*
X9196Y12617D01*
X9056Y12570D01*
X8963Y12547D01*
X8893Y12523D01*
X8846Y12500D01*
X8823D01*
X8776Y12710D01*
X8730Y12896D01*
X8706Y13036D01*
Y13060D01*
Y13083D01*
X8683Y13316D01*
Y13503D01*
X8660Y13666D01*
Y13689D01*
Y13713D01*
X8636Y13969D01*
Y14202D01*
Y14272D01*
Y14342D01*
Y14389D01*
Y14412D01*
X8613Y14669D01*
Y14902D01*
Y14972D01*
Y15042D01*
Y15088D01*
Y15112D01*
Y15345D01*
X8636Y15555D01*
Y15718D01*
Y15741D01*
Y15764D01*
Y16021D01*
X8660Y16231D01*
Y16324D01*
Y16394D01*
Y16417D01*
Y16441D01*
X8683Y16674D01*
Y16860D01*
X8706Y17024D01*
Y17047D01*
Y17070D01*
X8753Y17327D01*
X8776Y17537D01*
X8800Y17630D01*
X8823Y17700D01*
Y17723D01*
Y17746D01*
X9826Y18050D01*
X10782Y18329D01*
X11668Y18586D01*
X12484Y18819D01*
X13230Y19029D01*
X13929Y19239D01*
X14536Y19425D01*
X15095Y19589D01*
X15585Y19728D01*
X16005Y19845D01*
X16378Y19962D01*
X16681Y20031D01*
X16891Y20101D01*
X17054Y20148D01*
X17170Y20195D01*
X17194D01*
Y21034D01*
Y21874D01*
Y22666D01*
Y23436D01*
Y24159D01*
Y24881D01*
Y25558D01*
Y26234D01*
Y26864D01*
Y27470D01*
Y28053D01*
Y28589D01*
Y29125D01*
Y29615D01*
Y30081D01*
Y30524D01*
Y30944D01*
Y31340D01*
Y31690D01*
Y32040D01*
Y32343D01*
Y32623D01*
Y32879D01*
Y33112D01*
Y33322D01*
Y33486D01*
Y33649D01*
Y33765D01*
Y33859D01*
Y33929D01*
Y33952D01*
Y33975D01*
X16961Y34045D01*
X16751Y34115D01*
X16564Y34185D01*
X16401Y34232D01*
X16121Y34302D01*
X15935Y34372D01*
X15818Y34395D01*
X15725Y34418D01*
X15678Y34442D01*
X15632Y34465D01*
X15562D01*
X15398Y34535D01*
X15165Y34605D01*
X14932Y34675D01*
X14699Y34745D01*
X14489Y34815D01*
X14349Y34838D01*
X14326Y34861D01*
X14303D01*
X14069Y34931D01*
X13836Y34978D01*
X13720Y35001D01*
X13650Y35024D01*
X13603Y35048D01*
X13580D01*
X13276Y35164D01*
X12973Y35258D01*
X12833Y35304D01*
X12717Y35328D01*
X12647Y35351D01*
X12624D01*
X12367Y35444D01*
X12087Y35538D01*
X11808Y35607D01*
X11574Y35677D01*
X11341Y35747D01*
X11178Y35794D01*
X11061Y35841D01*
X11015D01*
X10642Y35957D01*
X10269Y36074D01*
X9895Y36190D01*
X9569Y36284D01*
X9266Y36377D01*
X9033Y36447D01*
X8939Y36470D01*
X8870Y36493D01*
X8846Y36517D01*
X8823D01*
X8776Y36727D01*
X8730Y36937D01*
X8706Y37076D01*
Y37100D01*
Y37123D01*
X8683Y37356D01*
Y37589D01*
X8660Y37683D01*
Y37729D01*
Y37776D01*
Y37799D01*
X8636Y38032D01*
Y38266D01*
Y38359D01*
Y38405D01*
Y38452D01*
Y38475D01*
X8613Y38709D01*
Y38918D01*
Y39082D01*
Y39105D01*
Y39128D01*
Y39408D01*
X8636Y39641D01*
Y39711D01*
Y39781D01*
Y39828D01*
Y39851D01*
Y40108D01*
X8660Y40364D01*
Y40457D01*
Y40527D01*
Y40574D01*
Y40597D01*
X8683Y40877D01*
Y41110D01*
X8706Y41180D01*
Y41250D01*
Y41297D01*
Y41320D01*
X8753Y41577D01*
X8776Y41763D01*
X8823Y41903D01*
Y41926D01*
Y41950D01*
X9243Y41810D01*
D02*
G37*
G36*
X27710Y144732D02*
X28526Y144709D01*
X29295Y144639D01*
X30042Y144569D01*
X30741Y144475D01*
X31417Y144382D01*
X32024Y144266D01*
X32583Y144172D01*
X33096Y144056D01*
X33563Y143939D01*
X33959Y143846D01*
X34285Y143753D01*
X34542Y143683D01*
X34728Y143613D01*
X34845Y143589D01*
X34892Y143566D01*
X35521Y143333D01*
X36127Y143076D01*
X36710Y142797D01*
X37270Y142517D01*
X37783Y142214D01*
X38273Y141934D01*
X38716Y141631D01*
X39135Y141351D01*
X39508Y141071D01*
X39835Y140838D01*
X40115Y140605D01*
X40348Y140418D01*
X40534Y140255D01*
X40674Y140115D01*
X40767Y140045D01*
X40791Y140022D01*
X41234Y139556D01*
X41654Y139089D01*
X42027Y138600D01*
X42376Y138087D01*
X42703Y137597D01*
X43006Y137107D01*
X43262Y136617D01*
X43519Y136174D01*
X43729Y135731D01*
X43892Y135358D01*
X44055Y134985D01*
X44172Y134682D01*
X44288Y134449D01*
X44358Y134263D01*
X44382Y134146D01*
X44405Y134099D01*
X44615Y133423D01*
X44801Y132724D01*
X44965Y132001D01*
X45104Y131301D01*
X45221Y130578D01*
X45314Y129902D01*
X45408Y129226D01*
X45478Y128596D01*
X45524Y128013D01*
X45547Y127477D01*
X45571Y126987D01*
X45594Y126568D01*
X45617Y126241D01*
Y126102D01*
Y125985D01*
Y125892D01*
Y125822D01*
Y125798D01*
Y125775D01*
Y125332D01*
Y124912D01*
Y124516D01*
Y124166D01*
X45594Y123863D01*
Y123653D01*
Y123560D01*
Y123490D01*
Y123467D01*
Y123443D01*
X45571Y123000D01*
X45547Y122557D01*
X45524Y122138D01*
X45501Y121788D01*
X45478Y121461D01*
Y121228D01*
X45454Y121135D01*
Y121065D01*
Y121042D01*
Y121018D01*
X45431Y120599D01*
X45384Y120202D01*
X45361Y119853D01*
X45338Y119549D01*
X45314Y119316D01*
X45291Y119130D01*
X45268Y119013D01*
Y118966D01*
X45198Y118290D01*
X45174Y117987D01*
X45151Y117684D01*
X45128Y117451D01*
X45104Y117264D01*
X45081Y117148D01*
Y117101D01*
Y117008D01*
Y116984D01*
Y116915D01*
Y116891D01*
Y116868D01*
X8823D01*
X8730Y117521D01*
X8683Y117824D01*
X8660Y118127D01*
X8636Y118360D01*
X8613Y118570D01*
X8590Y118687D01*
Y118733D01*
X8520Y119479D01*
X8497Y119853D01*
X8473Y120179D01*
X8450Y120459D01*
X8427Y120692D01*
X8403Y120762D01*
Y120832D01*
Y120855D01*
Y120878D01*
X8357Y121298D01*
X8333Y121718D01*
X8310Y122114D01*
X8287Y122464D01*
X8263Y122767D01*
X8240Y123000D01*
Y123094D01*
Y123163D01*
Y123187D01*
Y123210D01*
Y123653D01*
X8217Y124073D01*
Y124469D01*
Y124819D01*
Y125122D01*
Y125355D01*
Y125449D01*
Y125519D01*
Y125542D01*
Y125565D01*
X8240Y126451D01*
X8263Y127291D01*
X8333Y128107D01*
X8403Y128876D01*
X8473Y129622D01*
X8590Y130299D01*
X8683Y130951D01*
X8800Y131534D01*
X8893Y132071D01*
X9010Y132537D01*
X9103Y132957D01*
X9173Y133307D01*
X9266Y133563D01*
X9313Y133773D01*
X9336Y133889D01*
X9359Y133936D01*
X9592Y134589D01*
X9826Y135218D01*
X10105Y135825D01*
X10385Y136384D01*
X10665Y136921D01*
X10945Y137410D01*
X11248Y137853D01*
X11504Y138273D01*
X11784Y138646D01*
X12017Y138973D01*
X12251Y139252D01*
X12437Y139486D01*
X12600Y139672D01*
X12717Y139789D01*
X12787Y139882D01*
X12810Y139905D01*
X13253Y140348D01*
X13720Y140768D01*
X14186Y141141D01*
X14676Y141491D01*
X15165Y141817D01*
X15655Y142120D01*
X16121Y142400D01*
X16564Y142633D01*
X16984Y142843D01*
X17380Y143030D01*
X17730Y143193D01*
X18033Y143310D01*
X18266Y143426D01*
X18453Y143496D01*
X18570Y143519D01*
X18616Y143543D01*
X19292Y143753D01*
X19992Y143939D01*
X20691Y144102D01*
X21391Y144242D01*
X22090Y144359D01*
X22767Y144452D01*
X23443Y144545D01*
X24072Y144615D01*
X24655Y144662D01*
X25192Y144685D01*
X25658Y144709D01*
X26078Y144732D01*
X26404Y144755D01*
X26871D01*
X27710Y144732D01*
D02*
G37*
G36*
X18220Y112881D02*
X18476Y112857D01*
X18733Y112834D01*
X18919Y112811D01*
X19082Y112787D01*
X19199Y112764D01*
X19222D01*
X19829Y112647D01*
X20108Y112577D01*
X20342Y112507D01*
X20552Y112438D01*
X20715Y112391D01*
X20808Y112368D01*
X20855Y112344D01*
X21437Y112111D01*
X21717Y111995D01*
X21951Y111878D01*
X22137Y111761D01*
X22277Y111691D01*
X22394Y111645D01*
X22417Y111622D01*
X22697Y111458D01*
X22953Y111295D01*
X23210Y111132D01*
X23396Y110969D01*
X23583Y110852D01*
X23699Y110735D01*
X23793Y110666D01*
X23816Y110642D01*
X24306Y110199D01*
X24515Y109989D01*
X24679Y109803D01*
X24842Y109616D01*
X24958Y109476D01*
X25028Y109383D01*
X25052Y109360D01*
X25425Y108823D01*
X25588Y108567D01*
X25728Y108310D01*
X25845Y108101D01*
X25938Y107937D01*
X25984Y107844D01*
X26008Y107797D01*
X26264Y107121D01*
X26381Y106795D01*
X26451Y106515D01*
X26521Y106258D01*
X26567Y106072D01*
X26614Y105932D01*
Y105909D01*
Y105885D01*
X26731Y105116D01*
X26777Y104743D01*
X26800Y104393D01*
X26824Y104090D01*
Y103880D01*
Y103787D01*
Y103717D01*
Y103694D01*
Y103670D01*
Y103554D01*
Y103507D01*
Y103484D01*
Y103391D01*
Y103321D01*
Y103274D01*
Y103251D01*
Y103134D01*
Y103111D01*
Y103087D01*
X26800Y102971D01*
X26777Y102924D01*
Y102901D01*
X27640Y103461D01*
X28479Y104020D01*
X29272Y104556D01*
X30042Y105069D01*
X30788Y105559D01*
X31511Y106025D01*
X32210Y106492D01*
X32886Y106935D01*
X33516Y107354D01*
X34145Y107751D01*
X34728Y108147D01*
X35288Y108520D01*
X35824Y108870D01*
X36314Y109197D01*
X36804Y109500D01*
X37247Y109803D01*
X37666Y110083D01*
X38063Y110339D01*
X38436Y110596D01*
X38786Y110805D01*
X39089Y111015D01*
X39369Y111202D01*
X39648Y111388D01*
X39881Y111528D01*
X40068Y111668D01*
X40255Y111785D01*
X40394Y111878D01*
X40534Y111971D01*
X40628Y112041D01*
X40698Y112065D01*
X40721Y112111D01*
X40744D01*
X41001Y111948D01*
X41187Y111831D01*
X41304Y111761D01*
X41327Y111738D01*
Y111295D01*
Y111085D01*
Y110922D01*
Y110782D01*
Y110689D01*
Y110619D01*
Y110596D01*
Y110246D01*
Y109966D01*
Y109873D01*
Y109779D01*
Y109733D01*
Y109710D01*
Y109290D01*
Y108917D01*
Y108614D01*
Y108380D01*
Y108194D01*
Y108054D01*
Y107984D01*
Y107961D01*
Y107727D01*
Y107471D01*
Y107191D01*
Y106888D01*
Y106632D01*
Y106422D01*
Y106258D01*
Y106235D01*
Y106212D01*
Y105979D01*
Y105746D01*
Y105652D01*
Y105582D01*
Y105536D01*
Y105512D01*
Y105233D01*
Y104953D01*
Y104836D01*
Y104766D01*
Y104696D01*
Y104673D01*
Y104393D01*
Y104113D01*
Y103810D01*
Y103554D01*
Y103321D01*
Y103111D01*
Y102994D01*
Y102971D01*
Y102948D01*
Y102574D01*
Y102178D01*
Y101782D01*
Y101409D01*
Y101105D01*
Y100849D01*
Y100756D01*
Y100686D01*
Y100639D01*
Y100616D01*
Y99963D01*
Y99287D01*
Y98634D01*
Y98004D01*
Y97724D01*
Y97468D01*
Y97235D01*
Y97025D01*
Y96885D01*
Y96745D01*
Y96675D01*
Y96652D01*
Y95766D01*
Y94856D01*
Y93970D01*
Y93527D01*
Y93131D01*
Y92758D01*
Y92408D01*
Y92082D01*
Y91825D01*
Y91615D01*
Y91452D01*
Y91359D01*
Y91312D01*
X41141Y91266D01*
X40954Y91242D01*
X40814Y91219D01*
X40791Y91196D01*
X40767D01*
X40558Y91172D01*
X40371D01*
X40231Y91149D01*
X40185D01*
X39951Y91126D01*
X39765D01*
X39625Y91102D01*
X38599D01*
X38412Y91126D01*
X38086D01*
X37969Y91149D01*
X37876D01*
X37503Y91196D01*
X37317Y91219D01*
X37177Y91242D01*
X37037Y91266D01*
X36944Y91289D01*
X36874Y91312D01*
X36850D01*
Y92105D01*
Y92874D01*
Y93621D01*
Y94343D01*
Y95043D01*
Y95719D01*
Y96372D01*
Y96978D01*
Y97584D01*
Y98144D01*
Y98680D01*
Y99217D01*
Y99706D01*
Y100173D01*
Y100616D01*
Y101035D01*
Y101409D01*
Y101782D01*
Y102131D01*
Y102435D01*
Y102738D01*
Y102994D01*
Y103227D01*
Y103437D01*
Y103647D01*
Y103810D01*
Y103950D01*
Y104043D01*
Y104137D01*
Y104207D01*
Y104230D01*
Y104253D01*
X36034Y103740D01*
X35241Y103227D01*
X34472Y102761D01*
X33749Y102295D01*
X33026Y101828D01*
X32350Y101409D01*
X31674Y100989D01*
X31044Y100569D01*
X30438Y100196D01*
X29855Y99823D01*
X29295Y99473D01*
X28759Y99123D01*
X28270Y98820D01*
X27780Y98517D01*
X27337Y98214D01*
X26894Y97958D01*
X26497Y97701D01*
X26124Y97445D01*
X25775Y97235D01*
X25448Y97025D01*
X25145Y96838D01*
X24889Y96652D01*
X24632Y96512D01*
X24422Y96372D01*
X24212Y96232D01*
X24049Y96139D01*
X23909Y96046D01*
X23793Y95976D01*
X23699Y95906D01*
X23629Y95859D01*
X23606Y95836D01*
X23583D01*
X23466Y95906D01*
X23419Y95952D01*
X23373D01*
X23326Y95999D01*
X23256Y96046D01*
X23163Y96092D01*
X23070Y96162D01*
X22977Y96209D01*
X22930Y96232D01*
X22906Y96256D01*
X22977Y96629D01*
X23046Y96932D01*
X23070Y97072D01*
Y97165D01*
X23093Y97235D01*
Y97258D01*
X23163Y97654D01*
X23186Y97818D01*
X23210Y97981D01*
Y98121D01*
X23233Y98214D01*
Y98284D01*
Y98307D01*
X23256Y98680D01*
Y98984D01*
X23280Y99123D01*
Y99217D01*
Y99287D01*
Y99310D01*
X23303Y99683D01*
Y99870D01*
Y100009D01*
Y100149D01*
Y100243D01*
Y100313D01*
Y100336D01*
X23280Y100942D01*
X23256Y101502D01*
X23186Y102015D01*
X23116Y102458D01*
X23046Y102831D01*
X23023Y102971D01*
X23000Y103111D01*
X22977Y103204D01*
X22953Y103274D01*
X22930Y103321D01*
Y103344D01*
X22767Y103834D01*
X22580Y104277D01*
X22394Y104696D01*
X22207Y105046D01*
X22044Y105326D01*
X21904Y105559D01*
X21811Y105699D01*
X21787Y105746D01*
X21484Y106119D01*
X21181Y106422D01*
X20855Y106678D01*
X20552Y106911D01*
X20295Y107075D01*
X20062Y107191D01*
X19922Y107261D01*
X19899Y107284D01*
X19875D01*
X19432Y107471D01*
X18966Y107588D01*
X18500Y107681D01*
X18080Y107751D01*
X17707Y107797D01*
X17544D01*
X17404Y107821D01*
X16774D01*
X16401Y107797D01*
X16075Y107751D01*
X15795Y107727D01*
X15538Y107681D01*
X15375Y107634D01*
X15259Y107611D01*
X15212D01*
X14909Y107541D01*
X14606Y107448D01*
X14349Y107378D01*
X14116Y107284D01*
X13906Y107191D01*
X13766Y107145D01*
X13673Y107098D01*
X13650Y107075D01*
X13393Y106935D01*
X13137Y106795D01*
X12927Y106632D01*
X12717Y106515D01*
X12577Y106398D01*
X12437Y106305D01*
X12367Y106235D01*
X12344Y106212D01*
X11924Y105839D01*
X11738Y105652D01*
X11598Y105466D01*
X11458Y105326D01*
X11365Y105209D01*
X11318Y105116D01*
X11295Y105093D01*
X10968Y104626D01*
X10828Y104393D01*
X10735Y104183D01*
X10642Y104020D01*
X10572Y103857D01*
X10525Y103764D01*
X10502Y103740D01*
X10292Y103204D01*
X10199Y102948D01*
X10129Y102691D01*
X10059Y102481D01*
X10012Y102318D01*
X9966Y102225D01*
Y102178D01*
X9849Y101549D01*
X9779Y101245D01*
X9756Y100989D01*
X9709Y100756D01*
X9686Y100592D01*
X9662Y100476D01*
Y100429D01*
X9616Y99776D01*
X9592Y99450D01*
Y99170D01*
X9569Y98914D01*
Y98727D01*
Y98610D01*
Y98564D01*
Y98144D01*
X9592Y97748D01*
Y97398D01*
X9616Y97072D01*
X9639Y96792D01*
Y96605D01*
X9662Y96465D01*
Y96442D01*
Y96419D01*
X9709Y96046D01*
X9756Y95696D01*
X9802Y95393D01*
X9849Y95090D01*
X9895Y94856D01*
X9942Y94693D01*
X9966Y94577D01*
Y94530D01*
X10152Y93877D01*
X10222Y93597D01*
X10292Y93341D01*
X10362Y93108D01*
X10409Y92944D01*
X10455Y92851D01*
Y92804D01*
X10665Y92198D01*
X10758Y91918D01*
X10852Y91662D01*
X10921Y91452D01*
X10991Y91289D01*
X11015Y91196D01*
X11038Y91149D01*
X10665Y90939D01*
X10479Y90846D01*
X10339Y90776D01*
X10199Y90706D01*
X10105Y90659D01*
X10035Y90636D01*
X10012Y90613D01*
X9639Y90449D01*
X9452Y90379D01*
X9289Y90310D01*
X9149Y90240D01*
X9056Y90216D01*
X8986Y90170D01*
X8963D01*
X8590Y90030D01*
X8403Y89960D01*
X8240Y89913D01*
X8100Y89867D01*
X7983Y89820D01*
X7914Y89797D01*
X7890D01*
X7494Y89703D01*
X7307Y89680D01*
X7144Y89633D01*
X7004Y89610D01*
X6888D01*
X6818Y89587D01*
X6794D01*
X6491Y90379D01*
X6375Y90753D01*
X6258Y91079D01*
X6165Y91359D01*
X6118Y91592D01*
X6072Y91732D01*
X6048Y91755D01*
Y91779D01*
X5838Y92571D01*
X5745Y92944D01*
X5675Y93294D01*
X5628Y93574D01*
X5582Y93807D01*
X5535Y93947D01*
Y93970D01*
Y93994D01*
X5419Y94810D01*
X5349Y95206D01*
X5325Y95556D01*
X5279Y95836D01*
X5255Y96069D01*
Y96162D01*
X5232Y96232D01*
Y96256D01*
Y96279D01*
X5209Y96722D01*
X5185Y97165D01*
X5162Y97584D01*
Y97958D01*
X5139Y98261D01*
Y98517D01*
Y98610D01*
Y98680D01*
Y98704D01*
Y98727D01*
Y99263D01*
X5162Y99776D01*
X5185Y100266D01*
X5232Y100686D01*
X5255Y101035D01*
Y101175D01*
X5279Y101315D01*
Y101409D01*
X5302Y101479D01*
Y101525D01*
Y101549D01*
X5395Y102061D01*
X5489Y102551D01*
X5582Y102994D01*
X5652Y103391D01*
X5745Y103740D01*
X5815Y103997D01*
X5838Y104090D01*
Y104160D01*
X5862Y104183D01*
Y104207D01*
X6002Y104673D01*
X6165Y105116D01*
X6328Y105536D01*
X6468Y105909D01*
X6608Y106212D01*
X6701Y106445D01*
X6748Y106515D01*
X6771Y106585D01*
X6794Y106608D01*
Y106632D01*
X7004Y107028D01*
X7237Y107424D01*
X7470Y107774D01*
X7680Y108101D01*
X7867Y108357D01*
X8007Y108567D01*
X8123Y108684D01*
X8147Y108730D01*
X8450Y109080D01*
X8753Y109406D01*
X9033Y109686D01*
X9289Y109943D01*
X9523Y110153D01*
X9709Y110316D01*
X9826Y110432D01*
X9872Y110456D01*
X10245Y110712D01*
X10618Y110969D01*
X10991Y111179D01*
X11318Y111388D01*
X11598Y111528D01*
X11831Y111668D01*
X11901Y111715D01*
X11971Y111738D01*
X11994Y111761D01*
X12017D01*
X12460Y111971D01*
X12927Y112135D01*
X13370Y112274D01*
X13766Y112414D01*
X14093Y112507D01*
X14256Y112531D01*
X14372Y112577D01*
X14466Y112601D01*
X14536D01*
X14582Y112624D01*
X14606D01*
X15142Y112717D01*
X15655Y112787D01*
X16168Y112834D01*
X16634Y112881D01*
X17031D01*
X17194Y112904D01*
X17614D01*
X18220Y112881D01*
D02*
G37*
%LPC*%
G36*
X21694Y32623D02*
X21671D01*
Y31294D01*
Y30035D01*
Y28869D01*
Y27796D01*
Y26793D01*
Y25884D01*
Y25068D01*
Y24345D01*
Y23692D01*
Y23133D01*
Y22643D01*
Y22270D01*
Y21967D01*
Y21734D01*
Y21617D01*
Y21570D01*
X22813Y21920D01*
X23909Y22247D01*
X24982Y22550D01*
X26008Y22853D01*
X27010Y23156D01*
X27966Y23436D01*
X28899Y23716D01*
X29785Y23972D01*
X30624Y24229D01*
X31441Y24462D01*
X32210Y24695D01*
X32956Y24928D01*
X33656Y25138D01*
X34332Y25324D01*
X34962Y25511D01*
X35568Y25698D01*
X36127Y25861D01*
X36640Y26024D01*
X37130Y26164D01*
X37596Y26304D01*
X37993Y26420D01*
X38389Y26537D01*
X38716Y26630D01*
X39042Y26724D01*
X39299Y26817D01*
X39532Y26887D01*
X39742Y26933D01*
X39905Y26980D01*
X40021Y27027D01*
X40115Y27050D01*
X40161Y27073D01*
X40185D01*
X39042Y27423D01*
X37946Y27750D01*
X36874Y28076D01*
X35848Y28379D01*
X34845Y28682D01*
X33889Y28962D01*
X32956Y29242D01*
X32070Y29498D01*
X31231Y29755D01*
X30415Y30011D01*
X29645Y30245D01*
X28899Y30454D01*
X28200Y30664D01*
X27523Y30874D01*
X26894Y31061D01*
X26288Y31247D01*
X25728Y31410D01*
X25215Y31574D01*
X24725Y31713D01*
X24282Y31853D01*
X23863Y31970D01*
X23466Y32087D01*
X23140Y32180D01*
X22837Y32273D01*
X22557Y32366D01*
X22324Y32436D01*
X22114Y32483D01*
X21951Y32530D01*
X21834Y32576D01*
X21741Y32599D01*
X21694Y32623D01*
D02*
G37*
G36*
X27523Y139299D02*
X26288D01*
X25588Y139252D01*
X24935Y139229D01*
X24655Y139206D01*
X24376Y139182D01*
X24119Y139159D01*
X23909Y139136D01*
X23723Y139113D01*
X23559Y139089D01*
X23419Y139066D01*
X23326D01*
X23280Y139043D01*
X23256D01*
X22627Y138949D01*
X22044Y138833D01*
X21507Y138716D01*
X21065Y138600D01*
X20691Y138506D01*
X20528Y138460D01*
X20388Y138413D01*
X20295Y138390D01*
X20225Y138366D01*
X20178Y138343D01*
X20155D01*
X19642Y138156D01*
X19176Y137970D01*
X18756Y137760D01*
X18406Y137597D01*
X18103Y137434D01*
X17870Y137294D01*
X17730Y137200D01*
X17707Y137177D01*
X17684D01*
X17287Y136921D01*
X16937Y136641D01*
X16611Y136384D01*
X16331Y136151D01*
X16098Y135941D01*
X15935Y135755D01*
X15841Y135661D01*
X15795Y135615D01*
X15492Y135288D01*
X15235Y134939D01*
X15002Y134612D01*
X14792Y134309D01*
X14629Y134053D01*
X14489Y133866D01*
X14419Y133726D01*
X14396Y133703D01*
Y133680D01*
X14186Y133283D01*
X13999Y132887D01*
X13859Y132490D01*
X13720Y132141D01*
X13626Y131838D01*
X13556Y131604D01*
X13510Y131511D01*
Y131441D01*
X13486Y131418D01*
Y131395D01*
X13370Y130928D01*
X13253Y130462D01*
X13160Y130042D01*
X13090Y129646D01*
X13043Y129296D01*
X12997Y129039D01*
Y128946D01*
X12973Y128876D01*
Y128830D01*
Y128806D01*
X12880Y127804D01*
X12857Y127314D01*
X12833Y126894D01*
X12810Y126521D01*
Y126358D01*
Y126218D01*
Y126102D01*
Y126032D01*
Y125985D01*
Y125962D01*
Y125542D01*
Y125355D01*
X12833Y125192D01*
Y125052D01*
Y124936D01*
Y124866D01*
Y124842D01*
X12857Y124446D01*
Y124259D01*
Y124096D01*
X12880Y123980D01*
Y123863D01*
Y123793D01*
Y123770D01*
X12927Y123373D01*
X12950Y123024D01*
X12973Y122720D01*
X12997Y122464D01*
X13020Y122277D01*
X13043Y122138D01*
Y122044D01*
Y122021D01*
X40837D01*
X40884Y122347D01*
X40907Y122650D01*
X40931Y122767D01*
Y122860D01*
Y122930D01*
Y122954D01*
X40977Y123350D01*
X41001Y123513D01*
Y123677D01*
X41024Y123816D01*
Y123933D01*
Y124003D01*
Y124026D01*
X41047Y124446D01*
Y124609D01*
Y124796D01*
Y124912D01*
Y125029D01*
Y125099D01*
Y125122D01*
Y125495D01*
Y125682D01*
Y125822D01*
Y125938D01*
Y126055D01*
Y126102D01*
Y126125D01*
Y126661D01*
X41024Y127174D01*
X40977Y127640D01*
X40954Y128060D01*
X40907Y128410D01*
X40884Y128573D01*
X40861Y128690D01*
Y128783D01*
X40837Y128853D01*
Y128899D01*
Y128923D01*
X40767Y129412D01*
X40674Y129879D01*
X40581Y130322D01*
X40488Y130695D01*
X40418Y131021D01*
X40348Y131255D01*
X40325Y131348D01*
X40301Y131418D01*
X40278Y131441D01*
Y131464D01*
X40138Y131908D01*
X39975Y132327D01*
X39811Y132724D01*
X39648Y133050D01*
X39508Y133330D01*
X39392Y133540D01*
X39322Y133680D01*
X39299Y133726D01*
X39065Y134099D01*
X38809Y134472D01*
X38552Y134799D01*
X38319Y135079D01*
X38133Y135312D01*
X37969Y135498D01*
X37876Y135592D01*
X37829Y135638D01*
X37503Y135941D01*
X37153Y136244D01*
X36850Y136501D01*
X36547Y136734D01*
X36291Y136921D01*
X36081Y137061D01*
X35941Y137154D01*
X35917Y137177D01*
X35894D01*
X35475Y137434D01*
X35055Y137667D01*
X34635Y137853D01*
X34262Y138017D01*
X33959Y138156D01*
X33702Y138250D01*
X33609Y138296D01*
X33539Y138320D01*
X33493Y138343D01*
X33469D01*
X32956Y138506D01*
X32443Y138646D01*
X31930Y138763D01*
X31487Y138879D01*
X31091Y138949D01*
X30928Y138973D01*
X30788Y138996D01*
X30671Y139019D01*
X30578Y139043D01*
X30508D01*
X29902Y139136D01*
X29295Y139182D01*
X28712Y139229D01*
X28176Y139276D01*
X27710D01*
X27523Y139299D01*
D02*
G37*
%LPD*%
D24*
X126709Y155000D02*
G03*
X126709Y155000I-11709J0D01*
G01*
D27*
X214030Y30250D02*
Y32583D01*
Y31416D01*
X207032D01*
Y30250D01*
Y32583D01*
Y36082D02*
X214030D01*
Y39580D01*
X212863Y40747D01*
X210531D01*
X209364Y39580D01*
Y36082D01*
Y38414D02*
X207032Y40747D01*
X214030Y50077D02*
Y54742D01*
X212863D01*
X208198Y50077D01*
X207032D01*
Y54742D01*
Y64072D02*
X214030D01*
Y67571D01*
X212863Y68738D01*
X210531D01*
X209364Y67571D01*
Y64072D01*
X211697Y71070D02*
X207032D01*
X209364D01*
X210531Y72237D01*
X211697Y73403D01*
Y74569D01*
X207032Y79234D02*
Y81567D01*
X208198Y82733D01*
X210531D01*
X211697Y81567D01*
Y79234D01*
X210531Y78068D01*
X208198D01*
X207032Y79234D01*
X214030Y85066D02*
X207032D01*
Y88565D01*
X208198Y89731D01*
X209364D01*
X210531D01*
X211697Y88565D01*
Y85066D01*
X207032Y95562D02*
Y93230D01*
X208198Y92064D01*
X210531D01*
X211697Y93230D01*
Y95562D01*
X210531Y96729D01*
X209364D01*
Y92064D01*
X211697Y106059D02*
X207032Y108392D01*
X211697Y110724D01*
X207032Y113057D02*
Y115389D01*
Y114223D01*
X214030D01*
X212863Y113057D01*
X207032Y118888D02*
X208198D01*
Y120055D01*
X207032D01*
Y118888D01*
Y128219D02*
X214030D01*
X210531Y124720D01*
Y129385D01*
X200866Y30250D02*
X202032Y31416D01*
Y33749D01*
X200866Y34915D01*
X199700D01*
X198533Y33749D01*
Y32583D01*
Y33749D01*
X197367Y34915D01*
X196201D01*
X195035Y33749D01*
Y31416D01*
X196201Y30250D01*
X200866Y37248D02*
X202032Y38414D01*
Y40747D01*
X200866Y41913D01*
X196201D01*
X195035Y40747D01*
Y38414D01*
X196201Y37248D01*
X200866D01*
X195035Y44246D02*
X199700D01*
Y45412D01*
X198533Y46578D01*
X195035D01*
X198533D01*
X199700Y47744D01*
X198533Y48911D01*
X195035D01*
Y51243D02*
X199700D01*
Y52410D01*
X198533Y53576D01*
X195035D01*
X198533D01*
X199700Y54742D01*
X198533Y55908D01*
X195035D01*
X202032Y69904D02*
Y65239D01*
X198533D01*
Y67571D01*
Y65239D01*
X195035D01*
X199700Y73403D02*
Y75735D01*
X198533Y76902D01*
X195035D01*
Y73403D01*
X196201Y72237D01*
X197367Y73403D01*
Y76902D01*
X195035Y79234D02*
X199700D01*
Y82733D01*
X198533Y83899D01*
X195035D01*
X200866Y97895D02*
X202032Y96729D01*
Y94396D01*
X200866Y93230D01*
X196201D01*
X195035Y94396D01*
Y96729D01*
X196201Y97895D01*
X195035Y101394D02*
Y103726D01*
X196201Y104893D01*
X198533D01*
X199700Y103726D01*
Y101394D01*
X198533Y100228D01*
X196201D01*
X195035Y101394D01*
Y107225D02*
X199700D01*
Y108392D01*
X198533Y109558D01*
X195035D01*
X198533D01*
X199700Y110724D01*
X198533Y111890D01*
X195035D01*
X192702Y114223D02*
X199700D01*
Y117722D01*
X198533Y118888D01*
X196201D01*
X195035Y117722D01*
Y114223D01*
X199700Y122387D02*
Y124720D01*
X198533Y125886D01*
X195035D01*
Y122387D01*
X196201Y121221D01*
X197367Y122387D01*
Y125886D01*
X200866Y129385D02*
X199700D01*
Y128219D01*
Y130551D01*
Y129385D01*
X196201D01*
X195035Y130551D01*
Y134050D02*
Y136383D01*
Y135216D01*
X199700D01*
Y134050D01*
X202032Y139881D02*
X195035D01*
Y143380D01*
X196201Y144547D01*
X197367D01*
X198533D01*
X199700Y143380D01*
Y139881D01*
X195035Y146879D02*
Y149212D01*
Y148046D01*
X202032D01*
Y146879D01*
X195035Y156210D02*
Y153877D01*
X196201Y152711D01*
X198533D01*
X199700Y153877D01*
Y156210D01*
X198533Y157376D01*
X197367D01*
Y152711D01*
M02*
