G04 Layer_Color=8388736*
%FSLAX43Y43*%
%MOMM*%
G71*
G01*
G75*
G04:AMPARAMS|DCode=29|XSize=1.203mm|YSize=1.103mm|CornerRadius=0.214mm|HoleSize=0mm|Usage=FLASHONLY|Rotation=0.000|XOffset=0mm|YOffset=0mm|HoleType=Round|Shape=RoundedRectangle|*
%AMROUNDEDRECTD29*
21,1,1.203,0.675,0,0,0.0*
21,1,0.775,1.103,0,0,0.0*
1,1,0.428,0.388,-0.338*
1,1,0.428,-0.388,-0.338*
1,1,0.428,-0.388,0.338*
1,1,0.428,0.388,0.338*
%
%ADD29ROUNDEDRECTD29*%
G04:AMPARAMS|DCode=30|XSize=1.003mm|YSize=1.003mm|CornerRadius=0.202mm|HoleSize=0mm|Usage=FLASHONLY|Rotation=90.000|XOffset=0mm|YOffset=0mm|HoleType=Round|Shape=RoundedRectangle|*
%AMROUNDEDRECTD30*
21,1,1.003,0.600,0,0,90.0*
21,1,0.600,1.003,0,0,90.0*
1,1,0.403,0.300,0.300*
1,1,0.403,0.300,-0.300*
1,1,0.403,-0.300,-0.300*
1,1,0.403,-0.300,0.300*
%
%ADD30ROUNDEDRECTD30*%
%ADD31O,2.403X0.803*%
%ADD32R,0.903X1.053*%
%ADD33C,4.403*%
%ADD34C,1.473*%
%ADD35C,1.403*%
%ADD36C,1.203*%
%ADD37O,2.203X1.703*%
%ADD38C,0.803*%
D29*
X6000Y16100D02*
D03*
Y14400D02*
D03*
X16000Y7650D02*
D03*
Y9350D02*
D03*
X8000Y10400D02*
D03*
Y12100D02*
D03*
X12100Y9350D02*
D03*
Y7650D02*
D03*
X14000Y9350D02*
D03*
Y7650D02*
D03*
X8000Y6150D02*
D03*
Y7850D02*
D03*
X6000Y6150D02*
D03*
Y7850D02*
D03*
X8000Y14400D02*
D03*
Y16100D02*
D03*
D30*
X6000Y10400D02*
D03*
Y12100D02*
D03*
D31*
X18400Y12095D02*
D03*
Y13365D02*
D03*
Y14635D02*
D03*
Y15905D02*
D03*
X11600Y12095D02*
D03*
Y13365D02*
D03*
Y14635D02*
D03*
Y15905D02*
D03*
D32*
X18000Y7725D02*
D03*
Y9275D02*
D03*
D33*
X3000Y20750D02*
D03*
X27000D02*
D03*
D34*
X8810Y3150D02*
D03*
X7014Y1354D02*
D03*
X18704Y3796D02*
D03*
X20500Y2000D02*
D03*
X22579Y3046D02*
D03*
X24375Y1250D02*
D03*
D35*
X13708Y2215D02*
D03*
Y4715D02*
D03*
D36*
X12960Y11920D02*
D03*
X15500D02*
D03*
Y14460D02*
D03*
X12960Y17000D02*
D03*
X9500Y6250D02*
D03*
D37*
X24250Y14750D02*
D03*
Y12250D02*
D03*
Y9750D02*
D03*
Y7250D02*
D03*
D38*
X6750Y17500D02*
D03*
X9500Y7750D02*
D03*
X9700Y9000D02*
D03*
X20095Y12095D02*
D03*
X14343Y6000D02*
D03*
X12000Y5750D02*
D03*
X16000Y6850D02*
D03*
X20000Y13250D02*
D03*
X14750Y10500D02*
D03*
M02*
