G04 Layer_Color=8388736*
%FSLAX44Y44*%
%MOMM*%
G71*
G01*
G75*
G04:AMPARAMS|DCode=28|XSize=1.0032mm|YSize=1.0032mm|CornerRadius=0.2016mm|HoleSize=0mm|Usage=FLASHONLY|Rotation=270.000|XOffset=0mm|YOffset=0mm|HoleType=Round|Shape=RoundedRectangle|*
%AMROUNDEDRECTD28*
21,1,1.0032,0.6000,0,0,270.0*
21,1,0.6000,1.0032,0,0,270.0*
1,1,0.4032,-0.3000,-0.3000*
1,1,0.4032,-0.3000,0.3000*
1,1,0.4032,0.3000,0.3000*
1,1,0.4032,0.3000,-0.3000*
%
%ADD28ROUNDEDRECTD28*%
%ADD29R,0.9032X1.0532*%
G04:AMPARAMS|DCode=30|XSize=1.2032mm|YSize=1.1032mm|CornerRadius=0.2141mm|HoleSize=0mm|Usage=FLASHONLY|Rotation=180.000|XOffset=0mm|YOffset=0mm|HoleType=Round|Shape=RoundedRectangle|*
%AMROUNDEDRECTD30*
21,1,1.2032,0.6750,0,0,180.0*
21,1,0.7750,1.1032,0,0,180.0*
1,1,0.4282,-0.3875,0.3375*
1,1,0.4282,0.3875,0.3375*
1,1,0.4282,0.3875,-0.3375*
1,1,0.4282,-0.3875,-0.3375*
%
%ADD30ROUNDEDRECTD30*%
%ADD31R,2.0032X1.4032*%
%ADD32R,1.7532X0.8032*%
%ADD33R,2.9032X2.9032*%
%ADD34O,1.0032X0.4532*%
%ADD35O,0.4532X1.0032*%
%ADD36R,2.7032X1.2032*%
%ADD37C,4.4032*%
%ADD38C,1.4732*%
D28*
X20000Y102250D02*
D03*
Y85250D02*
D03*
D29*
X133750Y58500D02*
D03*
Y74000D02*
D03*
D30*
X111250Y57750D02*
D03*
Y74750D02*
D03*
X87500Y57750D02*
D03*
Y74750D02*
D03*
X41250Y144750D02*
D03*
Y127750D02*
D03*
Y102250D02*
D03*
Y85250D02*
D03*
X63750Y74750D02*
D03*
Y57750D02*
D03*
X41250Y58500D02*
D03*
Y41500D02*
D03*
X20000Y127750D02*
D03*
Y144750D02*
D03*
Y41500D02*
D03*
Y58500D02*
D03*
D31*
X210250Y67000D02*
D03*
Y123000D02*
D03*
D32*
X171250Y80000D02*
D03*
Y90000D02*
D03*
Y100000D02*
D03*
Y110000D02*
D03*
D33*
X92500Y126250D02*
D03*
D34*
X112500Y136250D02*
D03*
Y131250D02*
D03*
Y126250D02*
D03*
Y121250D02*
D03*
Y116250D02*
D03*
X72500D02*
D03*
Y121250D02*
D03*
Y126250D02*
D03*
Y131250D02*
D03*
Y136250D02*
D03*
D35*
X102500Y106250D02*
D03*
X97500D02*
D03*
X92500D02*
D03*
X87500D02*
D03*
X82500D02*
D03*
Y146250D02*
D03*
X87500D02*
D03*
X92500D02*
D03*
X97500D02*
D03*
X102500D02*
D03*
D36*
X121750Y15000D02*
D03*
X75750D02*
D03*
D37*
X-10000Y192500D02*
D03*
X230000D02*
D03*
D38*
X48100Y16500D02*
D03*
X30140Y-1461D02*
D03*
X185790Y15461D02*
D03*
X203750Y-2500D02*
D03*
X147039Y22961D02*
D03*
X165000Y5000D02*
D03*
M02*
