M48
;Layer_Color=9474304
;FILE_FORMAT=4:4
METRIC
;TYPE=PLATED
T1F00S00C0.3500
T2F00S00C0.6000
T3F00S00C0.7000
T4F00S00C0.7112
T5F00S00C0.9500
T6F00S00C3.2000
%
T01
X00095000Y00077500
X00097000Y00090000
X00120000Y00057500
X00143430Y00060000
X00160000Y00068500
X00147500Y00105000
X00067500Y00175000
X00200000Y00132500
X00200950Y00120950
T02
X00095000Y00062500
X00129600Y00119200
X00155000
Y00144600
X00129600Y00170000
T03
X00137080Y00022150
Y00047150
T04
X00070139Y00013539
X00088100Y00031500
X00187040Y00037961
X00205000Y00020000
X00225790Y00030461
X00243750Y00012500
T05
X00242500Y00072500
Y00097500
Y00122500
Y00147500
T06
X00030000Y00207500
X00270000
M30
