G04 Layer_Color=65535*
%FSLAX44Y44*%
%MOMM*%
G71*
G01*
G75*
%ADD19C,0.2500*%
%ADD24C,0.2540*%
%ADD25C,0.2000*%
%ADD26C,0.1270*%
%ADD27C,0.1500*%
G36*
X9129Y53671D02*
X9193Y53665D01*
X9269Y53660D01*
X9432Y53631D01*
X9443D01*
X9467Y53625D01*
X9507Y53613D01*
X9560Y53596D01*
X9624Y53578D01*
X9693Y53555D01*
X9839Y53491D01*
X9845Y53485D01*
X9868Y53474D01*
X9909Y53450D01*
X9955Y53427D01*
X10007Y53392D01*
X10066Y53351D01*
X10194Y53264D01*
X10200Y53258D01*
X10223Y53241D01*
X10252Y53212D01*
X10287Y53177D01*
X10333Y53130D01*
X10386Y53078D01*
X10438Y53014D01*
X10490Y52950D01*
X10496Y52944D01*
X10514Y52921D01*
X10537Y52886D01*
X10572Y52839D01*
X10607Y52781D01*
X10647Y52717D01*
X10688Y52642D01*
X10729Y52566D01*
X10735Y52554D01*
X10746Y52531D01*
X10764Y52491D01*
X10793Y52432D01*
X10816Y52368D01*
X10851Y52287D01*
X10880Y52206D01*
X10909Y52112D01*
X10915Y52101D01*
X10921Y52072D01*
X10932Y52019D01*
X10950Y51955D01*
X10973Y51880D01*
X10991Y51792D01*
X11008Y51694D01*
X11025Y51595D01*
Y51583D01*
X11031Y51548D01*
X11037Y51496D01*
X11043Y51426D01*
X11049Y51345D01*
X11055Y51246D01*
X11060Y51141D01*
Y51031D01*
Y51025D01*
Y51019D01*
Y51002D01*
Y50978D01*
Y50920D01*
Y50850D01*
X11055Y50763D01*
Y50670D01*
X11043Y50466D01*
Y50455D01*
X11037Y50420D01*
Y50373D01*
X11025Y50309D01*
X11020Y50234D01*
X11008Y50152D01*
X10979Y49978D01*
Y49966D01*
X10973Y49937D01*
X10961Y49896D01*
X10950Y49838D01*
X10938Y49768D01*
X10921Y49699D01*
X10880Y49542D01*
Y49530D01*
X10874Y49507D01*
X10863Y49466D01*
X10845Y49408D01*
X10828Y49350D01*
X10810Y49280D01*
X10758Y49134D01*
X10735D01*
X10711Y49140D01*
X10676Y49146D01*
X10601Y49152D01*
X10508Y49169D01*
X10502D01*
X10484Y49175D01*
X10461Y49181D01*
X10426Y49187D01*
X10386Y49198D01*
X10345Y49210D01*
X10246Y49239D01*
X10240D01*
X10223Y49245D01*
X10200Y49257D01*
X10170Y49268D01*
X10130Y49280D01*
X10089Y49291D01*
X9996Y49326D01*
X9990D01*
X9973Y49332D01*
X9949Y49344D01*
X9915Y49355D01*
X9880Y49367D01*
X9833Y49384D01*
X9740Y49419D01*
X9746Y49425D01*
X9752Y49448D01*
X9763Y49483D01*
X9781Y49530D01*
X9804Y49582D01*
X9821Y49646D01*
X9868Y49780D01*
Y49786D01*
X9874Y49815D01*
X9885Y49850D01*
X9897Y49896D01*
X9909Y49955D01*
X9926Y50024D01*
X9961Y50170D01*
Y50181D01*
X9967Y50205D01*
X9973Y50245D01*
X9984Y50298D01*
X9990Y50362D01*
X10002Y50426D01*
X10019Y50577D01*
Y50588D01*
Y50612D01*
X10025Y50652D01*
Y50705D01*
X10031Y50769D01*
Y50833D01*
X10037Y50984D01*
Y50990D01*
Y51007D01*
Y51036D01*
Y51071D01*
X10031Y51118D01*
Y51164D01*
X10025Y51263D01*
Y51269D01*
Y51287D01*
X10019Y51316D01*
X10013Y51350D01*
X10007Y51391D01*
X10002Y51438D01*
X9978Y51537D01*
Y51542D01*
X9973Y51560D01*
X9967Y51583D01*
X9955Y51618D01*
X9932Y51694D01*
X9897Y51781D01*
Y51787D01*
X9891Y51798D01*
X9880Y51822D01*
X9868Y51851D01*
X9833Y51920D01*
X9792Y51996D01*
Y52002D01*
X9781Y52014D01*
X9769Y52031D01*
X9752Y52054D01*
X9711Y52112D01*
X9653Y52171D01*
X9647Y52176D01*
X9641Y52182D01*
X9624Y52200D01*
X9600Y52217D01*
X9542Y52264D01*
X9478Y52310D01*
X9472Y52316D01*
X9461Y52322D01*
X9449Y52333D01*
X9426Y52345D01*
X9368Y52374D01*
X9292Y52403D01*
X9286D01*
X9275Y52409D01*
X9251D01*
X9228Y52415D01*
X9158Y52421D01*
X9077Y52427D01*
X8995D01*
X8920Y52421D01*
X8838Y52409D01*
X8833D01*
X8821Y52403D01*
X8803Y52397D01*
X8774Y52392D01*
X8716Y52368D01*
X8658Y52333D01*
X8652D01*
X8646Y52328D01*
X8606Y52304D01*
X8559Y52270D01*
X8507Y52223D01*
X8501D01*
X8495Y52211D01*
X8466Y52182D01*
X8425Y52141D01*
X8379Y52083D01*
Y52077D01*
X8367Y52072D01*
X8361Y52054D01*
X8344Y52031D01*
X8315Y51973D01*
X8274Y51909D01*
Y51903D01*
X8268Y51897D01*
X8257Y51880D01*
X8245Y51856D01*
X8216Y51798D01*
X8181Y51723D01*
Y51717D01*
X8175Y51705D01*
X8164Y51682D01*
X8158Y51659D01*
X8135Y51589D01*
X8105Y51508D01*
Y51502D01*
X8100Y51490D01*
X8088Y51467D01*
X8082Y51432D01*
X8059Y51356D01*
X8030Y51269D01*
Y51263D01*
X8024Y51257D01*
X8012Y51217D01*
X7989Y51164D01*
X7972Y51106D01*
X7948Y51048D01*
X7931Y51002D01*
X7919Y50978D01*
Y50967D01*
X7914Y50961D01*
X7908Y50949D01*
X7902Y50938D01*
X7896Y50914D01*
X7879Y50873D01*
X7861Y50827D01*
Y50821D01*
X7855Y50809D01*
X7844Y50786D01*
X7838Y50763D01*
X7821Y50728D01*
X7803Y50687D01*
X7768Y50594D01*
X7722Y50484D01*
X7663Y50367D01*
X7605Y50251D01*
X7541Y50135D01*
Y50129D01*
X7535Y50123D01*
X7512Y50088D01*
X7477Y50036D01*
X7431Y49966D01*
X7378Y49890D01*
X7320Y49815D01*
X7256Y49734D01*
X7186Y49664D01*
X7175Y49658D01*
X7152Y49635D01*
X7111Y49600D01*
X7059Y49559D01*
X6995Y49512D01*
X6919Y49466D01*
X6832Y49425D01*
X6739Y49384D01*
X6733D01*
X6727Y49379D01*
X6692Y49373D01*
X6646Y49355D01*
X6576Y49344D01*
X6489Y49326D01*
X6395Y49309D01*
X6291Y49303D01*
X6174Y49297D01*
X6099D01*
X6064Y49303D01*
X6017D01*
X5918Y49315D01*
X5796Y49332D01*
X5668Y49361D01*
X5535Y49396D01*
X5407Y49448D01*
X5401D01*
X5389Y49454D01*
X5372Y49466D01*
X5348Y49478D01*
X5284Y49512D01*
X5203Y49565D01*
X5110Y49629D01*
X5011Y49704D01*
X4912Y49797D01*
X4813Y49908D01*
X4807Y49914D01*
X4802Y49920D01*
X4790Y49937D01*
X4773Y49966D01*
X4749Y49995D01*
X4726Y50030D01*
X4674Y50117D01*
X4610Y50228D01*
X4546Y50356D01*
X4488Y50501D01*
X4435Y50664D01*
Y50670D01*
X4429Y50687D01*
X4424Y50711D01*
X4418Y50746D01*
X4406Y50786D01*
X4394Y50839D01*
X4383Y50897D01*
X4371Y50961D01*
X4365Y51036D01*
X4354Y51112D01*
X4342Y51199D01*
X4331Y51292D01*
X4319Y51484D01*
X4313Y51700D01*
Y51705D01*
Y51711D01*
Y51740D01*
Y51792D01*
Y51856D01*
X4319Y51926D01*
Y52014D01*
X4331Y52188D01*
Y52200D01*
X4336Y52229D01*
X4342Y52275D01*
X4348Y52339D01*
X4360Y52409D01*
X4371Y52491D01*
X4400Y52659D01*
Y52671D01*
X4412Y52700D01*
X4418Y52747D01*
X4435Y52805D01*
X4447Y52874D01*
X4464Y52950D01*
X4505Y53101D01*
Y53113D01*
X4517Y53136D01*
X4528Y53177D01*
X4540Y53229D01*
X4557Y53287D01*
X4581Y53351D01*
X4621Y53491D01*
X4645D01*
X4668Y53485D01*
X4703Y53479D01*
X4784Y53468D01*
X4877Y53450D01*
X4883D01*
X4900Y53444D01*
X4924Y53439D01*
X4953Y53433D01*
X4994Y53427D01*
X5034Y53415D01*
X5127Y53392D01*
X5133D01*
X5151Y53386D01*
X5174Y53380D01*
X5203Y53375D01*
X5279Y53346D01*
X5366Y53316D01*
X5372D01*
X5383Y53311D01*
X5407Y53299D01*
X5436Y53293D01*
X5505Y53264D01*
X5587Y53229D01*
Y53223D01*
X5581Y53206D01*
X5569Y53177D01*
X5558Y53136D01*
X5540Y53090D01*
X5523Y53037D01*
X5488Y52921D01*
Y52915D01*
X5482Y52892D01*
X5471Y52857D01*
X5459Y52810D01*
X5447Y52758D01*
X5430Y52700D01*
X5401Y52560D01*
Y52554D01*
X5389Y52525D01*
X5383Y52491D01*
X5372Y52438D01*
X5360Y52380D01*
X5348Y52310D01*
X5325Y52165D01*
Y52153D01*
X5319Y52130D01*
Y52089D01*
X5314Y52037D01*
X5308Y51973D01*
Y51897D01*
X5302Y51822D01*
Y51740D01*
Y51729D01*
Y51700D01*
Y51659D01*
X5308Y51601D01*
X5314Y51531D01*
X5319Y51461D01*
X5343Y51304D01*
Y51292D01*
X5348Y51269D01*
X5360Y51228D01*
X5378Y51176D01*
X5395Y51118D01*
X5412Y51054D01*
X5465Y50914D01*
X5471Y50908D01*
X5482Y50885D01*
X5500Y50856D01*
X5523Y50815D01*
X5558Y50775D01*
X5593Y50728D01*
X5639Y50687D01*
X5692Y50647D01*
X5697Y50641D01*
X5715Y50635D01*
X5750Y50618D01*
X5791Y50600D01*
X5843Y50583D01*
X5901Y50571D01*
X5971Y50559D01*
X6046Y50554D01*
X6087D01*
X6110Y50559D01*
X6174Y50565D01*
X6244Y50577D01*
X6250D01*
X6256Y50583D01*
X6296Y50594D01*
X6349Y50618D01*
X6407Y50647D01*
X6413D01*
X6419Y50652D01*
X6454Y50676D01*
X6500Y50705D01*
X6547Y50746D01*
X6558Y50757D01*
X6587Y50786D01*
X6622Y50827D01*
X6663Y50885D01*
Y50891D01*
X6669Y50897D01*
X6692Y50932D01*
X6727Y50984D01*
X6762Y51042D01*
Y51048D01*
X6768Y51060D01*
X6779Y51077D01*
X6791Y51100D01*
X6814Y51158D01*
X6843Y51228D01*
Y51234D01*
X6849Y51246D01*
X6855Y51263D01*
X6867Y51292D01*
X6890Y51356D01*
X6925Y51432D01*
Y51438D01*
X6931Y51449D01*
X6936Y51473D01*
X6948Y51502D01*
X6971Y51571D01*
X6995Y51653D01*
Y51659D01*
X7000Y51670D01*
X7006Y51694D01*
X7018Y51717D01*
X7041Y51781D01*
X7064Y51856D01*
X7093Y51932D01*
X7117Y51990D01*
X7122Y52014D01*
X7128Y52031D01*
X7134Y52043D01*
Y52054D01*
X7140Y52072D01*
X7152Y52101D01*
X7163Y52147D01*
X7186Y52206D01*
Y52211D01*
X7198Y52229D01*
X7204Y52258D01*
X7221Y52299D01*
X7233Y52339D01*
X7250Y52392D01*
X7291Y52496D01*
Y52502D01*
X7303Y52520D01*
X7314Y52549D01*
X7332Y52584D01*
X7349Y52630D01*
X7373Y52677D01*
X7419Y52776D01*
X7425Y52781D01*
X7431Y52799D01*
X7448Y52828D01*
X7466Y52863D01*
X7518Y52944D01*
X7582Y53032D01*
X7588Y53037D01*
X7599Y53049D01*
X7617Y53072D01*
X7640Y53101D01*
X7698Y53171D01*
X7774Y53247D01*
X7780Y53253D01*
X7791Y53264D01*
X7815Y53282D01*
X7844Y53305D01*
X7914Y53357D01*
X8001Y53415D01*
X8007Y53421D01*
X8024Y53427D01*
X8047Y53444D01*
X8082Y53462D01*
X8123Y53485D01*
X8170Y53508D01*
X8274Y53561D01*
X8280D01*
X8297Y53572D01*
X8332Y53578D01*
X8373Y53596D01*
X8420Y53607D01*
X8478Y53619D01*
X8600Y53642D01*
X8606D01*
X8629Y53648D01*
X8670Y53654D01*
X8716Y53660D01*
X8774Y53665D01*
X8838Y53671D01*
X8908Y53677D01*
X9071D01*
X9129Y53671D01*
D02*
G37*
G36*
X8862Y60040D02*
X8960D01*
X9077Y60029D01*
X9205Y60017D01*
X9333Y60000D01*
X9467Y59977D01*
X9472D01*
X9484Y59971D01*
X9502D01*
X9525Y59965D01*
X9554Y59953D01*
X9595Y59947D01*
X9676Y59924D01*
X9775Y59889D01*
X9885Y59854D01*
X10002Y59814D01*
X10112Y59761D01*
X10118D01*
X10124Y59756D01*
X10141Y59750D01*
X10159Y59738D01*
X10217Y59703D01*
X10287Y59668D01*
X10368Y59616D01*
X10461Y59563D01*
X10554Y59500D01*
X10647Y59436D01*
X10659Y59430D01*
X10688Y59401D01*
X10735Y59360D01*
X10793Y59308D01*
X10857Y59244D01*
X10927Y59174D01*
X11002Y59092D01*
X11078Y59005D01*
X11084Y58994D01*
X11113Y58964D01*
X11148Y58912D01*
X11194Y58848D01*
X11247Y58767D01*
X11305Y58679D01*
X11363Y58580D01*
X11415Y58482D01*
Y58476D01*
X11421Y58470D01*
X11427Y58453D01*
X11438Y58435D01*
X11462Y58377D01*
X11497Y58301D01*
X11531Y58208D01*
X11572Y58103D01*
X11613Y57993D01*
X11648Y57877D01*
Y57871D01*
X11654Y57865D01*
Y57848D01*
X11659Y57824D01*
X11677Y57760D01*
X11700Y57673D01*
X11718Y57574D01*
X11741Y57464D01*
X11764Y57342D01*
X11787Y57214D01*
Y57208D01*
Y57196D01*
X11793Y57179D01*
Y57155D01*
X11799Y57120D01*
Y57086D01*
X11805Y56998D01*
X11817Y56894D01*
X11822Y56771D01*
X11828Y56644D01*
Y56510D01*
Y56504D01*
Y56498D01*
Y56481D01*
Y56457D01*
Y56393D01*
X11822Y56318D01*
Y56225D01*
X11817Y56120D01*
X11811Y56010D01*
X11805Y55899D01*
Y55893D01*
Y55887D01*
X11799Y55870D01*
Y55847D01*
X11793Y55788D01*
X11782Y55719D01*
X11776Y55631D01*
X11758Y55533D01*
X11729Y55329D01*
Y55323D01*
Y55317D01*
X11718Y55283D01*
X11706Y55224D01*
X11694Y55155D01*
X11677Y55067D01*
X11654Y54974D01*
X11601Y54776D01*
Y54771D01*
X11595Y54765D01*
X11584Y54730D01*
X11572Y54672D01*
X11549Y54602D01*
X11520Y54521D01*
X11491Y54427D01*
X11415Y54230D01*
X11409D01*
X11392Y54236D01*
X11363D01*
X11328Y54241D01*
X11287Y54253D01*
X11241Y54259D01*
X11142Y54282D01*
X11136D01*
X11119Y54288D01*
X11089Y54300D01*
X11055Y54311D01*
X11014Y54323D01*
X10967Y54340D01*
X10874Y54375D01*
X10868D01*
X10851Y54387D01*
X10828Y54393D01*
X10793Y54410D01*
X10752Y54427D01*
X10705Y54445D01*
X10612Y54486D01*
X10607Y54491D01*
X10589Y54497D01*
X10566Y54509D01*
X10531Y54526D01*
X10496Y54544D01*
X10450Y54567D01*
X10357Y54619D01*
X10362Y54631D01*
X10368Y54654D01*
X10386Y54695D01*
X10403Y54747D01*
X10426Y54811D01*
X10450Y54881D01*
X10502Y55032D01*
Y55044D01*
X10514Y55067D01*
X10525Y55108D01*
X10543Y55166D01*
X10560Y55230D01*
X10578Y55300D01*
X10624Y55463D01*
Y55474D01*
X10630Y55504D01*
X10641Y55544D01*
X10653Y55602D01*
X10665Y55678D01*
X10676Y55754D01*
X10688Y55841D01*
X10700Y55934D01*
Y55940D01*
Y55946D01*
X10705Y55981D01*
Y56027D01*
X10711Y56097D01*
X10717Y56178D01*
Y56266D01*
X10723Y56364D01*
Y56469D01*
Y56481D01*
Y56510D01*
Y56556D01*
X10717Y56620D01*
Y56690D01*
X10711Y56771D01*
X10700Y56934D01*
Y56946D01*
X10694Y56975D01*
X10688Y57016D01*
X10676Y57074D01*
X10671Y57138D01*
X10653Y57214D01*
X10624Y57371D01*
Y57382D01*
X10612Y57406D01*
X10601Y57446D01*
X10583Y57499D01*
X10566Y57563D01*
X10543Y57627D01*
X10490Y57760D01*
X10484Y57766D01*
X10473Y57789D01*
X10455Y57830D01*
X10432Y57871D01*
X10409Y57923D01*
X10374Y57981D01*
X10293Y58098D01*
X10287Y58103D01*
X10275Y58127D01*
X10252Y58156D01*
X10217Y58191D01*
X10182Y58237D01*
X10136Y58284D01*
X10031Y58377D01*
X10025Y58383D01*
X10007Y58400D01*
X9973Y58424D01*
X9938Y58453D01*
X9885Y58482D01*
X9833Y58522D01*
X9769Y58557D01*
X9705Y58592D01*
X9699Y58598D01*
X9676Y58610D01*
X9641Y58621D01*
X9589Y58644D01*
X9531Y58668D01*
X9467Y58685D01*
X9391Y58709D01*
X9315Y58726D01*
X9304D01*
X9275Y58732D01*
X9234Y58743D01*
X9170Y58755D01*
X9100Y58761D01*
X9019Y58773D01*
X8926Y58778D01*
X8769D01*
X8734Y58773D01*
X8693D01*
X8600Y58761D01*
X8495Y58743D01*
X8379Y58720D01*
X8263Y58691D01*
X8152Y58644D01*
X8146D01*
X8140Y58639D01*
X8105Y58621D01*
X8047Y58592D01*
X7983Y58551D01*
X7908Y58493D01*
X7826Y58429D01*
X7751Y58354D01*
X7675Y58261D01*
X7669Y58249D01*
X7646Y58214D01*
X7611Y58156D01*
X7570Y58086D01*
X7524Y57999D01*
X7477Y57894D01*
X7431Y57784D01*
X7390Y57661D01*
Y57656D01*
X7384Y57644D01*
X7378Y57627D01*
X7373Y57603D01*
X7367Y57568D01*
X7361Y57533D01*
X7344Y57440D01*
X7326Y57330D01*
X7309Y57202D01*
X7303Y57062D01*
X7297Y56911D01*
Y56905D01*
Y56888D01*
Y56865D01*
Y56830D01*
Y56795D01*
Y56748D01*
X7303Y56655D01*
Y56649D01*
Y56632D01*
Y56609D01*
X7309Y56574D01*
Y56498D01*
X7314Y56405D01*
Y56399D01*
Y56382D01*
X7320Y56359D01*
Y56324D01*
X7326Y56283D01*
X7332Y56242D01*
X7349Y56143D01*
Y56137D01*
X7355Y56120D01*
Y56097D01*
X7361Y56062D01*
X7378Y55986D01*
X7396Y55893D01*
X7390Y55887D01*
X7378Y55882D01*
X7355Y55870D01*
X7332Y55852D01*
X7309Y55841D01*
X7291Y55829D01*
X7279Y55818D01*
X7268D01*
X7256Y55806D01*
X7227Y55788D01*
X7221D01*
X7216Y55794D01*
X7198Y55806D01*
X7175Y55823D01*
X7146Y55841D01*
X7111Y55864D01*
X7070Y55887D01*
X7018Y55922D01*
X6965Y55957D01*
X6902Y55992D01*
X6837Y56039D01*
X6762Y56085D01*
X6680Y56137D01*
X6593Y56190D01*
X6500Y56254D01*
X6401Y56318D01*
X6291Y56382D01*
X6180Y56457D01*
X6058Y56533D01*
X5936Y56609D01*
X5802Y56696D01*
X5663Y56783D01*
X5517Y56876D01*
X5366Y56969D01*
X5209Y57074D01*
X5040Y57179D01*
X4872Y57283D01*
X4691Y57400D01*
X4511Y57516D01*
X4319Y57632D01*
X4121Y57760D01*
X3918Y57888D01*
Y57882D01*
Y57877D01*
Y57859D01*
Y57836D01*
Y57813D01*
Y57778D01*
Y57737D01*
Y57685D01*
Y57632D01*
Y57574D01*
Y57510D01*
Y57435D01*
Y57359D01*
Y57272D01*
Y57179D01*
Y57086D01*
Y56981D01*
Y56870D01*
Y56754D01*
Y56632D01*
Y56498D01*
Y56364D01*
Y56225D01*
Y56073D01*
Y55922D01*
Y55760D01*
Y55591D01*
Y55416D01*
Y55236D01*
Y55050D01*
Y54858D01*
Y54660D01*
X3912D01*
X3894Y54654D01*
X3871Y54648D01*
X3836Y54643D01*
X3801Y54637D01*
X3755Y54631D01*
X3662Y54619D01*
X3638D01*
X3609Y54614D01*
X3528D01*
X3481Y54608D01*
X3225D01*
X3191Y54614D01*
X3144D01*
X3086Y54619D01*
X3074D01*
X3039Y54625D01*
X2993D01*
X2940Y54631D01*
X2934D01*
X2929Y54637D01*
X2894Y54643D01*
X2847Y54648D01*
X2801Y54660D01*
Y54672D01*
Y54695D01*
Y54736D01*
Y54788D01*
Y54852D01*
Y54934D01*
Y55021D01*
Y55114D01*
Y55213D01*
Y55323D01*
Y55544D01*
Y55771D01*
Y55992D01*
Y55998D01*
Y56015D01*
Y56050D01*
Y56085D01*
Y56137D01*
Y56196D01*
Y56260D01*
Y56329D01*
Y56487D01*
Y56649D01*
Y56818D01*
Y56981D01*
Y56987D01*
Y56998D01*
Y57016D01*
Y57039D01*
Y57103D01*
Y57179D01*
Y57272D01*
Y57371D01*
Y57470D01*
Y57563D01*
Y57568D01*
Y57574D01*
Y57603D01*
Y57656D01*
Y57714D01*
Y57778D01*
Y57853D01*
Y57923D01*
Y57993D01*
Y57999D01*
Y58016D01*
Y58034D01*
Y58063D01*
Y58133D01*
Y58202D01*
Y58208D01*
Y58220D01*
Y58237D01*
Y58261D01*
Y58319D01*
Y58377D01*
Y58383D01*
Y58389D01*
Y58429D01*
Y58482D01*
Y58546D01*
Y58621D01*
Y58691D01*
Y58755D01*
Y58813D01*
Y58819D01*
Y58836D01*
Y58871D01*
Y58918D01*
Y58976D01*
Y59052D01*
Y59145D01*
Y59249D01*
Y59255D01*
Y59267D01*
Y59290D01*
Y59313D01*
Y59383D01*
Y59470D01*
Y59476D01*
Y59494D01*
Y59517D01*
Y59552D01*
Y59593D01*
Y59645D01*
Y59756D01*
X2807Y59761D01*
X2836Y59779D01*
X2882Y59808D01*
X2946Y59848D01*
X2952D01*
X2958Y59837D01*
X2975Y59831D01*
X2998Y59814D01*
X3033Y59790D01*
X3068Y59767D01*
X3115Y59738D01*
X3161Y59703D01*
X3220Y59668D01*
X3289Y59622D01*
X3359Y59575D01*
X3435Y59523D01*
X3522Y59470D01*
X3615Y59406D01*
X3714Y59342D01*
X3819Y59273D01*
X3929Y59197D01*
X4051Y59121D01*
X4173Y59040D01*
X4307Y58953D01*
X4447Y58860D01*
X4592Y58761D01*
X4749Y58662D01*
X4906Y58557D01*
X5075Y58447D01*
X5250Y58330D01*
X5430Y58214D01*
X5616Y58092D01*
X5808Y57964D01*
X6006Y57830D01*
X6215Y57691D01*
X6430Y57551D01*
Y57557D01*
X6424Y57568D01*
X6419Y57597D01*
Y57603D01*
Y57609D01*
Y57638D01*
Y57644D01*
Y57656D01*
Y57673D01*
Y57696D01*
Y57702D01*
Y57714D01*
Y57743D01*
Y57749D01*
Y57755D01*
Y57772D01*
Y57795D01*
Y57848D01*
X6424Y57923D01*
X6430Y58011D01*
X6442Y58103D01*
X6471Y58295D01*
Y58301D01*
Y58307D01*
X6483Y58342D01*
X6494Y58389D01*
X6512Y58453D01*
X6529Y58522D01*
X6558Y58604D01*
X6622Y58773D01*
X6628Y58784D01*
X6640Y58807D01*
X6663Y58848D01*
X6692Y58900D01*
X6727Y58964D01*
X6768Y59028D01*
X6861Y59162D01*
X6867Y59168D01*
X6884Y59191D01*
X6913Y59226D01*
X6954Y59273D01*
X6995Y59319D01*
X7047Y59372D01*
X7169Y59482D01*
X7175Y59488D01*
X7198Y59505D01*
X7227Y59534D01*
X7274Y59563D01*
X7320Y59604D01*
X7384Y59645D01*
X7448Y59686D01*
X7518Y59726D01*
X7524Y59732D01*
X7553Y59744D01*
X7588Y59761D01*
X7634Y59790D01*
X7692Y59819D01*
X7762Y59848D01*
X7908Y59907D01*
X7919Y59913D01*
X7943Y59918D01*
X7983Y59930D01*
X8036Y59947D01*
X8094Y59965D01*
X8164Y59982D01*
X8315Y60011D01*
X8321D01*
X8350Y60017D01*
X8390Y60023D01*
X8437Y60029D01*
X8501Y60035D01*
X8565Y60040D01*
X8716Y60046D01*
X8821D01*
X8862Y60040D01*
D02*
G37*
G36*
X10909Y42341D02*
Y42335D01*
X10921Y42300D01*
X10927Y42253D01*
X10938Y42189D01*
Y42183D01*
Y42172D01*
Y42154D01*
X10944Y42137D01*
Y42079D01*
X10950Y42009D01*
Y42003D01*
Y41992D01*
Y41974D01*
Y41951D01*
X10956Y41887D01*
Y41823D01*
Y41817D01*
Y41805D01*
Y41788D01*
Y41771D01*
X10961Y41712D01*
Y41643D01*
Y41637D01*
Y41631D01*
Y41590D01*
Y41538D01*
X10956Y41480D01*
Y41474D01*
Y41462D01*
Y41451D01*
Y41427D01*
Y41369D01*
X10950Y41311D01*
Y41305D01*
Y41294D01*
Y41282D01*
X10944Y41259D01*
Y41200D01*
X10938Y41142D01*
Y41136D01*
Y41131D01*
X10932Y41096D01*
X10921Y41044D01*
X10909Y40991D01*
X10903D01*
X10898Y40985D01*
X10880Y40979D01*
X10857Y40974D01*
X10799Y40956D01*
X10723Y40933D01*
X10641Y40910D01*
X10548Y40881D01*
X10455Y40851D01*
X10362Y40822D01*
X10351D01*
X10322Y40811D01*
X10281Y40799D01*
X10223Y40782D01*
X10165Y40764D01*
X10095Y40747D01*
X10025Y40724D01*
X9961Y40700D01*
X9955D01*
X9938Y40694D01*
X9909Y40689D01*
X9874Y40677D01*
X9798Y40654D01*
X9722Y40625D01*
X9717D01*
X9705Y40619D01*
X9688Y40613D01*
X9658Y40607D01*
X9600Y40596D01*
X9542Y40578D01*
X9536D01*
X9531Y40572D01*
X9496Y40567D01*
X9443Y40549D01*
X9385Y40532D01*
X9327Y40514D01*
X9269Y40497D01*
X9228Y40479D01*
X9211D01*
X9199Y40473D01*
X9187Y40468D01*
X9164Y40462D01*
X9135Y40456D01*
X9089Y40438D01*
X9019Y40421D01*
X8978Y40409D01*
X8931Y40392D01*
X8879Y40374D01*
X8821Y40357D01*
Y40351D01*
Y40346D01*
Y40328D01*
Y40305D01*
Y40276D01*
Y40235D01*
Y40194D01*
Y40142D01*
Y40084D01*
Y40020D01*
Y39950D01*
Y39874D01*
Y39787D01*
Y39700D01*
Y39601D01*
Y39496D01*
Y39386D01*
Y39269D01*
Y39147D01*
Y39014D01*
Y38880D01*
Y38734D01*
Y38583D01*
Y38426D01*
Y38257D01*
Y38089D01*
Y37908D01*
Y37728D01*
Y37536D01*
Y37338D01*
Y37129D01*
Y36920D01*
X8827D01*
X8856Y36908D01*
X8897Y36896D01*
X8949Y36879D01*
X9025Y36861D01*
X9118Y36832D01*
X9222Y36803D01*
X9344Y36768D01*
X9484Y36727D01*
X9635Y36681D01*
X9810Y36629D01*
X9996Y36576D01*
X10200Y36518D01*
X10421Y36454D01*
X10659Y36384D01*
X10909Y36309D01*
Y36303D01*
Y36297D01*
X10915Y36280D01*
X10921Y36256D01*
X10927Y36204D01*
X10938Y36140D01*
Y36134D01*
Y36128D01*
X10944Y36088D01*
Y36041D01*
X10950Y35983D01*
Y35977D01*
Y35971D01*
Y35954D01*
Y35931D01*
X10956Y35878D01*
Y35814D01*
Y35808D01*
Y35803D01*
Y35762D01*
X10961Y35710D01*
Y35652D01*
Y35646D01*
Y35634D01*
Y35617D01*
Y35599D01*
Y35541D01*
X10956Y35477D01*
Y35471D01*
Y35459D01*
Y35442D01*
Y35425D01*
Y35366D01*
X10950Y35303D01*
Y35297D01*
Y35291D01*
X10944Y35250D01*
Y35204D01*
X10938Y35145D01*
Y35140D01*
Y35134D01*
X10932Y35099D01*
X10921Y35052D01*
X10909Y35000D01*
X10903D01*
X10892Y35006D01*
X10874Y35012D01*
X10851Y35017D01*
X10816Y35029D01*
X10775Y35041D01*
X10735Y35058D01*
X10682Y35076D01*
X10566Y35110D01*
X10426Y35157D01*
X10275Y35209D01*
X10106Y35262D01*
X9926Y35320D01*
X9734Y35384D01*
X9536Y35448D01*
X9339Y35512D01*
X8931Y35646D01*
X8734Y35710D01*
X8542Y35774D01*
X8536D01*
X8530Y35779D01*
X8495Y35791D01*
X8443Y35803D01*
X8373Y35826D01*
X8280Y35855D01*
X8181Y35890D01*
X8065Y35925D01*
X7937Y35966D01*
X7803Y36012D01*
X7663Y36059D01*
X7367Y36152D01*
X7070Y36251D01*
X6919Y36297D01*
X6779Y36344D01*
X6773D01*
X6756Y36349D01*
X6721Y36361D01*
X6680Y36379D01*
X6628Y36390D01*
X6570Y36413D01*
X6506Y36431D01*
X6430Y36460D01*
X6273Y36507D01*
X6105Y36565D01*
X5924Y36623D01*
X5756Y36675D01*
X5750D01*
X5738Y36681D01*
X5715Y36687D01*
X5680Y36699D01*
X5645Y36710D01*
X5598Y36727D01*
X5494Y36762D01*
X5372Y36803D01*
X5244Y36844D01*
X5116Y36885D01*
X4988Y36925D01*
X4976Y36931D01*
X4953Y36937D01*
X4912Y36949D01*
X4860Y36966D01*
X4802Y36983D01*
X4738Y37007D01*
X4610Y37047D01*
X4604D01*
X4581Y37059D01*
X4552Y37071D01*
X4511Y37082D01*
X4464Y37100D01*
X4418Y37111D01*
X4313Y37146D01*
X4307D01*
X4290Y37152D01*
X4261Y37164D01*
X4232Y37175D01*
X4150Y37199D01*
X4063Y37228D01*
X4057D01*
X4045Y37234D01*
X4022Y37239D01*
X3999Y37245D01*
X3935Y37269D01*
X3871Y37292D01*
X3865D01*
X3859Y37298D01*
X3825Y37309D01*
X3772Y37321D01*
X3702Y37344D01*
X3627Y37367D01*
X3545Y37396D01*
X3464Y37420D01*
X3382Y37449D01*
X3371Y37455D01*
X3342Y37460D01*
X3295Y37478D01*
X3225Y37501D01*
X3138Y37530D01*
X3033Y37565D01*
X2911Y37606D01*
X2766Y37652D01*
X2760D01*
X2737Y37664D01*
X2702Y37676D01*
X2655Y37687D01*
X2597Y37705D01*
X2527Y37728D01*
X2458Y37751D01*
X2376Y37775D01*
X2365Y37780D01*
X2335Y37786D01*
X2289Y37804D01*
X2231Y37827D01*
X2155Y37850D01*
X2068Y37879D01*
X1969Y37908D01*
X1864Y37943D01*
Y37949D01*
Y37955D01*
X1858Y37996D01*
X1847Y38048D01*
X1841Y38112D01*
Y38118D01*
Y38129D01*
Y38147D01*
X1835Y38170D01*
Y38228D01*
X1829Y38298D01*
Y38304D01*
Y38315D01*
Y38333D01*
X1824Y38356D01*
Y38420D01*
Y38490D01*
Y38496D01*
Y38507D01*
Y38525D01*
X1818Y38554D01*
Y38612D01*
Y38682D01*
Y38688D01*
Y38699D01*
Y38717D01*
Y38740D01*
Y38798D01*
X1824Y38862D01*
Y38868D01*
Y38880D01*
Y38897D01*
Y38920D01*
Y38979D01*
X1829Y39048D01*
Y39054D01*
Y39066D01*
Y39083D01*
X1835Y39112D01*
Y39170D01*
X1841Y39240D01*
Y39246D01*
Y39252D01*
X1847Y39269D01*
Y39293D01*
X1853Y39351D01*
X1864Y39415D01*
X1870D01*
X1882Y39421D01*
X1899Y39426D01*
X1922Y39432D01*
X1957Y39444D01*
X1998Y39455D01*
X2039Y39473D01*
X2091Y39490D01*
X2213Y39525D01*
X2347Y39572D01*
X2504Y39618D01*
X2673Y39677D01*
X2853Y39735D01*
X3039Y39793D01*
X3237Y39857D01*
X3441Y39921D01*
X3842Y40055D01*
X4045Y40119D01*
X4238Y40183D01*
X4249Y40188D01*
X4284Y40200D01*
X4336Y40212D01*
X4406Y40235D01*
X4493Y40264D01*
X4598Y40299D01*
X4709Y40334D01*
X4837Y40374D01*
X4970Y40421D01*
X5110Y40468D01*
X5407Y40561D01*
X5703Y40660D01*
X5849Y40706D01*
X5994Y40753D01*
X6000D01*
X6017Y40758D01*
X6052Y40770D01*
X6093Y40788D01*
X6145Y40799D01*
X6204Y40822D01*
X6267Y40846D01*
X6343Y40869D01*
X6506Y40921D01*
X6675Y40974D01*
X6855Y41032D01*
X7024Y41090D01*
X7029D01*
X7041Y41096D01*
X7064Y41102D01*
X7099Y41113D01*
X7134Y41125D01*
X7181Y41142D01*
X7285Y41171D01*
X7408Y41212D01*
X7535Y41253D01*
X7663Y41294D01*
X7791Y41334D01*
X7803Y41340D01*
X7826Y41346D01*
X7867Y41357D01*
X7914Y41375D01*
X7972Y41392D01*
X8036Y41416D01*
X8164Y41456D01*
X8170D01*
X8193Y41468D01*
X8222Y41480D01*
X8263Y41491D01*
X8309Y41509D01*
X8361Y41520D01*
X8466Y41555D01*
X8472D01*
X8489Y41561D01*
X8513Y41573D01*
X8548Y41579D01*
X8623Y41608D01*
X8710Y41637D01*
X8716D01*
X8728Y41643D01*
X8751Y41648D01*
X8774Y41660D01*
X8838Y41677D01*
X8908Y41695D01*
X8914D01*
X8920Y41701D01*
X8955Y41712D01*
X9007Y41730D01*
X9071Y41753D01*
X9153Y41776D01*
X9234Y41805D01*
X9315Y41829D01*
X9397Y41858D01*
X9408Y41864D01*
X9438Y41869D01*
X9484Y41887D01*
X9548Y41910D01*
X9635Y41933D01*
X9740Y41968D01*
X9862Y42015D01*
X10007Y42061D01*
X10013D01*
X10037Y42073D01*
X10072Y42085D01*
X10124Y42096D01*
X10182Y42114D01*
X10246Y42137D01*
X10322Y42160D01*
X10403Y42183D01*
X10415Y42189D01*
X10444Y42195D01*
X10490Y42213D01*
X10548Y42230D01*
X10624Y42253D01*
X10711Y42282D01*
X10804Y42312D01*
X10909Y42346D01*
Y42341D01*
D02*
G37*
G36*
X10711Y48186D02*
X10723Y48157D01*
X10735Y48116D01*
X10746Y48058D01*
X10764Y47983D01*
X10787Y47901D01*
X10810Y47814D01*
X10833Y47721D01*
Y47709D01*
X10845Y47674D01*
X10857Y47622D01*
X10868Y47546D01*
X10886Y47465D01*
X10909Y47366D01*
X10927Y47261D01*
X10950Y47145D01*
Y47139D01*
Y47133D01*
X10956Y47116D01*
Y47093D01*
X10967Y47035D01*
X10979Y46953D01*
X10996Y46860D01*
X11008Y46755D01*
X11025Y46645D01*
X11037Y46529D01*
Y46523D01*
Y46517D01*
Y46499D01*
X11043Y46476D01*
Y46412D01*
X11049Y46331D01*
X11055Y46232D01*
Y46127D01*
X11060Y46011D01*
Y45889D01*
Y45883D01*
Y45877D01*
Y45860D01*
Y45836D01*
Y45778D01*
X11055Y45697D01*
Y45604D01*
X11049Y45505D01*
X11043Y45394D01*
X11037Y45284D01*
Y45278D01*
Y45272D01*
X11031Y45255D01*
Y45237D01*
X11025Y45179D01*
X11014Y45109D01*
X11002Y45022D01*
X10991Y44923D01*
X10973Y44824D01*
X10956Y44720D01*
Y44708D01*
X10944Y44673D01*
X10932Y44621D01*
X10915Y44557D01*
X10892Y44475D01*
X10863Y44388D01*
X10793Y44202D01*
X10787Y44190D01*
X10775Y44161D01*
X10746Y44115D01*
X10717Y44057D01*
X10676Y43987D01*
X10630Y43911D01*
X10578Y43835D01*
X10519Y43754D01*
X10514Y43742D01*
X10490Y43719D01*
X10455Y43678D01*
X10409Y43632D01*
X10351Y43574D01*
X10281Y43516D01*
X10205Y43451D01*
X10124Y43387D01*
X10112Y43382D01*
X10083Y43358D01*
X10037Y43329D01*
X9973Y43289D01*
X9897Y43242D01*
X9810Y43196D01*
X9705Y43149D01*
X9600Y43102D01*
X9595D01*
X9589Y43097D01*
X9571Y43091D01*
X9548Y43085D01*
X9484Y43062D01*
X9403Y43039D01*
X9304Y43010D01*
X9187Y42980D01*
X9054Y42951D01*
X8914Y42928D01*
X8897D01*
X8873Y42922D01*
X8844Y42916D01*
X8809Y42911D01*
X8769D01*
X8716Y42905D01*
X8658Y42899D01*
X8530Y42887D01*
X8385Y42876D01*
X8222Y42870D01*
X8041Y42864D01*
X4459D01*
Y42870D01*
Y42881D01*
X4453Y42911D01*
X4447Y42945D01*
Y42986D01*
X4441Y43039D01*
X4429Y43102D01*
X4424Y43178D01*
Y43184D01*
Y43196D01*
Y43213D01*
X4418Y43236D01*
Y43289D01*
Y43341D01*
Y43347D01*
Y43353D01*
X4412Y43387D01*
X4406Y43434D01*
Y43481D01*
Y43486D01*
Y43492D01*
Y43527D01*
X4412Y43574D01*
X4418Y43626D01*
Y43632D01*
Y43638D01*
Y43655D01*
Y43678D01*
Y43737D01*
X4424Y43801D01*
Y43806D01*
Y43812D01*
X4429Y43853D01*
Y43905D01*
X4435Y43963D01*
Y43969D01*
Y43975D01*
X4441Y44010D01*
X4447Y44057D01*
X4459Y44115D01*
X8100D01*
X8175Y44120D01*
X8263D01*
X8356Y44126D01*
X8548Y44138D01*
X8559D01*
X8588Y44144D01*
X8635Y44149D01*
X8693Y44161D01*
X8763Y44173D01*
X8838Y44184D01*
X8990Y44225D01*
X9001D01*
X9025Y44237D01*
X9059Y44248D01*
X9112Y44260D01*
X9164Y44283D01*
X9222Y44307D01*
X9344Y44365D01*
X9350Y44370D01*
X9368Y44382D01*
X9397Y44400D01*
X9438Y44423D01*
X9525Y44487D01*
X9618Y44563D01*
X9624Y44568D01*
X9635Y44586D01*
X9658Y44609D01*
X9682Y44638D01*
X9711Y44673D01*
X9740Y44720D01*
X9804Y44813D01*
X9810Y44818D01*
X9816Y44836D01*
X9833Y44865D01*
X9851Y44906D01*
X9868Y44952D01*
X9891Y45005D01*
X9926Y45121D01*
Y45127D01*
X9932Y45150D01*
X9944Y45179D01*
X9949Y45226D01*
X9961Y45278D01*
X9973Y45336D01*
X9984Y45400D01*
X9996Y45470D01*
Y45482D01*
Y45505D01*
X10002Y45540D01*
Y45592D01*
X10007Y45650D01*
Y45720D01*
X10013Y45871D01*
Y45877D01*
Y45889D01*
Y45906D01*
Y45929D01*
Y45988D01*
X10007Y46069D01*
Y46162D01*
X10002Y46261D01*
X9984Y46465D01*
Y46470D01*
Y46476D01*
X9978Y46511D01*
X9967Y46563D01*
X9955Y46633D01*
X9944Y46709D01*
X9926Y46796D01*
X9880Y46971D01*
X4459D01*
Y46976D01*
Y46982D01*
X4453Y47011D01*
X4441Y47058D01*
X4435Y47116D01*
Y47122D01*
Y47128D01*
X4429Y47162D01*
Y47215D01*
X4424Y47279D01*
Y47285D01*
Y47291D01*
X4418Y47331D01*
Y47378D01*
Y47436D01*
Y47442D01*
Y47448D01*
X4412Y47482D01*
X4406Y47529D01*
Y47587D01*
Y47593D01*
Y47599D01*
Y47634D01*
X4412Y47680D01*
X4418Y47733D01*
Y47738D01*
Y47744D01*
Y47779D01*
Y47831D01*
X4424Y47890D01*
Y47895D01*
Y47907D01*
Y47919D01*
X4429Y47942D01*
Y47994D01*
X4435Y48053D01*
Y48058D01*
Y48064D01*
X4441Y48099D01*
X4447Y48145D01*
X4459Y48198D01*
X10711D01*
Y48186D01*
D02*
G37*
G36*
X89750Y6556D02*
Y-9000D01*
X87750Y-8000D01*
X83750Y-7000D01*
X77750Y-1000D01*
X77750Y0D01*
X75750Y2000D01*
Y4000D01*
X74084Y5666D01*
Y6778D01*
X89528D01*
X89750Y6556D01*
D02*
G37*
G36*
Y23444D02*
X89528Y23222D01*
X74084D01*
Y24334D01*
X75750Y26000D01*
Y28000D01*
X77750Y30000D01*
X77750Y31000D01*
X83750Y37000D01*
X87750Y38000D01*
X89750Y39000D01*
Y23444D01*
D02*
G37*
G36*
X6605Y67986D02*
X6709Y67980D01*
X6826Y67974D01*
X6960Y67969D01*
X7105Y67957D01*
X7262Y67939D01*
X7431Y67916D01*
X7599Y67893D01*
X7774Y67864D01*
X7948Y67829D01*
X8123Y67788D01*
X8297Y67742D01*
X8466Y67689D01*
X8478Y67684D01*
X8507Y67678D01*
X8553Y67660D01*
X8612Y67631D01*
X8687Y67602D01*
X8774Y67561D01*
X8873Y67515D01*
X8978Y67463D01*
X9089Y67404D01*
X9205Y67334D01*
X9327Y67259D01*
X9449Y67177D01*
X9571Y67090D01*
X9688Y66997D01*
X9804Y66892D01*
X9915Y66782D01*
X9920Y66776D01*
X9938Y66753D01*
X9967Y66724D01*
X10007Y66677D01*
X10054Y66619D01*
X10112Y66549D01*
X10170Y66468D01*
X10240Y66375D01*
X10304Y66270D01*
X10380Y66160D01*
X10450Y66037D01*
X10519Y65904D01*
X10589Y65764D01*
X10659Y65613D01*
X10717Y65456D01*
X10775Y65293D01*
X10781Y65281D01*
X10787Y65252D01*
X10799Y65200D01*
X10822Y65136D01*
X10839Y65049D01*
X10863Y64944D01*
X10892Y64827D01*
X10915Y64694D01*
X10944Y64548D01*
X10967Y64385D01*
X10996Y64217D01*
X11014Y64031D01*
X11031Y63839D01*
X11049Y63635D01*
X11055Y63426D01*
X11060Y63205D01*
Y63199D01*
Y63193D01*
Y63176D01*
Y63152D01*
Y63094D01*
Y63019D01*
Y62931D01*
Y62832D01*
X11055Y62728D01*
Y62617D01*
Y62611D01*
Y62606D01*
Y62588D01*
Y62565D01*
X11049Y62507D01*
X11043Y62431D01*
X11037Y62344D01*
X11031Y62245D01*
X11025Y62140D01*
X11014Y62036D01*
Y62030D01*
Y62024D01*
Y62007D01*
X11008Y61989D01*
X11002Y61931D01*
X10996Y61861D01*
X10991Y61780D01*
X10985Y61687D01*
X10967Y61500D01*
Y61489D01*
X10961Y61460D01*
X10956Y61407D01*
X10950Y61349D01*
X10944Y61274D01*
X10932Y61198D01*
X10909Y61035D01*
X1864D01*
Y61041D01*
Y61047D01*
Y61064D01*
Y61070D01*
Y61093D01*
Y61105D01*
X1858Y61134D01*
X1853Y61181D01*
X1847Y61239D01*
X1841Y61314D01*
X1835Y61390D01*
X1818Y61559D01*
Y61570D01*
X1812Y61599D01*
X1806Y61646D01*
X1800Y61704D01*
X1795Y61780D01*
X1789Y61867D01*
X1777Y61966D01*
X1771Y62070D01*
Y62076D01*
Y62082D01*
Y62099D01*
X1765Y62123D01*
Y62181D01*
X1760Y62262D01*
X1754Y62350D01*
X1748Y62454D01*
X1742Y62565D01*
X1736Y62675D01*
Y62681D01*
Y62687D01*
Y62705D01*
Y62728D01*
Y62780D01*
X1731Y62856D01*
Y62943D01*
Y63042D01*
Y63147D01*
Y63257D01*
Y63263D01*
Y63269D01*
Y63286D01*
Y63309D01*
Y63338D01*
Y63373D01*
X1736Y63455D01*
X1742Y63559D01*
X1748Y63682D01*
X1754Y63815D01*
X1765Y63961D01*
X1783Y64118D01*
X1806Y64287D01*
X1829Y64455D01*
X1858Y64636D01*
X1893Y64810D01*
X1934Y64990D01*
X1981Y65165D01*
X2033Y65334D01*
X2039Y65345D01*
X2045Y65374D01*
X2062Y65421D01*
X2091Y65479D01*
X2120Y65555D01*
X2161Y65648D01*
X2202Y65741D01*
X2254Y65851D01*
X2318Y65962D01*
X2382Y66084D01*
X2458Y66206D01*
X2539Y66328D01*
X2626Y66456D01*
X2719Y66578D01*
X2824Y66695D01*
X2934Y66811D01*
X2940Y66817D01*
X2964Y66834D01*
X2998Y66869D01*
X3045Y66910D01*
X3103Y66956D01*
X3173Y67015D01*
X3255Y67073D01*
X3347Y67143D01*
X3452Y67212D01*
X3563Y67288D01*
X3685Y67358D01*
X3813Y67433D01*
X3952Y67503D01*
X4098Y67573D01*
X4249Y67637D01*
X4406Y67695D01*
X4418Y67701D01*
X4447Y67707D01*
X4493Y67724D01*
X4557Y67742D01*
X4639Y67765D01*
X4738Y67788D01*
X4854Y67817D01*
X4982Y67846D01*
X5122Y67870D01*
X5273Y67899D01*
X5441Y67922D01*
X5616Y67945D01*
X5802Y67963D01*
X5994Y67980D01*
X6198Y67986D01*
X6407Y67992D01*
X6523D01*
X6605Y67986D01*
D02*
G37*
%LPC*%
G36*
X7704Y40020D02*
X7698D01*
X7687Y40014D01*
X7663Y40008D01*
X7634Y39997D01*
X7594Y39985D01*
X7541Y39973D01*
X7483Y39956D01*
X7413Y39932D01*
X7338Y39909D01*
X7256Y39886D01*
X7157Y39857D01*
X7053Y39828D01*
X6942Y39793D01*
X6820Y39758D01*
X6692Y39717D01*
X6553Y39677D01*
X6401Y39630D01*
X6244Y39583D01*
X6076Y39531D01*
X5901Y39479D01*
X5715Y39426D01*
X5523Y39368D01*
X5319Y39304D01*
X5110Y39240D01*
X4889Y39176D01*
X4656Y39107D01*
X4418Y39037D01*
X4168Y38961D01*
X3912Y38886D01*
X3644Y38804D01*
X3371Y38723D01*
X3086Y38635D01*
X3092D01*
X3103Y38630D01*
X3126Y38624D01*
X3156Y38612D01*
X3196Y38600D01*
X3249Y38589D01*
X3307Y38571D01*
X3371Y38548D01*
X3452Y38525D01*
X3534Y38502D01*
X3632Y38472D01*
X3731Y38443D01*
X3848Y38409D01*
X3970Y38374D01*
X4098Y38333D01*
X4238Y38292D01*
X4389Y38246D01*
X4546Y38199D01*
X4714Y38153D01*
X4889Y38100D01*
X5075Y38042D01*
X5267Y37984D01*
X5471Y37926D01*
X5680Y37862D01*
X5901Y37798D01*
X6134Y37728D01*
X6372Y37658D01*
X6622Y37583D01*
X6878Y37507D01*
X7146Y37431D01*
X7419Y37350D01*
X7704Y37263D01*
Y37274D01*
Y37303D01*
Y37362D01*
Y37437D01*
Y37530D01*
Y37652D01*
Y37792D01*
Y37955D01*
Y38135D01*
Y38339D01*
Y38566D01*
Y38816D01*
Y39083D01*
Y39374D01*
Y39688D01*
Y40020D01*
D02*
G37*
G36*
X6553Y66631D02*
X6244D01*
X6198Y66625D01*
X6081D01*
X5947Y66613D01*
X5802Y66602D01*
X5651Y66590D01*
X5500Y66567D01*
X5482D01*
X5459Y66561D01*
X5430Y66555D01*
X5395Y66549D01*
X5354Y66543D01*
X5255Y66526D01*
X5145Y66497D01*
X5017Y66468D01*
X4889Y66433D01*
X4761Y66392D01*
X4755D01*
X4744Y66386D01*
X4726Y66381D01*
X4703Y66369D01*
X4639Y66346D01*
X4563Y66311D01*
X4470Y66270D01*
X4365Y66224D01*
X4261Y66165D01*
X4156Y66101D01*
X4150D01*
X4144Y66095D01*
X4110Y66072D01*
X4057Y66037D01*
X3993Y65991D01*
X3918Y65933D01*
X3842Y65869D01*
X3755Y65793D01*
X3673Y65718D01*
X3662Y65706D01*
X3638Y65683D01*
X3598Y65636D01*
X3551Y65578D01*
X3493Y65508D01*
X3429Y65427D01*
X3365Y65334D01*
X3307Y65241D01*
X3301Y65229D01*
X3284Y65194D01*
X3255Y65142D01*
X3220Y65072D01*
X3179Y64990D01*
X3138Y64892D01*
X3097Y64787D01*
X3063Y64676D01*
Y64671D01*
X3057Y64665D01*
X3051Y64647D01*
X3045Y64624D01*
X3028Y64566D01*
X3010Y64484D01*
X2987Y64391D01*
X2964Y64281D01*
X2940Y64164D01*
X2923Y64042D01*
Y64036D01*
Y64025D01*
X2917Y64007D01*
Y63984D01*
X2911Y63955D01*
X2905Y63914D01*
X2894Y63827D01*
X2888Y63722D01*
X2876Y63606D01*
X2871Y63478D01*
Y63344D01*
Y63338D01*
Y63327D01*
Y63298D01*
Y63269D01*
Y63234D01*
Y63187D01*
Y63094D01*
Y63088D01*
Y63071D01*
Y63042D01*
Y63013D01*
Y62966D01*
Y62926D01*
X2876Y62821D01*
Y62815D01*
Y62797D01*
Y62769D01*
X2882Y62734D01*
Y62693D01*
X2888Y62652D01*
X2900Y62553D01*
Y62547D01*
Y62530D01*
Y62507D01*
X2905Y62478D01*
X2911Y62402D01*
X2923Y62321D01*
X9856D01*
Y62326D01*
Y62350D01*
X9862Y62385D01*
X9868Y62431D01*
X9874Y62495D01*
X9880Y62571D01*
X9885Y62658D01*
X9897Y62757D01*
Y62763D01*
Y62780D01*
Y62809D01*
X9903Y62838D01*
Y62879D01*
Y62926D01*
X9909Y63024D01*
Y63030D01*
Y63048D01*
Y63077D01*
Y63112D01*
X9915Y63152D01*
Y63199D01*
Y63304D01*
Y63309D01*
Y63321D01*
Y63338D01*
Y63368D01*
Y63403D01*
Y63443D01*
X9909Y63536D01*
X9903Y63641D01*
X9897Y63763D01*
X9874Y64013D01*
Y64019D01*
Y64031D01*
X9868Y64048D01*
Y64071D01*
X9856Y64135D01*
X9845Y64223D01*
X9827Y64321D01*
X9804Y64426D01*
X9775Y64542D01*
X9746Y64659D01*
Y64665D01*
X9740Y64671D01*
Y64688D01*
X9728Y64711D01*
X9711Y64769D01*
X9688Y64845D01*
X9653Y64932D01*
X9618Y65031D01*
X9571Y65130D01*
X9519Y65229D01*
Y65235D01*
X9513Y65241D01*
X9496Y65275D01*
X9461Y65322D01*
X9420Y65386D01*
X9368Y65462D01*
X9309Y65543D01*
X9245Y65630D01*
X9170Y65712D01*
X9158Y65723D01*
X9135Y65747D01*
X9094Y65793D01*
X9036Y65845D01*
X8966Y65904D01*
X8885Y65968D01*
X8798Y66037D01*
X8699Y66101D01*
X8693D01*
X8687Y66107D01*
X8652Y66130D01*
X8594Y66165D01*
X8518Y66206D01*
X8431Y66247D01*
X8327Y66299D01*
X8210Y66346D01*
X8082Y66392D01*
X8076D01*
X8065Y66398D01*
X8047Y66404D01*
X8024Y66410D01*
X7989Y66421D01*
X7948Y66433D01*
X7855Y66456D01*
X7745Y66485D01*
X7611Y66514D01*
X7466Y66543D01*
X7309Y66567D01*
X7303D01*
X7291Y66572D01*
X7268D01*
X7233Y66578D01*
X7192Y66584D01*
X7146Y66590D01*
X7093Y66596D01*
X7029Y66602D01*
X6960Y66607D01*
X6890Y66613D01*
X6727Y66619D01*
X6553Y66631D01*
D02*
G37*
%LPD*%
D19*
X121250Y147500D02*
G03*
X121250Y147500I-1250J0D01*
G01*
D24*
X41545Y-6219D02*
G03*
X52859Y5094I5657J5657D01*
G01*
X181031Y4055D02*
G03*
X192344Y-7259I5657J-5657D01*
G01*
X142281Y11555D02*
G03*
X153594Y241I5657J-5657D01*
G01*
X16521Y-711D02*
X47280Y30048D01*
X61648Y15680D01*
X30889Y-15079D02*
X61648Y15680D01*
X16521Y-711D02*
X30889Y-15079D01*
X196849Y4401D02*
X198447Y2803D01*
X191376Y9874D02*
X192260Y8990D01*
X172171Y14711D02*
X186539Y29079D01*
X172171Y14711D02*
X202930Y-16048D01*
X217298Y-1680D01*
X186539Y29079D02*
X217298Y-1680D01*
X192358Y-89D02*
X196849Y4401D01*
X192358Y8892D02*
X201339D01*
X192358Y-89D02*
Y8892D01*
X196849Y4401D02*
X201339Y8892D01*
X188766Y5300D02*
X195951Y12484D01*
X158099Y11901D02*
X159697Y10303D01*
X152626Y17374D02*
X153510Y16490D01*
X133421Y22211D02*
X147789Y36579D01*
X133421Y22211D02*
X164180Y-8548D01*
X178548Y5820D01*
X147789Y36579D02*
X178548Y5820D01*
X153609Y7411D02*
X158099Y11901D01*
X153609Y16392D02*
X162589D01*
X153609Y7411D02*
Y16392D01*
X158099Y11901D02*
X162589Y16392D01*
X150016Y12800D02*
X157201Y19984D01*
D25*
X123416Y23222D02*
G03*
X74084Y23222I-24666J-8222D01*
G01*
Y6778D02*
G03*
X123416Y6778I24666J8222D01*
G01*
X107750Y148500D02*
X114750Y141500D01*
X107750Y148500D02*
X114750D01*
Y141500D02*
Y148500D01*
X70250D02*
X77250D01*
X70250Y141500D02*
Y148500D01*
Y104000D02*
X77250D01*
X70250D02*
Y111000D01*
X107750Y104000D02*
X114750D01*
Y111000D01*
X71750Y30000D02*
Y40000D01*
X74084Y23222D02*
X89528D01*
X89750Y23444D01*
Y39000D01*
X74084Y6778D02*
X89528D01*
X89750Y-9000D02*
Y6556D01*
D26*
X24750Y78250D02*
X26750Y80250D01*
X15250Y78250D02*
X24750D01*
X23500Y77000D02*
X25250Y78750D01*
X15000Y78500D02*
X16500Y77000D01*
X13250Y80250D02*
X15250Y78250D01*
X13250Y80250D02*
Y89250D01*
X26750Y80250D02*
Y89250D01*
X13250Y109250D02*
X26750D01*
X13250Y98250D02*
Y109250D01*
X26750Y98250D02*
Y109250D01*
X16500Y77000D02*
X23500D01*
X107186Y64726D02*
Y67774D01*
X115314Y64726D02*
Y67774D01*
X83436Y64726D02*
Y67774D01*
X91564Y64726D02*
Y67774D01*
X45314Y134726D02*
Y137774D01*
X37186Y134726D02*
Y137774D01*
X36488Y91972D02*
X46012D01*
X36488Y95528D02*
X46012D01*
X67814Y64726D02*
Y67774D01*
X59686Y64726D02*
Y67774D01*
X45314Y48476D02*
Y51524D01*
X37186Y48476D02*
Y51524D01*
X15936Y134726D02*
Y137774D01*
X24064Y134726D02*
Y137774D01*
X15238Y51778D02*
X24762D01*
X15238Y48222D02*
X24762D01*
D27*
X4002Y83750D02*
X10000D01*
Y87749D01*
X4002Y93747D02*
Y89748D01*
X10000D01*
Y93747D01*
X7001Y89748D02*
Y91747D01*
X4002Y95746D02*
X10000D01*
Y98745D01*
X9000Y99745D01*
X5002D01*
X4002Y98745D01*
Y95746D01*
X10000Y101744D02*
Y103743D01*
Y102744D01*
X4002D01*
X5002Y101744D01*
X130000Y89748D02*
Y83750D01*
X133999D01*
X135998D02*
X137997D01*
X136998D01*
Y89748D01*
X135998Y88748D01*
X106250Y83750D02*
Y89748D01*
X109249D01*
X110249Y88748D01*
Y86749D01*
X109249Y85749D01*
X106250D01*
X108249D02*
X110249Y83750D01*
X116247Y89748D02*
X114247Y88748D01*
X112248Y86749D01*
Y84750D01*
X113248Y83750D01*
X115247D01*
X116247Y84750D01*
Y85749D01*
X115247Y86749D01*
X112248D01*
X82500Y83750D02*
Y89748D01*
X85499D01*
X86499Y88748D01*
Y86749D01*
X85499Y85749D01*
X82500D01*
X84499D02*
X86499Y83750D01*
X92497Y89748D02*
X88498D01*
Y86749D01*
X90497Y87749D01*
X91497D01*
X92497Y86749D01*
Y84750D01*
X91497Y83750D01*
X89498D01*
X88498Y84750D01*
X36250Y153750D02*
Y159748D01*
X39249D01*
X40249Y158748D01*
Y156749D01*
X39249Y155749D01*
X36250D01*
X38249D02*
X40249Y153750D01*
X46247D02*
X42248D01*
X46247Y157749D01*
Y158748D01*
X45247Y159748D01*
X43248D01*
X42248Y158748D01*
X143750Y77500D02*
Y81499D01*
X145749Y83498D01*
X147749Y81499D01*
Y77500D01*
Y80499D01*
X143750D01*
X149748Y77500D02*
Y83498D01*
X153747Y77500D01*
Y83498D01*
X155746Y77500D02*
Y81499D01*
X157746Y83498D01*
X159745Y81499D01*
Y77500D01*
Y80499D01*
X155746D01*
X40249Y116248D02*
X39249Y117248D01*
X37250D01*
X36250Y116248D01*
Y112250D01*
X37250Y111250D01*
X39249D01*
X40249Y112250D01*
X46247Y111250D02*
X42248D01*
X46247Y115249D01*
Y116248D01*
X45247Y117248D01*
X43248D01*
X42248Y116248D01*
X58750Y83750D02*
Y89748D01*
X61749D01*
X62749Y88748D01*
Y86749D01*
X61749Y85749D01*
X58750D01*
X60749D02*
X62749Y83750D01*
X67747D02*
Y89748D01*
X64748Y86749D01*
X68747D01*
X36250Y67500D02*
Y73498D01*
X39249D01*
X40249Y72498D01*
Y70499D01*
X39249Y69499D01*
X36250D01*
X38249D02*
X40249Y67500D01*
X42248Y72498D02*
X43248Y73498D01*
X45247D01*
X46247Y72498D01*
Y71499D01*
X45247Y70499D01*
X44247D01*
X45247D01*
X46247Y69499D01*
Y68499D01*
X45247Y67500D01*
X43248D01*
X42248Y68499D01*
X143750Y93498D02*
Y87500D01*
X146749D01*
X147749Y88500D01*
Y92498D01*
X146749Y93498D01*
X143750D01*
X149748D02*
X151747D01*
X150748D01*
Y87500D01*
X149748D01*
X151747D01*
X158745Y92498D02*
X157746Y93498D01*
X155746D01*
X154746Y92498D01*
Y88500D01*
X155746Y87500D01*
X157746D01*
X158745Y88500D01*
Y90499D01*
X156746D01*
X147749Y102498D02*
X146749Y103498D01*
X144750D01*
X143750Y102498D01*
Y98500D01*
X144750Y97500D01*
X146749D01*
X147749Y98500D01*
Y100499D01*
X145749D01*
X149748Y97500D02*
Y103498D01*
X153747Y97500D01*
Y103498D01*
X155746D02*
Y97500D01*
X158745D01*
X159745Y98500D01*
Y102498D01*
X158745Y103498D01*
X155746D01*
X16250Y153750D02*
Y159748D01*
X19249D01*
X20249Y158748D01*
Y156749D01*
X19249Y155749D01*
X16250D01*
X18249D02*
X20249Y153750D01*
X22248D02*
X24247D01*
X23248D01*
Y159748D01*
X22248Y158748D01*
X21499Y16000D02*
Y19998D01*
X20499Y20998D01*
X18500D01*
X17500Y19998D01*
Y16000D01*
X18500Y15000D01*
X20499D01*
X19499Y16999D02*
X21499Y15000D01*
X20499D02*
X21499Y16000D01*
X23498Y15000D02*
X25497D01*
X24498D01*
Y20998D01*
X23498Y19998D01*
X202500Y23498D02*
Y17500D01*
X205499D01*
X206499Y18500D01*
Y22498D01*
X205499Y23498D01*
X202500D01*
X212497Y17500D02*
X208498D01*
X212497Y21499D01*
Y22498D01*
X211497Y23498D01*
X209498D01*
X208498Y22498D01*
X162500Y30998D02*
Y25000D01*
X165499D01*
X166499Y26000D01*
Y29998D01*
X165499Y30998D01*
X162500D01*
X168498Y25000D02*
X170497D01*
X169498D01*
Y30998D01*
X168498Y29998D01*
X18999Y72498D02*
X17999Y73498D01*
X16000D01*
X15000Y72498D01*
Y68500D01*
X16000Y67500D01*
X17999D01*
X18999Y68500D01*
X20998Y72498D02*
X21998Y73498D01*
X23997D01*
X24997Y72498D01*
Y71499D01*
X23997Y70499D01*
X22997D01*
X23997D01*
X24997Y69499D01*
Y68500D01*
X23997Y67500D01*
X21998D01*
X20998Y68500D01*
X61499Y32498D02*
X60499Y33498D01*
X58500D01*
X57500Y32498D01*
Y28500D01*
X58500Y27500D01*
X60499D01*
X61499Y28500D01*
X63498Y27500D02*
X65497D01*
X64498D01*
Y33498D01*
X63498Y32498D01*
X143750Y113498D02*
Y109499D01*
X145749Y107500D01*
X147749Y109499D01*
Y113498D01*
X149748D02*
Y107500D01*
X152747D01*
X153747Y108500D01*
Y112498D01*
X152747Y113498D01*
X149748D01*
X155746D02*
Y107500D01*
X158745D01*
X159745Y108500D01*
Y112498D01*
X158745Y113498D01*
X155746D01*
M02*
